<?xml version="1.0" encoding="utf-8"?>
<!-- Generator: Adobe Illustrator 28.0.0, SVG Export Plug-In . SVG Version: 6.00 Build 0)  -->
<svg version="1.1" xmlns="http://www.w3.org/2000/svg" xmlns:xlink="http://www.w3.org/1999/xlink" x="0px" y="0px"
	 viewBox="0 0 880 880" style="enable-background:new 0 0 880 880;" xml:space="preserve">
<style type="text/css">
	.st0{fill:#F0F0F0;}
	.st1{fill:#333333;}
	.st2{fill:#FFFFFF;}
	.st3{fill:#FF7212;}
	.st4{fill:none;stroke:#000000;stroke-width:0.7765;stroke-miterlimit:10;}
	.st5{fill:none;stroke:#333333;stroke-width:1.1304;stroke-miterlimit:10;}
	.st6{fill:url(#SVGID_1_);}
	.st7{fill:url(#SVGID_00000055701905718992333030000010101082996658489516_);}
	.st8{clip-path:url(#SVGID_00000016781985965732184570000007410018019606865578_);}
	
		.st9{clip-path:url(#SVGID_00000016781985965732184570000007410018019606865578_);fill:url(#SVGID_00000131346980221653124690000015440290391018967710_);}
	.st10{fill:none;stroke:#000000;stroke-miterlimit:10;}
	.st11{opacity:5.000000e-02;}
	.st12{fill:url(#SVGID_00000118387959184535318700000005430657043834748298_);}
	.st13{clip-path:url(#SVGID_00000002346062253830452020000003612021174699955857_);}
	.st14{fill:url(#SVGID_00000101070480377738711790000012469780861278250410_);}
	.st15{fill:url(#SVGID_00000021119576838923824640000006101111203806885254_);}
	.st16{fill:url(#SVGID_00000131331458959001998030000017752438340499083162_);}
	.st17{fill:url(#SVGID_00000117662820837312740770000005163070536237565318_);}
	.st18{fill:url(#SVGID_00000034778498925402979010000003951199761909332379_);}
	.st19{opacity:0.2;clip-path:url(#SVGID_00000065796250224828718650000014316635777727348360_);fill:#333333;}
	.st20{clip-path:url(#SVGID_00000162322666409880019720000017926731902807917492_);}
	.st21{opacity:0.2;clip-path:url(#SVGID_00000162322666409880019720000017926731902807917492_);fill:#333333;}
	.st22{opacity:0.2;clip-path:url(#SVGID_00000038408058940451882990000004532199244253956253_);fill:#333333;}
	.st23{fill:none;stroke:#DCDCDC;stroke-width:16;stroke-miterlimit:10;}
	.st24{fill:#464644;}
	.st25{fill:url(#SVGID_00000056402325492784068440000005010999353233062310_);}
	
		.st26{clip-path:url(#SVGID_00000175324767300188508210000016606779700709961110_);fill:url(#SVGID_00000176025340048348807800000001135820417965734560_);}
	.st27{fill:url(#SVGID_00000129181072067155743140000015155207470340523686_);}
	.st28{fill:url(#SVGID_00000060003287356103771930000000382430967827825804_);}
	.st29{fill:url(#SVGID_00000005986481570821716690000004647970535149734054_);}
	.st30{fill:url(#SVGID_00000052823119126326479250000008591332733910584483_);}
	.st31{fill:#696969;}
	.st32{fill:url(#SVGID_00000070082895859342321880000014814321679151195056_);}
	.st33{opacity:0.3;fill:none;stroke:#FFFFFF;stroke-miterlimit:10;}
	.st34{clip-path:url(#SVGID_00000085938903440671993200000017806267629341547141_);}
	.st35{fill:none;stroke:#333333;stroke-width:2.6428;stroke-linecap:round;stroke-linejoin:round;stroke-miterlimit:10;}
	.st36{fill:none;stroke:#333333;stroke-width:1.6744;stroke-linecap:round;stroke-linejoin:round;stroke-miterlimit:10;}
	.st37{fill:none;stroke:#000000;stroke-width:1.7376;stroke-linecap:round;stroke-linejoin:round;stroke-miterlimit:10;}
	.st38{fill:none;stroke:#000000;stroke-width:1.8972;stroke-linecap:round;stroke-linejoin:round;stroke-miterlimit:10;}
	.st39{fill:none;stroke:#000000;stroke-width:1.6451;stroke-linecap:round;stroke-linejoin:round;stroke-miterlimit:10;}
	.st40{fill:none;stroke:#000000;stroke-width:2.0005;stroke-linecap:round;stroke-linejoin:round;stroke-miterlimit:10;}
	
		.st41{clip-path:url(#SVGID_00000101082446321207014780000008182310297016259758_);fill:url(#SVGID_00000178167857607533775250000005767847432243112353_);}
	
		.st42{clip-path:url(#SVGID_00000101082446321207014780000008182310297016259758_);fill:url(#SVGID_00000139973231696130742570000016475531422727243662_);}
	.st43{fill:url(#SVGID_00000119083911038650904370000000342326300782303370_);}
	.st44{fill:url(#SVGID_00000128480746370135369310000014813435986870129042_);}
	.st45{fill:url(#SVGID_00000069383463135981947170000000582660556197207446_);}
	.st46{fill:url(#SVGID_00000106846637298463071410000001480139059185662624_);}
	.st47{fill:url(#SVGID_00000138557732665766225270000004695396828942696639_);}
	.st48{fill:url(#SVGID_00000129192599049064497630000001272934903717610393_);}
	.st49{fill:url(#SVGID_00000083050598126861780800000015607607347797871550_);}
	.st50{fill:url(#SVGID_00000094585584715922478730000011123861074532780968_);}
	.st51{fill:url(#SVGID_00000135667069621380562000000007368783190331242894_);}
	.st52{fill:#8C8D8C;}
	.st53{fill:url(#SVGID_00000027606140584408720750000006617678501278370971_);}
	.st54{fill:url(#SVGID_00000034073727956004412500000004462315196452860067_);}
	.st55{fill:url(#SVGID_00000088101513201137307650000018420234604928771460_);}
	.st56{fill:url(#SVGID_00000004517428805355356880000007891812249677086115_);}
	.st57{fill:url(#SVGID_00000165939736601045695480000004306492036850951608_);}
	.st58{fill:url(#SVGID_00000055669012490214941350000007562123826411812530_);}
	.st59{fill:url(#SVGID_00000141424323604451420780000018255713319924226461_);}
	.st60{fill:url(#SVGID_00000067217357718149752320000011328582454952789164_);}
	.st61{fill:url(#SVGID_00000049213742599663965900000001240447679355416739_);}
	.st62{fill:url(#SVGID_00000077314123657108353010000017080813506826996115_);}
	.st63{fill:url(#SVGID_00000010307017926473913130000001593121533536446125_);}
	.st64{fill:url(#SVGID_00000134969470795054594880000006044932390634575037_);}
	.st65{fill:url(#SVGID_00000161626677153983420780000003837716258015294647_);}
	.st66{fill:url(#SVGID_00000178192208806301478630000001730462991238877344_);}
	.st67{fill:url(#SVGID_00000115487400746728527100000012852822345167894974_);}
	.st68{fill:url(#SVGID_00000111876944555228773800000009067821659443539356_);}
	.st69{fill:url(#SVGID_00000032626583647191294390000003551113102059718040_);}
	.st70{fill:url(#SVGID_00000170980216370960987880000017925349083718801282_);}
	.st71{fill:url(#SVGID_00000073708267851644427320000006270511077416954298_);}
	.st72{fill:url(#SVGID_00000158714606165472094300000011423117427914871955_);}
	.st73{fill:url(#SVGID_00000151542574638223919930000007397931195125374092_);}
	.st74{fill:url(#SVGID_00000054263284503078719160000012038940105701824652_);}
	.st75{fill:url(#SVGID_00000083055176365094564810000004461672533865048227_);}
	.st76{fill:url(#SVGID_00000060743507076056088450000017235998013797492919_);}
	.st77{fill:url(#SVGID_00000140708012831461033040000015158462090030317445_);}
	.st78{fill:url(#SVGID_00000068676234883909838370000002602745312033266069_);}
	.st79{fill:url(#SVGID_00000136403112271026458610000008667230749299239305_);}
	.st80{fill:url(#SVGID_00000110457804972433606110000006063392043217182870_);}
	.st81{fill:url(#SVGID_00000055706891332005936250000010217432031716711305_);}
	.st82{fill:url(#SVGID_00000183212057905519409850000017377797450380499875_);}
	.st83{fill:url(#SVGID_00000087406978133781408010000013312386161946908053_);}
	.st84{fill:url(#SVGID_00000044873519799430937730000014751220652333932701_);}
	.st85{fill:url(#SVGID_00000080190295548428010310000009440140903580136839_);}
	.st86{fill:url(#SVGID_00000152971364926367606060000013591056506061834895_);}
	.st87{fill:url(#SVGID_00000158729433707053880690000007207899726061850290_);}
	.st88{fill:url(#SVGID_00000010290632748544627570000017454358351268507024_);}
	.st89{fill:url(#SVGID_00000171682737336306683160000007542875349594318234_);}
	.st90{fill:url(#SVGID_00000047018212035244297270000008867242429934445952_);}
	.st91{fill:url(#SVGID_00000183246031830908853250000010651324253955554714_);}
	.st92{fill:url(#SVGID_00000137100109131519699520000004097142125261681296_);}
	.st93{fill:url(#SVGID_00000037688990514309559700000000281298327603648653_);}
	.st94{fill:url(#SVGID_00000083070140569655628730000004574426209008074154_);}
	.st95{fill:url(#SVGID_00000093895821857209597510000010004275224592772480_);}
	.st96{fill:url(#SVGID_00000086669424541660763050000000190523058873655445_);}
	.st97{fill:url(#SVGID_00000061469029515231190860000006817265213795811491_);}
	.st98{fill:url(#SVGID_00000047773173997218386200000011855900207177758888_);}
	.st99{fill:url(#SVGID_00000085970730479168898050000004758888898478239366_);}
	.st100{fill:url(#SVGID_00000051378957599470115150000004060660923632843396_);}
	.st101{fill:url(#SVGID_00000127045613050016028130000008728625388419159714_);}
	.st102{fill:url(#SVGID_00000129908566822725990500000009283733356937776768_);}
	.st103{fill:url(#SVGID_00000039095620387489468450000005089546172992317631_);}
	.st104{fill:url(#SVGID_00000083778068884945493580000006815198874315882654_);}
	.st105{fill:url(#SVGID_00000080202001205871958820000005508440107203425725_);}
	.st106{fill:url(#SVGID_00000142894397422201692020000007235747985869249713_);}
	.st107{fill:url(#SVGID_00000071550385540957558120000001479611522400911528_);}
	.st108{fill:url(#SVGID_00000109750430076602235790000018442259149847924119_);}
	.st109{fill:url(#SVGID_00000044870844657520537190000004157237183547506608_);}
	.st110{fill:url(#SVGID_00000010292048287366807700000010186746579461888140_);}
	.st111{fill:url(#SVGID_00000121257011036343936730000004461295485827251074_);}
	.st112{fill:url(#SVGID_00000042016512930825152160000007780999677576920506_);}
	.st113{fill:url(#SVGID_00000109728583059268230960000003240512946598133941_);}
	.st114{fill:url(#SVGID_00000040550019614996822590000017970825723114290342_);}
	.st115{fill:url(#SVGID_00000030473541509172192100000010880705445063734690_);}
	.st116{fill:url(#SVGID_00000126308772643919557670000007113770578259333017_);}
	.st117{fill:url(#SVGID_00000111161305339474187940000015722544573060154798_);}
	.st118{fill:url(#SVGID_00000067225594299154818410000004226689328610713503_);}
	.st119{fill:url(#SVGID_00000165934733653658961950000007591179959079471242_);}
	.st120{fill:url(#SVGID_00000062887935967668196650000009163176693363223978_);}
	.st121{fill:url(#SVGID_00000057841505163589886190000017966109763596497302_);}
	.st122{fill:url(#SVGID_00000057114224317519724820000017218277478592574130_);}
	.st123{fill:url(#SVGID_00000067946919742968725310000007663761723042955704_);}
	.st124{fill:url(#SVGID_00000134941314435358318240000003512792957601580940_);}
	.st125{fill:url(#SVGID_00000021830648505312001240000000993190354416183739_);}
	.st126{fill:url(#SVGID_00000162332582387282527860000017807825578645189033_);}
	.st127{fill:url(#SVGID_00000011732089509248563750000017933229934253676181_);}
	.st128{fill:url(#SVGID_00000052074983432637946090000006380112059925186708_);}
	.st129{fill:url(#SVGID_00000054232365626844786310000006723549534767993268_);}
	.st130{fill:url(#SVGID_00000171722169227590434390000013523878211116390576_);}
	.st131{fill:url(#SVGID_00000054968521716920810820000009199109784349813144_);}
	.st132{fill:url(#SVGID_00000166674592940444380190000015374318480249779359_);}
	.st133{fill:url(#SVGID_00000028321051769397406490000000913732825734889906_);}
	.st134{fill:url(#SVGID_00000152970061057715375390000011266616061733714568_);}
	.st135{fill:url(#SVGID_00000121971570944957387780000011826683079082521270_);}
	.st136{fill:url(#SVGID_00000034077014106996304250000011866362519524528541_);}
	.st137{fill:url(#SVGID_00000091706987613014834470000003006483023633708969_);}
	.st138{fill:url(#SVGID_00000131354671117803880170000007456855055205658016_);}
	.st139{fill:url(#SVGID_00000103223758001114714770000010397807255364965550_);}
	.st140{fill:url(#SVGID_00000101797617645285157320000008570831489199947174_);}
	.st141{fill:url(#SVGID_00000063597209047502268830000003296866171639889824_);}
	.st142{fill:url(#SVGID_00000158015174792333251570000017442120389105479557_);}
	.st143{fill:url(#SVGID_00000019648029933793720250000001454674299068475828_);}
	.st144{fill:url(#SVGID_00000070099411334216342670000015809163969875415697_);}
	.st145{fill:url(#SVGID_00000015319481644501958660000013887601172815375769_);}
	.st146{fill:url(#SVGID_00000154399680103481315230000010448175722789168565_);}
	.st147{fill:url(#SVGID_00000044881494145413430270000007802669825216904837_);}
	.st148{fill:url(#SVGID_00000017476669533860748490000003933206191958344077_);}
	.st149{fill:url(#SVGID_00000175310661006119374980000004595286366103472797_);}
	.st150{fill:url(#SVGID_00000107584579819461175200000016126726149487483312_);}
	.st151{fill:url(#SVGID_00000120528126562799150340000014281602855024009366_);}
	.st152{fill:url(#SVGID_00000060026356699874320090000005200775715288344250_);}
	.st153{fill:url(#SVGID_00000138543357737408213190000017283093486353504416_);}
	.st154{fill:url(#SVGID_00000154416859032477865430000005033751166970363039_);}
	.st155{fill:url(#SVGID_00000142144127517899691810000009543112324099738777_);}
	.st156{fill:url(#SVGID_00000111174423665155624980000007828821795914098853_);}
	.st157{fill:url(#SVGID_00000116943942723393809490000003950331482027823777_);}
	.st158{fill:url(#SVGID_00000023980508868090258670000012205295064439390632_);}
	.st159{fill:url(#SVGID_00000134960289612601993020000013394219432693904542_);}
	.st160{fill:url(#SVGID_00000172417826937129959940000014919746367703564981_);}
	.st161{fill:url(#SVGID_00000150090528006313732390000018134245388534541219_);}
	.st162{fill:url(#SVGID_00000036219930752958669500000016110103490636617149_);}
	.st163{fill:url(#SVGID_00000059995038722435272490000009321900303506021250_);}
	.st164{fill:url(#SVGID_00000049904744221381292660000003072109598964505528_);}
	.st165{fill:url(#SVGID_00000167357827228195129830000007136678036263807406_);}
	.st166{fill:url(#SVGID_00000035500466250434296800000001276008972387399838_);}
	.st167{fill:url(#SVGID_00000144308936235970662820000015133477866324943805_);}
	.st168{fill:url(#SVGID_00000005245618653946742640000011857208838994700961_);}
	.st169{fill:url(#SVGID_00000015340873166092388080000017035104936644399019_);}
	.st170{fill:url(#SVGID_00000008126315869360339120000004029747421332365185_);}
	.st171{fill:url(#SVGID_00000034047825978448686870000017924970900314525613_);}
	.st172{fill:url(#SVGID_00000015352797298419738740000014485658394806513855_);}
	.st173{fill:url(#SVGID_00000140709043872429545860000014450239671929195171_);}
	.st174{fill:url(#SVGID_00000182517617626473745980000002004011151077490348_);}
	.st175{fill:url(#SVGID_00000178914213616057276040000010669829205669321374_);}
	.st176{fill:url(#SVGID_00000000196443909212509850000000151935371804716219_);}
	.st177{fill:url(#SVGID_00000129906136867818118830000002806612017403066243_);}
	.st178{fill:url(#SVGID_00000085931527317696218510000001661095947454626206_);}
	.st179{fill:url(#SVGID_00000044885890491606491410000006448217410475328934_);}
	.st180{fill:url(#SVGID_00000058564866597315122530000016956106578319823249_);}
	.st181{fill:url(#SVGID_00000142873657852718990800000007154882530369890474_);}
	.st182{fill:url(#SVGID_00000173857784935651361940000002448535662575993782_);}
	.st183{fill:url(#SVGID_00000080922323654910713950000001597003207071668655_);}
	.st184{fill:url(#SVGID_00000154426314118507676170000011710228760454093452_);}
	.st185{fill:url(#SVGID_00000044893448177665837060000017412407082547535008_);}
	.st186{fill:url(#SVGID_00000176735005561461758820000005563398961964171405_);}
	.st187{fill:url(#SVGID_00000124866915118608364000000001891652145998968966_);}
	.st188{fill:url(#SVGID_00000183236552146203041510000011162458218413467537_);}
	.st189{fill:url(#SVGID_00000164495241813746180100000016999856692127668158_);}
	.st190{fill:url(#SVGID_00000041991674018412959830000000248595074497055138_);}
	.st191{fill:url(#SVGID_00000109019153861497220940000005913769737404948357_);}
	.st192{fill:url(#SVGID_00000132065977838864699380000013980154758146616200_);}
	.st193{fill:url(#SVGID_00000053546968074295819150000008525436858882636979_);}
	.st194{fill:url(#SVGID_00000144328490221600122240000015588729003211786373_);}
	.st195{fill:url(#SVGID_00000070081065229566794720000003346398267270913688_);}
	.st196{fill:url(#SVGID_00000079447372866341491710000006759296550021812920_);}
	.st197{fill:url(#SVGID_00000032615665224253171860000010912447973551601820_);}
	.st198{fill:url(#SVGID_00000020393203043968464010000015568549475641636779_);}
	.st199{fill:url(#SVGID_00000150820552133479378420000014063463800409439621_);}
	.st200{fill:url(#SVGID_00000159461972652321856400000016645938212817564034_);}
	.st201{fill:url(#SVGID_00000016790086205585661730000017190838868921545348_);}
	.st202{fill:url(#SVGID_00000114761300566764363220000007001575893292099750_);}
	.st203{fill:url(#SVGID_00000054982428251991545180000006431397080994993801_);}
	.st204{fill:url(#SVGID_00000080908835978998348870000009843152047432088450_);}
	.st205{fill:url(#SVGID_00000142871213152588193400000013809670543155736510_);}
	.st206{fill:url(#SVGID_00000042723388952857573060000003627081671370866105_);}
	.st207{fill:url(#SVGID_00000138548611738473831710000002595926132069835928_);}
	.st208{fill:url(#SVGID_00000029027579068940655930000011472827811367207606_);}
	.st209{fill:url(#SVGID_00000098208396021723004040000016092822446463052944_);}
	.st210{fill:url(#SVGID_00000067956375872653172080000016282824561429581245_);}
	.st211{fill:url(#SVGID_00000096744666635625737610000005076272306603389069_);}
	.st212{fill:url(#SVGID_00000114761403243927232210000013677269990703445889_);}
	.st213{fill:url(#SVGID_00000051367201919018254590000003466586036695715516_);}
	.st214{fill:url(#SVGID_00000054952280652907867630000001644094659336534701_);}
	.st215{fill:none;stroke:#FF7212;stroke-miterlimit:10;}
	.st216{fill:url(#SVGID_00000135683983811085146180000015375121127867672243_);}
	.st217{fill:url(#SVGID_00000173843065974259838710000005150015244616335805_);}
	.st218{fill:url(#SVGID_00000041975441654204087030000017786379976118469805_);}
	.st219{fill:url(#SVGID_00000129921309868809875860000003831562636486268579_);}
	.st220{fill:url(#SVGID_00000001647909258018032920000009319449494983233697_);}
	.st221{fill:none;stroke:#464644;stroke-width:2.1129;stroke-linecap:round;stroke-linejoin:round;stroke-miterlimit:10;}
	.st222{fill:none;stroke:#464644;stroke-width:2.5;stroke-linecap:round;stroke-linejoin:round;stroke-miterlimit:10;}
	.st223{fill:none;stroke:#464644;stroke-width:2;stroke-linecap:round;stroke-linejoin:round;stroke-miterlimit:10;}
	.st224{fill:#464644;stroke:#464644;stroke-width:0.5;stroke-linecap:round;stroke-linejoin:round;stroke-miterlimit:10;}
	.st225{fill:#464644;stroke:#464644;stroke-linecap:round;stroke-linejoin:round;stroke-miterlimit:10;}
	.st226{fill:#464644;stroke:#464644;stroke-miterlimit:10;}
	.st227{clip-path:url(#SVGID_00000059302763678461352190000005757274659822205314_);}
	.st228{fill:none;stroke:#464644;stroke-width:2.54;stroke-linecap:round;stroke-linejoin:round;stroke-miterlimit:10;}
	.st229{fill:url(#SVGID_00000154385874421657974560000013977798659904384672_);}
	.st230{fill:url(#SVGID_00000126285208197858044670000014216406904517911436_);}
	.st231{fill:url(#SVGID_00000156559436581635436140000014584117783579998909_);}
	.st232{fill:url(#SVGID_00000091002353806216793920000009367737285203305363_);}
	.st233{clip-path:url(#SVGID_00000062157353086017431280000001072226538015486592_);}
</style>
<g id="圖層_2">
	<g id="圖層_4">
	</g>
</g>
<g id="圖層_1">
	<g>
		<g>
			
				<linearGradient id="SVGID_1_" gradientUnits="userSpaceOnUse" x1="-2889.9651" y1="6282.0342" x2="-2226.1946" y2="6282.0342" gradientTransform="matrix(0.7071 0.7071 -0.7071 0.7071 6759.5942 -2435.0564)">
				<stop  offset="0" style="stop-color:#FF8634"/>
				<stop  offset="0.218" style="stop-color:#FF8F3C"/>
				<stop  offset="0.5802" style="stop-color:#FFA950"/>
				<stop  offset="1" style="stop-color:#FFCE6E"/>
			</linearGradient>
			<path class="st6" d="M647.2,421.3l-17.5,7c6.5-33.2,5.5-67.7-3.3-100.4c-10-37.5-29.9-71.9-57.5-99.5
				c-6.4-6.4-13.2-12.4-20.2-17.9c37.3-52,32.6-124.8-14.1-171.5C482.7-13,398.5-13,346.6,39c-39.3,39.3-48.8,97.1-28.7,145.4
				c0,0,0,0,0,0c0,0,0,0,0,0c0,0-0.1,0-0.1,0l1.3,2.8c0.1,0.2,0.2,0.5,0.3,0.7c0.3,0.6,0.6,1.2,0.9,1.8c0.3,0.7,0.7,1.5,1,2.2l0,0
				l3.5,7.5c0.1-0.1,0.3-0.1,0.4-0.2c0,0,0,0,0,0c34.2-16,72-22,108.9-18c0.2,0,0.4,0,0.5,0.1c0.8,0.1,1.5,0.2,2.3,0.3
				c0.7,0.1,1.5,0.2,2.2,0.3c0.3,0,0.6,0.1,0.9,0.1c43.4,6,84.8,25.8,117.1,58.1c48,48,69,117.4,56.4,183.8l-11.6-14.2L589.2,420
				l25.9,31.9l38.2-15.2L647.2,421.3z"/>
			
				<linearGradient id="SVGID_00000120547404415025819860000012991055097090052772_" gradientUnits="userSpaceOnUse" x1="-30.9269" y1="4341.2158" x2="632.8433" y2="4341.2158" gradientTransform="matrix(-0.7071 -0.7071 0.7071 -0.7071 -2485.6169 3964.3298)">
				<stop  offset="0" style="stop-color:#FF8634"/>
				<stop  offset="0.218" style="stop-color:#FF8F3C"/>
				<stop  offset="0.5802" style="stop-color:#FFA950"/>
				<stop  offset="1" style="stop-color:#FFCE6E"/>
			</linearGradient>
			<path style="fill:url(#SVGID_00000120547404415025819860000012991055097090052772_);" d="M232.8,458.7l17.5-7
				c-6.5,33.2-5.5,67.7,3.3,100.4c10,37.5,29.9,71.9,57.5,99.5c6.4,6.4,13.2,12.4,20.2,17.9c-37.3,52-32.6,124.8,14.1,171.5
				c51.9,51.9,136.2,51.9,188.1,0c39.3-39.3,48.8-97.1,28.7-145.4c0,0,0,0,0,0c0,0,0,0,0,0c0,0,0.1,0,0.1,0l-1.3-2.8
				c-0.1-0.2-0.2-0.5-0.3-0.7c-0.3-0.6-0.6-1.2-0.9-1.8c-0.3-0.7-0.7-1.5-1-2.2l0,0l-3.5-7.5c-0.1,0.1-0.3,0.1-0.4,0.2c0,0,0,0,0,0
				c-34.2,16-72,22-108.9,18c-0.2,0-0.4,0-0.5-0.1c-0.8-0.1-1.5-0.2-2.3-0.3c-0.7-0.1-1.5-0.2-2.2-0.3c-0.3,0-0.6-0.1-0.9-0.1
				c-43.4-6-84.8-25.8-117.1-58.1c-48-48-69-117.4-56.4-183.8l11.6,14.3l12.9-10.4l-25.9-31.9l-38.2,15.2L232.8,458.7z"/>
			
				<linearGradient id="SVGID_00000129199230780186512290000017301627412988900740_" gradientUnits="userSpaceOnUse" x1="-609.0996" y1="6282.0342" x2="54.671" y2="6282.0342" gradientTransform="matrix(-0.7071 0.7071 -0.7071 -0.7071 4927.8564 5146.7944)">
				<stop  offset="0" style="stop-color:#949494"/>
				<stop  offset="0.253" style="stop-color:#9D9D9D"/>
				<stop  offset="0.6719" style="stop-color:#B7B7B7"/>
				<stop  offset="1" style="stop-color:#CFCFCF"/>
			</linearGradient>
			<path style="fill:url(#SVGID_00000129199230780186512290000017301627412988900740_);" d="M458.7,647.2l-7-17.5
				c33.2,6.5,67.7,5.5,100.4-3.3c37.5-10,71.9-29.9,99.5-57.5c6.4-6.4,12.4-13.2,17.9-20.2c52,37.3,124.8,32.6,171.5-14.1
				c51.9-51.9,51.9-136.2,0-188.1c-39.3-39.3-97.1-48.8-145.4-28.7c0,0,0,0,0,0c0,0,0,0,0,0c0,0,0-0.1,0-0.1l-2.8,1.3
				c-0.2,0.1-0.5,0.2-0.7,0.3c-0.6,0.3-1.2,0.6-1.8,0.9c-0.7,0.3-1.5,0.7-2.2,1l0,0l-7.5,3.5c0.1,0.1,0.1,0.3,0.2,0.4c0,0,0,0,0,0
				c16,34.2,22,72,18,108.9c0,0.2,0,0.4-0.1,0.5c-0.1,0.8-0.2,1.5-0.3,2.3c-0.1,0.7-0.2,1.5-0.3,2.2c0,0.3-0.1,0.6-0.1,0.9
				c-6,43.4-25.8,84.8-58.1,117.1c-48,48-117.4,69-183.8,56.4l14.2-11.6L460,589.2l-31.9,25.9l15.2,38.2L458.7,647.2z"/>
			
				<linearGradient id="SVGID_00000088854754492410743450000013633407211501855912_" gradientUnits="userSpaceOnUse" x1="-2311.7925" y1="4341.2158" x2="-1648.0222" y2="4341.2158" gradientTransform="matrix(0.7071 -0.7071 0.7071 0.7071 -1471.5297 -4098.417)">
				<stop  offset="0" style="stop-color:#949494"/>
				<stop  offset="0.253" style="stop-color:#9D9D9D"/>
				<stop  offset="0.6719" style="stop-color:#B7B7B7"/>
				<stop  offset="1" style="stop-color:#CFCFCF"/>
			</linearGradient>
			<path style="fill:url(#SVGID_00000088854754492410743450000013633407211501855912_);" d="M421.3,232.8l7,17.5
				c-33.2-6.5-67.7-5.5-100.4,3.3c-37.5,10-71.9,29.9-99.5,57.5c-6.4,6.4-12.4,13.2-17.9,20.2c-52-37.3-124.8-32.6-171.5,14.1
				C-13,397.2-13,481.5,39,533.4c39.3,39.3,97.1,48.8,145.4,28.7c0,0,0,0,0,0c0,0,0,0,0,0c0,0,0,0.1,0,0.1l2.8-1.3
				c0.2-0.1,0.5-0.2,0.7-0.3c0.6-0.3,1.2-0.6,1.8-0.9c0.7-0.3,1.5-0.7,2.2-1l0,0l7.5-3.5c-0.1-0.1-0.1-0.3-0.2-0.4c0,0,0,0,0,0
				c-16-34.2-22-72-18-108.9c0-0.2,0-0.4,0.1-0.5c0.1-0.8,0.2-1.5,0.3-2.3c0.1-0.7,0.2-1.5,0.3-2.2c0-0.3,0.1-0.6,0.1-0.9
				c6-43.4,25.8-84.8,58.1-117.1c48-48,117.4-69,183.8-56.4l-14.3,11.6l10.4,12.9l31.9-25.9l-15.2-38.2L421.3,232.8z"/>
		</g>
		<g>
			<g>
				<path class="st24" d="M385.3,472.6c-0.9,1.1-2.3,2.4-3.5,3.2l-0.2,0.2l0.2,0.2c0.4,0.3,1.1,0.8,1.4,1.2l0.1,0.1l0.1-0.1
					c1.3-1,2.8-2.6,3.9-3.9l0.2-0.2l-2.2-0.7L385.3,472.6z"/>
				<path class="st24" d="M382.6,460.7l-2.2-0.5l-0.1,0.2c-0.9,2.9-2.5,5.7-4.1,7.4l-0.1,0.1l0.1,0.1c0.3,0.4,0.8,1.4,1,1.8l0.1,0.3
					l0.2-0.2c0.4-0.4,0.8-1,1.2-1.5v9.5h2.2v-13.1c0.6-1.2,1.1-2.5,1.6-3.7L382.6,460.7z"/>
				<path class="st24" d="M390,468.5h-2.3v2H382v1.9h5.7v5.3h2.3v-5.3h2l-1.7,1l0.2,0.2c1.3,1.1,2.8,2.7,3.5,3.7l0.1,0.2l1.8-1.3
					l-0.1-0.2c-0.8-1-2.3-2.5-3.7-3.5l-0.1-0.1h3.9v-1.9h-6V468.5z"/>
				<path class="st24" d="M394,464h1.6v-1.7H394v-1.9h-2v1.9h-2.8l0-0.1l-1.2-0.4l-0.3,0.1H386c0.2-0.4,0.3-0.7,0.4-1.1l0.1-0.2
					l-2-0.3l0,0.2c-0.3,0.9-1.2,3.2-3.2,5.1l-0.2,0.2l0.2,0.1c0.4,0.2,0.9,0.6,1.2,0.9l0.1,0.2l0.1-0.1c0.4-0.4,0.7-0.7,1-1.1
					c0.5,0.4,1,0.8,1.3,1.1c-0.8,0.9-1.8,1.7-2.9,2.2l-0.3,0.1l0.2,0.2c0.3,0.3,0.8,0.8,1,1.1l0.1,0.1l0.1-0.1
					c2.7-1.3,4.6-3.7,5.6-6.8v0.4h0.5c-0.3,1.3-0.7,2.7-1,3.7l-0.1,0.2l3.7,0v2.1h2V468h2v-1.8h-2V464z M386.1,465.2
					c-0.3-0.3-0.8-0.6-1.3-1c0.1-0.2,0.3-0.4,0.4-0.6h1.6C386.6,464.2,386.3,464.7,386.1,465.2z M392,466.2h-1.3
					c0.1-0.4,0.2-0.8,0.3-1.2c0.1-0.3,0.2-0.7,0.3-1h0.8V466.2z"/>
				<g>
					<path class="st24" d="M414.3,471.5h3.4v-1.9h-3.9v-2h-2.2v2h-3.2v1.9h2.7c-1.1,1.4-2.9,2.7-4.6,3.4l-0.3,0.1l0.3,0.2
						c0.4,0.3,0.9,0.9,1.1,1.2l0.1,0.1l0.2-0.1c1.3-0.7,2.6-1.7,3.7-2.8v4.1h2.2v-4.1c0.9,1.1,2,2.1,3,2.8l0.2,0.1l0.1-0.2
						c0.3-0.4,0.9-1,1.3-1.3l0.2-0.2l-0.3-0.1C417,474,415.4,472.8,414.3,471.5z"/>
					<path class="st24" d="M406.6,474.6l1.8-1.1l-0.2-0.2c-0.5-0.3-2-1.3-3-1.9h2.9v-1.9h-3.2v-1.9h-2.1c1.7-0.8,3.2-1.8,4.5-3v4.1
						h2.3v-4.1c2.2,1.1,5.8,3,7.2,3.8l0.2,0.1l0.8-2l-0.1-0.1c-0.8-0.5-3.7-1.7-5.7-2.6h5.3V462h-7.7v-1.9h-2.3v1.9h-7.6v1.9h5.6
						c-1.7,1.3-4,2.4-6.4,3l-0.3,0.1l0.3,0.2c0.4,0.3,0.9,0.9,1.2,1.4l0.1,0.1l0.1,0c0.9-0.3,1.7-0.6,2.5-1v1.8h-3.3v1.9h3
						c-0.9,1.2-2.3,2.4-3.6,3l-0.2,0.1l0.1,0.2c0.3,0.4,0.6,1.1,0.8,1.6l0.1,0.2l0.2-0.1c1.2-0.7,2.2-1.7,2.9-2.6v3.7h2.2v-4.3
						c0.7,0.5,1.3,0.9,1.6,1.2L406.6,474.6z"/>
				</g>
				<path class="st24" d="M436.8,467.1c0.8-0.9,1.4-2,1.8-3.2h1.4v-1.8h-5.4c0.2-0.4,0.4-0.9,0.5-1.4l0.1-0.2l-2.1-0.5l0,0.2
					c-0.5,1.7-1.4,3.2-2.5,4.2v-1.2h-3.3v-0.4h3.8v-1.7h-3.8v-1.1h-2.1v1.1h-3.9v1.7h3.9v0.4h-3.4v3.7h2.4c-0.9,0.8-2.1,1.5-3.2,1.8
					l-0.3,0.1l0.3,0.2c0.3,0.2,0.8,0.7,1.1,1.1l0.1,0.1l0.1-0.1c0,0,0.1,0,0.1-0.1v1.8h7v3.4h-2.9v-3h-2.2v3H421v1.8h19.1v-1.8h-8.5
					v-0.9h5.7v-1.7h-5.7V472h7.2v-1.7c0.1,0,0.1,0,0.2,0.1l0.1,0l0.1-0.1c0.2-0.4,0.7-1,1-1.3l0.3-0.2l-0.3-0.1
					C438.9,468.3,437.8,467.8,436.8,467.1z M436.4,463.9c-0.3,0.7-0.6,1.3-1.1,1.9c-0.6-0.6-1-1.3-1.4-1.9H436.4z M427.2,464.7h1.4
					v0.8h-1.4V464.7z M423.6,465.5v-0.8h1.5v0.8H423.6z M422.4,470.1c0.9-0.4,1.8-1,2.7-1.8v1.7h2.1V468c0.9,0.5,1.8,1,2.2,1.4
					l0.1,0.1l0.5-0.6l0.2,0.2c0.3,0.2,0.8,0.8,1,1.1H422.4z M430.3,468.7l-0.2,0.1l0.5-0.6l-0.1-0.1c-0.4-0.3-1.1-0.7-1.8-1.1h1.9
					v-1.6c0.3,0.3,0.7,0.7,0.9,0.9l0.1,0.2l0.1-0.1c0.3-0.3,0.6-0.6,0.9-0.9c0.4,0.6,0.8,1.2,1.3,1.8
					C433,467.8,431.8,468.3,430.3,468.7z M432.1,470.1c1.3-0.5,2.4-1,3.3-1.7c0.9,0.7,1.9,1.3,3,1.7H432.1z"/>
				<path class="st24" d="M445.3,477.7h2.3v-0.9h8.6v0.9h2.4v-7.9h-13.4V477.7z M447.6,471.7h8.6v3.1h-8.6V471.7z"/>
				<path class="st24" d="M453.4,461.8c0.2-0.2,0.4-0.5,0.6-0.7l0.1-0.2l-2.1-1l-0.1,0.1c-1.9,2.7-5.6,5.1-9.8,6.6l-0.3,0.1l0.3,0.2
					c0.6,0.5,1.2,1.3,1.4,1.5l0.1,0.1l0.1-0.1c1-0.4,1.9-0.9,2.7-1.3v0.8h10.7V467c1,0.5,2,1,2.9,1.4l0.2,0.1l0.1-0.2
					c0.2-0.5,0.8-1.1,1.3-1.5l0.3-0.2l-0.3-0.1C458.2,465.3,455.6,463.8,453.4,461.8z M448.5,466.2c1.3-0.9,2.5-1.8,3.5-2.8
					c1.2,1.1,2.4,2,3.7,2.8H448.5z"/>
				<path class="st24" d="M471.4,468.4h6.6v7c0,0.1,0,0.2-0.3,0.2c-0.4,0-1.8,0-3.1,0l-0.3,0l0.2,0.3c0.3,0.5,0.5,1.2,0.6,1.7l0,0.2
					h0.2c2,0,3.2,0,4-0.3c1-0.3,1.2-1,1.2-2v-7.1h3v-2.1h-11.9V468.4z"/>
				<rect x="472.2" y="461.2" class="st24" width="10.5" height="2.1"/>
				<path class="st24" d="M465,465.8l0.1,0.2l0.2-0.1c2-1.3,4.1-3.1,5.5-4.8l0.2-0.2l-2.2-0.8l-0.1,0.1c-1,1.3-2.9,3-4.7,4l-0.2,0.1
					l0.2,0.2C464.2,464.8,464.7,465.5,465,465.8z"/>
				<path class="st24" d="M471.7,464.8l-2.2-0.7l-0.1,0.1c-1.3,2-3.5,4.2-5.7,5.6l-0.2,0.1l0.2,0.2c0.4,0.3,1.1,1.1,1.3,1.4l0.1,0.2
					l0.2-0.1c0.6-0.4,1.2-0.9,1.8-1.4v7.6h2.3v-9.9c0.8-0.9,1.6-1.9,2.2-2.8L471.7,464.8z"/>
				<path class="st24" d="M503,460.5l-0.1,0.2c-0.5,1.1-1.3,2.6-1.9,3.5l-0.1,0.2l2,0.7l0.1-0.1c0.8-1,1.6-2.5,2.2-3.5l0.1-0.2
					L503,460.5z"/>
				<path class="st24" d="M500.5,460.1h-2.2v5.2h-3.9v5.6c0,1.6-0.1,3.2-0.6,4.5l-0.1-1.5l-1,0.2l0,0c0.4-0.8,0.8-2.1,1.2-3.3
					l0.1-0.2l-1.9-0.5l0,0.2c-0.2,1-0.6,2.4-0.9,3.3l-0.1,0.2l1.3,0.3l-1.3,0.2v-4.5h2.5V468h-2.5v-1.4h1.7v-1.3
					c0.1,0.1,0.2,0.2,0.2,0.2l0.2,0.2l1.3-1.6l-0.1-0.1c-0.6-0.5-1.7-1.4-3.2-2.6c0-0.1,0.1-0.2,0.1-0.2c0-0.1,0.1-0.2,0.1-0.3
					l0.1-0.2l-2.1-0.6l-0.1,0.1c-0.8,1.7-2.3,3.4-3.9,4.5l-0.2,0.1l0.1,0.2c0.3,0.4,0.8,1.4,0.9,1.7l0.1,0.3l0.5-0.4
					c0.1-0.1,0.2-0.1,0.2-0.2v0.4h1.8v1.4h-3v1.9h3v4.8c-1.2,0.2-2.3,0.4-3.1,0.5l-0.2,0l0.5,2l0.2,0c1.5-0.3,3.4-0.7,5.4-1.1l2-0.4
					c-0.1,0.3-0.3,0.7-0.5,1l-0.1,0.2l0.2,0.1c0.4,0.2,1.2,0.7,1.5,0.9l0.2,0.2l0.1-0.2c0.7-1.1,1.1-2.5,1.3-4.4l0.3,0.8l1-0.2
					c1.4-0.3,2.9-0.6,4.4-1v2.6c0,0.1,0,0.2-0.2,0.2c-0.1,0-0.3,0-0.6,0c-0.6,0-1.2,0-1.8,0l-0.3,0l0.1,0.3c0.2,0.5,0.5,1.2,0.5,1.6
					l0,0.2h0.2c1.6,0,2.6,0,3.3-0.3c0.9-0.3,1-1.1,1-1.8v-10.2h-3.9V460.1z M488.8,464.8c0.4-0.5,0.9-1.1,1.4-1.8
					c0.7,0.6,1.5,1.2,2.1,1.8H488.8z M502.2,471c-2.5,0.5-4.3,0.9-5.7,1.1c0-0.4,0-0.8,0-1.2v-1.5c1.6,0.3,3.5,1,4.5,1.5l0.2,0.1
					l1-1.6V471z M502.2,467.3v2.2l-0.2-0.1c-1-0.5-3-1.1-4.6-1.4l-0.1,0l-0.7,1v-1.7H502.2z"/>
				<path class="st24" d="M495.8,465.1l0.1,0.2l2-0.9l-0.1-0.2c-0.3-1-1.3-2.5-2-3.5l-0.1-0.1l-1.9,0.8l0.2,0.2
					C494.7,462.7,495.5,464.2,495.8,465.1z"/>
				<path class="st24" d="M487,474.5l1.8-0.5l0-0.2c-0.2-0.9-0.5-2.3-0.9-3.4l-0.1-0.2l-1.7,0.4l0.1,0.2c0.4,1.3,0.7,2.6,0.8,3.4
					L487,474.5z"/>
			</g>
			<g>
				<g>
					<path class="st3" d="M411.7,408.9v8.6v17.8c0,2.6-2.1,4.7-4.7,4.7c-2.3,0-4.2-1.7-4.6-3.9h-6.7c0.4,5.9,5.4,10.6,11.4,10.6
						c6.3,0,11.4-5.1,11.4-11.4v-26.4H411.7z"/>
				</g>
				<g>
					<rect x="469.8" y="408.9" class="st3" width="6.7" height="37.8"/>
				</g>
				<polyline class="st3" points="439.3,446.7 431.9,446.7 425.3,408.9 432.8,408.9 439.3,446.7 				"/>
				<polyline class="st3" points="454.2,446.7 446.7,446.7 440.2,408.9 447.7,408.9 454.2,446.7 				"/>
				<polygon class="st3" points="458.9,430.8 455.1,408.9 462.8,408.9 				"/>
			</g>
		</g>
		<g>
			<g>
				<path class="st24" d="M745.8,493.6v5.1h-2.1v-5.1h-4.1v-1.8h4.1v-1.1h-2.6v-5.2h-1.3v1.7l-0.7,0.1c-0.1,1.9-0.3,4.2-1.2,6.5
					c0.7,0.8,1.4,1.5,1.9,2.1l-1.3,1.6c-0.4-0.5-0.9-1.2-1.5-1.9c-0.6,1-1.5,2.1-2.6,3c-0.3-0.4-0.9-1-1.3-1.3c1.2-1,2-2,2.6-3.1
					c-0.8-0.8-1.6-1.6-2.3-2.3c0.3-1.2,0.6-2.6,0.9-4.2l-0.9,0.1l-0.2-1.9l1.4-0.1c0.2-1.3,0.3-2.5,0.4-3.7l1.8,0.1
					c-0.1,1.1-0.2,2.3-0.4,3.5l0.9-0.1v-1.1h1.8v1l0.7,0v-1.7h1.3v-1.9h1.9v1.9h3.2v-1.9h2v1.9h1.4v1.8h-1.4v5.2h-2.4v1.1h3.9v1.8
					H745.8z M736.1,487.5c-0.2,1.3-0.5,2.6-0.7,3.8c0.4,0.3,0.7,0.7,1.1,1.1c0.6-1.7,0.8-3.4,0.8-4.9L736.1,487.5z M743.4,494.5
					c-0.6,1.4-1.6,3-2.6,3.9c-0.3-0.5-0.9-1.1-1.4-1.5c1-0.6,2-1.9,2.5-3L743.4,494.5z M743,485.5v0.9h3.2v-0.9H743z M743,489h3.2
					v-1H743V489z M747.8,494c0.8,1.1,1.8,2.6,2.3,3.5l-1.6,0.7c-0.4-0.9-1.4-2.5-2.2-3.6L747.8,494z"/>
				<path class="st24" d="M760.4,490.4v6.5c0,0.8-0.1,1.2-0.6,1.5c-0.5,0.3-1.1,0.3-2.1,0.3c-0.1-0.5-0.3-1.1-0.5-1.6
					c0.5,0,1,0,1.2,0c0.2,0,0.2-0.1,0.2-0.2v-1.6c-0.6,0.4-1.2,0.8-1.7,1.1l-0.5-1c-0.1,1.2-0.5,2.5-1.1,3.5c-0.3-0.3-1.1-0.8-1.5-1
					c0.9-1.4,1-3.2,1-4.6v-2.8h-0.9v-2.8h0.7v-5.1h5.9v5.1h0.8v2.8H760.4z M759.6,489h-4.1v0.7h4.1V489z M756.2,487.6h0.7v-2.9h1.7
					V484h-2.4V487.6z M756.5,493.2c0,0.5,0,1.1-0.1,1.7c0.6-0.3,1.3-0.6,2.2-1V493l-0.7,0.8c-0.3-0.3-0.9-0.8-1.4-1.2V493.2z
					 M756.5,492.2l0.6-0.6c0.5,0.3,1.1,0.7,1.5,1.1v-1.5h-2.1V492.2z M758.7,487.6v-1.7H758v1.7H758.7z M770.6,496.9v1.5h-9.5v-1.5
					h2.1c-0.1-0.5-0.3-0.9-0.5-1.3l1.1-0.3h-1.9v-3.5h7.8v3.5h-2.1l1.4,0.4c-0.3,0.5-0.5,0.9-0.8,1.3H770.6z M770.4,491.1h-9.2v-1.5
					h9.2V491.1z M770.1,489h-8.6v-5.8h2.1v-1.3h1.7v1.3h0.8v-1.3h1.7v1.3h2.3V489z M763.1,485.4h0.9v-0.8h-0.9V485.4z M763.1,487.6
					h0.9v-0.8h-0.9V487.6z M763.8,493.9h3.9V493h-3.9V493.9z M764.4,495.2c0.2,0.5,0.5,1.2,0.6,1.7h1.5c0.2-0.5,0.5-1.2,0.6-1.7
					H764.4z M766.2,485.4v-0.8h-0.9v0.8H766.2z M765.3,486.7v0.8h0.9v-0.8H765.3z M768.4,484.6h-1v0.8h1V484.6z M768.4,486.7h-1v0.8
					h1V486.7z"/>
				<path class="st24" d="M790.6,496.3v1.9h-15.8v-1.9H790.6z M777.1,487.3H775v-4h6.5c-0.1-0.4-0.3-0.7-0.5-1l2.1-0.6
					c0.3,0.5,0.6,1.1,0.8,1.6h6.4v4h-2.2v-2.1h-11.1V487.3z M777.5,488.8h10.3v6.7h-10.3V488.8z M787.5,486.2v1.7h-9.8v-1.7H787.5z
					 M779.5,491.4h6v-1h-6V491.4z M779.5,493.9h6v-1h-6V493.9z"/>
				<path class="st24" d="M809.3,493.3h2.3v1.6h-2.3v1.9c0,1-0.2,1.4-0.9,1.7c-0.7,0.3-1.6,0.3-2.9,0.3c-0.1-0.5-0.3-1.3-0.6-1.8
					c0.8,0,1.7,0,2,0c0.3,0,0.4-0.1,0.4-0.3v-1.8h-4c0.7,0.6,1.4,1.4,1.8,2l-1.7,1.1c-0.4-0.7-1.3-1.7-2.1-2.5l0.9-0.6h-2.5v-1.6
					h7.6v-0.8c-2.6,0.1-5.2,0.1-7.1,0.2l-0.2-1.6c1.3,0,2.9,0,4.7,0v-0.7h-4v-5h4v-0.7H800v-0.8c-0.4,0.8-0.8,1.7-1.2,2.5v12.4h-2
					v-9.2c-0.4,0.5-0.8,1-1.2,1.4c-0.2-0.5-0.8-1.7-1.1-2.2c1.6-1.6,3.2-4.2,4.1-6.8l2,0.6l-0.2,0.5h4.4V482h2.1v1.1h4.6v1.5h-4.6
					v0.7h4.1v5h-0.8c0.7,0.6,1.3,1.3,1.7,1.9l-1.5,0.8c-0.1-0.2-0.3-0.4-0.4-0.6l-0.5,0V493.3z M802.7,487.3h2v-0.7h-2V487.3z
					 M804.7,489.1v-0.7h-2v0.7H804.7z M806.8,486.5v0.7h2.1v-0.7H806.8z M808.8,488.4h-2.1v0.7h2.1V488.4z M806.8,491l1.7,0
					c-0.2-0.2-0.4-0.4-0.6-0.6l0.1-0.1h-1.2V491z"/>
			</g>
		</g>
		<g>
			<path class="st24" d="M794.4,423.2c3.6-1.8,7.3-3.5,10.9-5.3l2.7-1.3c0.2-0.1,0.7-0.2,0.7-0.4c0-0.1-0.8-0.1-0.5-0.6
				c-0.1,0.1,0,0.4,0,0.5v28.5c0,0.3,0,0.6,0,0.9c0.1,0.2,0.1-0.2,0.2-0.4c0.2-0.3,0.5,0-0.1-0.3c-0.5-0.3-1-0.5-1.5-0.7
				c-4.1-2-8.3-4-12.4-6.1c-0.8-0.4-1.8-0.2-2.2,0.6c-0.4,0.8-0.2,1.8,0.6,2.2c3.9,1.9,7.9,3.8,11.8,5.8c1.7,0.8,3.8,2.4,5.7,1.2
				c0.8-0.5,1.3-1.4,1.2-2.3c0.1-2.5,0-5.1,0-7.7V416c0-0.4,0-0.8-0.1-1.1c-0.3-1-1.1-1.7-2.1-2c-1.2-0.3-2.2,0.4-3.3,0.9
				c-4.4,2.2-8.9,4.3-13.3,6.5c-0.8,0.5-1,1.5-0.6,2.2C792.6,423.4,793.6,423.6,794.4,423.2L794.4,423.2z"/>
			<path class="st24" d="M754.6,390c-3.8,0-7.1,2.4-8.2,6c-1.1,3.4,0,7.2,2.8,9.5c2.9,2.2,6.8,2.4,10,0.7c3.2-1.8,4.5-5.5,4-9
				C762.4,393,758.8,390,754.6,390c-2,0-2,3,0,3.1c2.4,0,4.6,1.5,5.3,3.9c0.7,2.2,0,4.6-1.7,6.2c-0.4,0.2-0.8,0.5-1.2,0.7
				c-1.7,0.7-3.6,0.6-5.3-0.2c-2-1.2-3-3.4-2.7-5.7c0.3-2.8,2.7-4.8,5.5-4.8C756.6,393,756.6,389.9,754.6,390z"/>
			<path class="st24" d="M776.3,390c-3.8,0-7.1,2.4-8.2,6c-1.1,3.4,0,7.2,2.8,9.5c2.9,2.2,6.8,2.4,10,0.7c3.2-1.8,4.5-5.5,4-9
				C784.1,393,780.5,389.9,776.3,390c-2,0-2,3,0,3.1c2.4,0,4.6,1.5,5.3,3.9c0.7,2.2,0,4.6-1.7,6.2c-0.4,0.2-0.8,0.5-1.2,0.7
				c-1.7,0.7-3.6,0.6-5.3-0.2c-2-1.2-3-3.4-2.7-5.7c0.3-2.8,2.7-4.8,5.5-4.8C778.3,393,778.3,389.9,776.3,390z"/>
			<path class="st24" d="M735.7,416v27c0,1.8-0.1,3.6,1,5.2c1.1,1.7,3,2.7,5,2.6c3,0,5.9,0,8.9,0h34.7c2.3,0,4.9,0.4,6.9-0.7
				c1.8-1,2.9-2.9,3-4.9c0.1-2.5,0-5,0-7.6c0-4.5,0-8.9,0-13.4l0-5.4c0-1.5,0.2-3.3-0.3-4.7c-0.9-2.5-3.2-4.1-5.8-4
				c-0.9,0-1.8,0-2.7,0H746c-2.4,0-5.5-0.4-7.6,0.9C736.8,412.1,735.7,414,735.7,416c-0.1,2.1,3.2,2.1,3.3,0
				c0.1-3.1,3.5-2.6,5.6-2.6h38.7c2,0,4-0.1,6,0c1,0,1.9,0.5,2.3,1.4c0.6,1.1,0.3,2.7,0.3,3.9l0,11c0,4.7,0,9.3,0,14
				c0,1.5,0,3.1-1.6,3.8c-0.9,0.2-1.8,0.3-2.7,0.2h-45.3c-1.3,0-2.5-0.2-3.1-1.5c-0.2-0.6-0.3-1.2-0.2-1.8V416
				C739,413.9,735.7,413.9,735.7,416z"/>
			<path class="st24" d="M778.6,463.7c-4-4.8-8-9.5-12-14.3c-0.6-0.6-1.7-0.6-2.3,0c-0.6,0.6-0.6,1.7,0,2.3c4,4.8,8,9.5,12,14.3
				c0.6,0.6,1.7,0.6,2.3,0C779.2,465.4,779.2,464.3,778.6,463.7L778.6,463.7z"/>
			<path class="st24" d="M764.3,449.4c-4,4.8-8,9.5-12,14.3c-0.6,0.7-0.6,1.7,0,2.3c0.6,0.6,1.7,0.6,2.3,0c4-4.8,8-9.5,12-14.3
				c0.6-0.7,0.6-1.7,0-2.3C766,448.8,765,448.8,764.3,449.4L764.3,449.4z"/>
			<path class="st24" d="M767.1,464.8v-14.3c0-2.1-3.3-2.1-3.3,0v14.3C763.8,467,767.1,467,767.1,464.8z"/>
			<g>
				<path class="st24" d="M761.1,439c-0.3,0-0.6-0.1-0.9-0.2c-0.6-0.3-0.9-0.9-0.9-1.6v-13.2c0-0.7,0.3-1.3,0.9-1.6
					c0.6-0.3,1.3-0.3,1.8,0l11.4,6.6c0.6,0.3,0.9,0.9,0.9,1.6c0,0.7-0.3,1.3-0.9,1.6l-11.4,6.6C761.7,438.9,761.4,439,761.1,439z
					 M762.4,426.4v8.2l7.3-4.1L762.4,426.4z"/>
			</g>
		</g>
		<g>
			<g>
				<path class="st24" d="M416.4,833.2c-0.7,0.7-1.6,1.5-2.4,2.1c0.6,1.6,1.4,3,2.5,3.8c-0.5,0.4-1.1,1.2-1.4,1.8
					c-2.3-1.8-3.2-5.1-3.8-9.1c-0.4,0.1-0.8,0.2-1.2,0.3v6.1l2.2-0.9c0,0.6,0.1,1.5,0.2,1.9c-3.3,1.4-3.9,1.7-4.2,2
					c-0.2-0.4-0.7-1.2-1.1-1.5c0.4-0.3,0.8-1,0.8-1.9V831l-0.1,0.1c-0.4-0.4-1.2-1-1.7-1.3c0.2-0.2,0.4-0.4,0.6-0.7h-3.4v1.7h3.3
					c0,0,0,0.6,0,0.8c-0.1,5.7-0.3,7.8-0.8,8.4c-0.3,0.5-0.7,0.7-1.2,0.8c-0.4,0.1-1.1,0.1-1.8,0.1c0-0.6-0.2-1.3-0.5-1.8
					c0.5,0.1,1,0.1,1.3,0.1c0.2,0,0.4-0.1,0.5-0.3c0.3-0.4,0.4-1.9,0.5-6.1h-1.3c-0.1,2.7-0.6,5.7-2.5,8.4c-0.4-0.4-1-0.9-1.5-1.2
					c1.9-2.8,2.1-6,2.1-8.4v-2.4H400v-2h3.1c-0.2-0.7-0.5-1.6-0.8-2.3l1.9-0.6c0.4,0.7,0.8,1.7,0.9,2.4l-1.2,0.4h3.2v1.9
					c1-1.3,1.6-2.9,2-4.7l2.1,0.4c-0.1,0.6-0.3,1.2-0.5,1.8h5.7v1.9h-6.5c-0.4,0.8-0.8,1.5-1.3,2.1c2.2-0.5,4.5-1.2,5.9-1.9l1.6,1.5
					c-0.9,0.4-1.9,0.7-2.9,1c0.1,0.7,0.2,1.4,0.4,2.1c0.5-0.5,1-1,1.4-1.5L416.4,833.2z"/>
				<path class="st24" d="M424.7,832.7c-0.3,1.7-0.7,3.4-1.3,4.8c0.3,0.2,0.7,0.5,1.2,0.7c1.2,0.7,3,0.8,5.1,0.8
					c2.1,0,5.4-0.2,7.4-0.5c-0.2,0.5-0.6,1.5-0.6,2.1c-1.5,0.1-4.7,0.2-6.9,0.2c-2.4,0-4-0.2-5.3-0.9c-0.8-0.4-1.4-1-1.8-1
					c-0.3,0-0.8,1.2-1.2,2.2l-1.4-2c0.6-0.8,1.2-1.4,1.8-1.8c0.4-0.9,0.7-2.1,0.9-3.2h-2c0.4-1.1,0.8-2.5,1.1-3.9h-1.4v-1.9h3.7
					c-0.3,1.3-0.7,2.7-1.1,4h0.6l0.3-0.1L424.7,832.7z M422.1,828c-0.2-0.8-0.6-2.1-0.9-3.1l1.6-0.5c0.3,1,0.7,2.2,0.9,3L422.1,828z
					 M426.1,828.4h-1.5v-1.8h2.3c-0.1-0.6-0.3-1.3-0.5-1.8l1.9-0.3c0.3,0.7,0.5,1.5,0.7,2.1h1.7v1c0.6-1,1.1-2.2,1.4-3.4l1.8,0.5
					c-0.1,0.5-0.3,0.9-0.5,1.4h3.5v1.8h-4.2c-0.2,0.4-0.4,0.7-0.6,1.1h3.4l0.3-0.1l1.1,0.9c-0.6,0.7-1.3,1.5-2,2.1v0.7h2.1v1.7h-2.1
					v2.1c0,0.8-0.1,1.4-0.7,1.6c-0.5,0.3-1.3,0.3-2.3,0.3c-0.1-0.5-0.3-1.3-0.6-1.8c0.7,0,1.3,0,1.5,0c0.2,0,0.3-0.1,0.3-0.2v-2.1
					h-2v-1.7h2v-1.1c0.3-0.3,0.6-0.6,0.9-0.9h-2.5v-1.1c-0.3-0.3-0.9-0.7-1.2-1h-2.4v1.3h2.8v0.7c-0.1,4.8-0.2,6.6-0.6,7.2
					c-0.3,0.4-0.6,0.6-1,0.7c-0.4,0.1-1,0.1-1.6,0.1c0-0.5-0.2-1.2-0.5-1.7c0.5,0.1,0.8,0.1,1.1,0.1c0.2,0,0.3-0.1,0.5-0.2
					c0.2-0.3,0.3-1.6,0.4-5h-1c-0.1,2.2-0.5,4.8-2.2,6.7c-0.3-0.4-0.9-1-1.2-1.2c1.5-1.8,1.7-4.4,1.7-6.3V828.4z"/>
				<path class="st24" d="M457.6,839v1.7h-13.2V839h5.5v-1H446v-1.3c-0.3,0.4-0.7,0.8-1,1.1c-0.1-0.4-0.5-1.3-0.8-1.8
					c-0.2,1.9-0.7,3.9-1.9,5.4c-0.3-0.4-1.2-1.2-1.7-1.4c1.5-1.8,1.6-4.4,1.6-6.2v-3.2h2.4c-0.3-0.3-0.6-0.6-0.9-0.8
					c1.3-0.2,2.7-0.4,4.1-0.8c-1.1-0.3-2.3-0.5-3.4-0.7l1-0.8h-3.1v-1.7h6.3c-0.2-0.3-0.5-0.7-0.7-0.9l1.4-0.7
					c0.4,0.5,0.9,1.1,1.2,1.6h6.2v1.7h-2.6l0.9,0.5c-0.6,0.3-1.4,0.6-2.2,0.9c1.1,0.3,2,0.6,2.8,0.8l-1,0.8h2.6v1.7h-13.1v1.5
					c0,0.6,0,1.2-0.1,1.9c0.9-0.8,1.6-2,2.1-3.2l1.8,0.5c-0.1,0.2-0.2,0.5-0.3,0.7h2.1v-1.1h2.1v1.1h4.4v1.7h-4.4v0.9h3.9v1.6h-3.9
					v1H457.6z M449.8,836.3v-0.9h-2.9c-0.2,0.3-0.4,0.6-0.6,0.9H449.8z M453.5,830.6c-0.9-0.3-2-0.6-3.1-0.9
					c-1.3,0.3-2.6,0.6-3.9,0.9H453.5z M447,827.5c1.1,0.3,2.3,0.5,3.5,0.8c0.9-0.2,1.7-0.5,2.4-0.8H447z"/>
				<path class="st24" d="M468.2,838.4c-1.2,1-3.4,2-5.2,2.4c-0.3-0.5-0.8-1.2-1.3-1.5c1.8-0.3,3.9-0.9,5-1.5L468.2,838.4z
					 M477.7,835.3v1.8h-7v4.1h-2.1v-4.1h-6.9v-1.8h6.9v-0.8h-5.2V833h5.2v-0.8h-6.1v-1.6h3.3c-0.2-0.4-0.4-0.9-0.7-1.3l1.2-0.3h-4.6
					v-1.7h2.4c-0.3-0.7-0.7-1.5-1.2-2.2l1.8-0.6c0.5,0.8,1.1,1.8,1.4,2.5l-0.9,0.3h1.7v-2.9h2v2.9h1.4v-2.9h2v2.9h1.6l-0.6-0.2
					c0.4-0.7,0.9-1.8,1.2-2.6l2.3,0.5c-0.5,0.8-1,1.6-1.4,2.3h2.3v1.7h-4.8l1.7,0.4c-0.4,0.4-0.8,0.8-1.1,1.2h3.5v1.6h-6.2v0.8h5.4
					v1.5h-5.4v0.8H477.7z M467.4,829c0.3,0.5,0.6,1,0.7,1.4l-1,0.2h4.9l-0.6-0.2c0.3-0.4,0.7-1,0.9-1.4H467.4z M473,837.6
					c1.5,0.5,3.6,1.4,4.7,2l-1.5,1.2c-1-0.6-3.2-1.5-4.7-2.2L473,837.6z"/>
			</g>
		</g>
		<g>
			<path class="st221" d="M415.7,751.9l0.3-0.3l-1.4-9.7c3.7-3.2,6.4-6.8,4.5-8.5c-1.8-1.7-5.4,0.6-8.9,3.7l-9.5-2.2l-0.3,0.3
				c-0.6,0.5-0.5,1.4,0.1,1.8l5.9,3.9c-1.9,2.1-3.4,4.1-4.1,5.3l-2.6-0.9c-0.4-0.1-0.9-0.1-1.2,0.3l-0.2,0.2
				c-0.6,0.5-0.5,1.4,0.1,1.9l2.8,2l1.7,3c0.4,0.7,1.3,0.8,1.9,0.3l0.2-0.2c0.3-0.3,0.5-0.8,0.4-1.2l-0.7-2.8
				c1.2-0.6,3.3-1.9,5.6-3.5l3.4,6.3C414.2,752.3,415.1,752.4,415.7,751.9z"/>
			<g>
				<path class="st222" d="M481.4,802.7h-36.5c-1.4,0-2.4-1.1-2.4-2.4v-24.8c0-1.4,1.1-2.4,2.4-2.4h36.5c1.4,0,2.4,1.1,2.4,2.4v24.8
					C483.9,801.6,482.8,802.7,481.4,802.7z"/>
				<path class="st223" d="M472.8,772.9v-6.5c0-1.1-0.9-2-2-2h-15.5c-1.1,0-2,0.9-2,2v6.5"/>
				<path class="st223" d="M456.9,772.4v-3.6c0-0.6,0.5-1.2,1.2-1.2h10.1c0.6,0,1.2,0.5,1.2,1.2v3.6"/>
				<g>
					<g>
						<line class="st223" x1="450.6" y1="772.9" x2="450.6" y2="802.7"/>
						<line class="st223" x1="454.6" y1="772.9" x2="454.6" y2="802.7"/>
					</g>
					<g>
						<line class="st223" x1="471.6" y1="772.9" x2="471.6" y2="802.7"/>
						<line class="st223" x1="475.7" y1="772.9" x2="475.7" y2="802.7"/>
					</g>
				</g>
				<g>
					<g>
						<path class="st24" d="M453.6,803.9v1.4c0,0.6-0.5,1-1,1h-2.8c-0.6,0-1-0.5-1-1v-1.4H453.6 M453.6,801.9h-4.9c-1.1,0-2,0.9-2,2
							v1.4c0,1.7,1.4,3,3,3h2.8c1.7,0,3-1.4,3-3v-1.4C455.6,802.8,454.7,801.9,453.6,801.9L453.6,801.9z"/>
					</g>
					<g>
						<path class="st24" d="M477.5,803.9v1.4c0,0.6-0.5,1-1,1h-2.8c-0.6,0-1-0.5-1-1v-1.4H477.5 M477.5,801.9h-4.9c-1.1,0-2,0.9-2,2
							v1.4c0,1.7,1.4,3,3,3h2.8c1.7,0,3-1.4,3-3v-1.4C479.5,802.8,478.6,801.9,477.5,801.9L477.5,801.9z"/>
					</g>
				</g>
			</g>
			<g id="group_00000132087190666354940520000012257027237823454872_">
				<path class="st221" d="M451.6,735.9c-0.7,0-1.4,0.2-2,0.4c-1.4,0.5-2.6,1.7-2.7,3.2c-0.1,1.6,1,3,2.2,4c1.2,1,2.6,1.9,3.5,3.2
					c1.1,1.7,1.1,3.9,2.2,5.6c0.8,1.4,2.2,2.3,3.5,3.2c2,1.4,8,4,10.9,5"/>
				<path class="st221" d="M396.5,768.1c1.1,0.2,3.1,1.2,3.8,1.7c1.2,0.9,2.2,2.2,3.1,3.4c0.9,1.3,1.5,2.8,2.3,4.1
					c0.3,0.5,0.7,1.1,1.2,1.4c1.5,1.1,3.8,0.1,4.6-1.4c0.9-1.6,0.2-3.6,1.2-5.2c0.4-0.7,1.1-1.1,1.7-1.5c0.7-0.4,1.3-0.9,1.9-1.3
					c1.1-0.8,2.2-1.8,2.8-3.1c0.4-0.9,0.7-2,1-3c0.2-0.8,0.2-2.1,1-2.5c1.2-0.6,2.6,0.2,2.7,1.5c0.1,0.5,0.2,0.9,0.6,1.2
					c0.5,0.4,1.3,0.4,1.8,0c0.9-0.7,1.1-1.8,1.1-2.8c0-0.9,0-1.7,0.2-2.6c0.3-0.9,1-1.7,1.9-2.1c1-0.5,2.2-0.5,3-1.3
					c1.1-1.2,0.4-3.1,0.8-4.7c0.1-0.3,0.3-0.7,0.5-0.9c0.5-0.4,1.1-0.8,1.7-1.1c1.1-0.7,2.4-1.4,3.1-2.6c0.9-1.4,0.7-3.1,0-4.5
					c-0.6-1.3-1.6-2.2-2.9-2.7c-2.8-1-7.3-1.8-11.3-3.1"/>
				<path class="st221" d="M405.6,783c-0.3-0.1-0.5-0.1-0.8,0c-0.2,0-0.4,0.1-0.5,0.3c-0.3,0.3-0.3,0.7-0.3,1.1
					c0.1,0.6,0.4,1.2,0.8,1.8c0.5,0.6,1,1.3,1.6,1.8c0.6,0.5,1.4,1,2.2,1c0.3,0,0.7-0.1,0.9-0.3c0.3-0.3,0.4-0.8,0.3-1.2
					c-0.1-0.4-0.4-0.7-0.6-1c-0.3-0.3-0.6-0.7-0.9-1c-0.6-0.6-1.1-1.4-1.7-1.9C406.2,783.3,405.9,783.1,405.6,783z"/>
				<path class="st222" d="M469.1,760.5c-3.1-16.4-17-29.3-36-29.3c-2.7,0-5.4,0.3-7.9,0.8"/>
				<path class="st222" d="M398.5,755.5c-1.3,3.8-2,7.8-2,12c0,21.9,15.3,37,36.6,37c1.7,0,3.4-0.1,5.1-0.3"/>
				<path class="st221" d="M435.6,769.5c-0.8,0.2-1.7,0.3-2.5,0.4c-0.8,0.1-1.9,0.2-2.4-0.5c-0.4-0.4-0.3-1.1,0-1.6
					c0.5-0.7,1.2-0.9,1.9-1.2c0.8-0.4,1.6-0.7,2.3-1.3c1-0.8,1.7-3.7,3.6-2.5c1,0.6,0.7,1.9,0.4,2.9c-0.3,0.8-0.6,1.7-1,2.4
					C437.2,768.8,436.5,769.2,435.6,769.5z"/>
				<path class="st221" d="M428.5,772.7c0.1-0.4,0.1-1,0.1-1.4c0-0.8-0.6-1.5-1.4-1.6c-0.5-0.1-1.1,0.1-1.5,0.5
					c-0.3,0.5-0.3,1.1-0.2,1.6c0.1,0.5,0.3,1.2,0.8,1.5C427.1,773.9,428.2,773.6,428.5,772.7z"/>
				<path class="st221" d="M426.4,798.9c-3,0-5.6-2.1-5.9-5.3c-0.2-2.1,1.5-3.8,3.4-4.4c0.9-0.3,2-0.3,2.9,0.2
					c1.2,0.6,1.4,1.5,3,1.4c0.5,0,1.2,0,1.7-0.3c0.7-0.4,1.2-1.2,2-1.4c0.5-0.1,1.1,0,1.6,0.2c1,0.5,2,1.3,2.5,2.2
					c0.5,0.9,0.7,2,0.6,3.1c-0.1,0.8-0.4,1.6-0.7,2.4c-0.2,0.7-0.6,1.3-1.1,1.7c-0.6,0.5-1.4,0.7-2.1,0.6c-1,0-1.8-0.3-2.7-0.5
					C429.8,798.6,428.1,798.9,426.4,798.9z"/>
				<path class="st221" d="M417.3,774.6c0.2-0.3,0.4-0.5,0.7-0.5c0.4-0.1,0.9,0.1,1.2,0.4c0.5,0.5,0.7,1.3,0.9,1.9
					c0.2,0.9,0.3,1.8,0.2,2.6c-0.1,0.8-1.1,1.4-1.9,1c-0.8-0.5-1.1-1.8-1.2-2.7c-0.1-0.7-0.2-1.5,0-2.2
					C417.1,774.9,417.2,774.7,417.3,774.6z"/>
				<path class="st221" d="M417.4,784.4c0.1-0.3,0.2-0.6,0.2-1c0-1.6-1.6-1.9-2.9-1.5c-1.1,0.4-2.3,1.1-2.8,2.3
					c-0.4,0.9-0.3,2,0.7,2.5c0.7,0.3,1.5,0.4,2.2,0.2c0.7-0.1,1.3-0.5,1.7-1C416.8,785.5,417.2,785,417.4,784.4z"/>
				<path class="st221" d="M439.4,756.6c-0.4,0.1-0.8,0.3-1.1,0.6c-0.6,0.6-0.9,1.6-0.5,2.4c0.6,1,1.8,1.2,3,1.1
					c0.8-0.1,1.5-0.6,1.5-1.5c0.1-0.6,0-1.2-0.4-1.7c-0.3-0.4-0.6-0.7-1.1-0.9C440.4,756.6,439.8,756.5,439.4,756.6z"/>
			</g>
		</g>
		<g>
			<g>
				<path class="st24" d="M416.6,153.9v1.7h-13.2v-1.7h5.5v-1H405v-1.3c-0.3,0.4-0.7,0.8-1,1.1c-0.1-0.4-0.5-1.3-0.8-1.8
					c-0.2,1.9-0.7,3.9-1.9,5.4c-0.3-0.4-1.2-1.2-1.7-1.4c1.5-1.8,1.6-4.4,1.6-6.2v-3.2h2.4c-0.3-0.3-0.6-0.6-0.9-0.8
					c1.3-0.2,2.7-0.4,4.1-0.8c-1.1-0.3-2.3-0.5-3.4-0.7l1-0.8h-3.1v-1.7h6.3c-0.2-0.3-0.5-0.7-0.7-0.9l1.4-0.7
					c0.4,0.5,0.9,1.1,1.2,1.6h6.2v1.7h-2.6l0.9,0.5c-0.6,0.3-1.4,0.6-2.2,0.9c1.1,0.3,2,0.6,2.8,0.8l-1,0.8h2.6v1.7h-13.1v1.5
					c0,0.6,0,1.2-0.1,1.9c0.9-0.8,1.6-2,2.1-3.2l1.8,0.5c-0.1,0.2-0.2,0.5-0.3,0.7h2.1v-1.1h2.1v1.1h4.4v1.7h-4.4v0.9h3.9v1.6h-3.9
					v1H416.6z M408.8,151.2v-0.9h-2.9c-0.2,0.3-0.4,0.6-0.6,0.9H408.8z M412.5,145.5c-0.9-0.3-2-0.6-3.1-0.9
					c-1.3,0.3-2.6,0.6-3.9,0.9H412.5z M406,142.4c1.1,0.3,2.3,0.5,3.5,0.8c0.9-0.2,1.7-0.5,2.4-0.8H406z"/>
				<path class="st24" d="M427.2,153.3c-1.2,1-3.4,2-5.2,2.4c-0.3-0.5-0.8-1.2-1.3-1.5c1.8-0.3,3.9-0.9,5-1.5L427.2,153.3z
					 M436.7,150.2v1.8h-7v4.1h-2.1V152h-6.9v-1.8h6.9v-0.8h-5.2v-1.5h5.2v-0.8h-6.1v-1.6h3.3c-0.2-0.4-0.4-0.9-0.7-1.3l1.2-0.3h-4.6
					v-1.7h2.4c-0.3-0.7-0.7-1.5-1.2-2.2l1.8-0.6c0.5,0.8,1.1,1.8,1.4,2.5l-0.9,0.3h1.7v-2.9h2v2.9h1.4v-2.9h2v2.9h1.6l-0.6-0.2
					c0.4-0.7,0.9-1.8,1.2-2.6l2.3,0.5c-0.5,0.8-1,1.6-1.4,2.3h2.3v1.7h-4.8l1.7,0.4c-0.4,0.4-0.8,0.8-1.1,1.2h3.5v1.6h-6.2v0.8h5.4
					v1.5h-5.4v0.8H436.7z M426.3,143.9c0.3,0.5,0.6,1,0.7,1.4l-1,0.2h4.9l-0.6-0.2c0.3-0.4,0.7-1,0.9-1.4H426.3z M431.9,152.5
					c1.5,0.5,3.6,1.4,4.7,2l-1.5,1.2c-1-0.6-3.2-1.5-4.7-2.2L431.9,152.5z"/>
				<path class="st24" d="M446.5,141.9v14.2h-1.8V153c-1.3,0.2-2.5,0.5-3.6,0.6l-0.4-1.9l0.9-0.1v-9.8H441v-1.9h6.1v1.9H446.5z
					 M444.8,141.9h-1.4v1.9h1.4V141.9z M444.8,145.5h-1.4v1.9h1.4V145.5z M444.8,151.2v-2h-1.4v2.2L444.8,151.2z M451.4,144.9
					c0.3,0.9,0.7,2.2,0.9,3l-1.3,0.4c-0.1-0.2-0.1-0.5-0.2-0.8c-2.9,0.4-3.4,0.5-3.7,0.6c-0.1-0.4-0.3-1.3-0.4-1.9
					c0.3-0.1,0.6-0.4,1-0.8c0.1-0.1,0.4-0.5,0.8-0.9c-0.8,0.1-1.1,0.2-1.3,0.3c-0.1-0.4-0.3-1.4-0.5-1.9c0.3-0.1,0.5-0.3,0.7-0.6
					c0.3-0.3,1.1-1.6,1.6-2.9l1.5,0.7c-0.6,1.1-1.3,2.3-1.9,3.1l0.8,0c0.3-0.5,0.6-1,0.9-1.6l1.4,0.7c-0.9,1.5-2,3-3,4.1l1.7-0.2
					c-0.1-0.3-0.2-0.6-0.3-0.9L451.4,144.9z M450,148.3h1.8v2.7c0,1.9-0.6,4-3.3,5.2c-0.2-0.4-0.8-1.2-1.1-1.5
					c1.4-0.6,2.1-1.3,2.4-2.1h-2.3v-4.4h1.7v2.6h0.9V148.3z M456.6,148.2c-0.1-0.3-0.1-0.6-0.3-0.9c-2.9,0.5-3.4,0.6-3.7,0.8
					c-0.1-0.4-0.3-1.3-0.4-1.8c0.3-0.1,0.6-0.4,1-0.8c0.2-0.2,0.5-0.6,0.8-1.1c-1.1,0.1-1.4,0.2-1.6,0.3c-0.1-0.4-0.3-1.3-0.5-1.8
					c0.3-0.1,0.5-0.3,0.7-0.6c0.3-0.3,1.1-1.5,1.6-2.8l1.3,0.7c-0.5,1-1.1,2-1.7,2.8l1-0.1c0.3-0.5,0.5-1,0.7-1.5l1.4,0.7
					c-0.8,1.5-1.6,2.9-2.5,4l1.5-0.2c-0.1-0.3-0.2-0.6-0.3-0.9l1.2-0.4c0.4,1,0.9,2.2,1.1,3L456.6,148.2z M455.2,148.4h1.7v4.9h-1.7
					v-0.6h-0.9v3.4h-1.8v-7.8h1.8v2.5h0.9V148.4z"/>
				<path class="st24" d="M478.1,153.8v1.8h-16.7v-1.8h2.1v-4.1h12.7v4.1H478.1z M464.3,148.4h-1.9v-8.4h6.1v7.5h-4.2V148.4z
					 M464.3,141.7v1.3h2.2v-1.3H464.3z M466.5,145.9v-1.3h-2.2v1.3H466.5z M465.4,153.8h1.5v-2.4h-1.5V153.8z M471.4,146.5
					c-0.3,1.2-0.9,2.3-2,3.1c-0.3-0.4-1.1-1.1-1.5-1.3c1.7-1.3,1.9-3.2,1.9-4.8v-3.6h7.1v7.6c0,0.9-0.2,1.4-0.8,1.7
					c-0.6,0.3-1.5,0.3-2.6,0.3c-0.1-0.5-0.5-1.3-0.8-1.7c0.7,0,1.5,0,1.7,0c0.3,0,0.3-0.1,0.3-0.3v-0.8H471.4z M468.9,151.4v2.4h1.6
					v-2.4H468.9z M474.8,145v-1.1h-3.1c0,0.3,0,0.7-0.1,1.1H474.8z M471.8,141.4v1h3.1v-1H471.8z M472.4,151.4v2.4h1.6v-2.4H472.4z"
					/>
			</g>
		</g>
		<g>
			<g>
				<path class="st224" d="M402.9,87.7c1.5,0.5,3.1,1,4.6,1.6c1.6,0.6,3.2,1.3,4.8,2.1c0.2,0.1,0.3,0.2,0.4,0.2
					c0.1,0,0.3,0.1,0.4,0.2c0-0.1,0,0,0,0c0,0.2,0,0.3-0.1,0.4c-0.1,0.3-0.2,0.7-0.3,1c-0.2,0.8,1,1.1,1.2,0.3
					c0.2-0.6,0.4-1.2,0.4-1.9c0-0.5-0.4-0.9-0.8-1.2c-0.7-0.4-1.3-0.7-2-1c-1.9-0.8-3.7-1.6-5.7-2.2c-0.8-0.3-1.7-0.6-2.5-0.9
					C402.5,86.2,402.1,87.4,402.9,87.7L402.9,87.7z"/>
				<path class="st224" d="M418.6,69.5c-2.1,0.3-4,1.1-5.7,2.3c-0.7,0.5-1.4,1.1-2,1.8c-0.5,0.7-1,1.5-1.5,2.3
					c-0.4,0.7,0.7,1.3,1.1,0.6c0.4-0.7,0.8-1.4,1.3-2c0.5-0.6,1.1-1.1,1.8-1.6c1.5-1.1,3.2-1.9,5.1-2.1c0.4,0,0.6-0.3,0.6-0.6
					C419.3,69.7,419,69.5,418.6,69.5L418.6,69.5z"/>
				<path class="st224" d="M410.1,75.6c-0.6-0.7-1.5-1.1-2.4-1c-0.9,0.1-1.6,0.9-1.9,1.7c-0.5,1.5-0.1,3.2,0.9,4.4
					c0.6,0.7,1.3,1.2,2.1,1.6c0.3,0.2,0.7,0.1,0.9-0.2c0.2-0.3,0.1-0.7-0.2-0.9c-1.3-0.6-2.3-1.6-2.5-3c-0.1-0.7-0.1-1.5,0.5-2
					c0.6-0.6,1.4-0.1,1.8,0.4c0.3,0.2,0.7,0.2,0.9,0C410.4,76.2,410.4,75.8,410.1,75.6L410.1,75.6z"/>
				<path class="st224" d="M419.8,76c0.2,0.5,0.1,1.7-0.8,1.9c-1.2,0-1.3-1.4-0.9-2.1C418.3,75.1,419.3,74.9,419.8,76z"/>
				<path class="st224" d="M413.7,90.9c0.2-0.5,0.5-1,0.7-1.5c0.1-0.2,0.1-0.3,0.2-0.5c0,0,0-0.1,0-0.1c0-0.1,0,0.1,0,0.1
					c0,0.2,0.9,0.2,1.1,0.2c0.5,0.1,1,0.1,1.5,0.1c1,0,2-0.2,2.9-0.6c0.9-0.5,1.6-1.2,1.9-2.2c0.4-1,0.7-2.1,0.9-3.2
					c0-0.2,0.1-0.4,0.1-0.7c0.1-0.2,0.2-0.4,0.3-0.6c0.3-0.3,0.6-0.5,0.9-0.8c0.8-0.7,0.7-1.8,0-2.6c-0.3-0.3-0.7-0.5-0.9-0.8
					c-0.2-0.3-0.3-0.6-0.4-0.9c-0.2-0.9-0.3-1.8-0.2-2.7c0-1.2,0.2-2.4,0-3.5c0-0.4-0.3-0.6-0.6-0.6c-0.4,0-0.6,0.3-0.6,0.6
					c0.2,1.9-0.2,3.8,0,5.7c0.1,0.8,0.4,1.7,0.9,2.3c0.3,0.3,0.6,0.5,0.9,0.8c0.1,0.1,0.2,0.3,0.2,0.4c0,0.1,0,0.2-0.1,0.2
					c-0.2,0.2-0.5,0.5-0.8,0.7c-0.4,0.4-0.7,0.9-0.9,1.4c-0.1,0.4-0.1,0.9-0.2,1.3c-0.1,0.5-0.3,1.1-0.4,1.6
					c-0.3,0.9-0.7,1.7-1.5,2.2c-0.7,0.4-1.7,0.5-2.5,0.5c-0.5,0-1,0-1.5-0.1c-0.5-0.1-1-0.3-1.5,0c-0.4,0.2-0.5,0.6-0.6,1
					c-0.2,0.5-0.4,1-0.6,1.6c-0.2,0.3-0.1,0.7,0.2,0.9C413.1,91.3,413.5,91.2,413.7,90.9L413.7,90.9z"/>
				<path class="st224" d="M406.6,80.1c-0.2,0.4-0.4,0.9-0.7,1.2c0,0.1-0.1,0.1-0.1,0.2c0.1-0.1-0.1,0.1-0.1,0.1
					c-0.1,0.1-0.2,0.2-0.3,0.3c-0.2,0.2-0.4,0.4-0.6,0.7c-0.8,0.8-1.7,1.5-2.7,2.1c-0.3,0.2-0.4,0.6-0.2,0.9
					c0.2,0.3,0.6,0.4,0.9,0.2l0,0c1.1-0.6,2.1-1.4,2.9-2.3c0.8-0.8,1.6-1.7,2-2.7c0.2-0.3,0.1-0.7-0.2-0.9
					C407.2,79.7,406.8,79.8,406.6,80.1L406.6,80.1z"/>
				<path class="st224" d="M422,82.8c-0.2,0-0.4,0-0.5,0l0.2,0c-0.4,0-0.7-0.1-1.1-0.3l0.2,0.1c-0.1-0.1-0.3-0.1-0.4-0.2
					c-0.3-0.2-0.7-0.1-0.9,0.2c-0.2,0.3-0.1,0.7,0.2,0.9c0.7,0.4,1.5,0.6,2.3,0.6c0.4,0,0.6-0.3,0.6-0.6
					C422.6,83.1,422.4,82.8,422,82.8L422,82.8z"/>
				<path class="st224" d="M422.3,70.4c-0.4-0.5-1-1-1.6-1.2c-0.1,0-0.2-0.1-0.2-0.1c-0.1,0-0.2,0-0.3,0c-0.2,0-0.3,0.2-0.4,0.3
					c-0.1,0.1-0.1,0.3-0.1,0.5c0,0.2,0.1,0.3,0.3,0.4c0.3,0.1,0.6,0.3,0.8,0.5l-0.1-0.1c0.2,0.2,0.5,0.4,0.6,0.6
					c0.1,0.1,0.3,0.2,0.5,0.2c0.2,0,0.3-0.1,0.5-0.2c0.1-0.1,0.2-0.3,0.2-0.5l0-0.2C422.4,70.5,422.4,70.4,422.3,70.4L422.3,70.4z"
					/>
				<path class="st225" d="M422.5,71.3c0-1.7-0.3-3.4-1.1-5c-0.6-1.1-1.5-2.1-2.4-3c-3.1-2.7-7.4-3.9-11.4-3.3
					c-3.7,0.5-6.9,2.9-8.9,6c-2.5,3.8-3.1,8.5-1.5,12.8c0.6,1.5,1.4,2.9,2.4,4.1c0.6,0.7,1.3,1.4,1.8,2.2c0.3,0.4,0.5,0.8,0.6,1.2
					c0.1,0.3,0.1,0.6,0,1c-0.1,0.4-0.2,0.9-0.3,1.3c-0.2,0.8,1,1.1,1.2,0.3c0.2-0.8,0.5-1.7,0.4-2.5c-0.1-1-0.7-1.8-1.3-2.6
					c-0.5-0.7-1.2-1.3-1.7-2c0.1,0.1-0.1-0.1-0.1-0.1c0-0.1-0.1-0.1-0.1-0.2c-0.1-0.1-0.2-0.3-0.3-0.4c-0.2-0.3-0.4-0.6-0.6-1
					c-2-3.5-2.3-7.7-0.6-11.4c1.5-3.3,4.4-6.3,8-7.2c0.3-0.1,0.6-0.1,1-0.2c0.1,0,0.1,0,0.2,0c0,0,0.2,0,0.1,0c0.1,0,0.3,0,0.4,0
					c0.9-0.1,1.8-0.1,2.7,0c2.1,0.2,4.1,1,5.9,2.2c0.7,0.5,1.3,1,1.9,1.6c0.4,0.4,0.8,0.9,1.1,1.4c0.2,0.3,0.4,0.6,0.5,0.9
					c0.4,0.8,0.6,1.6,0.7,2.5c0.1,0.5,0.1,1,0.1,1.6C421.2,72.2,422.5,72.2,422.5,71.3L422.5,71.3z"/>
				<path class="st225" d="M400.3,89.5c-2.8,2.8-4.7,6.3-5.7,10.1c-1.3,4.8-2.2,9.7-2.8,14.7c-0.3,2.5-0.5,5-0.6,7.5
					c0,0.8,1.3,0.8,1.3,0c0.2-4.5,0.6-8.9,1.4-13.3c0.4-2.5,1-4.9,1.6-7.3c0.5-1.9,1.1-3.8,2-5.6c1-1.9,2.2-3.6,3.7-5.1
					C401.8,89.9,400.9,88.9,400.3,89.5L400.3,89.5z"/>
				<path class="st225" d="M467.4,120.1c-0.3-1-0.6-2.1-0.8-3.2c-0.1-0.7-0.2-1.3-0.3-2c0-0.3-0.1-0.6-0.1-0.9
					c0-0.3-0.1-0.4-0.1-0.7c-0.4-3.1,0.4-6.1,1.4-9c0.6-1.8,1.4-3.6,2.4-5.2l-0.2,0.2c2.1-1.4,4.5-2.2,6.9-2.8
					c0.6-0.2,1.3-0.4,1.9-0.5c0.5-0.2,1.1-0.2,1.6-0.2c1.1,0.2,1.8,1,2.4,1.8c1.4,2,2.3,4.2,2.9,6.6c0.4,1.4,0.8,2.9,1,4.3
					c0.2,1.3,0.4,2.7,0.6,4c0.3,2.6,0.5,5.3,0.8,8c0,0.4,0.3,0.6,0.6,0.6c0.4,0,0.6-0.3,0.6-0.6c-0.2-2-0.3-4.1-0.5-6.1
					c-0.1-1.1-0.3-2.2-0.4-3.2c-0.2-1.2-0.3-2.5-0.6-3.7c-0.5-2.3-1.1-4.6-2-6.8c-0.4-1-0.9-2-1.5-2.9c-0.5-0.8-1.1-1.6-1.7-2.3
					c-0.8-0.8-2-1.1-3.1-1c-1.1,0.1-2.2,0.5-3.3,0.8c-2.1,0.6-4.3,1.3-6.3,2.5c-0.2,0.1-0.4,0.2-0.6,0.4c-0.3,0.2-0.5,0.5-0.6,0.8
					c-0.3,0.5-0.6,1.1-0.8,1.6c-0.5,1-0.9,2-1.2,3c-0.8,2.2-1.4,4.5-1.7,6.8c-0.2,1.6,0,3.1,0.3,4.6c0.2,1.6,0.5,3.2,0.9,4.8
					c0.1,0.3,0.2,0.5,0.2,0.8c0.1,0.3,0.5,0.5,0.8,0.4C467.3,120.8,467.5,120.5,467.4,120.1L467.4,120.1z"/>
				<path class="st224" d="M474.9,93c-1.3,0.4-2.6,0.9-3.9,1.4c-0.3,0.1-0.7,0.3-1,0.4c-0.3,0.2-0.5,0.4-0.7,0.7
					c-0.1,0.3-0.2,0.6-0.3,0.9c-0.1,0.4-0.1,0.8-0.1,1.2c0,0.8,1.3,0.8,1.3,0c0-0.4,0-0.7,0.1-1.1c0-0.1,0-0.1,0-0.2
					c0-0.1,0-0.2,0-0.1c0-0.1-0.1,0.1,0,0c0-0.1,0.1-0.1,0.1-0.2c0-0.1,0,0,0-0.1c0,0,0.1-0.1,0.1-0.1c-0.1,0,0.1,0,0.1,0
					c0,0,0.2-0.1,0.1-0.1c0.3-0.1,0.6-0.2,0.9-0.4c1.2-0.4,2.3-0.9,3.5-1.2c0.3-0.1,0.5-0.4,0.4-0.8C475.6,93.1,475.2,92.9,474.9,93
					L474.9,93z"/>
				<path class="st224" d="M474.8,106.4c0.7,3.6,1.4,7.1,2,10.7c0.2,1.2,0.4,2.3,0.6,3.5c0.1,0.3,0.4,0.5,0.8,0.4
					c0.3-0.1,0.5-0.5,0.5-0.8c-0.6-3.6-1.3-7.1-2-10.7c-0.2-1.2-0.4-2.3-0.7-3.5c-0.1-0.3-0.4-0.5-0.8-0.4
					C474.9,105.7,474.7,106,474.8,106.4L474.8,106.4z"/>
				<path class="st225" d="M451.8,115.4c0.3-1.8,0.6-3.6,0.8-5.4c0.1-0.4,0.1-0.8,0.2-1.2c0-0.2,0-0.4,0.2-0.4
					c0.4,0.1,0.8,0.1,1.1,0.2c2.5,0.5,5.1,1,7.6,1.5c1,0.2,2.1,0.4,3.2,0.5c0.4,0,0.6-0.3,0.6-0.6c0-0.4-0.3-0.6-0.6-0.6
					c-0.2,0,0.1,0-0.1,0c-0.1,0-0.2,0-0.3,0c-0.2,0-0.4-0.1-0.6-0.1c-0.6-0.1-1.1-0.2-1.7-0.3c-1.4-0.3-2.8-0.5-4.1-0.8
					c-1.2-0.2-2.5-0.5-3.7-0.8c-0.4-0.1-0.8-0.2-1.2-0.2c-0.5-0.1-1,0-1.3,0.4c-0.3,0.4-0.3,0.8-0.4,1.2c-0.3,2.1-0.7,4.2-1,6.3
					c-0.1,0.3,0.1,0.7,0.5,0.8C451.4,116,451.7,115.8,451.8,115.4L451.8,115.4z"/>
				<path class="st225" d="M453,118.9c3.1,0.9,6.3,1.4,9.4,2c0.3,0.1,0.7-0.1,0.8-0.4c0.1-0.3-0.1-0.7-0.4-0.8
					c-3.1-0.6-6.3-1.2-9.4-2C452.6,117.5,452.2,118.7,453,118.9L453,118.9z"/>
				<path class="st224" d="M463.2,79.5c-0.2,0.5-0.2,1.7,0.7,1.9c1.2,0.1,1.4-1.4,1-2.1C464.7,78.7,463.7,78.4,463.2,79.5z"/>
				<path class="st224" d="M460.7,87.4c0.8,0,1.6-0.2,2.3-0.5c0.3-0.2,0.4-0.6,0.2-0.9c-0.2-0.3-0.6-0.4-0.9-0.2l0,0
					c-0.1,0.1-0.2,0.1-0.3,0.1l0.2-0.1c-0.3,0.1-0.6,0.2-0.9,0.2l0.2,0c-0.3,0-0.5,0-0.8,0.1c-0.4,0-0.6,0.3-0.6,0.6
					C460,87.1,460.3,87.4,460.7,87.4L460.7,87.4L460.7,87.4z"/>
				<path class="st224" d="M469.7,93.7c-0.2-0.5-0.3-1-0.6-1.4c-0.1-0.3-0.3-0.6-0.4-0.8c-0.4-0.4-0.9-0.4-1.4-0.3
					c-0.4,0.1-0.8,0.1-1.3,0.1c-0.9,0-1.8-0.1-2.7-0.5c-0.7-0.4-1.3-1-1.5-1.7c-0.4-1-0.6-2-0.7-3.1c0-0.5-0.2-1-0.4-1.4
					c-0.3-0.4-0.5-0.7-0.9-1c-0.1-0.1-0.2-0.2-0.3-0.3c0-0.1,0-0.2,0-0.3c0.1-0.3,0.5-0.5,0.8-0.7c0.6-0.5,1.1-1.2,1.3-2
					c0.6-2,0.1-4,0.4-6c0.1-0.3-0.1-0.7-0.5-0.8c-0.3-0.1-0.7,0.1-0.8,0.5c-0.1,0.5-0.1,1-0.1,1.6c0,0.5,0,1.1,0,1.6
					c0,0.8,0,1.6-0.2,2.3c-0.1,0.7-0.3,1.4-0.9,1.8c-0.3,0.3-0.7,0.5-1,0.8c-0.3,0.4-0.4,0.9-0.3,1.4c0.2,0.8,1.1,1.2,1.4,1.9
					c0.2,0.4,0.2,0.8,0.2,1.2c0.1,0.5,0.2,1.1,0.3,1.6c0.3,1,0.7,2.1,1.4,2.9c0.7,0.6,1.5,1,2.3,1.1c1.1,0.3,2.2,0.3,3.3,0.1
					c0.1,0,0.2,0,0.4-0.1c0.2-0.1,0,0,0-0.1c0-0.1,0,0.1,0.1,0.1c0,0.1,0.1,0.1,0.1,0.2c0.2,0.5,0.4,0.9,0.6,1.4
					C468.7,94.8,470,94.5,469.7,93.7L469.7,93.7z"/>
				<path class="st225" d="M461.5,75.8c0.1-1.8,0.6-3.5,1.5-5.1c0.9-1.4,2.1-2.6,3.5-3.5c2.9-1.8,6.7-1.9,9.9-0.9
					c1.6,0.5,3,1.2,4.3,2.2c0.3,0.2,0.7,0.2,0.9,0c0.2-0.3,0.2-0.7,0-0.9c-1.3-1-2.7-1.8-4.2-2.4c-1.9-0.6-3.8-0.9-5.8-0.8
					c-1.8,0.1-3.6,0.6-5.2,1.4c-1.6,0.9-3,2.2-4.1,3.7c-1.3,1.8-1.9,4.1-2,6.3c0,0.4,0.3,0.6,0.6,0.6
					C461.2,76.4,461.5,76.1,461.5,75.8L461.5,75.8z"/>
				<path class="st225" d="M480.7,68.5c1.7,1.4,3.1,3.2,3.6,5.3c0.6,2.5,0.3,5,0.6,7.5c0.1,1.3,0.4,2.6,0.5,3.9
					c0.2,1.1,0.3,2.3,0.1,3.4c-0.5,2.2-2.1,4-4.3,4.7c-1.3,0.4-2.6,0.4-3.9,0.2c-0.6-0.1-1.1-0.3-1.7-0.5c-0.3-0.1-0.5-0.2-0.8-0.3
					c-0.1,0-0.2-0.1-0.3-0.2c-0.1,0-0.1-0.1-0.2-0.1c0,0-0.2-0.1-0.1,0c-0.3-0.2-0.7-0.2-0.9,0c-0.2,0.3-0.2,0.7,0,0.9
					c0.8,0.7,2,1,3,1.2c1.3,0.4,2.7,0.4,4,0.2c2.5-0.4,4.7-2,5.8-4.3c0.6-1.2,0.8-2.5,0.7-3.8c-0.1-1.3-0.3-2.6-0.5-3.9
					c-0.2-1.4-0.3-2.8-0.3-4.1c0-1.4-0.1-2.8-0.3-4.2c-0.4-2.8-1.9-5.2-4.1-6.9c-0.3-0.2-0.7-0.2-0.9,0
					C480.4,67.8,480.4,68.2,480.7,68.5L480.7,68.5z"/>
				<path class="st224" d="M473.6,80.4c0.4-0.5,1.3-0.9,1.8-0.3c0.4,0.5,0.5,1.3,0.3,2c-0.3,1.4-1.3,2.3-2.6,2.9
					c-0.3,0.2-0.4,0.6-0.2,0.9c0.2,0.3,0.6,0.4,0.9,0.2c1.4-0.6,2.5-1.6,3-3.1c0.5-1.5,0.4-3.7-1.3-4.4c-1-0.4-2.1,0.1-2.8,0.8
					c-0.2,0.3-0.2,0.7,0,0.9C473,80.7,473.4,80.7,473.6,80.4z"/>
				<path class="st224" d="M461.4,73.7c1.6,1.5,3.4,2.9,5.2,4c0.9,0.6,1.9,1.1,2.9,1.6c1,0.5,2.1,1.1,3.3,1.2c0.4,0,0.6-0.3,0.6-0.6
					c0-0.4-0.3-0.6-0.6-0.6c-1-0.1-2-0.7-2.9-1.1c-0.9-0.5-1.8-1-2.6-1.5c-1.7-1.1-3.4-2.4-4.9-3.8
					C461.7,72.2,460.8,73.1,461.4,73.7L461.4,73.7z"/>
				<path class="st224" d="M473.9,85.4c0.4,1.3,0.8,2.6,0.8,4c0,0.9-0.1,2-0.8,2.7c-0.6,0.5,0.3,1.5,0.9,0.9c1-0.8,1.2-2.2,1.2-3.4
					c0-1.6-0.4-3-0.8-4.5C474.9,84.2,473.7,84.6,473.9,85.4L473.9,85.4z"/>
				<path class="st224" d="M473.9,85.2c-0.4,0-0.7,0.1-1.1,0.3c-0.3,0.2-0.6,0.5-0.7,0.9c-0.2,0.7-0.1,1.4,0.5,1.9
					c0.6,0.5,1.4,0.6,2.2,0.2c0.8-0.4,1.2-1.5,0.7-2.3c-0.1-0.2-0.2-0.3-0.4-0.5C474.8,85.4,474.3,85.2,473.9,85.2
					c-0.4,0-0.6,0.3-0.6,0.6c0,0.4,0.3,0.6,0.6,0.6c0.1,0,0.2,0,0,0c0,0,0,0,0.1,0c0.1,0,0.1,0,0.2,0c0.1,0,0.1,0.1,0,0
					c0,0,0,0,0.1,0c0.1,0,0.1,0.1,0.2,0.1c-0.2-0.1,0,0,0,0c0,0,0,0,0.1,0.1c0.1,0.1-0.1-0.1,0,0c0,0,0,0.1,0.1,0.1
					c0.1,0.1,0-0.1,0-0.1c0,0,0,0.1,0,0.1c0,0,0,0,0,0.1c0,0.1,0-0.2,0-0.1c0,0,0,0.1,0,0.1c0,0,0,0,0,0.1c0-0.2,0-0.1,0-0.1
					c0,0.1,0,0.1,0,0.2c0,0.1,0.1-0.2,0-0.1c0,0,0,0,0,0.1c0,0-0.1,0.2,0,0.1c0.1-0.1,0,0,0,0c0,0,0,0-0.1,0.1c0.1-0.1,0.1-0.1,0,0
					c0,0-0.1,0-0.1,0.1c0.1-0.1,0.1,0,0,0c0,0,0,0-0.1,0c0,0-0.1,0-0.2,0c0.2-0.1,0.1,0,0,0c0,0-0.1,0-0.1,0c-0.1,0-0.1,0-0.2,0
					c-0.1,0,0.1,0,0.1,0c0,0-0.1,0-0.1,0c-0.1,0-0.1,0-0.2,0c-0.1,0,0.1,0,0.1,0c0,0-0.1,0-0.1-0.1c0,0,0,0,0,0c-0.1,0-0.1-0.1,0,0
					c0,0-0.1-0.1-0.1-0.1c0,0,0,0,0,0c0.1,0.1,0.1,0.1,0,0.1c0,0,0-0.1-0.1-0.1c0.1,0.1,0,0.1,0,0c0,0,0,0,0-0.1c0,0,0-0.1,0-0.1
					c0-0.1,0,0.1,0,0.1c0,0,0-0.1,0-0.2c0,0,0-0.1,0-0.1c0,0.2,0,0.1,0,0.1c0,0,0,0,0-0.1c0-0.1,0.1-0.1,0,0c0,0,0.1-0.1,0.1-0.2
					c0,0,0.1-0.1,0,0.1c0,0,0-0.1,0.1-0.1c0,0,0,0,0.1,0c0.1-0.1-0.1,0.1,0,0c0.1,0,0.1-0.1,0.2-0.1c0.1-0.1-0.1,0-0.1,0
					c0,0,0.1,0,0.1,0c0,0,0,0,0.1,0c0.2,0-0.1,0,0,0c0.1,0,0.1,0,0.2,0c0.4,0,0.6-0.3,0.6-0.6C474.5,85.5,474.2,85.2,473.9,85.2z"/>
				<path class="st224" d="M449.8,108.4c-0.7,0-1.7-0.5-2.4-0.9c-0.5-0.4-1.1-0.5-1.8-0.4c-0.6,0.1-1.2,0.5-1.8,0.8
					c-1,0.6-2.2,1.3-2.6,2.4c-0.3,0.6-0.2,1.2,0.2,1.7c0.4,0.4,1.1,0.5,1.6,0.5c0.5,0,1-0.2,1.4-0.3c0.5-0.2,1-0.4,1.5-0.6
					c0.7-0.4,0.1-1.5-0.6-1.1c-0.7,0.3-1.3,0.6-2.1,0.7c-0.1,0-0.1,0-0.2,0c0.2,0,0,0-0.1,0c-0.2,0-0.4,0-0.5-0.1
					c-0.2-0.1,0-0.5,0.2-0.7c0.3-0.3,0.6-0.6,1-0.9c0.4-0.3,0.7-0.5,1.1-0.7c0.4-0.2,0.9-0.6,1.4-0.5c0.3,0.1,0.6,0.3,0.9,0.5
					c0.8,0.4,1.8,0.9,2.7,0.9C450.7,109.7,450.7,108.4,449.8,108.4L449.8,108.4z"/>
				<path class="st225" d="M401.8,90.2c2.2,0.5,4.5,1.3,6.7,2.3c1.1,0.5,2.3,1.1,3.2,1.9c0.9,0.8,1.7,1.6,2.3,2.6
					c0.8,1.1,1.4,2.3,2,3.6c0.1,0.3,0.5,0.6,0.9,0.5c0.4-0.1,0.6-0.4,0.5-0.8c-0.5-1.2-1.2-2.4-1.9-3.5c-0.7-1.1-1.6-2.1-2.5-2.9
					c-1-0.9-2.2-1.6-3.3-2.1c-1.2-0.5-2.3-1-3.5-1.4c-1.4-0.5-2.8-0.8-4.1-1.2C401.4,89,401.1,90,401.8,90.2L401.8,90.2z"/>
				<path class="st225" d="M416.2,100.7c0.5,1.5,1,3,1.5,4.6c0.2,0.7,0.5,1.4,0.8,2.1c0.3,0.7,0.6,1.5,1,2.1
					c1.4,2.1,4.4,1.6,6.5,1.4c1.5-0.2,2.9-0.4,4.4-0.6c0.8-0.1,1.6-0.2,2.4-0.4c0.4-0.1,0.7-0.1,1.1-0.2l0.5-0.1c0,0,0.3,0,0.2,0
					c0,0,0.1,0,0.1,0c0.1,0,0,0,0,0c0,0,0,0,0,0c0,0,0,0.2,0,0c0,0.1,0.1,0.1,0.1,0.2c0,0.1,0.1,0.2,0.1,0.3c0,0.2,0.1,0.4,0.1,0.5
					l0.5,2.3l0.9,4.3c0.2,0.8,1.4,0.5,1.2-0.3l-0.8-3.7l-0.5-2.5c-0.1-0.4-0.2-0.9-0.3-1.3c-0.2-0.6-0.5-1.1-1.2-1.2
					c-0.3,0-0.7,0-1,0.1c-0.4,0.1-0.8,0.1-1.2,0.2c-1.6,0.3-3.1,0.5-4.7,0.7c-1.3,0.2-2.5,0.3-3.8,0.4c-1,0.1-2.1,0.1-3-0.4
					c-0.6-0.3-0.8-1-1.1-1.6c-0.4-0.8-0.7-1.6-0.9-2.4c-0.6-1.7-1.1-3.4-1.7-5.1c-0.1-0.3-0.5-0.5-0.8-0.5
					C416.3,100,416.1,100.3,416.2,100.7z"/>
				<path class="st225" d="M402.4,106.7c1.1,2.9,2.5,5.7,4.1,8.3c0.8,1.2,1.6,2.5,2.5,3.6c0.8,1.1,1.7,2.1,2.7,2.9
					c2.4,2,5.4,2.5,8.4,2.4c1.4,0,2.8-0.2,4.2-0.5c1.1-0.2,2.3-0.5,3.4-0.8c1.3-0.3,2.6-0.6,3.8-0.9c1.2-0.3,2.4-0.6,3.5-1
					c0.8-0.3,0.4-1.5-0.3-1.2c-1,0.3-2,0.6-3,0.9c-1,0.3-2.1,0.5-3.2,0.7c-2.3,0.6-4.6,1.2-7,1.4c-2.8,0.2-5.8,0.2-8.2-1.4
					c-1.1-0.7-2-1.6-2.7-2.7c-0.8-1-1.6-2.1-2.3-3.2c-1.8-2.8-3.3-5.8-4.6-8.9c-0.1-0.3-0.4-0.5-0.8-0.4
					C402.5,106,402.3,106.3,402.4,106.7L402.4,106.7z"/>
				<path class="st224" d="M437.2,110.2c0.4,0,0.8,0,1.1,0c0.3,0,0.5-0.1,0.8-0.2c0.2-0.1,0.5-0.3,0.7-0.5c0.4-0.2,0.7-0.5,1.1-0.7
					c0.2-0.1,0.3-0.2,0.5-0.3c0.1-0.1,0.3-0.2,0.4-0.2c0.3-0.1,0.5-0.4,0.4-0.8c-0.1-0.3-0.5-0.5-0.8-0.5c-0.4,0.1-0.8,0.3-1.1,0.5
					c-0.4,0.2-0.7,0.4-1.1,0.7c-0.3,0.2-0.5,0.3-0.8,0.5c0,0-0.1,0-0.1,0.1c0,0-0.1,0,0,0c0.1,0-0.1,0-0.1,0c-0.4,0-0.8,0-1.1,0
					c-0.4,0-0.6,0.3-0.6,0.6C436.5,109.9,436.8,110.2,437.2,110.2L437.2,110.2z"/>
				<path class="st224" d="M446.3,113.5c0.7,0.8,1.4,1.6,2.2,2.4c0.8,0.8,1.6,1.5,2.5,2.1c0.3,0.2,0.5,0.4,0.6,0.7
					c0,0.1,0.1,0.3,0,0.5c0,0.1,0,0.2-0.1,0.2c-0.3,0.2-0.6,0.1-1,0c-0.4-0.1-0.9-0.3-1.2-0.6c-0.4-0.3-0.9-0.6-1.3-1
					c-0.4-0.4-0.8-0.8-1.2-1.2c-0.5-0.7-1.6,0-1.1,0.6c0.4,0.5,0.8,1,1.3,1.4c0.4,0.4,0.9,0.8,1.4,1.1c0.5,0.3,1,0.6,1.5,0.8
					c0.5,0.2,1.2,0.4,1.8,0.2c0.5-0.2,1-0.6,1.1-1.1c0.1-0.5,0.1-1-0.1-1.5c-0.2-0.5-0.6-0.9-1.1-1.2c-0.5-0.4-1-0.8-1.5-1.2
					c-1.1-1-2.1-2-3-3.2C446.7,112,445.8,112.9,446.3,113.5L446.3,113.5z"/>
				<path class="st224" d="M443.9,119.7c0.6,0.4,1.1,0.9,1.7,1.2c0.3,0.2,0.7,0.5,1.1,0.7c0.3,0.2,0.6,0.4,1,0.5
					c0.7,0.2,1.4,0.1,1.9-0.2c0.8-0.5,1-1.5,0.6-2.3c-0.2-0.3-0.6-0.4-0.9-0.2c-0.3,0.2-0.4,0.6-0.2,0.9l0,0c0-0.1,0,0.1,0,0
					c0,0,0,0.2,0,0.1c0,0.1,0,0.1-0.1,0.2c0-0.1,0,0.1,0,0.1c0,0-0.1,0.1-0.1,0.1c0,0-0.2,0.1-0.1,0c-0.1,0-0.1,0-0.2,0.1
					c0,0-0.2,0-0.1,0c-0.1,0-0.1,0-0.2,0c-0.1,0-0.1,0-0.2,0c0,0-0.2,0-0.1,0c0.1,0-0.1,0-0.1,0c0,0-0.1,0-0.1,0c-0.1,0,0,0,0,0
					c0,0-0.1-0.1-0.2-0.1c-0.6-0.3-1.1-0.7-1.7-1.1c-0.2-0.2-0.5-0.3-0.7-0.5c-0.1-0.1-0.2-0.1-0.3-0.2c-0.1-0.1-0.2-0.2-0.3-0.2
					c-0.3-0.2-0.7-0.2-0.9,0C443.7,119,443.7,119.4,443.9,119.7L443.9,119.7z"/>
				<path class="st224" d="M442.1,121.6c0.5,0.4,1,0.8,1.6,1.2c0.6,0.3,1.1,0.7,1.8,0.6c0.6,0,1.2-0.2,1.7-0.7
					c0.5-0.5,0.6-1.2,0.4-1.8c-0.1-0.3-0.5-0.5-0.8-0.5c-0.3,0.1-0.5,0.5-0.4,0.8c0,0,0,0.1,0,0.1c0,0,0,0.2,0,0c0,0,0,0.1,0,0.1
					c0,0.1,0,0,0,0.1c0,0,0,0.1,0,0.1c0,0,0,0.1-0.1,0.1c0-0.1,0,0-0.1,0.1c0,0-0.1,0.1-0.1,0.1c0,0-0.1,0.1-0.1,0.1
					c0,0-0.2,0.1-0.1,0.1c0.1,0-0.1,0-0.1,0c-0.1,0-0.1,0-0.2,0c-0.2,0-0.3,0-0.5,0c-0.1,0-0.2,0-0.3-0.1c0.1,0,0,0,0,0
					c-0.1,0-0.1-0.1-0.2-0.1c-0.2-0.1-0.4-0.3-0.6-0.4c-0.4-0.2-0.8-0.5-1.1-0.8c-0.3-0.2-0.7-0.2-0.9,0
					C441.8,120.9,441.8,121.3,442.1,121.6L442.1,121.6z"/>
				<path class="st224" d="M437.2,116.5c-0.6,0.2-1.1,0.8-1.2,1.5c-0.1,0.7,0.1,1.4,0.7,1.8c0.4,0.2,0.9,0.3,1.3,0.2
					c0.5,0,1-0.2,1.5-0.4c0.4-0.2,0.8-0.6,0.9-1c0.1-0.5,0.1-1-0.2-1.4c-0.3-0.5-0.8-0.8-1.4-0.8
					C438.3,116.3,437.8,116.3,437.2,116.5c-0.3,0.1-0.5,0.5-0.4,0.8c0.1,0.3,0.5,0.5,0.8,0.4l0,0c0.1,0,0.2-0.1,0.3-0.1
					c0,0,0.1,0,0.1,0c-0.2,0,0,0,0,0c0.2,0,0.4,0,0.6,0c0,0,0.1,0,0.1,0c0,0,0.2,0,0.1,0c-0.1,0,0,0,0.1,0c0,0,0.1,0,0.1,0
					c0.1,0-0.1-0.1,0,0c0,0,0.1,0,0.1,0.1l0,0c0.1,0,0,0,0,0c0,0,0.1,0.1,0.1,0.1c0,0,0,0.1,0.1,0.1l-0.1-0.1c0,0,0,0,0,0.1
					c0,0,0,0.1,0.1,0.1c0.1,0.1,0-0.1,0,0c0,0.1,0,0.1,0,0.2l0-0.1c0,0,0,0.1,0,0.1c0,0,0,0,0,0.1c0,0.1,0,0,0-0.1
					c0,0.1,0,0.1,0,0.2c0-0.2,0-0.1,0,0c0,0,0,0.1-0.1,0.1l0.1-0.1c0,0,0,0,0,0.1c0,0-0.1,0.1-0.1,0.1c-0.1,0.1,0,0,0,0
					c0,0-0.1,0.1-0.1,0.1c0,0-0.1,0-0.1,0.1l0.1,0c0,0-0.1,0-0.1,0c-0.1,0-0.1,0-0.2,0.1c-0.1,0-0.2,0-0.3,0.1c0,0-0.1,0-0.1,0
					c0,0-0.2,0.1-0.1,0c-0.2,0-0.3,0-0.5,0c0,0-0.1,0-0.1,0c0.2,0,0,0,0,0c-0.1,0-0.1,0-0.2,0c-0.1,0,0.2,0.1,0.1,0c0,0,0,0-0.1,0
					c0,0-0.1,0-0.1,0c0,0,0.1,0.1,0.1,0.1c0,0-0.1-0.1-0.1-0.1c0.1,0.1,0.1,0.1,0,0.1c0,0,0-0.1,0-0.1c0,0,0-0.1,0,0.1
					c0,0,0,0,0-0.1c0,0,0,0,0-0.1c0-0.1,0-0.1,0,0.1c0-0.1,0-0.2,0-0.3c0,0.2,0,0.1,0,0.1c0,0,0-0.1,0-0.1c0,0,0-0.1,0-0.1
					c0-0.1-0.1,0.2,0,0.1c0,0,0-0.1,0-0.1c0,0,0.1-0.1,0.1-0.1c0,0,0,0,0-0.1c-0.1,0.2-0.1,0.1,0,0c0,0,0.1-0.1,0.1-0.1
					c0.1-0.1,0.1,0-0.1,0c0,0,0.1,0,0.1-0.1c0,0,0,0,0.1,0c0.1-0.1-0.2,0.1,0,0c0.3-0.1,0.5-0.5,0.4-0.8
					C437.9,116.6,437.6,116.4,437.2,116.5L437.2,116.5z"/>
				<path class="st224" d="M438.7,118.6c-0.6,0.2-1.1,0.8-1.2,1.5c-0.1,0.7,0.1,1.4,0.7,1.8c0.4,0.2,0.9,0.3,1.3,0.2
					c0.5,0,1-0.2,1.5-0.4c0.4-0.2,0.8-0.6,0.9-1c0.1-0.5,0.1-1-0.2-1.4c-0.3-0.5-0.8-0.8-1.4-0.8
					C439.8,118.4,439.3,118.5,438.7,118.6c-0.3,0.1-0.5,0.5-0.4,0.8c0.1,0.3,0.5,0.5,0.8,0.4c0.1,0,0.2-0.1,0.3-0.1c0,0,0.1,0,0.1,0
					c-0.2,0,0,0,0,0c0.2,0,0.4,0,0.6,0c0,0,0.1,0,0.1,0c0,0,0.2,0,0.1,0c-0.1,0,0,0,0.1,0c0,0,0.1,0,0.1,0c0.1,0-0.1-0.1,0,0
					c0,0,0.1,0,0.1,0.1l0,0c0.1,0,0,0,0,0c0,0,0.1,0.1,0.1,0.1c0,0,0,0.1,0.1,0.1l-0.1-0.1c0,0,0,0,0,0.1c0,0,0,0.1,0.1,0.1
					c0.1,0.1,0-0.1,0,0c0,0.1,0,0.1,0,0.2l0-0.1c0,0,0,0,0,0.1c0,0,0,0,0,0.1c0,0.1,0,0.1,0-0.1c0,0.1,0,0.1,0,0.2c0-0.2,0-0.1,0,0
					c0,0,0,0.1-0.1,0.1l0.1-0.1c0,0,0,0,0,0.1c0,0-0.1,0.1-0.1,0.1c-0.1,0.1,0,0,0,0c0,0-0.1,0.1-0.1,0.1c0,0-0.1,0-0.1,0.1l0.1,0
					c0,0-0.1,0-0.1,0c-0.1,0-0.1,0-0.2,0.1c-0.1,0-0.2,0-0.3,0.1c0,0-0.1,0-0.1,0c0,0-0.2,0.1-0.1,0c-0.2,0-0.3,0-0.5,0
					c0,0-0.1,0-0.1,0c0.2,0,0,0,0,0c-0.1,0-0.1,0-0.2,0c-0.1,0,0.2,0.1,0.1,0c0,0,0,0-0.1,0c0,0-0.1,0-0.1,0c0,0,0.1,0.1,0.1,0.1
					c0,0-0.1-0.1-0.1-0.1c0.1,0.1,0.1,0.1,0,0.1c0,0,0-0.1,0-0.1c0,0,0-0.1,0,0.1c0,0,0,0,0-0.1c0,0,0,0,0-0.1c0-0.1,0-0.1,0,0.1
					c0-0.1,0-0.2,0-0.3c0,0.2,0,0.1,0,0.1c0,0,0-0.1,0-0.1c0,0,0-0.1,0-0.1c0-0.1-0.1,0.2,0,0.1c0,0,0-0.1,0-0.1
					c0,0,0.1-0.1,0.1-0.1c0,0,0,0,0-0.1c-0.1,0.2-0.1,0.1,0,0c0,0,0.1-0.1,0.1-0.1c0.1-0.1,0.1,0-0.1,0c0,0,0.1,0,0.1-0.1
					c0,0,0,0,0.1,0c0.1-0.1-0.2,0.1,0,0c0.3-0.1,0.5-0.5,0.4-0.8C439.4,118.7,439.1,118.5,438.7,118.6L438.7,118.6z"/>
				<path class="st224" d="M440.6,120.6c-0.6,0.2-1.1,0.8-1.2,1.5c-0.1,0.7,0.1,1.4,0.7,1.8c0.4,0.2,0.9,0.3,1.3,0.2
					c0.5,0,1-0.2,1.5-0.4c0.4-0.2,0.8-0.6,0.9-1c0.1-0.5,0.1-1-0.2-1.4c-0.3-0.5-0.8-0.8-1.4-0.8
					C441.7,120.3,441.1,120.4,440.6,120.6c-0.3,0.1-0.5,0.5-0.4,0.8c0.1,0.3,0.5,0.5,0.8,0.4l0,0c0.1,0,0.2-0.1,0.3-0.1
					c0,0,0.1,0,0.1,0c-0.2,0,0,0,0,0c0.2,0,0.4,0,0.6,0c0,0,0.1,0,0.1,0c0,0,0.2,0,0.1,0c-0.1,0,0,0,0.1,0c0,0,0.1,0,0.1,0
					c0.1,0-0.1-0.1,0,0c0,0,0.1,0,0.1,0.1l0,0c0.1,0,0,0,0,0c0,0,0.1,0.1,0.1,0.1c0,0,0,0.1,0.1,0.1l-0.1-0.1c0,0,0,0,0,0.1
					c0,0,0,0.1,0.1,0.1c0.1,0.1,0-0.1,0,0c0,0.1,0,0.1,0,0.2l0-0.1c0,0,0,0,0,0.1c0,0,0,0,0,0.1c0,0.1,0,0,0-0.1c0,0.1,0,0.1,0,0.2
					c0-0.2,0-0.1,0,0c0,0,0,0.1-0.1,0.1l0.1-0.1c0,0,0,0,0,0.1c0,0-0.1,0.1-0.1,0.1c-0.1,0.1,0,0,0,0c0,0-0.1,0.1-0.1,0.1
					c0,0-0.1,0-0.1,0.1l0.1,0c0,0-0.1,0-0.1,0c-0.1,0-0.1,0-0.2,0.1c-0.1,0-0.2,0-0.3,0.1c0,0-0.1,0-0.1,0c0,0-0.2,0.1-0.1,0
					c-0.2,0-0.3,0-0.5,0c0,0-0.1,0-0.1,0c0.2,0,0,0,0,0c-0.1,0-0.1,0-0.2,0c-0.1,0,0.2,0.1,0.1,0c0,0,0,0-0.1,0c0,0-0.1,0-0.1,0
					c0,0,0.1,0.1,0.1,0.1c0,0-0.1-0.1-0.1-0.1c0.1,0.1,0.1,0.1,0,0.1c0,0,0-0.1,0-0.1c0,0,0-0.1,0,0.1c0,0,0,0,0-0.1c0,0,0,0,0-0.1
					c0-0.1,0-0.1,0,0.1c0-0.1,0-0.2,0-0.3c0,0.2,0,0.1,0,0.1c0,0,0-0.1,0-0.1c0-0.1,0-0.1,0-0.1c0-0.1-0.1,0.2,0,0.1
					c0,0,0-0.1,0-0.1c0,0,0-0.1,0.1-0.1c0,0,0,0,0-0.1c-0.1,0.2-0.1,0.1,0,0c0,0,0.1-0.1,0.1-0.1c0.1-0.1,0.1,0-0.1,0
					c0,0,0.1,0,0.1-0.1c0,0,0,0,0.1,0c0.1-0.1-0.2,0.1,0,0c0.3-0.1,0.5-0.5,0.4-0.8C441.3,120.7,440.9,120.5,440.6,120.6
					L440.6,120.6z"/>
				<path class="st224" d="M443,98.2v3.1c0,0.5,0.4,0.9,0.9,0.9c0.5,0,0.9-0.4,0.9-0.9v-3.1c0-0.5-0.4-0.9-0.9-0.9
					C443.4,97.3,443,97.7,443,98.2z"/>
				<path class="st224" d="M437.4,100l1.1,2.9c0.1,0.2,0.2,0.4,0.4,0.6c0.4,0.3,1,0.1,1.3-0.3v0c0.1-0.2,0.2-0.5,0.1-0.7l-1.1-2.9
					c-0.1-0.2-0.2-0.4-0.4-0.6c-0.2-0.1-0.5-0.2-0.7-0.1c-0.2,0.1-0.4,0.2-0.6,0.4C437.4,99.5,437.3,99.7,437.4,100L437.4,100z"/>
				<path class="st224" d="M448.9,99.3l-1.3,2.8c-0.1,0.2-0.2,0.5-0.1,0.7c0.1,0.5,0.6,0.8,1.1,0.6l0,0c0.2-0.1,0.4-0.2,0.6-0.4
					l1.3-2.8c0.1-0.2,0.2-0.5,0.1-0.7c-0.1-0.2-0.2-0.4-0.4-0.6c-0.2-0.1-0.5-0.2-0.7-0.1C449.2,98.9,449,99.1,448.9,99.3
					L448.9,99.3z"/>
			</g>
			<g>
				<path class="st226" d="M436.4,49.2c-0.4-1.7,0-3.5,1.3-4.6c1.4-1.1,3.2-1.2,4.7-0.4c0.8,0.5,1.5,1.2,1.9,2.1
					c0.2,0.3,0.5,0.4,0.8,0.2c1.2-0.7,2.7-0.6,3.8,0.1c1,0.6,1.5,1.7,1.5,2.9c0,0.3,0.3,0.6,0.6,0.6c1.5-0.2,3,0.5,3.7,1.9
					c0.6,1.3,0.4,2.8-0.5,3.9c-0.8,0.9-1.9,1.1-3.1,1.1h-13.8c-0.9,0-1.9,0.1-2.7-0.3c-1.5-0.6-2.1-2.2-1.9-3.7
					c0.2-1.6,1.6-2.8,3.2-2.9c0.8-0.1,0.8-1.2,0-1.2c-1.8,0.1-3.4,1.2-4.1,2.8c-0.6,1.6-0.4,3.4,0.6,4.8c1,1.3,2.4,1.7,3.9,1.7H451
					c1.4,0,2.7-0.2,3.8-1.3c1.2-1.2,1.7-3,1.2-4.7c-0.5-1.7-1.8-2.9-3.5-3.3c-0.5-0.1-1-0.1-1.5-0.1l0.6,0.6c0.1-1.6-0.7-3.1-2-3.9
					c-1.5-0.9-3.5-1-5-0.1l0.8,0.2c-1.3-2.7-4.5-3.9-7.2-2.6c-1.2,0.6-2.2,1.6-2.7,2.8c-0.5,1.2-0.5,2.5-0.2,3.7
					C435.4,50.3,436.6,50,436.4,49.2z"/>
				<path class="st226" d="M427.3,53.2c-3.1,2.3-4.7,3.3-7.8,5.6c-0.6,0.4,0.1,1.3,0.7,0.9c3.1-2.3,4.7-3.3,7.8-5.6
					C428.5,53.7,427.9,52.8,427.3,53.2z"/>
				<path class="st226" d="M458.5,54.1c3.1,2.3,4.7,3.3,7.8,5.6c0.6,0.4,1.3-0.5,0.7-0.9c-3.1-2.3-4.7-3.3-7.8-5.6
					C458.6,52.8,457.9,53.7,458.5,54.1z"/>
			</g>
			<g>
				<path class="st223" d="M447.1,33.7c-1.6,0.8-2.6,2.4-2.8,4.3c1.6,0.8,3.5,0.9,5.1,0.1c1.6-0.8,2.6-2.4,2.8-4.3
					C450.6,32.9,448.7,32.8,447.1,33.7z"/>
				<path class="st223" d="M442.2,34.7c1.2,0.6,2,1.9,2.2,3.3c-1.3,0.6-2.7,0.7-3.9,0.1c-1.2-0.6-2-1.9-2.2-3.3
					C439.5,34.1,440.9,34,442.2,34.7z"/>
				<line class="st223" x1="444.3" y1="38" x2="444.3" y2="44.9"/>
			</g>
		</g>
		<g>
			<g>
				<path class="st24" d="M67.8,496.8c0.3,0,0.3-0.2,0.3-2.3c0.3,0.3,1,0.6,1.5,0.7c-0.2,2.6-0.6,3.3-1.6,3.3h-0.9
					c-1.3,0-1.6-0.5-1.6-2.1v-3.5h-0.7c-0.2,2.6-0.8,4.6-3.1,5.9c-0.1-0.3-0.3-0.6-0.6-0.9v0.1h-5.4v0.8h-1.5v-5.6
					c-0.2,0.3-0.4,0.6-0.6,0.8c-0.1-0.3-0.6-1.1-0.8-1.5c0.8-0.9,1.6-2.2,2.2-3.5h-1.5v-3.4h3.5v3.4h-1.5l0.8,0.3
					c-0.1,0.3-0.3,0.6-0.4,0.9h1.5c-0.1-0.3-0.2-0.6-0.4-0.8l1.1-0.4h-0.5v-3.4h3.5v3.4h-2.7c0.2,0.4,0.5,0.8,0.6,1.2h2.2v1.4H59
					v0.7h1.9v1.3H59v0.8h2v1.3h-2v0.8h2.1v0.3c1.4-1,1.7-2.3,1.9-4h-1.2v-10.4h6.9v10.4h-1.5v3.5c0,0.4,0,0.5,0.2,0.5H67.8z
					 M55.1,484.3h-2.3v-1.5h2.3v-0.9h1.6v3.3h-1.6V484.3z M54.6,487.9h1.1v-1.3h-1.1V487.9z M57.3,491.6h-1.6v0.7h1.6V491.6z
					 M57.3,493.6h-1.6v0.8h1.6V493.6z M55.7,496.5h1.6v-0.8h-1.6V496.5z M59.5,485.2h-1.7v-3.3h1.7v0.9h2v1.5h-2V485.2z M58.7,487.9
					h1.1v-1.2h-1.1V487.9z M63.6,485.4h3.2v-1.1h-3.2V485.4z M63.6,488.2h3.2v-1.1h-3.2V488.2z M63.6,490.9h3.2v-1.1h-3.2V490.9z"/>
				<path class="st24" d="M87.4,496.3c0.5,0,0.6-0.3,0.7-1.7c0.5,0.3,1.4,0.7,2,0.8c-0.3,2.3-0.8,2.9-2.4,2.9h-2.3
					c-2.1,0-2.6-0.7-2.6-2.8v-5.2h-2.4c-0.4,3.7-1.2,6.7-5.8,8.4c-0.3-0.6-0.8-1.4-1.3-1.9c4-1.3,4.6-3.6,4.8-6.5h-4.4v-2.1h6.8
					v-6.5h2.3v6.5h6.8v2.1H85v5.2c0,0.6,0.1,0.7,0.7,0.7H87.4z M77.5,487.7c-0.5-1-1.6-2.6-2.6-3.8l1.7-1c1,1.1,2.2,2.6,2.7,3.7
					L77.5,487.7z M89,483.8c-0.9,1.4-2.1,2.9-3,3.8l-1.9-0.8c0.9-1,2-2.6,2.6-3.9L89,483.8z"/>
				<path class="st24" d="M110.5,490.7c-0.7,0.7-1.6,1.5-2.4,2.1c0.6,1.6,1.4,3,2.5,3.8c-0.5,0.4-1.1,1.2-1.4,1.8
					c-2.3-1.8-3.2-5.1-3.8-9.1c-0.4,0.1-0.8,0.2-1.2,0.3v6.1l2.2-0.9c0,0.6,0.1,1.5,0.2,1.9c-3.3,1.4-3.9,1.7-4.2,2
					c-0.2-0.4-0.7-1.2-1.1-1.5c0.4-0.3,0.8-1,0.8-1.9v-6.6l-0.1,0.1c-0.4-0.4-1.2-1-1.7-1.3c0.2-0.2,0.4-0.4,0.6-0.7h-3.4v1.7h3.3
					c0,0,0,0.6,0,0.8c-0.1,5.7-0.3,7.8-0.8,8.4c-0.3,0.5-0.7,0.7-1.2,0.8c-0.4,0.1-1.1,0.1-1.8,0.1c0-0.6-0.2-1.3-0.5-1.8
					c0.5,0.1,1,0.1,1.3,0.1c0.2,0,0.4-0.1,0.5-0.3c0.3-0.4,0.4-1.9,0.5-6.1h-1.3c-0.1,2.7-0.6,5.7-2.5,8.4c-0.4-0.4-1-0.9-1.5-1.2
					c1.9-2.8,2.1-6,2.1-8.4v-2.4H94v-2h3.1c-0.2-0.7-0.5-1.6-0.8-2.3l1.9-0.6c0.4,0.7,0.8,1.7,0.9,2.4l-1.2,0.4h3.2v1.9
					c1-1.3,1.6-2.9,2-4.7l2.1,0.4c-0.1,0.6-0.3,1.2-0.5,1.8h5.7v1.9h-6.5c-0.4,0.8-0.8,1.5-1.3,2.1c2.2-0.5,4.5-1.2,5.9-1.9l1.6,1.5
					c-0.9,0.4-1.9,0.7-2.9,1c0.1,0.7,0.2,1.4,0.4,2.1c0.5-0.5,1-1,1.4-1.5L110.5,490.7z"/>
				<path class="st24" d="M118.8,490.3c-0.3,1.7-0.7,3.4-1.3,4.8c0.3,0.2,0.7,0.5,1.2,0.7c1.2,0.7,3,0.8,5.1,0.8
					c2.1,0,5.4-0.2,7.4-0.5c-0.2,0.5-0.6,1.5-0.6,2.1c-1.5,0.1-4.7,0.2-6.9,0.2c-2.4,0-4-0.2-5.3-0.9c-0.8-0.4-1.4-1-1.8-1
					c-0.3,0-0.8,1.2-1.2,2.2l-1.4-2c0.6-0.8,1.2-1.4,1.8-1.8c0.4-0.9,0.7-2.1,0.9-3.2h-2c0.4-1.1,0.8-2.5,1.1-3.9h-1.4v-1.9h3.7
					c-0.3,1.3-0.7,2.7-1.1,4h0.6l0.3-0.1L118.8,490.3z M116.2,485.6c-0.2-0.8-0.6-2.1-0.9-3.1l1.6-0.5c0.3,1,0.7,2.2,0.9,3
					L116.2,485.6z M120.2,486h-1.5v-1.8h2.3c-0.1-0.6-0.3-1.3-0.5-1.8l1.9-0.3c0.3,0.7,0.5,1.5,0.7,2.1h1.7v1c0.6-1,1.1-2.2,1.4-3.4
					l1.8,0.5c-0.1,0.5-0.3,0.9-0.5,1.4h3.5v1.8h-4.2c-0.2,0.4-0.4,0.7-0.6,1.1h3.4l0.3-0.1l1.1,0.9c-0.6,0.7-1.3,1.5-2,2.1v0.7h2.1
					v1.7h-2.1v2.1c0,0.8-0.1,1.4-0.7,1.6c-0.5,0.3-1.3,0.3-2.3,0.3c-0.1-0.5-0.3-1.3-0.6-1.8c0.7,0,1.3,0,1.5,0
					c0.2,0,0.3-0.1,0.3-0.2v-2.1h-2v-1.7h2V489c0.3-0.3,0.6-0.6,0.9-0.9h-2.5V487c-0.3-0.3-0.9-0.7-1.2-1h-2.4v1.3h2.8v0.7
					c-0.1,4.8-0.2,6.6-0.6,7.2c-0.3,0.4-0.6,0.6-1,0.7c-0.4,0.1-1,0.1-1.6,0.1c0-0.5-0.2-1.2-0.5-1.7c0.5,0.1,0.8,0.1,1.1,0.1
					c0.2,0,0.3-0.1,0.5-0.2c0.2-0.3,0.3-1.6,0.4-5h-1c-0.1,2.2-0.5,4.8-2.2,6.7c-0.3-0.4-0.9-1-1.2-1.2c1.5-1.8,1.7-4.4,1.7-6.3V486
					z"/>
				<path class="st24" d="M151,489c0,0,0,0.6,0,0.9c-0.2,5.2-0.4,7.3-0.9,7.9c-0.4,0.5-0.8,0.7-1.4,0.8c-0.5,0.1-1.4,0.1-2.3,0.1
					c0-0.5-0.2-1.2-0.4-1.7h-4.2v1.1h-2v-6h7.1v4.8c0.3,0,0.5,0,0.7,0c0.3,0,0.4-0.1,0.6-0.3c0.3-0.4,0.5-1.8,0.6-5.6h-10
					c-0.3,2.6-0.9,5.4-2.3,7.4c-0.4-0.4-1.2-1.1-1.7-1.3c2-2.8,2.2-6.9,2.2-9.8v-4.4h12.8v5.1H139c0,0.4,0,0.8-0.1,1.2H151z
					 M139,484.5v1.5h8.5v-1.5H139z M144.8,493.6h-3.1v1.6h3.1V493.6z"/>
			</g>
		</g>
		<g>
			<g>
				<defs>
					<polygon id="SVGID_00000100367082695785987560000010832755711145032620_" points="146.9,434.9 114.9,440.9 128.1,462.9 
						58.9,453 58.9,379.4 146.9,379.4 					"/>
				</defs>
				<clipPath id="SVGID_00000116933940745499961960000011976441969195935423_">
					<use xlink:href="#SVGID_00000100367082695785987560000010832755711145032620_"  style="overflow:visible;"/>
				</clipPath>
				<g style="clip-path:url(#SVGID_00000116933940745499961960000011976441969195935423_);">
					<path class="st24" d="M55.6,426c0-16.3,0-32.5,0-48.8c0-5.8,3.6-9.5,9.4-9.5c25.3,0,50.5,0,75.8,0c5.8,0,9.4,3.6,9.4,9.4
						c0,32.6,0,46.7,0,79.3c0,5.7-3.7,9.4-9.3,9.4c-25.3,0-50.7,0-76,0c-5.6,0-9.3-3.7-9.3-9.4C55.6,440.1,55.6,442.3,55.6,426z
						 M81,429.8c0.1-0.1,0.2-0.2,0.3-0.2c2.7-3.3,5.5-6.5,8.1-9.8c0.2-0.3,0.2-0.8,0.1-1.2c-1.4-3.3-1-6.4,1.2-9.2
						c2.3-2.7,5.3-3.7,8.7-2.9c0.7,0.2,1.1,0,1.5-0.5c3.1-3.8,6.3-7.6,9.5-11.4c1.4-1.7,1.9-1.7,3.3,0c3.1,3.7,6.1,7.3,9.2,11
						c0.2,0.3,0.3,0.6,0.5,0.9c2-2.4,3.7-4.5,5.5-6.6c1.2-1.5,1.9-1.5,3.1,0c3.1,3.8,6.3,7.5,9.4,11.3c1.9,2.3,3.9,4.7,6.1,7.3
						c0-0.7,0-1.1,0-1.4c0-13.4,0-26.7,0-40.1c0-4.2-2.4-6.6-6.6-6.6c-25.3,0-50.6,0-75.9,0c-4.1,0-6.6,2.4-6.6,6.5
						c0,17.3,0,34.6,0,51.9c0,0.4,0,0.7,0,1.3c0.4-0.4,0.6-0.6,0.8-0.9c3-3.6,6.1-7.3,9.1-10.9c1.3-1.6,1.9-1.6,3.2,0
						C74.7,422.3,77.8,426.1,81,429.8z M147.4,423.6c0-0.5-0.3-1-0.6-1.4c-5.2-6.3-10.5-12.6-15.8-19c-0.2-0.2-0.3-0.5-0.4-0.8
						c-0.3,0.3-0.4,0.3-0.4,0.4c-1.7,2-3.3,4-5,6c-1.4,1.6-1.9,1.6-3.3,0c-2.7-3.3-5.5-6.6-8.4-10.1c0,3.8,0,7.3,0,10.8
						c0,3.4,2.6,6,6,6c1.8,0,3.5-0.1,5.3,0c1.1,0.1,2.2,0.2,3.2,0.6c3.9,1.5,6.2,5.6,5.4,9.7c-0.8,4.1-4.4,7.1-8.7,7.1
						c-8.7,0-17.4,0-26.2,0c-3.2,0-5.8,1.2-7.6,3.9c-1.9,2.8-2,5.8-0.5,8.8c1.6,3,4.2,4.7,7.6,4.7c8.8,0.1,16.6,2.9,23.5,8.4
						c1.6,1.3,3.3,2.8,4.9,4.1c0.8,0.7,1.5,0.4,2.6,0.2c-0.2-0.4-0.4-0.7-0.6-1c-1.9-3.3-3.8-6.5-5.6-9.9c-3.2-5.9,1.1-13,7.8-12.9
						c6.5,0.1,10.6,7.1,7.4,12.9c-1.8,3.3-3.8,6.6-5.6,9.9c-0.2,0.3-0.3,0.7-0.5,1c5.2,0,10.4,0,15.5,0c0-0.2,0-0.3,0-0.4
						 M91.3,421.9c-3,3.6-5.9,7.1-8.8,10.5c-1.2,1.4-1.9,1.4-3,0c-2.3-2.8-4.6-5.5-6.9-8.3c-0.9-1.1-1.8-2.1-2.7-3.3
						c-0.2,0.2-0.3,0.3-0.4,0.4c-3.6,4.3-7.1,8.5-10.6,12.8c-0.3,0.4-0.5,1-0.5,1.4c0,8.9,0,17.8,0,26.6c0,0.3,0,0.7,0.1,1
						c21.4,0,43.1,0.2,64.5,0.2c-0.1-0.2-0.6-0.4-0.7-0.5c-0.5-0.4-0.9-0.7-1.4-1.1c-6.7-5.7-14.4-8.6-23.3-8.7
						c-5.5-0.1-10-4.5-10.7-10.2c-0.7-5.3,2.8-10.6,8-12.2c0.4-0.1,0.8-0.2,1.2-0.4C94.5,427.4,93,424.7,91.3,421.9z M102.9,408.1
						c0.1,0.2,0.2,0.3,0.3,0.4c3.4,3.4,3.9,7.2,1.5,11.5c-1.8,3.1-3.5,6.2-5.3,9.2c-0.2,0.3-0.3,0.6-0.4,0.9c0.2,0,0.3,0.1,0.4,0.1
						c8.6,0,17.1,0,25.7,0c3.3,0,5.9-2.8,5.8-6.1c-0.1-3.3-2.6-5.8-6-5.9c-1.9,0-3.8,0-5.6,0c-4.7-0.1-8.4-3.9-8.5-8.5
						c0-2,0-3.9,0-5.9c0-1.6,0-3.2,0-5.2C108,401.9,105.4,405,102.9,408.1z M97.4,427c1.9-3.3,3.7-6.3,5.3-9.4
						c1.3-2.5,0.6-5.6-1.7-7.3c-2.1-1.7-5.2-1.7-7.3,0c-2.2,1.8-3,4.8-1.6,7.3C93.8,420.7,95.5,423.7,97.4,427z M130.5,460
						c1.9-3.4,3.8-6.5,5.4-9.7c1.2-2.4,0.3-5.4-1.9-7.1c-2.2-1.6-5.2-1.6-7.2,0.1c-2.1,1.7-3,4.7-1.7,7.1
						C126.7,453.7,128.6,456.7,130.5,460z"/>
					<path class="st24" d="M75.4,387.6c5,0,9,4.1,9,9.1c0,4.9-4.1,8.9-9.1,8.9c-5,0-9-4.1-9-9.1C66.4,391.6,70.5,387.6,75.4,387.6z
						 M81.3,396.6c0-3.3-2.7-6-6-6c-3.2,0-5.9,2.7-5.9,5.9c0,3.3,2.6,6,5.9,6C78.6,402.6,81.3,399.9,81.3,396.6z"/>
					<path class="st24" d="M99.2,415c0,1-0.9,1.8-1.9,1.8c-1,0-1.8-0.9-1.8-1.9c0-1,0.9-1.8,1.9-1.8C98.5,413.2,99.3,414,99.2,415z"
						/>
					<path class="st24" d="M132.3,448.1c0,1-0.8,1.8-1.8,1.8c-1,0-1.8-0.8-1.8-1.8c0-1,0.8-1.8,1.8-1.8
						C131.5,446.2,132.3,447.1,132.3,448.1z"/>
				</g>
			</g>
			<g>
				<g>
					<path class="st228" d="M129.5,461.6c2.3-4.1,4.6-7.8,6.6-11.7c1.5-3,0.3-6.6-2.3-8.5c-2.6-1.9-6.2-1.9-8.8,0.1
						c-2.6,2.1-3.6,5.7-2,8.6C125,453.9,127.2,457.5,129.5,461.6z"/>
				</g>
				<path class="st24" d="M131.3,447c0,1-0.9,1.8-1.9,1.8c-1,0-1.8-0.9-1.8-1.9c0-1,0.9-1.8,1.9-1.8
					C130.5,445.2,131.3,446,131.3,447z"/>
			</g>
			<g>
				<path class="st24" d="M57.9,434.4c-0.3,0-0.7-0.1-1-0.4c-0.6-0.5-0.6-1.4-0.1-2l11.8-14.2c0.5-0.6,1.4-0.6,2-0.1
					c0.6,0.5,0.6,1.4,0.1,2L59,434C58.7,434.3,58.3,434.4,57.9,434.4z"/>
			</g>
			<g>
				<path class="st24" d="M149.1,424c0.3,0,0.7-0.1,1-0.4c0.6-0.5,0.6-1.4,0.1-2l-18.4-22.1c-0.5-0.6-1.4-0.6-2-0.1
					c-0.6,0.5-0.6,1.4-0.1,2l18.4,22.1C148.3,423.9,148.7,424,149.1,424z"/>
			</g>
			<g>
				<path class="st24" d="M127.6,467.5c-0.5,0-0.9-0.2-1.2-0.6c-1.3-2-6.3-5.8-8.2-7.1c-0.6-0.4-0.8-1.3-0.3-1.9
					c0.4-0.6,1.3-0.8,1.9-0.3c0.7,0.5,7.1,5.1,8.9,7.9c0.4,0.6,0.2,1.5-0.4,1.9C128.1,467.4,127.9,467.5,127.6,467.5z"/>
			</g>
		</g>
	</g>
</g>
<g id="圖層_3">
</g>
</svg>
