<?xml version="1.0" encoding="utf-8"?>
<!-- Generator: Adobe Illustrator 28.0.0, SVG Export Plug-In . SVG Version: 6.00 Build 0)  -->
<svg version="1.1" xmlns="http://www.w3.org/2000/svg" xmlns:xlink="http://www.w3.org/1999/xlink" x="0px" y="0px"
	 viewBox="0 0 1299.1 191.5" style="enable-background:new 0 0 1299.1 191.5;" xml:space="preserve">
<style type="text/css">
	.st0{fill:#F0F0F0;}
	.st1{fill:#333333;}
	.st2{fill:#FFFFFF;}
	.st3{fill:#FF7212;}
	.st4{fill:none;stroke:#000000;stroke-width:0.7765;stroke-miterlimit:10;}
	.st5{fill:none;stroke:#333333;stroke-width:1.1304;stroke-miterlimit:10;}
	.st6{fill:url(#SVGID_1_);}
	.st7{fill:url(#SVGID_00000047040201593725801850000000700692457588039075_);}
	.st8{clip-path:url(#SVGID_00000102524402030834043450000005035391158545723292_);}
	
		.st9{clip-path:url(#SVGID_00000102524402030834043450000005035391158545723292_);fill:url(#SVGID_00000113331613101769271890000011524626126262239386_);}
	.st10{fill:none;stroke:#000000;stroke-miterlimit:10;}
	.st11{opacity:5.000000e-02;}
	.st12{fill:url(#SVGID_00000101099098009407723340000004856687634367824037_);}
	.st13{clip-path:url(#SVGID_00000077312776945200355260000007324583774427582114_);}
	.st14{clip-path:url(#SVGID_00000026871882534412081570000011467400720149965214_);}
	.st15{clip-path:url(#SVGID_00000121247418999193726530000002390260595820894601_);}
	.st16{clip-path:url(#SVGID_00000101806914284070344860000008287065760456114067_);fill:#D1DFE8;}
	
		.st17{clip-path:url(#SVGID_00000101806914284070344860000008287065760456114067_);fill:url(#SVGID_00000130611222744588293500000009354750615775566734_);}
	.st18{clip-path:url(#SVGID_00000101806914284070344860000008287065760456114067_);}
	.st19{clip-path:url(#SVGID_00000163037193819548540560000012024182953506977665_);}
	.st20{clip-path:url(#SVGID_00000139268134647997750710000000150611540443409291_);}
	.st21{clip-path:url(#SVGID_00000003075867481415503700000000043044111742029203_);}
	.st22{opacity:0.9;}
	.st23{fill:#FFD053;}
	.st24{fill:#FFC448;}
	.st25{fill:#FFD77A;}
	.st26{fill:#2C2C2C;}
	.st27{fill:#71523F;}
	.st28{fill:#FF6669;}
	.st29{fill:#FF4141;}
	.st30{fill:#FF3636;}
	.st31{fill:#FF6363;}
	.st32{fill:#438FD9;}
	.st33{fill:#0089CE;}
	.st34{fill:#75ADE4;}
	.st35{fill:#654735;}
	.st36{fill:#FFA7AD;}
	.st37{fill:#FF2223;}
	.st38{clip-path:url(#SVGID_00000024692800909239353610000017122115297639585205_);}
	.st39{fill:url(#SVGID_00000177453443767601779280000014539905110396927383_);}
	.st40{fill:url(#SVGID_00000158003586034069706390000008114408079508909496_);}
	.st41{fill:url(#SVGID_00000061445794371550682100000007187999766364807049_);}
	.st42{fill:url(#SVGID_00000165224800167912697840000007283386972122870175_);}
	.st43{fill:url(#SVGID_00000072988826279013402410000017125940186144180639_);}
	.st44{opacity:0.2;clip-path:url(#SVGID_00000096047930328992092040000008160056086607781565_);fill:#333333;}
	.st45{clip-path:url(#SVGID_00000094580824659630186170000006428810378671243910_);}
	.st46{opacity:0.2;clip-path:url(#SVGID_00000094580824659630186170000006428810378671243910_);fill:#333333;}
	.st47{opacity:0.2;clip-path:url(#SVGID_00000087391504931396497730000017062951794916474497_);fill:#333333;}
	.st48{fill:none;stroke:#DCDCDC;stroke-width:16;stroke-miterlimit:10;}
	.st49{fill:#464644;}
	.st50{fill:url(#SVGID_00000034086779379483035350000014207131067018947263_);}
	
		.st51{clip-path:url(#SVGID_00000124164135264085286560000016528597095412767679_);fill:url(#SVGID_00000165947947694628731870000014805829977746613942_);}
	.st52{fill:url(#SVGID_00000103955324595911150460000018058322334733996962_);}
	.st53{fill:url(#SVGID_00000154404382374427364140000006070894824272068518_);}
	.st54{fill:url(#SVGID_00000070093310712773551370000014145017810335611821_);}
	.st55{fill:url(#SVGID_00000114060272696702002400000009198965405830550199_);}
	.st56{fill:#696969;}
	.st57{fill:url(#SVGID_00000159430651958026405430000006433575875961522616_);}
	.st58{opacity:0.3;fill:none;stroke:#FFFFFF;stroke-miterlimit:10;}
	.st59{clip-path:url(#SVGID_00000132790125455013785150000016417703445694756485_);}
	.st60{fill:none;stroke:#333333;stroke-width:2.6428;stroke-linecap:round;stroke-linejoin:round;stroke-miterlimit:10;}
	.st61{fill:none;stroke:#333333;stroke-width:1.6744;stroke-linecap:round;stroke-linejoin:round;stroke-miterlimit:10;}
	
		.st62{clip-path:url(#SVGID_00000083811300681385535600000012583691540379867538_);fill:url(#SVGID_00000156567078559416228700000011928123254013172897_);}
	
		.st63{clip-path:url(#SVGID_00000083811300681385535600000012583691540379867538_);fill:url(#SVGID_00000121992567174042235420000006250428423326932636_);}
	.st64{fill:url(#SVGID_00000064320708566912464130000016891863918491772033_);}
	.st65{fill:url(#SVGID_00000152972516011086701120000000611499821881368982_);}
	.st66{fill:url(#SVGID_00000010999489267752789900000012389634363949365137_);}
	.st67{fill:url(#SVGID_00000059269817074198086190000007606122524305394579_);}
	.st68{fill:url(#SVGID_00000145740545951543763380000012259046409887057559_);}
	.st69{fill:url(#SVGID_00000172420992152311651600000011616885634086867096_);}
	.st70{fill:url(#SVGID_00000171717321704136301360000011075942903561468828_);}
	.st71{fill:url(#SVGID_00000150801517893574693680000001550889948571498939_);}
	.st72{fill:url(#SVGID_00000078747515046762424190000010421887503851855282_);}
	.st73{fill:#8C8D8C;}
	.st74{fill:url(#SVGID_00000039097527170589246960000010189589545100371880_);}
	.st75{fill:url(#SVGID_00000091701605335619760190000008779806586539143342_);}
	.st76{fill:url(#SVGID_00000021116535079252040920000011206210959883133866_);}
	.st77{fill:url(#SVGID_00000054963083410625866770000003596808894876283321_);}
	.st78{fill:url(#SVGID_00000078019296758285485710000014812381261509117367_);}
	.st79{fill:url(#SVGID_00000056402421820701554280000012224935126966097582_);}
	.st80{fill:url(#SVGID_00000127747463976666038550000016998490125799903393_);}
	.st81{fill:url(#SVGID_00000003803568899972011150000009804772964746849185_);}
	.st82{fill:url(#SVGID_00000094595886810496700210000008504913679668362388_);}
	.st83{fill:url(#SVGID_00000108999080272629215420000001382463367448478851_);}
	.st84{fill:url(#SVGID_00000127733371356842463510000011426659442119570305_);}
	.st85{fill:url(#SVGID_00000013898907605245679720000001096662819531635858_);}
	.st86{fill:url(#SVGID_00000085242473779356695320000003631684972124245644_);}
	.st87{fill:url(#SVGID_00000155146478709962603460000017127212187757791906_);}
	.st88{fill:url(#SVGID_00000025409243939286241940000003712457181502204333_);}
	.st89{fill:url(#SVGID_00000074401782099120146030000010009936597915529350_);}
	.st90{fill:url(#SVGID_00000137826149059593051240000007390426710255796364_);}
	.st91{fill:url(#SVGID_00000062877373375649733090000003445362548726930094_);}
	.st92{fill:url(#SVGID_00000018237071547486142150000017666127205523581083_);}
	.st93{fill:url(#SVGID_00000175297854791181652930000009173659690580586667_);}
	.st94{fill:url(#SVGID_00000013876283409300176740000009252611839643594923_);}
	.st95{fill:url(#SVGID_00000021830711758606168700000007788261527990486934_);}
	.st96{fill:url(#SVGID_00000139278606284774421760000001768323809445043848_);}
	.st97{fill:url(#SVGID_00000042708543413246402580000015351733712690609814_);}
	.st98{fill:url(#SVGID_00000001648745020837659910000000921823226327509148_);}
	.st99{fill:url(#SVGID_00000006671773730563743180000003777494451086693257_);}
	.st100{fill:url(#SVGID_00000127032887893578787480000014622453699479531157_);}
	.st101{fill:url(#SVGID_00000178178686153674398350000008916741782951369104_);}
	.st102{fill:url(#SVGID_00000097499687959056273730000000571849971817927845_);}
	.st103{fill:url(#SVGID_00000141428284055187277580000014235110699580091298_);}
	.st104{fill:url(#SVGID_00000068661130944481952430000006899223765256417983_);}
	.st105{fill:url(#SVGID_00000021121139426979996020000006776169556474188977_);}
	.st106{fill:url(#SVGID_00000178891064123020887380000015193963050197467045_);}
	.st107{fill:url(#SVGID_00000100364277386160355150000002086523095808605576_);}
	.st108{fill:url(#SVGID_00000138538458856282471710000008489957967951166122_);}
	.st109{fill:url(#SVGID_00000103943349342908535600000004149195423172886713_);}
	.st110{fill:url(#SVGID_00000076571755424402036330000004174616114481529734_);}
	.st111{fill:url(#SVGID_00000088116566543859168590000013156914334783013821_);}
	.st112{fill:url(#SVGID_00000093146970662939849850000016750713452513819322_);}
	.st113{fill:url(#SVGID_00000167396116722791945500000012596334997846475181_);}
	.st114{fill:url(#SVGID_00000122681393930736947540000004739655910714781085_);}
	.st115{fill:url(#SVGID_00000126325607875323460600000016075916255553906081_);}
	.st116{fill:url(#SVGID_00000080908685512770993050000008274887150017064340_);}
	.st117{fill:url(#SVGID_00000111884611021506778480000013271169423420567690_);}
	.st118{fill:url(#SVGID_00000008841171644277867770000017394462327517984643_);}
	.st119{fill:url(#SVGID_00000149343307719989508870000016447293707021970830_);}
	.st120{fill:url(#SVGID_00000021802069549856860610000008069743108700898991_);}
	.st121{fill:url(#SVGID_00000023256594014434468270000005753257377888940446_);}
	.st122{fill:url(#SVGID_00000037654851118017798130000015827960442503474839_);}
	.st123{fill:url(#SVGID_00000164485491992302034700000010008373019494484900_);}
	.st124{fill:url(#SVGID_00000038415032768785753810000000413090551435960758_);}
	.st125{fill:url(#SVGID_00000170266708028779487090000017629779445814995843_);}
	.st126{fill:url(#SVGID_00000165919368022295034190000013288802931727107972_);}
	.st127{fill:url(#SVGID_00000066513031843447455030000011245082727654824837_);}
	.st128{fill:url(#SVGID_00000101071546061760565850000000283728168657530024_);}
	.st129{fill:url(#SVGID_00000056387491966469936640000016301032224440696970_);}
	.st130{fill:url(#SVGID_00000083778843005028751630000005732163083428855735_);}
	.st131{fill:url(#SVGID_00000111881596398350062900000002168528640472366723_);}
	.st132{fill:url(#SVGID_00000166639578195020742470000016254835350007839371_);}
	.st133{fill:url(#SVGID_00000080908507899937279050000001843997299034125455_);}
	.st134{fill:url(#SVGID_00000097466080796139716010000009671728397532742286_);}
	.st135{fill:url(#SVGID_00000005961972809831985020000009554592975495580857_);}
	.st136{fill:url(#SVGID_00000090267902885712463730000000231267390530657943_);}
	.st137{fill:url(#SVGID_00000090253907449591234490000011399855280145464215_);}
	.st138{fill:url(#SVGID_00000037663174443183771280000010920171344666598563_);}
	.st139{fill:url(#SVGID_00000150792723338143172420000000781345869579969692_);}
	.st140{fill:url(#SVGID_00000025409755079824847460000018440586304502352827_);}
	.st141{fill:url(#SVGID_00000038411168710296475850000003857101535919765660_);}
	.st142{fill:url(#SVGID_00000181070506032867963780000014582003652847335856_);}
	.st143{fill:url(#SVGID_00000180363148366465613290000013907709118502722491_);}
	.st144{fill:url(#SVGID_00000024692481589166336740000016110426189060756611_);}
	.st145{fill:url(#SVGID_00000027595287072929678650000012379497271532292025_);}
	.st146{fill:url(#SVGID_00000115485361832502912110000016619488662698901905_);}
	.st147{fill:url(#SVGID_00000009554255911541366940000014321152377656240290_);}
	.st148{fill:url(#SVGID_00000034789184004991025610000000573681108688502956_);}
	.st149{fill:url(#SVGID_00000004519479131292532990000010235542088992991897_);}
	.st150{fill:url(#SVGID_00000142134777243578202950000013052984110793513347_);}
	.st151{fill:url(#SVGID_00000051379861759572036650000011496703746048633729_);}
	.st152{fill:url(#SVGID_00000074402503732903180170000001609989489260001972_);}
	.st153{fill:url(#SVGID_00000181771526987244102800000010390941824358196119_);}
	.st154{fill:url(#SVGID_00000074414876083998762880000012607701982049157050_);}
	.st155{fill:url(#SVGID_00000076605854366628431300000008522729200367937182_);}
	.st156{fill:url(#SVGID_00000124156807333073906650000014892097179934325148_);}
	.st157{fill:url(#SVGID_00000054243354549986581450000005526966838814700187_);}
	.st158{fill:url(#SVGID_00000171704348988109666430000015422022712553193129_);}
	.st159{fill:url(#SVGID_00000183244469412945611340000005832313018055434656_);}
	.st160{fill:url(#SVGID_00000165955474999110729150000006412472175233376180_);}
	.st161{fill:url(#SVGID_00000112623418988479666740000001608465124845591485_);}
	.st162{fill:url(#SVGID_00000003081256684184102500000015253444935525647781_);}
	.st163{fill:url(#SVGID_00000060029787229299577780000007330514934492171964_);}
	.st164{fill:url(#SVGID_00000055689156933044795660000012956703784443596222_);}
	.st165{fill:url(#SVGID_00000067206587010334931570000017407412984834044853_);}
	.st166{fill:url(#SVGID_00000044162080443233213610000000568790643340496545_);}
	.st167{fill:url(#SVGID_00000169554817299859461000000012479941068105873821_);}
	.st168{fill:url(#SVGID_00000150086627729947223710000007305274811695420550_);}
	.st169{fill:url(#SVGID_00000147204308436451690430000011188823495122737813_);}
	.st170{fill:url(#SVGID_00000159461315282691896190000016251529936825219256_);}
	.st171{fill:url(#SVGID_00000027562032102439883850000008181285259385383047_);}
	.st172{fill:url(#SVGID_00000054987893526232746870000007598509277713953685_);}
	.st173{fill:url(#SVGID_00000130646630248111691840000007025463720820606850_);}
	.st174{fill:url(#SVGID_00000017517780805867466840000007587227541697277876_);}
	.st175{fill:url(#SVGID_00000098910595793214896000000009478916358786614408_);}
	.st176{fill:url(#SVGID_00000005962807322735124410000000170867727381291395_);}
	.st177{fill:url(#SVGID_00000049923029144203369230000008155838308558591120_);}
	.st178{fill:url(#SVGID_00000132050938185529937220000000490216053927299767_);}
	.st179{fill:url(#SVGID_00000092457682494846318320000015170662540540575670_);}
	.st180{fill:url(#SVGID_00000096762782304998609070000016463377998848522373_);}
	.st181{fill:url(#SVGID_00000148643556042170012120000012782169737792667021_);}
	.st182{fill:url(#SVGID_00000124851307682023703390000005245347851582395281_);}
	.st183{fill:url(#SVGID_00000056412312806940506650000000494353400662703800_);}
	.st184{fill:url(#SVGID_00000115507858812533103930000014718030929616859807_);}
	.st185{fill:url(#SVGID_00000058576619200026501610000018241344376144175546_);}
	.st186{fill:url(#SVGID_00000005264003918341747280000015129848357560984222_);}
	.st187{fill:url(#SVGID_00000116928073722872545130000001550234687542733211_);}
	.st188{fill:url(#SVGID_00000058577558088574136800000004823612636556890026_);}
	.st189{fill:url(#SVGID_00000047052605278328678190000007950798250387835781_);}
	.st190{fill:url(#SVGID_00000059300897381356584520000006265548490759007156_);}
	.st191{fill:url(#SVGID_00000103979526759776574780000016284616880856141194_);}
	.st192{fill:url(#SVGID_00000179632285128478494550000012412294655755698872_);}
	.st193{fill:url(#SVGID_00000155841570681969656500000017273472679902298299_);}
	.st194{fill:url(#SVGID_00000137833363398428556480000013507673655167118230_);}
	.st195{fill:url(#SVGID_00000163065145740002764020000014266347628012117407_);}
	.st196{fill:url(#SVGID_00000143610424912509214130000011445838355705365436_);}
	.st197{fill:url(#SVGID_00000118399440575223912980000001519810427900568997_);}
	.st198{fill:url(#SVGID_00000179645841282399581210000011241777837777178516_);}
	.st199{fill:url(#SVGID_00000106147215892124762320000016061488298228997802_);}
	.st200{fill:url(#SVGID_00000087383990088775255520000007446568454926700443_);}
	.st201{fill:url(#SVGID_00000008849114782865807090000001324714021725616006_);}
	.st202{fill:url(#SVGID_00000151518789607026180860000005560361969353847682_);}
	.st203{fill:url(#SVGID_00000132073687014549322930000010070109571919177856_);}
	.st204{fill:url(#SVGID_00000061453256362802108010000005756164125608301238_);}
	.st205{fill:url(#SVGID_00000116207526134268648040000006755745945309008543_);}
	.st206{fill:url(#SVGID_00000098915287646687674070000009069241576185745086_);}
	.st207{fill:url(#SVGID_00000154410623545183875360000014877536924395952817_);}
	.st208{fill:url(#SVGID_00000147203559202797439980000006102517481503461557_);}
	.st209{fill:url(#SVGID_00000032614818159942008940000010482320947263519411_);}
	.st210{fill:url(#SVGID_00000155868338025504204890000001869539170304627871_);}
	.st211{fill:url(#SVGID_00000015355006285350029810000017062532396658522516_);}
	.st212{fill:url(#SVGID_00000106828050296802529490000017498506800994786710_);}
	.st213{fill:url(#SVGID_00000047046620095600179000000007327582443580675498_);}
	.st214{fill:url(#SVGID_00000021830052546239103630000000022190707951267986_);}
	.st215{fill:url(#SVGID_00000159467678537551931920000012250588662138466475_);}
	.st216{fill:url(#SVGID_00000056414939518304306140000009276942969324595628_);}
	.st217{fill:url(#SVGID_00000054267553847399719440000016669514791048861360_);}
	.st218{fill:url(#SVGID_00000153693995473662894450000001834129494596532925_);}
	.st219{fill:url(#SVGID_00000137121418303913536750000014657060066034479295_);}
	.st220{fill:url(#SVGID_00000127760142884312168750000008349296298138765215_);}
	.st221{fill:url(#SVGID_00000157993484096304643640000004575613397275767938_);}
	.st222{fill:url(#SVGID_00000048483870635046894250000016144057747826602408_);}
	.st223{fill:url(#SVGID_00000118390385145611401630000015164412355045132172_);}
	.st224{fill:url(#SVGID_00000131368701845937492070000004430647737109673605_);}
	.st225{fill:url(#SVGID_00000023978954975197263570000002260005496419456412_);}
	.st226{fill:url(#SVGID_00000077309967068987490770000001050812449020834961_);}
	.st227{fill:url(#SVGID_00000116921426825912877340000008944378236801352099_);}
	.st228{fill:url(#SVGID_00000035507362296380038620000003531771761859892904_);}
	.st229{fill:url(#SVGID_00000134234050378048835120000005545834510835241858_);}
	.st230{fill:url(#SVGID_00000023996506924008565670000014453507479888921757_);}
	.st231{fill:url(#SVGID_00000122694670542088460920000006438322617502866077_);}
	.st232{fill:url(#SVGID_00000022562247753906119290000010360871016936191129_);}
	.st233{fill:url(#SVGID_00000046306185830635173290000010165593208286569620_);}
	.st234{fill:url(#SVGID_00000140009527384858081910000006582330600089229759_);}
	.st235{fill:url(#SVGID_00000005258221268570793290000014344223117460940722_);}
	.st236{fill:none;stroke:#FF7212;stroke-miterlimit:10;}
	.st237{fill:url(#SVGID_00000087376593460747877610000016750664156670736051_);}
	.st238{fill:url(#SVGID_00000091012578604425779910000005135168045249651329_);}
	.st239{fill:url(#SVGID_00000078032942125291481900000011702714989907667361_);}
	.st240{fill:url(#SVGID_00000061443977183972774430000000605222308078003602_);}
	.st241{fill:url(#SVGID_00000049209944281306790580000012575015985628475835_);}
	.st242{fill:none;stroke:#464644;stroke-width:2.1129;stroke-linecap:round;stroke-linejoin:round;stroke-miterlimit:10;}
	.st243{fill:none;stroke:#464644;stroke-width:2.5;stroke-linecap:round;stroke-linejoin:round;stroke-miterlimit:10;}
	.st244{fill:none;stroke:#464644;stroke-width:2;stroke-linecap:round;stroke-linejoin:round;stroke-miterlimit:10;}
	.st245{fill:#464644;stroke:#464644;stroke-width:0.5;stroke-linecap:round;stroke-linejoin:round;stroke-miterlimit:10;}
	.st246{fill:#464644;stroke:#464644;stroke-linecap:round;stroke-linejoin:round;stroke-miterlimit:10;}
	.st247{fill:#464644;stroke:#464644;stroke-miterlimit:10;}
	.st248{clip-path:url(#SVGID_00000150083334332757390230000012362473033987728526_);}
	.st249{fill:none;stroke:#464644;stroke-width:2.54;stroke-linecap:round;stroke-linejoin:round;stroke-miterlimit:10;}
</style>
<g id="圖層_2">
	<g id="圖層_4">
	</g>
	<g class="st11">
		<g>
			<path class="st1" d="M268.4,191.5h-68.8l-21.7-42.2H88.5l-22,42.2H0l100-180h69.7L268.4,191.5z M202.7,186.5h57.3l-93.2-170H103
				l-94.5,170h54.9l22-42.2H181L202.7,186.5z M166.2,115h-65.8l33.3-64L166.2,115z M108.7,110h49.4l-24.4-48L108.7,110z"/>
		</g>
		<g>
			<path class="st1" d="M278.7,189V14l54.9-6.2V189H278.7z"/>
		</g>
		<g>
			<path class="st1" d="M367.5,189V14l54.9-6.2V189H367.5z"/>
		</g>
		<g>
			<path class="st1" d="M483.8,44.5c-8.4,0-15.5-2.2-21.3-6.5c-5.9-4.3-8.8-9.6-8.8-15.8c0-6.2,2.9-11.4,8.8-15.8
				c5.9-4.3,13-6.5,21.3-6.5c8.4,0,15.5,2.2,21.3,6.5c5.9,4.3,8.8,9.6,8.8,15.8c0,6.2-2.9,11.4-8.8,15.8
				C499.2,42.3,492.1,44.5,483.8,44.5z M456.3,189V56.8h54.9V189H456.3z"/>
		</g>
		<g>
			<path class="st1" d="M602.4,191.2c-12.7,0-23.9-1.8-33.7-5.2c-9.8-3.5-17.5-8.3-23-14.5c-5.5-6.2-8.3-13.2-8.3-21.2
				c0-12.7,6.5-22.5,19.5-29.4c13-6.9,31.1-10.4,54.4-10.4c14,0,27.6,1.2,40.7,3.8v-6.5c0-6.7-2.9-11.6-8.6-14.9S628.9,88,617.6,88
				c-7,0-14.9,0.8-23.6,2.5c-8.7,1.7-18.9,4.3-30.7,8l-19.7-29.8c14.7-4.8,28.9-8.5,42.5-10.9c13.7-2.4,27.4-3.6,41.2-3.6
				c24.8,0,44.2,4.4,57.9,13.1c13.8,8.8,20.7,21,20.7,36.9V189h-54.2v-8c-7.2,3.7-14.9,6.3-22.9,7.9
				C620.9,190.5,612.1,191.2,602.4,191.2z M589.5,149.5c0,4.2,2.5,7.4,7.5,9.8c5,2.3,11.9,3.5,20.7,3.5c6.5,0,12.7-0.5,18.5-1.5
				s11-2.6,15.8-4.8v-17c-5.2-1-10.5-1.8-15.9-2.2c-5.4-0.5-11-0.8-16.6-0.8c-9.5,0-16.8,1.1-22,3.4
				C592.1,142.1,589.5,145.3,589.5,149.5z"/>
		</g>
		<g>
			<path class="st1" d="M738.6,189V56.8h54.9v9c13.6-7.7,29.6-11.5,48.1-11.5c14,0,26.4,2.2,37.1,6.8c10.7,4.5,19.1,10.8,25.2,18.8
				s9.2,17.2,9.2,27.8V189h-54.9v-76c0-7.3-2.9-13.2-8.8-17.5c-5.9-4.3-13.8-6.5-23.7-6.5c-7,0-13.2,0.9-18.5,2.8
				c-5.3,1.8-9.9,4.4-13.7,7.8V189H738.6z"/>
		</g>
		<g>
			<path class="st1" d="M1032.4,191.5c-17.8,0-33.9-3-48.3-9c-14.3-6-25.7-14.2-34.1-24.6c-8.4-10.4-12.5-22-12.5-34.9
				c0-13,4.2-24.7,12.5-35c8.4-10.3,19.7-18.5,34.1-24.6c14.3-6.1,30.4-9.1,48.3-9.1c14.7,0,28.7,2.1,42,6.4
				c13.3,4.2,24.6,10.3,33.9,18.1l-33.5,25.8c-6.3-5.3-12.8-9.2-19.3-11.6c-6.6-2.4-13.8-3.6-21.7-3.6c-7.9,0-15,1.5-21.3,4.4
				c-6.3,2.9-11.3,6.9-14.9,12c-3.6,5.1-5.4,10.9-5.4,17.4c0,6.3,1.9,12,5.6,17.1c3.7,5.1,8.9,9.1,15.4,12c6.5,2.9,13.9,4.4,22,4.4
				c7.5,0,14.3-1.2,20.7-3.5c6.3-2.3,12.4-5.9,18.3-10.8l32.5,25c-9,7.7-20.1,13.6-33.2,17.9
				C1060.3,189.4,1046.6,191.5,1032.4,191.5z"/>
		</g>
		<g>
			<path class="st1" d="M1212.7,191.5c-18.3,0-34.9-3-49.6-9.1c-14.8-6.1-26.5-14.3-35.1-24.6c-8.6-10.3-12.9-21.9-12.9-34.8
				c0-12.8,4.1-24.4,12.4-34.8c8.2-10.3,19.5-18.5,33.7-24.6c14.2-6.1,30-9.1,47.4-9.1c17.6,0,33.2,3.1,46.8,9.4
				c13.6,6.2,24.2,14.8,32,25.6c7.8,10.8,11.7,23.2,11.7,37.2v10h-127.8c2.5,4.2,5.8,7.8,10,11c4.2,3.2,9.2,5.6,15.1,7.4
				c5.9,1.8,12.2,2.6,19,2.6c7.5,0,14.2-0.9,20.3-2.6s11.3-4.2,15.6-7.4l36.3,23.8c-11.3,7-22.9,12.1-34.7,15.2
				S1227.6,191.5,1212.7,191.5z M1170.3,108.5h74.9c-1.8-4.3-4.6-8-8.3-11.1c-3.7-3.1-8.1-5.5-13-7.2c-5-1.8-10.4-2.6-16.3-2.6
				c-6.1,0-11.6,0.8-16.6,2.5c-5,1.7-9.2,4-12.7,7.1C1174.8,100.2,1172.1,104,1170.3,108.5z"/>
		</g>
	</g>
</g>
<g id="圖層_1">
</g>
<g id="圖層_3">
</g>
</svg>
