<svg width="61" height="61" viewBox="0 0 61 61" fill="none" xmlns="http://www.w3.org/2000/svg">
<g clip-path="url(#clip0_217_8)">
<path d="M30.5001 -6.10352e-05C36.5324 -6.10352e-05 42.4292 1.78869 47.4449 5.14008C52.4606 8.49146 56.3698 13.2549 58.6783 18.8281C60.9868 24.4012 61.5909 30.5337 60.414 36.4501C59.2372 42.3666 56.3322 47.8013 52.0667 52.0668C47.8012 56.3323 42.3667 59.2372 36.4503 60.414C30.5338 61.5909 24.4013 60.9866 18.8282 58.6782C13.255 56.3697 8.49158 52.4605 5.1402 47.4448C1.78881 42.4291 0 36.5323 0 30.4999C0.0105836 22.4141 3.22738 14.6623 8.94495 8.94476C14.6625 3.2272 22.4142 0.0105226 30.5001 -6.10352e-05ZM30.5001 59.9999C36.3346 59.9999 42.0381 58.2698 46.8893 55.0283C51.7406 51.7868 55.5217 47.1794 57.7545 41.789C59.9872 36.3986 60.5714 30.4675 59.4332 24.7451C58.2949 19.0226 55.4853 13.7662 51.3597 9.64056C47.234 5.51491 41.9776 2.7051 36.2552 1.56683C30.5327 0.428569 24.6013 1.01276 19.2109 3.24554C13.8205 5.47833 9.21318 9.25953 5.97168 14.1108C2.73018 18.962 1 24.6654 1 30.4999C1.01058 38.3206 4.12201 45.8181 9.65204 51.3481C15.1821 56.8781 22.6794 59.9894 30.5001 59.9999Z" fill="#333333"/>
<path d="M25.76 37.2499C25.8555 37.3472 25.9699 37.424 26.0961 37.4755C26.2223 37.527 26.3576 37.5525 26.4939 37.5497C26.6302 37.547 26.7645 37.5164 26.8885 37.4599C27.0126 37.4034 27.1237 37.3222 27.2152 37.2211C27.3067 37.1201 27.3766 37.001 27.4205 36.872C27.4645 36.743 27.4816 36.6065 27.4708 36.4706C27.46 36.3348 27.4215 36.2024 27.3578 36.082C27.294 35.9615 27.2064 35.8553 27.1001 35.77L22.39 31.4999H40.26C40.5252 31.4999 40.7796 31.3945 40.9672 31.207C41.1547 31.0194 41.26 30.7652 41.26 30.4999C41.26 30.2347 41.1547 29.9804 40.9672 29.7929C40.7796 29.6054 40.5252 29.4999 40.26 29.4999H22.39L27.1001 25.2299C27.2493 25.0943 27.354 24.9168 27.4005 24.7206C27.447 24.5245 27.4332 24.319 27.3607 24.1308C27.2883 23.9426 27.1606 23.7808 26.9945 23.6664C26.8284 23.5521 26.6317 23.4907 26.4301 23.4902C26.1822 23.4908 25.9434 23.5832 25.76 23.7499L18.3 30.4999L25.76 37.2499Z" fill="#333333"/>
</g>
<defs>
<clipPath id="clip0_217_8">
<rect width="61" height="61" fill="white"/>
</clipPath>
</defs>
</svg>
