<svg width="61" height="62" viewBox="0 0 61 62" fill="none" xmlns="http://www.w3.org/2000/svg">
<g clip-path="url(#clip0_217_11)">
<path d="M30.5 61.5C24.4677 61.5 18.5708 59.7113 13.5551 56.3599C8.53943 53.0085 4.63014 48.245 2.32167 42.6719C0.0131931 37.0987 -0.590779 30.9662 0.58607 25.0498C1.76292 19.1334 4.66774 13.6986 8.93324 9.43311C13.1987 5.16761 18.6333 2.2628 24.5498 1.08595C30.4662 -0.090903 36.5987 0.513313 42.1719 2.82179C47.745 5.13026 52.5084 9.03948 55.8598 14.0552C59.2112 19.0709 61.0001 24.9677 61.0001 31C60.9921 39.0867 57.7761 46.84 52.058 52.5581C46.3399 58.2763 38.5867 61.4921 30.5 61.5ZM30.5 1.50001C24.6655 1.50001 18.9619 3.23019 14.1107 6.47169C9.25942 9.71319 5.47834 14.3205 3.24556 19.7109C1.01277 25.1014 0.42858 31.0329 1.56684 36.7554C2.70511 42.4778 5.51474 47.7342 9.64039 51.8599C13.766 55.9855 19.0224 58.7948 24.7449 59.9331C30.4673 61.0714 36.3988 60.4872 41.7892 58.2544C47.1796 56.0216 51.7869 52.2404 55.0284 47.3892C58.2699 42.5379 60.0001 36.8346 60.0001 31C59.9921 23.1786 56.8815 15.68 51.3509 10.1494C45.8203 4.61882 38.3215 1.50795 30.5 1.50001Z" fill="#BDBDBD"/>
<path d="M35.23 24.2501C35.0312 24.0905 34.7789 24.0127 34.5247 24.0329C34.2705 24.053 34.0337 24.1695 33.8625 24.3585C33.6914 24.5476 33.599 24.795 33.6041 25.0499C33.6092 25.3049 33.7115 25.5481 33.89 25.7301L38.61 30.0001H20.74C20.4748 30.0001 20.2204 30.1056 20.0329 30.2931C19.8454 30.4806 19.74 30.7349 19.74 31.0001C19.74 31.2654 19.8454 31.5196 20.0329 31.7072C20.2204 31.8947 20.4748 32.0001 20.74 32.0001H38.61L33.89 36.2702C33.7408 36.4058 33.6361 36.5833 33.5896 36.7794C33.5431 36.9756 33.5569 37.1816 33.6294 37.3698C33.7018 37.5579 33.8295 37.7198 33.9955 37.8341C34.1616 37.9485 34.3584 38.0099 34.56 38.0104C34.8078 38.0097 35.0466 37.9168 35.23 37.7501L42.69 31.0001L35.23 24.2501Z" fill="#BDBDBD"/>
</g>
<defs>
<clipPath id="clip0_217_11">
<rect width="61" height="61" fill="white" transform="translate(0 0.5)"/>
</clipPath>
</defs>
</svg>
