<svg id="分離模式" xmlns="http://www.w3.org/2000/svg" viewBox="0 0 61 61"><defs><style>.cls-1{fill:#333;}</style></defs><path class="cls-1" d="M996.18,4770.17a30.5,30.5,0,1,1,30.5-30.5A30.53,30.53,0,0,1,996.18,4770.17Zm0-60a29.5,29.5,0,1,0,29.5,29.5A29.53,29.53,0,0,0,996.18,4710.17Z" transform="translate(-965.68 -4709.17)"/><path class="cls-1" d="M1000.91,4732.92a1,1,0,0,0-1.34,1.48l4.72,4.27H986.42a1,1,0,0,0,0,2h17.87l-4.72,4.27a1,1,0,0,0,.67,1.74,1,1,0,0,0,.67-.26l7.46-6.75Z" transform="translate(-965.68 -4709.17)"/></svg>