<svg id="分離模式" xmlns="http://www.w3.org/2000/svg" viewBox="0 0 61 61"><defs><style>.cls-1{fill:#bdbdbd;}</style></defs><path class="cls-1" d="M1037.18,4724.17a30.5,30.5,0,1,1-30.5,30.5A30.54,30.54,0,0,1,1037.18,4724.17Zm0,60a29.5,29.5,0,1,0-29.5-29.5A29.54,29.54,0,0,0,1037.18,4784.17Z" transform="translate(-1006.68 -4724.17)"/><path class="cls-1" d="M1032.44,4761.42a1,1,0,1,0,1.34-1.48l-4.71-4.27h17.87a1,1,0,1,0,0-2h-17.87l4.71-4.27a1,1,0,0,0-.67-1.74,1,1,0,0,0-.67.26l-7.46,6.75Z" transform="translate(-1006.68 -4724.17)"/></svg>