<svg id="圖層_1" data-name="圖層 1" xmlns="http://www.w3.org/2000/svg" xmlns:xlink="http://www.w3.org/1999/xlink" viewBox="0 0 22.46 14.02"><defs><style>.cls-1{fill:none;}.cls-2{clip-path:url(#clip-path);}.cls-3{fill:#333;}</style><clipPath id="clip-path" transform="translate(0 0)"><rect class="cls-1" width="22.46" height="14.02"/></clipPath></defs><g class="cls-2"><path class="cls-3" d="M21.46,8H1A1,1,0,0,1,1,6H21.46a1,1,0,0,1,0,2" transform="translate(0 0)"/><path class="cls-3" d="M14.82,14a1,1,0,0,1-.67-1.74L20,7,14.15,1.74A1,1,0,0,1,14.08.33,1,1,0,0,1,15.5.26l6.63,6a1,1,0,0,1,0,1.48l-6.63,6a1,1,0,0,1-.68.26" transform="translate(0 0)"/></g></svg>