<svg width="99" height="92" viewBox="0 0 99 92" fill="none" xmlns="http://www.w3.org/2000/svg">
<g clip-path="url(#clip0_542_135)">
<g clip-path="url(#clip1_542_135)">
<mask id="mask0_542_135" style="mask-type:luminance" maskUnits="userSpaceOnUse" x="3" y="5" width="85" height="75">
<path d="M87.8503 49.8301L59.2603 60.1904L69.5203 80L3.28027 76.52V5.66016H87.8503V49.8301Z" fill="white"/>
</mask>
<g mask="url(#mask0_542_135)">
<path d="M0.0200195 45.2603C0.0200195 28.9869 0.0200195 12.7235 0.0200195 -3.52979C0.0200195 -9.36979 3.63 -13 9.44 -13H85.19C90.95 -13 94.61 -9.36988 94.61 -3.62988V75.7104C94.61 81.3904 90.95 85.0703 85.3 85.0703H9.30005C3.65005 85.0703 0 81.3802 0 75.7002C0.02 59.3602 0.0200195 61.5903 0.0200195 45.2603ZM25.36 49.1504C25.4745 49.0813 25.5816 49.0006 25.68 48.9102C28.4 45.6502 31.13 42.4004 33.82 39.1104C33.9125 38.9288 33.9649 38.7295 33.9735 38.5259C33.9821 38.3223 33.9468 38.1189 33.87 37.9302C33.1603 36.4519 32.8977 34.7988 33.1144 33.1733C33.3311 31.5479 34.0178 30.021 35.09 28.7803C36.0898 27.4775 37.4556 26.5024 39.0126 25.9805C40.5697 25.4585 42.247 25.4132 43.83 25.8501C44.1078 25.9495 44.4109 25.9523 44.6904 25.8579C44.9699 25.7635 45.2093 25.5775 45.37 25.3301C48.5 21.5201 51.68 17.7402 54.83 13.9502C56.22 12.2802 56.77 12.2704 58.13 13.9004C61.19 17.5737 64.2467 21.2404 67.3 24.9004C67.5107 25.2004 67.6947 25.518 67.85 25.8501C69.85 23.4601 71.58 21.38 73.31 19.29C74.53 17.82 75.19 17.81 76.4 19.29L85.8 30.5703L91.86 37.8301V-3.63965C91.86 -7.82965 89.43 -10.25 85.22 -10.25H9.34003C5.20003 -10.25 2.76001 -7.81996 2.76001 -3.70996V49.5103C3.14001 49.0903 3.35004 48.8802 3.54004 48.6602C6.58004 45.0202 9.61669 41.3771 12.65 37.7305C13.96 36.1705 14.55 36.1803 15.88 37.7803L25.36 49.1504ZM91.83 42.8501C91.7937 42.3317 91.5942 41.8384 91.26 41.4404C86.0133 35.1138 80.7534 28.7804 75.48 22.4404C75.3094 22.1894 75.1653 21.921 75.05 21.6401C74.73 21.9401 74.66 21.98 74.62 22.04L69.62 28.04C68.27 29.67 67.7 29.66 66.32 28.04C63.59 24.75 60.85 21.4704 57.89 17.9204C57.89 21.7604 57.89 25.2404 57.89 28.7104C57.8834 29.5026 58.0338 30.2877 58.3323 31.0215C58.6309 31.7552 59.0718 32.4229 59.6296 32.9854C60.1874 33.5478 60.8511 33.9942 61.5823 34.2988C62.3136 34.6035 63.0979 34.7603 63.89 34.7603C65.66 34.7603 67.42 34.6803 69.17 34.7603C70.2755 34.7992 71.3683 35.0084 72.41 35.3804C74.3003 36.1141 75.8731 37.4878 76.8544 39.2622C77.8357 41.0366 78.1633 43.0992 77.78 45.0903C77.3903 47.1021 76.3092 48.9144 74.7239 50.2129C73.1387 51.5114 71.1492 52.2143 69.1 52.2002C60.38 52.2002 51.6567 52.2002 42.93 52.2002C41.4309 52.1238 39.9383 52.4451 38.6036 53.1318C37.2688 53.8185 36.1394 54.8463 35.33 56.1104C34.4686 57.4145 33.973 58.9262 33.8952 60.4873C33.8174 62.0484 34.1601 63.6014 34.8876 64.9849C35.615 66.3683 36.7006 67.5309 38.0308 68.3516C39.3611 69.1722 40.8873 69.621 42.45 69.6504C51.0221 69.653 59.3264 72.6367 65.94 78.0903C67.51 79.3703 69.28 80.9302 70.82 82.2402C71.64 82.9302 72.37 82.6504 73.44 82.4404C73.22 82.0504 73.05 81.7204 72.86 81.4404C70.98 78.1604 69.03 74.9103 67.22 71.5903C66.4882 70.2658 66.1145 68.7734 66.1359 67.2603C66.1572 65.7471 66.573 64.2653 67.3419 62.9619C68.1109 61.6586 69.2065 60.5786 70.5206 59.8281C71.8347 59.0777 73.3217 58.6831 74.835 58.6831C76.3483 58.6831 77.8354 59.0777 79.1495 59.8281C80.4636 60.5786 81.5592 61.6586 82.3281 62.9619C83.0971 64.2653 83.5128 65.7471 83.5342 67.2603C83.5556 68.7734 83.1818 70.2658 82.45 71.5903C80.65 74.9203 78.7 78.1702 76.81 81.4502C76.63 81.7702 76.48 82.1002 76.29 82.4502H91.79C91.79 82.2502 91.79 82.1403 91.79 82.0303M35.65 41.2104C32.65 44.8004 29.76 48.2605 26.88 51.7305C25.71 53.1305 25.01 53.1405 23.88 51.7305L16.98 43.4302L14.25 40.1802C14.1053 40.2979 13.9683 40.4247 13.84 40.5601C10.29 44.8201 6.72001 49.0704 3.20001 53.3604C2.90026 53.7838 2.74268 54.2913 2.75 54.8101C2.75 63.6901 2.75 72.5604 2.75 81.4404C2.75 81.7704 2.75 82.1004 2.81 82.4404C24.21 82.4404 45.93 82.6304 67.33 82.6304C67.1255 82.4575 66.9082 82.3002 66.68 82.1602C66.22 81.8102 65.76 81.4701 65.32 81.1001C58.8526 75.4672 50.5665 72.3633 41.99 72.3604C36.48 72.3004 31.99 67.8502 31.28 62.2002C30.9947 59.55 31.6357 56.8826 33.094 54.6514C34.5523 52.4201 36.7381 50.7628 39.28 49.9604L40.53 49.5703C38.9 46.7503 37.34 44.0402 35.7 41.1802L35.65 41.2104ZM47.19 27.3804C47.2723 27.5086 47.366 27.6289 47.47 27.7402C50.8967 31.1669 51.4033 34.9869 48.99 39.2002L43.68 48.4404C43.5143 48.7426 43.3641 49.0527 43.23 49.3701C43.3682 49.4083 43.5084 49.4387 43.65 49.4604C52.22 49.4604 60.79 49.5104 69.36 49.4604C70.8203 49.2712 72.1599 48.5515 73.1239 47.4385C74.0879 46.3255 74.6091 44.8966 74.5881 43.4243C74.5671 41.952 74.0054 40.5391 73.01 39.4541C72.0146 38.3691 70.655 37.6876 69.19 37.54C67.32 37.54 65.44 37.54 63.57 37.54C61.325 37.4938 59.1853 36.5794 57.6003 34.9888C56.0153 33.3982 55.1083 31.2554 55.07 29.0103C55.07 27.0603 55.07 25.1102 55.07 23.1602V17.9702L47.19 27.3804ZM41.74 46.29C43.61 43.02 45.41 40.0204 47.05 36.9204C47.681 35.7021 47.8604 34.2998 47.5566 32.9619C47.2528 31.624 46.4853 30.4367 45.39 29.6104C44.3391 28.7978 43.0484 28.3569 41.72 28.3569C40.3917 28.3569 39.1009 28.7978 38.05 29.6104C36.9617 30.4473 36.2048 31.6426 35.9138 32.9844C35.6227 34.3261 35.8162 35.7277 36.46 36.9404C38.14 39.9904 39.93 42.9903 41.79 46.2603L41.74 46.29ZM74.81 79.3701C76.73 75.9801 78.62 72.8802 80.26 69.6602C80.8162 68.4455 80.9297 67.0747 80.5808 65.7852C80.2319 64.4956 79.4427 63.3686 78.35 62.6001C77.2979 61.8168 76.0161 61.4041 74.7046 61.4258C73.3931 61.4475 72.1257 61.9025 71.1 62.7202C70.0404 63.5301 69.2947 64.683 68.9901 65.9814C68.6856 67.2799 68.841 68.6437 69.43 69.8403C71.12 72.9903 72.96 75.9903 74.86 79.3403L74.81 79.3701Z" fill="#464644"/>
<path d="M19.7796 6.91016C21.5626 6.91021 23.3054 7.44007 24.7869 8.43213C26.2684 9.42419 27.4219 10.8338 28.101 12.4824C28.7801 14.131 28.9541 15.9442 28.6012 17.6919C28.2482 19.4396 27.3841 21.043 26.1184 22.2988C24.8527 23.5547 23.2425 24.4063 21.4921 24.7456C19.7417 25.0849 17.9299 24.897 16.2866 24.2051C14.6434 23.5131 13.2426 22.3486 12.2622 20.8594C11.2817 19.3702 10.7657 17.6233 10.7796 15.8403C10.798 13.4655 11.7544 11.1942 13.4402 9.52148C15.126 7.84877 17.4047 6.91008 19.7796 6.91016ZM25.7196 15.9102C25.7295 14.7214 25.386 13.5567 24.7328 12.5635C24.0795 11.5702 23.146 10.7933 22.0505 10.3315C20.9551 9.86974 19.7471 9.74389 18.58 9.96973C17.4128 10.1956 16.339 10.763 15.4949 11.6001C14.6508 12.4372 14.0744 13.5062 13.8388 14.6714C13.6032 15.8366 13.719 17.0453 14.1717 18.1445C14.6243 19.2438 15.3933 20.1842 16.381 20.8457C17.3688 21.5072 18.5308 21.8603 19.7196 21.8604C21.2886 21.8607 22.7953 21.2462 23.9169 20.1489C25.0385 19.0517 25.6856 17.5589 25.7196 15.9902V15.9102Z" fill="#464644"/>
<path d="M43.6197 34.329C43.6137 34.6913 43.5002 35.044 43.2938 35.3417C43.0873 35.6395 42.7971 35.8693 42.4599 36.0019C42.1227 36.1345 41.7537 36.1641 41.3997 36.0869C41.0457 36.0096 40.7226 35.8289 40.4714 35.5678C40.2201 35.3067 40.052 34.9768 39.9884 34.6201C39.9248 34.2634 39.9685 33.8958 40.1139 33.5639C40.2594 33.2321 40.5002 32.9512 40.8056 32.7563C41.111 32.5614 41.4675 32.4613 41.8297 32.4692C42.3125 32.4823 42.7707 32.6847 43.1056 33.0327C43.4405 33.3806 43.6251 33.8461 43.6197 34.329Z" fill="#464644"/>
<path d="M76.6795 67.3594C76.6795 67.7218 76.572 68.0758 76.3704 68.377C76.1689 68.6781 75.8825 68.9126 75.5475 69.0508C75.2125 69.189 74.8441 69.2248 74.4888 69.1533C74.1336 69.0819 73.8075 68.9069 73.552 68.6499C73.2965 68.393 73.123 68.0656 73.0535 67.71C72.984 67.3543 73.0217 66.9861 73.1618 66.6519C73.3018 66.3177 73.5379 66.0329 73.8402 65.833C74.1424 65.6332 74.4972 65.5273 74.8596 65.5293C75.3416 65.5371 75.8014 65.7325 76.1414 66.0742C76.4813 66.416 76.6744 66.8774 76.6795 67.3594Z" fill="#464644"/>
</g>
<path d="M73.8703 82.1393C73.6444 82.1386 73.4227 82.0782 73.2277 81.964C73.0328 81.8499 72.8715 81.6861 72.7603 81.4894C72.0603 80.2594 71.3703 79.0596 70.6803 77.8796C69.1103 75.1596 67.6203 72.5996 66.2303 69.9396C65.3873 68.2297 65.1618 66.2808 65.5919 64.4235C66.0221 62.5662 67.0814 60.9144 68.5903 59.7492C70.0491 58.587 71.8514 57.9401 73.7164 57.9094C75.5813 57.8786 77.404 58.4658 78.9003 59.5793C80.4566 60.6893 81.5761 62.3081 82.0654 64.1559C82.5548 66.0038 82.3832 67.9646 81.5803 69.6994C80.1903 72.4494 78.6703 75.0795 77.0603 77.8595C76.3703 79.0495 75.6703 80.2494 74.9703 81.4894C74.8608 81.6853 74.7012 81.8489 74.508 81.9631C74.3148 82.0772 74.0947 82.1378 73.8703 82.1393ZM73.8703 60.4494C72.5375 60.4493 71.244 60.9007 70.2003 61.7297C69.1561 62.5238 68.4178 63.6537 68.1099 64.9289C67.802 66.2041 67.9435 67.5466 68.5103 68.7297C69.8703 71.3497 71.3403 73.8893 72.9003 76.5793C73.2303 77.1393 73.5503 77.7095 73.9003 78.2795L74.9003 76.5593C76.4903 73.8093 78.0003 71.2093 79.3603 68.5593C79.8925 67.358 79.991 66.0092 79.639 64.7433C79.2869 63.4775 78.5062 62.3733 77.4303 61.6193C76.3955 60.8513 75.139 60.4407 73.8503 60.4494H73.8703Z" fill="#464644"/>
<path d="M75.6898 66.3095C75.6818 66.6713 75.5668 67.0229 75.3591 67.3193C75.1515 67.6157 74.8606 67.8439 74.5232 67.975C74.1859 68.1062 73.8174 68.134 73.464 68.0556C73.1107 67.9772 72.7886 67.796 72.5383 67.5346C72.2881 67.2732 72.1209 66.9433 72.0581 66.5869C71.9952 66.2305 72.0394 65.8634 72.1852 65.5322C72.3309 65.2009 72.5716 64.9205 72.8768 64.726C73.182 64.5315 73.538 64.4321 73.8998 64.4399C74.3835 64.4555 74.8418 64.6601 75.1764 65.0097C75.511 65.3593 75.6953 65.8256 75.6898 66.3095Z" fill="#464644"/>
<path d="M2.30958 53.6997C2.12599 53.7061 1.94303 53.6756 1.77131 53.6104C1.59959 53.5451 1.44258 53.4466 1.30958 53.3199C1.17306 53.1935 1.06294 53.0412 0.985482 52.8721C0.908022 52.703 0.864791 52.5204 0.858285 52.3345C0.851778 52.1486 0.882133 51.9632 0.947579 51.7891C1.01303 51.615 1.11223 51.4555 1.23957 51.3199L13.0196 37.0796C13.2856 36.8373 13.6331 36.7045 13.9929 36.7071C14.3526 36.7096 14.6982 36.8477 14.9606 37.0938C15.2231 37.3398 15.3832 37.6759 15.4089 38.0347C15.4347 38.3936 15.3243 38.7488 15.0996 39.0298L3.31959 53.2495C3.19061 53.3892 3.03455 53.5013 2.86091 53.5786C2.68727 53.656 2.49966 53.6972 2.30958 53.6997Z" fill="#464644"/>
<path d="M93.4298 43.3402C93.6133 43.3466 93.7964 43.3161 93.9681 43.2509C94.1398 43.1856 94.2968 43.087 94.4298 42.9603C94.5663 42.834 94.6765 42.6817 94.7539 42.5126C94.8314 42.3435 94.8746 42.1604 94.8811 41.9745C94.8876 41.7886 94.8573 41.6032 94.7918 41.4291C94.7264 41.255 94.6271 41.0959 94.4998 40.9603L76.0198 18.87C75.7625 18.5942 75.4063 18.432 75.0293 18.4188C74.6524 18.4057 74.2856 18.5429 74.0098 18.8002C73.7339 19.0574 73.5716 19.4135 73.5585 19.7904C73.5454 20.1674 73.6825 20.5341 73.9398 20.8099L92.3798 42.89C92.5133 43.0346 92.6759 43.1494 92.8568 43.2269C93.0377 43.3045 93.2329 43.3432 93.4298 43.3402Z" fill="#464644"/>
<path d="M72.02 86.79C71.7871 86.79 71.5582 86.7304 71.3551 86.6166C71.152 86.5028 70.9815 86.3386 70.86 86.1401C69.6 84.1401 64.5399 80.3202 62.6899 79.0102C62.5429 78.9064 62.4177 78.7746 62.3215 78.6225C62.2253 78.4704 62.16 78.3008 62.1294 78.1235C62.0987 77.9461 62.1033 77.7644 62.1429 77.5888C62.1824 77.4132 62.2562 77.2471 62.36 77.1C62.4637 76.9529 62.5954 76.828 62.7476 76.7319C62.8997 76.6357 63.0693 76.5701 63.2466 76.5395C63.424 76.5088 63.6056 76.5136 63.7812 76.5531C63.9568 76.5927 64.1229 76.6662 64.27 76.7699C65 77.2799 71.4099 81.8504 73.1799 84.6904C73.2754 84.8433 73.3398 85.0135 73.3694 85.1913C73.399 85.3692 73.3932 85.5509 73.3523 85.7265C73.3114 85.9021 73.2362 86.0678 73.1312 86.2143C73.0261 86.3608 72.8931 86.485 72.7399 86.58C72.5248 86.7171 72.2751 86.7899 72.02 86.79Z" fill="#464644"/>
</g>
</g>
<defs>
<clipPath id="clip0_542_135">
<rect width="99" height="92" fill="white"/>
</clipPath>
<clipPath id="clip1_542_135">
<rect width="94.85" height="99.79" fill="white" transform="translate(0 -13)"/>
</clipPath>
</defs>
</svg>
