<svg width="99" height="92" viewBox="0 0 99 92" fill="none" xmlns="http://www.w3.org/2000/svg">
<g clip-path="url(#clip0_542_134)">
<path d="M12.91 31.3492C12.5074 31.3557 12.1103 31.2559 11.759 31.0592C11.4077 30.8624 11.1148 30.5757 10.91 30.2291L9.27999 27.4493L6.64998 25.5792C6.37447 25.3821 6.14634 25.1264 5.98214 24.8302C5.81794 24.5339 5.72177 24.2048 5.7007 23.8668C5.67963 23.5287 5.73417 23.1899 5.86031 22.8756C5.98645 22.5612 6.18104 22.2791 6.42995 22.0494L6.64998 21.8492C6.95439 21.576 7.32588 21.3888 7.72646 21.3062C8.12704 21.2237 8.54233 21.249 8.92995 21.3795L10.69 21.9893C11.5875 20.6815 12.5591 19.4259 13.6 18.2291L8.68996 14.9893C8.40622 14.8039 8.1687 14.5562 7.99563 14.2647C7.82255 13.9733 7.71852 13.6461 7.69149 13.3082C7.66446 12.9703 7.71514 12.6308 7.83968 12.3155C7.96422 12.0003 8.15934 11.7175 8.40999 11.4893L8.69997 11.2193C8.82825 11.0908 8.98913 10.9997 9.1653 10.9556C9.34148 10.9116 9.5263 10.9163 9.69997 10.9693L18.7 13.0494C23.29 8.9694 26.7 7.9093 28.62 9.6993C28.9267 9.98027 29.1694 10.3241 29.3316 10.7071C29.4938 11.0902 29.5717 11.5037 29.56 11.9195C29.56 13.8395 27.84 16.3492 24.49 19.3892L25.79 28.5094C25.8124 28.6803 25.7932 28.8543 25.734 29.0162C25.6748 29.1781 25.5774 29.3234 25.45 29.4395L25.16 29.6993C24.7526 30.0786 24.2166 30.2893 23.66 30.2891C23.2514 30.2961 22.8488 30.1908 22.4961 29.9845C22.1433 29.7781 21.8542 29.4788 21.66 29.1192L18.81 23.8492C17.5242 24.7595 16.1888 25.5977 14.81 26.3595L15.2999 28.3595C15.4031 28.7584 15.3952 29.178 15.2771 29.5728C15.159 29.9676 14.9353 30.3224 14.63 30.5992L14.41 30.7994C13.9932 31.1584 13.4601 31.3537 12.91 31.3492ZM8.21999 23.3492C8.20415 23.3426 8.18711 23.3394 8.16994 23.3394C8.15278 23.3394 8.1358 23.3426 8.11995 23.3492L7.88997 23.5592C7.85807 23.591 7.8401 23.6342 7.83999 23.6793C7.84733 23.7267 7.87235 23.7697 7.90999 23.7994L10.72 25.7994C10.8446 25.88 10.9476 25.9897 11.02 26.1192L12.77 29.1192C12.88 29.3092 13 29.1692 13.01 29.1192L13.23 28.9195C13.2545 28.9018 13.2726 28.8766 13.2816 28.8477C13.2906 28.8189 13.29 28.7878 13.28 28.7594L12.58 25.9791C12.5066 25.74 12.5255 25.4823 12.6328 25.2564C12.7402 25.0306 12.9283 24.8534 13.16 24.7594C15.0566 23.7817 16.8665 22.6444 18.57 21.3595C18.6924 21.2719 18.8322 21.2111 18.9798 21.1817C19.1275 21.1524 19.2797 21.155 19.4264 21.189C19.573 21.2231 19.7107 21.288 19.8303 21.3795C19.9499 21.4709 20.0486 21.5867 20.12 21.7193L23.54 28.0391L22.26 19.0391C22.2322 18.8671 22.2499 18.691 22.3113 18.5279C22.3727 18.3648 22.4756 18.2205 22.6099 18.1095C25.6099 15.4595 27.38 13.1094 27.39 11.8194C27.3968 11.6977 27.376 11.576 27.3292 11.4635C27.2825 11.3509 27.211 11.2506 27.12 11.1695C27.0083 11.0677 26.8773 10.9894 26.7346 10.9395C26.592 10.8897 26.4408 10.8693 26.29 10.8795C24.87 10.8795 22.45 12.3495 19.64 14.8795C19.5083 15.0028 19.3474 15.0901 19.1724 15.1339C18.9974 15.1776 18.8142 15.1763 18.64 15.1295L9.75997 13.0592V13.1095L15.69 17.0191C15.8143 17.1033 15.9194 17.2129 15.9987 17.3404C16.0779 17.4679 16.1295 17.6106 16.15 17.7594C16.1735 17.9099 16.1623 18.064 16.1173 18.2096C16.0722 18.3551 15.9945 18.4883 15.89 18.5992C14.4358 20.1795 13.1209 21.8828 11.96 23.6895C11.8367 23.9015 11.6438 24.0638 11.414 24.1495C11.1843 24.2352 10.9319 24.2387 10.7 24.1593L8.14998 23.2691L8.21999 23.3492Z" fill="#464644"/>
<path d="M90.1501 80.9507H53.6002C52.6206 80.948 51.682 80.5569 50.9903 79.8633C50.2986 79.1697 49.9102 78.2301 49.9102 77.2505V52.4106C49.9102 51.4311 50.2986 50.4914 50.9903 49.7979C51.682 49.1043 52.6206 48.7136 53.6002 48.7109H90.1501C91.1314 48.7109 92.0725 49.1005 92.7664 49.7944C93.4603 50.4883 93.8502 51.4293 93.8502 52.4106V77.2505C93.8502 78.2318 93.4603 79.1733 92.7664 79.8672C92.0725 80.5611 91.1314 80.9507 90.1501 80.9507ZM53.6002 51.2109C53.2836 51.2136 52.9809 51.3412 52.7581 51.5659C52.5352 51.7907 52.4101 52.0941 52.4102 52.4106V77.2505C52.4101 77.567 52.5352 77.8709 52.7581 78.0957C52.9809 78.3205 53.2836 78.448 53.6002 78.4507H90.1501C90.4683 78.4507 90.7737 78.3242 90.9987 78.0991C91.2238 77.8741 91.3502 77.5687 91.3502 77.2505V52.4106C91.3502 52.0924 91.2238 51.7871 90.9987 51.562C90.7737 51.337 90.4683 51.2109 90.1501 51.2109H53.6002Z" fill="#464644"/>
<path d="M81.5801 50.9604C81.3149 50.9604 81.0605 50.855 80.8729 50.6675C80.6854 50.4799 80.5801 50.2257 80.5801 49.9604V43.4902C80.5801 43.225 80.4748 42.9707 80.2872 42.7832C80.0997 42.5957 79.8453 42.4902 79.5801 42.4902H64.0801C63.8149 42.4902 63.5605 42.5957 63.373 42.7832C63.1854 42.9707 63.0801 43.225 63.0801 43.4902V49.9604C63.0801 50.2257 62.9747 50.4799 62.7872 50.6675C62.5996 50.855 62.3453 50.9604 62.0801 50.9604C61.8149 50.9604 61.5605 50.855 61.373 50.6675C61.1854 50.4799 61.0801 50.2257 61.0801 49.9604V43.4902C61.0801 42.6946 61.3961 41.9313 61.9587 41.3687C62.5213 40.806 63.2844 40.4902 64.0801 40.4902H79.5801C80.3757 40.4902 81.1388 40.806 81.7014 41.3687C82.264 41.9313 82.5801 42.6946 82.5801 43.4902V49.9604C82.5801 50.2257 82.4748 50.4799 82.2872 50.6675C82.0997 50.855 81.8453 50.9604 81.5801 50.9604Z" fill="#464644"/>
<path d="M78.0601 50.4292C77.7949 50.4292 77.5406 50.3238 77.3531 50.1362C77.1656 49.9487 77.0601 49.6944 77.0601 49.4292V45.8594C77.0601 45.8169 77.0433 45.7761 77.0132 45.7461C76.9832 45.7161 76.9425 45.6992 76.9001 45.6992H66.7802C66.7377 45.6992 66.697 45.7161 66.667 45.7461C66.637 45.7761 66.6201 45.8169 66.6201 45.8594V49.4292C66.6201 49.6944 66.5148 49.9487 66.3273 50.1362C66.1397 50.3238 65.8853 50.4292 65.6201 50.4292C65.3549 50.4292 65.1006 50.3238 64.913 50.1362C64.7255 49.9487 64.6201 49.6944 64.6201 49.4292V45.8594C64.6201 45.2865 64.8477 44.7371 65.2528 44.332C65.6579 43.927 66.2073 43.6992 66.7802 43.6992H76.9001C77.473 43.6992 78.0224 43.927 78.4274 44.332C78.8325 44.7371 79.0601 45.2865 79.0601 45.8594V49.4292C79.0601 49.6944 78.9548 49.9487 78.7673 50.1362C78.5797 50.3238 78.3253 50.4292 78.0601 50.4292Z" fill="#464644"/>
<path d="M59.3701 80.7207C59.1049 80.7207 58.8506 80.6153 58.663 80.4277C58.4755 80.2402 58.3701 79.9859 58.3701 79.7207V49.9805C58.3701 49.7153 58.4755 49.461 58.663 49.2734C58.8506 49.0859 59.1049 48.9805 59.3701 48.9805C59.6353 48.9805 59.8897 49.0859 60.0773 49.2734C60.2648 49.461 60.3701 49.7153 60.3701 49.9805V79.7207C60.3701 79.9859 60.2648 80.2402 60.0773 80.4277C59.8897 80.6153 59.6353 80.7207 59.3701 80.7207Z" fill="#464644"/>
<path d="M63.3799 80.7207C63.1147 80.7207 62.8603 80.6153 62.6728 80.4277C62.4853 80.2402 62.3799 79.9859 62.3799 79.7207V49.9805C62.3799 49.7153 62.4853 49.461 62.6728 49.2734C62.8603 49.0859 63.1147 48.9805 63.3799 48.9805C63.6451 48.9805 63.8994 49.0859 64.087 49.2734C64.2745 49.461 64.3799 49.7153 64.3799 49.9805V79.7207C64.3799 79.9859 64.2745 80.2402 64.087 80.4277C63.8994 80.6153 63.6451 80.7207 63.3799 80.7207Z" fill="#464644"/>
<path d="M80.3799 80.7207C80.1147 80.7207 79.8603 80.6153 79.6727 80.4277C79.4852 80.2402 79.3799 79.9859 79.3799 79.7207V49.9805C79.3799 49.7153 79.4852 49.461 79.6727 49.2734C79.8603 49.0859 80.1147 48.9805 80.3799 48.9805C80.6451 48.9805 80.8994 49.0859 81.0869 49.2734C81.2745 49.461 81.3799 49.7153 81.3799 49.9805V79.7207C81.3799 79.9859 81.2745 80.2402 81.0869 80.4277C80.8994 80.6153 80.6451 80.7207 80.3799 80.7207Z" fill="#464644"/>
<path d="M84.3896 80.7207C84.1244 80.7207 83.8702 80.6153 83.6826 80.4277C83.4951 80.2402 83.3896 79.9859 83.3896 79.7207V49.9805C83.3896 49.7153 83.4951 49.461 83.6826 49.2734C83.8702 49.0859 84.1244 48.9805 84.3896 48.9805C84.6549 48.9805 84.9093 49.0859 85.0968 49.2734C85.2843 49.461 85.3896 49.7153 85.3896 49.9805V79.7207C85.3896 79.9859 85.2843 80.2402 85.0968 80.4277C84.9093 80.6153 84.6549 80.7207 84.3896 80.7207Z" fill="#464644"/>
<path d="M62.3596 80.9492V82.3691C62.3596 82.6344 62.2542 82.8886 62.0667 83.0762C61.8792 83.2637 61.6248 83.3691 61.3596 83.3691H58.5596C58.2944 83.3691 58.04 83.2637 57.8525 83.0762C57.6649 82.8886 57.5596 82.6344 57.5596 82.3691V80.9492H62.4396M62.4396 78.9492H57.5596C57.0291 78.9492 56.5205 79.1601 56.1454 79.5352C55.7703 79.9102 55.5596 80.4188 55.5596 80.9492V82.3691C55.5596 83.1648 55.8757 83.9281 56.4383 84.4907C57.0009 85.0533 57.7639 85.3691 58.5596 85.3691H61.3596C62.1552 85.3691 62.9183 85.0533 63.4809 84.4907C64.0435 83.9281 64.3596 83.1648 64.3596 82.3691V80.9492C64.3596 80.4188 64.1489 79.9102 63.7738 79.5352C63.3987 79.1601 62.89 78.9492 62.3596 78.9492H62.4396Z" fill="#464644"/>
<path d="M86.2004 80.9492V82.3691C86.2004 82.6344 86.0951 82.8886 85.9076 83.0762C85.7201 83.2637 85.4657 83.3691 85.2004 83.3691H82.4004C82.1352 83.3691 81.8809 83.2637 81.6934 83.0762C81.5058 82.8886 81.4004 82.6344 81.4004 82.3691V80.9492H86.2704M86.2704 78.9492H81.4004C80.87 78.9492 80.3613 79.1601 79.9862 79.5352C79.6111 79.9102 79.4004 80.4188 79.4004 80.9492V82.3691C79.4004 83.1648 79.7166 83.9281 80.2792 84.4907C80.8418 85.0533 81.6047 85.3691 82.4004 85.3691H85.2004C85.9961 85.3691 86.7592 85.0533 87.3218 84.4907C87.8844 83.9281 88.2004 83.1648 88.2004 82.3691V80.9492C88.2004 80.4188 87.9897 79.9102 87.6146 79.5352C87.2396 79.1601 86.7309 78.9492 86.2004 78.9492H86.2704Z" fill="#464644"/>
<path d="M77.8502 38.5584C77.7307 38.5621 77.6117 38.5417 77.5003 38.4984C73.646 37.1166 69.9187 35.4039 66.3602 33.3787C64.8508 32.503 63.5506 31.3085 62.5502 29.8787C62.0366 28.9336 61.65 27.9249 61.4002 26.8787C61.1956 25.9774 60.8586 25.111 60.4002 24.3084C59.7674 23.4657 59.0005 22.7327 58.1302 22.1385C57.7902 21.8785 57.4502 21.6187 57.1302 21.3387C55.3102 19.8087 54.4202 18.1085 54.5602 16.4285C54.6855 15.4948 55.0721 14.6155 55.6754 13.8919C56.2787 13.1683 57.0742 12.6299 57.9702 12.3387C58.7297 12.0689 59.5251 11.9139 60.3302 11.8787C60.4754 11.8591 60.6231 11.8696 60.764 11.91C60.9049 11.9503 61.0358 12.0196 61.1486 12.1131C61.2614 12.2066 61.3535 12.3225 61.4193 12.4534C61.485 12.5844 61.5229 12.7275 61.5305 12.8738C61.5382 13.0202 61.5154 13.1665 61.4636 13.3035C61.4119 13.4406 61.3322 13.5655 61.2298 13.6702C61.1273 13.775 61.0043 13.8571 60.8684 13.9119C60.7325 13.9667 60.5867 13.993 60.4402 13.9886C59.8465 14.0068 59.2594 14.1182 58.7002 14.3187C58.1943 14.4867 57.7424 14.7866 57.3909 15.1873C57.0394 15.5881 56.801 16.075 56.7002 16.5984C56.5902 17.8984 57.7902 19.1086 58.5202 19.7186C58.8302 19.9786 59.1402 20.2186 59.4602 20.4686C60.5278 21.1967 61.4587 22.1073 62.2102 23.1585C62.789 24.1378 63.214 25.2001 63.4702 26.3084C63.6653 27.1659 63.9747 27.9933 64.3902 28.7684C65.2388 29.9281 66.3223 30.8961 67.5702 31.6087C70.9802 33.5318 74.5462 35.1641 78.2302 36.4886C78.4715 36.5654 78.6769 36.7269 78.8085 36.9432C78.9401 37.1595 78.9892 37.4162 78.9466 37.6658C78.9039 37.9154 78.7725 38.1412 78.5766 38.3016C78.3806 38.462 78.1334 38.5459 77.8803 38.5384L77.8502 38.5584Z" fill="#464644"/>
<path d="M17.1105 57.4185C16.3521 57.426 15.6106 57.195 14.9905 56.7584C14.3607 56.2824 13.842 55.6747 13.4705 54.9781C13.1705 54.4581 12.8905 53.9182 12.6105 53.3882C12.1833 52.536 11.7092 51.7081 11.1905 50.9083C10.4376 49.6991 9.48783 48.6241 8.3805 47.7281C7.35727 47.0472 6.23361 46.5312 5.05048 46.1983C4.90343 46.1836 4.7611 46.1384 4.63257 46.0655C4.50404 45.9926 4.39221 45.8937 4.3042 45.775C4.21619 45.6563 4.15394 45.5202 4.12152 45.376C4.0891 45.2319 4.0872 45.0825 4.11591 44.9376C4.14462 44.7926 4.20334 44.6552 4.28827 44.5342C4.3732 44.4133 4.48246 44.3116 4.60907 44.2354C4.73569 44.1592 4.87688 44.1103 5.0235 44.0919C5.17013 44.0734 5.31897 44.086 5.46051 44.1285C6.96114 44.5204 8.38229 45.17 9.66052 46.0484C10.9582 47.0833 12.0706 48.331 12.9505 49.7383C13.5096 50.5993 14.0204 51.4906 14.4805 52.4083C14.7505 52.9183 15.0105 53.4083 15.3005 53.9283C15.5256 54.3589 15.8391 54.7371 16.2205 55.0382C16.4188 55.1646 16.6411 55.2486 16.8735 55.2847C17.1058 55.3209 17.3432 55.3084 17.5705 55.2481C17.9274 55.1717 18.265 55.0236 18.5624 54.8121C18.8599 54.6006 19.1111 54.3302 19.3005 54.0181C19.5994 53.3669 19.7399 52.6545 19.7105 51.9385C19.685 50.8333 19.9579 49.7416 20.5005 48.7784C21.0276 48.0629 21.7118 47.478 22.5005 47.0684L22.6105 46.9981C23.237 46.6016 23.8412 46.1714 24.4205 45.7086C25.4581 45.0073 26.3203 44.0764 26.9405 42.9883C27.3303 42.101 27.6285 41.176 27.8305 40.2281C27.8305 40.0881 27.8905 39.9284 27.9205 39.7584C27.9404 39.2251 28.0825 38.7033 28.3356 38.2335C28.5887 37.7637 28.9461 37.3584 29.3805 37.0484C29.7988 36.8243 30.2659 36.7071 30.7405 36.7071C31.215 36.7071 31.6822 36.8243 32.1005 37.0484C32.5268 37.2775 32.8913 37.6064 33.1629 38.0069C33.4345 38.4074 33.6053 38.8674 33.6605 39.3482C33.7105 39.7582 33.8005 39.8282 33.8505 39.8682C33.9361 39.914 34.0334 39.9327 34.1298 39.9219C34.2262 39.9112 34.3171 39.8716 34.3905 39.8082C34.8205 39.4782 35.0305 38.8782 35.0605 37.8082C35.0605 37.6282 35.0605 37.4581 35.0605 37.2681C35.0294 36.4966 35.1137 35.7247 35.3105 34.9781C35.5019 34.3724 35.8154 33.8124 36.2316 33.3326C36.6478 32.8527 37.158 32.4636 37.7305 32.1885C38.149 31.9987 38.5842 31.8478 39.0305 31.7383C39.528 31.6428 39.9967 31.4343 40.4005 31.1285C40.7805 30.7385 40.8005 30.1285 40.7805 29.1285C40.7388 28.4003 40.7993 27.6699 40.9605 26.9586C41.1058 26.3872 41.4278 25.8758 41.8805 25.4981C42.451 25.0622 43.0453 24.6583 43.6605 24.2882C44.7425 23.7534 45.6894 22.981 46.4305 22.0284C46.7031 21.4871 46.845 20.8893 46.845 20.2833C46.845 19.6772 46.7031 19.0795 46.4305 18.5382C46.2104 18.047 45.8919 17.6067 45.4945 17.2437C45.0972 16.8808 44.6295 16.6031 44.1205 16.4283C42.7505 15.9283 40.8605 15.4283 38.8705 14.9683C36.8805 14.5083 34.8705 13.9684 32.8705 13.3384C32.738 13.2974 32.6149 13.2305 32.5084 13.1417C32.4018 13.0528 32.314 12.9434 32.2499 12.8204C32.1858 12.6974 32.1467 12.5631 32.1348 12.4249C32.123 12.2866 32.1386 12.1473 32.1809 12.0152C32.2232 11.8831 32.2913 11.7605 32.3812 11.6548C32.471 11.5492 32.581 11.4624 32.7046 11.3995C32.8282 11.3365 32.9631 11.2987 33.1014 11.2882C33.2397 11.2776 33.3788 11.2949 33.5105 11.3384C35.4305 11.9584 37.4405 12.4483 39.3905 12.9283C41.2422 13.3438 43.0713 13.8547 44.8705 14.4586C45.6481 14.7283 46.3619 15.1551 46.9674 15.7125C47.573 16.2699 48.0574 16.9457 48.3905 17.6983C48.8221 18.5478 49.037 19.4908 49.0161 20.4434C48.9951 21.396 48.739 22.3286 48.2705 23.1583C47.38 24.3805 46.2156 25.3773 44.8705 26.0684C44.3 26.4071 43.7492 26.7775 43.2205 27.1783C43.1448 27.2737 43.0872 27.382 43.0505 27.4981C42.9486 28.0317 42.9151 28.5762 42.9505 29.1182C43.038 29.7438 42.9943 30.3806 42.8221 30.9883C42.6499 31.5961 42.3531 32.1618 41.9505 32.6485C41.3033 33.2386 40.5086 33.6428 39.6505 33.8184C39.3089 33.9016 38.9745 34.012 38.6505 34.1485C38.3432 34.297 38.0695 34.5063 37.846 34.7642C37.6224 35.0221 37.4539 35.3232 37.3505 35.6485C37.2227 36.2023 37.1689 36.7705 37.1905 37.3384C37.1905 37.5384 37.1905 37.7283 37.1905 37.9283C37.2303 38.6057 37.113 39.2833 36.8475 39.9078C36.5821 40.5323 36.1759 41.0869 35.6605 41.5284C35.2151 41.8634 34.6728 42.0445 34.1155 42.0445C33.5581 42.0445 33.0159 41.8634 32.5705 41.5284C32.2749 41.282 32.0335 40.9771 31.8614 40.6329C31.6893 40.2887 31.5902 39.9127 31.5705 39.5284C31.5579 39.3891 31.5112 39.2551 31.4345 39.1382C31.3577 39.0214 31.2533 38.9253 31.1305 38.8585C31.015 38.7972 30.8862 38.7652 30.7555 38.7652C30.6247 38.7652 30.496 38.7972 30.3805 38.8585C30.2005 38.9485 30.0705 39.7382 30.0105 40.0782C29.9505 40.4182 29.9405 40.4785 29.9005 40.6485C29.6815 41.7379 29.3463 42.8006 28.9005 43.8184C28.1454 45.2228 27.0653 46.4261 25.7505 47.3282C25.1101 47.8344 24.4425 48.3053 23.7505 48.7383L23.6405 48.8082C23.1402 49.0703 22.698 49.4309 22.3405 49.8682C22.0081 50.531 21.8498 51.2676 21.8805 52.0084C21.8967 53.0483 21.6636 54.077 21.2005 55.0084C20.8602 55.5734 20.4094 56.0641 19.875 56.4507C19.3406 56.8374 18.7337 57.112 18.0905 57.2584C17.7714 57.3504 17.4423 57.4043 17.1105 57.4185Z" fill="#464644"/>
<path d="M17.2698 66.949H17.1997C16.1438 66.8504 15.1495 66.4079 14.3697 65.6892C13.6724 65.1111 13.0597 64.4378 12.5497 63.6892C12.0648 63.0384 11.7239 62.2915 11.5497 61.4988C11.4802 61.141 11.4995 60.7718 11.6058 60.4231C11.7122 60.0744 11.9024 59.7569 12.1598 59.4988C12.4415 59.2404 12.7865 59.061 13.1598 58.9788C13.5969 58.8743 14.0526 58.8743 14.4897 58.9788C14.9379 59.1089 15.356 59.3266 15.7198 59.6189C16.1982 60.0232 16.6338 60.4757 17.0198 60.969C17.1998 61.189 17.3697 61.3989 17.5597 61.5989C17.7497 61.7989 18.1897 62.2789 18.4897 62.5989C18.8893 63.0079 19.1814 63.5094 19.3398 64.0589C19.4385 64.3907 19.4567 64.7415 19.393 65.0818C19.3293 65.4221 19.1854 65.7422 18.9733 66.0159C18.7612 66.2895 18.487 66.5089 18.1734 66.6555C17.8597 66.8021 17.5157 66.8719 17.1697 66.8591L17.2698 66.949ZM13.6897 61.0589C13.6897 61.0589 13.6897 61.1192 13.6897 61.1892C13.789 61.6635 13.9904 62.1101 14.2798 62.4988C14.6738 63.0769 15.1486 63.5955 15.6897 64.0388C16.1212 64.4566 16.6681 64.7356 17.2597 64.8391C17.302 64.8529 17.3475 64.8529 17.3897 64.8391C17.3925 64.7892 17.3925 64.7392 17.3897 64.6892C17.3041 64.4695 17.1709 64.2714 16.9997 64.1091C16.7097 63.7791 16.4097 63.4591 16.1197 63.1091C15.8297 62.7591 15.6897 62.6292 15.4897 62.3792C15.1907 62.0132 14.8557 61.6782 14.4897 61.3792C14.348 61.2623 14.1851 61.1737 14.0097 61.1189C13.9011 61.0941 13.7883 61.0941 13.6797 61.1189L13.6897 61.0589Z" fill="#464644"/>
<path d="M77.8505 38.7193C77.5632 38.7182 77.285 38.6182 77.0628 38.4361C76.8406 38.2539 76.688 38.0008 76.6305 37.7193C73.4705 21.0893 59.1804 9.47903 41.8804 9.47903C39.3154 9.47892 36.7565 9.73012 34.2404 10.229C34.078 10.2623 33.9107 10.2631 33.7482 10.2305C33.5857 10.1979 33.4313 10.1328 33.2943 10.0396C33.1572 9.94635 33.0402 9.82673 32.9503 9.68753C32.8603 9.54832 32.7992 9.39228 32.7705 9.22903C32.7371 9.06605 32.7367 8.89805 32.7691 8.73489C32.8016 8.57173 32.8662 8.41717 32.9594 8.27933C33.0525 8.14149 33.1722 8.02362 33.3115 7.93265C33.4507 7.84167 33.6068 7.77895 33.7705 7.74905C36.4506 7.21377 39.1774 6.94598 41.9105 6.94925C60.4305 6.94925 75.7305 19.3993 79.1105 37.2193C79.1423 37.3815 79.1417 37.5485 79.1085 37.7105C79.0754 37.8725 79.0104 38.0264 78.9174 38.1631C78.8244 38.2998 78.7052 38.4165 78.5667 38.5069C78.4281 38.5972 78.2731 38.6595 78.1105 38.6895L77.8505 38.7193Z" fill="#464644"/>
<path d="M41.8802 82.7199C19.5802 82.7199 4.00017 67.0097 4.00017 44.4997C3.98775 40.2949 4.66334 36.1167 6.00017 32.1301C6.10625 31.8158 6.33287 31.5566 6.63011 31.4094C6.92736 31.2621 7.27091 31.2388 7.58519 31.3449C7.89947 31.451 8.15874 31.6775 8.30595 31.9748C8.45317 32.272 8.47625 32.6156 8.37016 32.9299C7.11484 36.658 6.47649 40.5659 6.48021 44.4997C6.48021 65.4997 21.0302 80.2199 41.8602 80.2199C43.5042 80.2233 45.1471 80.1301 46.7802 79.9401C46.9473 79.9121 47.1182 79.9181 47.2828 79.9582C47.4474 79.9983 47.6021 80.0713 47.7376 80.173C47.8731 80.2747 47.9864 80.4031 48.0708 80.55C48.1552 80.6969 48.2089 80.8593 48.2286 81.0275C48.2482 81.1958 48.2335 81.3661 48.1853 81.5285C48.1371 81.6909 48.0563 81.8416 47.948 81.9719C47.8396 82.1021 47.7059 82.2093 47.555 82.2863C47.4041 82.3633 47.2392 82.4088 47.0702 82.4201C45.3475 82.6209 43.6145 82.7209 41.8802 82.7199Z" fill="#464644"/>
<path d="M40.8904 48C40.4465 48.0287 40.0018 47.9587 39.5884 47.7944C39.1751 47.6301 38.8034 47.3759 38.5004 47.0503C38.2048 46.6377 38.0459 46.1428 38.0459 45.6353C38.0459 45.1277 38.2048 44.6328 38.5004 44.2202C39.0297 43.5295 39.7544 43.0139 40.5804 42.7402L40.8904 42.6001C41.6046 42.3103 42.2771 41.9273 42.8904 41.4604C43.1417 41.1848 43.363 40.8827 43.5504 40.5601C44.1204 39.6501 44.9004 38.4102 46.3004 38.4102C46.8015 38.4178 47.2903 38.567 47.7104 38.8403C49.5504 39.9603 48.8304 42.2004 48.5904 42.9404C48.3247 43.8752 47.9274 44.7674 47.4104 45.5903C46.729 46.5437 45.7285 47.221 44.5904 47.5C43.6939 47.7543 42.7712 47.9055 41.8404 47.9502H41.7004C41.4704 47.9802 41.1804 48 40.8904 48ZM46.3104 40.52C46.0804 40.52 45.5804 41.3102 45.3104 41.6802C45.0187 42.2069 44.6439 42.6832 44.2004 43.0903C43.4305 43.6838 42.5825 44.1683 41.6804 44.5303L41.3404 44.6802C40.8999 44.8137 40.5029 45.0625 40.1904 45.4004C40.1558 45.4474 40.131 45.5005 40.1172 45.5571C40.1035 45.6138 40.1012 45.6724 40.1104 45.73C40.1104 45.73 40.3004 45.8804 40.8504 45.8804C41.0904 45.8804 41.3204 45.8804 41.5304 45.8804H41.7004C42.4741 45.8467 43.2419 45.7292 43.9904 45.5303C44.6714 45.3875 45.2764 44.9998 45.6904 44.4404C46.0902 43.7828 46.3965 43.0722 46.6004 42.3301C47.0504 40.9401 46.7504 40.7602 46.6004 40.6802C46.5184 40.6038 46.4187 40.5486 46.3104 40.52Z" fill="#464644"/>
<path d="M35.9598 51.7186C35.4108 51.7191 34.8781 51.5323 34.4498 51.1888C33.8439 50.636 33.4482 49.8901 33.3298 49.0785C33.2005 48.6639 33.1667 48.2257 33.2307 47.7962C33.2948 47.3668 33.4552 46.9572 33.6998 46.5985C33.9997 46.2467 34.3863 45.9797 34.8213 45.8236C35.2564 45.6675 35.7247 45.628 36.1798 45.7088C36.7983 45.8157 37.3603 46.1344 37.7691 46.6107C38.1779 47.087 38.408 47.6911 38.4198 48.3187C38.4667 48.9213 38.4058 49.5275 38.2398 50.1087C38.0751 50.5813 37.7667 50.9905 37.3579 51.2792C36.9491 51.5678 36.4603 51.7215 35.9598 51.7186ZM35.7698 47.7884C35.6379 47.7744 35.5049 47.8025 35.3898 47.8685C35.2993 48.1103 35.2993 48.3767 35.3898 48.6185C35.5398 49.3085 35.7298 49.5087 35.7798 49.5487C35.831 49.589 35.8947 49.6103 35.9598 49.6087C36.0179 49.6106 36.0753 49.5955 36.125 49.5653C36.1747 49.5351 36.2146 49.4912 36.2398 49.4388C36.3101 49.1104 36.3303 48.7733 36.2998 48.4388C36.3071 48.2963 36.2625 48.1555 36.1742 48.0433C36.086 47.9312 35.9601 47.8549 35.8198 47.8285L35.7698 47.7884Z" fill="#464644"/>
<path d="M43.1305 77.579H42.9505C42.2454 77.5353 41.5475 77.4115 40.8705 77.2094L40.0705 77.0092C39.5237 76.9028 38.9675 76.8526 38.4105 76.8593C37.9105 76.8593 37.4105 76.8593 36.9105 76.8593C36.4105 76.8593 35.8105 76.9194 35.2705 76.9194H35.1505C33.4062 76.969 31.7089 76.3487 30.4072 75.1864C29.1055 74.0242 28.298 72.4082 28.1505 70.6694C27.9105 67.9594 30.1505 65.8291 32.3105 65.1991C33.5206 64.822 34.8289 64.9185 35.9705 65.4692C36.395 65.6948 36.7911 65.9699 37.1505 66.289C37.3005 66.4659 37.493 66.6018 37.7099 66.684C37.9267 66.7662 38.161 66.7922 38.3905 66.7592H38.5805C38.9511 66.7686 39.3204 66.7111 39.6705 66.5893C39.8979 66.4581 40.1066 66.2966 40.2905 66.1093C40.7252 65.6538 41.2639 65.3107 41.8605 65.1093C42.6379 64.9124 43.4599 64.9972 44.1805 65.349C45.4329 65.9069 46.4811 66.8398 47.1805 68.019C47.8153 69.1601 48.0742 70.4723 47.9205 71.769C47.7798 72.6829 47.5279 73.5763 47.1705 74.4291C46.8926 75.2789 46.3919 76.0388 45.7205 76.6293C44.9933 77.2364 44.0778 77.5719 43.1305 77.579ZM38.4105 74.7392C39.1156 74.7335 39.8192 74.8007 40.5105 74.9394L41.4105 75.1591C41.9376 75.3212 42.4808 75.4252 43.0305 75.4692H43.1305C43.5917 75.4842 44.0439 75.3392 44.4105 75.059C44.7961 74.7094 45.0766 74.2594 45.2205 73.7592C45.5219 73.0579 45.7368 72.3225 45.8605 71.5693C45.9627 70.716 45.7948 69.8519 45.3805 69.099C44.9042 68.3213 44.2083 67.7022 43.3805 67.3193C43.1168 67.18 42.8136 67.1343 42.5205 67.1894C42.2433 67.314 41.9949 67.4942 41.7905 67.7192C41.4674 68.0366 41.1003 68.3059 40.7005 68.519C40.0941 68.7793 39.4405 68.9122 38.7805 68.9091H38.6005C38.0999 68.9546 37.5953 68.8887 37.1233 68.7157C36.6512 68.5428 36.2233 68.2673 35.8705 67.9091C35.6314 67.6876 35.3661 67.4964 35.0805 67.3393C34.4183 67.044 33.67 67.0045 32.9806 67.2289C32.2426 67.4016 31.5828 67.8145 31.105 68.4028C30.6272 68.991 30.3583 69.7213 30.3405 70.4789C30.447 71.682 31.0076 72.7996 31.9086 73.6039C32.8096 74.4083 33.9831 74.8391 35.1905 74.809H35.3005C35.8105 74.809 36.3005 74.8089 36.8205 74.7489C37.3405 74.6889 37.8705 74.7192 38.4105 74.7192V74.7392Z" fill="#464644"/>
<path d="M27.6 58.2095C27.2138 58.2047 26.8352 58.1012 26.5 57.9092C25.24 57.1992 24.94 55.4391 24.78 54.4991C24.6189 53.6433 24.6189 52.765 24.78 51.9092C24.8479 51.6113 24.9591 51.3248 25.11 51.0591C25.3958 50.5727 25.8577 50.2147 26.4 50.0591C26.7998 49.9701 27.216 49.9891 27.6061 50.1138C27.9962 50.2386 28.3461 50.4646 28.62 50.7691C29.1982 51.4577 29.5968 52.2789 29.78 53.1592C30.0568 54.1548 30.1182 55.1981 29.96 56.2193C29.8599 56.7739 29.5693 57.2759 29.1385 57.6392C28.7076 58.0025 28.1636 58.2045 27.6 58.2095ZM26.9 52.0894C26.9 52.1994 26.9 52.2692 26.84 52.3492C26.7303 52.9408 26.7303 53.5476 26.84 54.1392C27.08 55.5592 27.34 55.9692 27.52 56.0792H27.58C27.6439 56.071 27.7039 56.0439 27.7521 56.001C27.8003 55.9582 27.8344 55.902 27.85 55.8394C27.9442 55.1299 27.8932 54.4085 27.7 53.7193C27.5881 53.1766 27.3595 52.6648 27.03 52.2193C27.0003 52.1642 26.9551 52.1191 26.9 52.0894Z" fill="#464644"/>
<path d="M22.76 65.0902C22.0722 65.1036 21.3898 64.9672 20.76 64.6903C20.4212 64.5214 20.1205 64.2846 19.8767 63.995C19.6328 63.7054 19.4509 63.3689 19.3422 63.0062C19.2335 62.6435 19.2003 62.2626 19.2447 61.8866C19.289 61.5106 19.41 61.1476 19.6001 60.8202C19.9482 60.1447 20.4286 59.5461 21.0127 59.0599C21.5967 58.5738 22.2726 58.2099 23 57.9901C23.4298 57.8515 23.8785 57.7807 24.33 57.7801C24.7059 57.7412 25.0857 57.7808 25.4453 57.8968C25.8049 58.0128 26.1364 58.2028 26.4186 58.454C26.7009 58.7052 26.9276 59.0121 27.0846 59.3558C27.2415 59.6995 27.3251 60.0722 27.33 60.45C27.3494 60.916 27.2781 61.3814 27.12 61.8202C26.879 62.4887 26.52 63.1086 26.06 63.6502C25.4615 64.3832 24.6145 64.8704 23.68 65.0199C23.376 65.0701 23.0682 65.0938 22.76 65.0902ZM24.3501 59.89C24.1256 59.8915 23.9028 59.9285 23.69 59.9999C23.2357 60.124 22.8111 60.3386 22.4417 60.6307C22.0722 60.9228 21.7656 61.2866 21.5401 61.7C21.3901 62.01 21.23 62.5601 21.69 62.7801C22.2019 62.9799 22.7588 63.0354 23.3 62.9403C23.7268 62.8736 24.1145 62.6529 24.39 62.3202C24.6914 61.9714 24.9285 61.5717 25.0901 61.14C25.1614 60.9413 25.1953 60.7309 25.19 60.5199C25.18 60.3299 25.1701 59.89 24.3501 59.89Z" fill="#464644"/>
<path d="M48.8202 38.9098C48.1849 38.9609 47.5476 38.838 46.9768 38.5544C46.406 38.2707 45.9232 37.8372 45.5803 37.3L45.5203 37.1901C45.3279 36.7402 45.2373 36.2529 45.2551 35.7638C45.2729 35.2748 45.3985 34.7958 45.6231 34.361C45.8477 33.9262 46.1656 33.5468 46.5541 33.2492C46.9426 32.9516 47.392 32.7434 47.8702 32.6398C48.5345 32.494 49.226 32.5318 49.8702 32.7497C50.5007 32.9907 51.0465 33.4119 51.4402 33.9601C51.9541 34.6632 52.1795 35.5361 52.0702 36.4001C52.0137 37.0352 51.7351 37.6298 51.2833 38.0798C50.8316 38.5297 50.2356 38.8061 49.6003 38.86C49.3414 38.8912 49.081 38.9077 48.8202 38.9098ZM47.4202 36.2599C47.5402 36.4399 47.8602 36.8 48.8202 36.8C49.0033 36.8149 49.1872 36.8149 49.3702 36.8C49.5215 36.7985 49.6671 36.7416 49.7794 36.6403C49.8918 36.539 49.9632 36.4 49.9803 36.2497C50.0477 35.9043 49.9797 35.5462 49.7903 35.2497C49.6388 35.0258 49.4274 34.8493 49.1802 34.7399C48.9053 34.6646 48.6152 34.6646 48.3403 34.7399C48.1723 34.7726 48.0131 34.8408 47.8733 34.9396C47.7335 35.0384 47.6162 35.1657 47.5293 35.3131C47.4423 35.4606 47.3877 35.6245 47.3689 35.7946C47.3501 35.9647 47.3676 36.1371 47.4202 36.3V36.2599Z" fill="#464644"/>
</g>
<defs>
<clipPath id="clip0_542_134">
<rect width="89.85" height="78.4" fill="white" transform="translate(4 7)"/>
</clipPath>
</defs>
</svg>
