<svg width="99" height="92" viewBox="0 0 99 92" fill="none" xmlns="http://www.w3.org/2000/svg">
<g clip-path="url(#clip0_542_150)">
<path d="M69.7004 41.1893L80.6005 35.8694L83.3204 34.5394C83.5104 34.4494 83.9704 34.2895 84.0204 34.1795C84.0704 34.0695 83.1804 34.1194 83.5704 33.5594C83.5104 33.6394 83.5704 33.9591 83.5704 34.0491V62.5594C83.5205 62.8606 83.5205 63.1678 83.5704 63.469C83.6704 63.719 83.6604 63.2591 83.7604 63.0691C83.8604 62.8791 84.2604 63.0691 83.6304 62.7391L82.1204 61.9993L69.7205 55.9393C69.3407 55.7333 68.8967 55.6798 68.4788 55.7894C68.0608 55.8989 67.7003 56.1632 67.4705 56.5291C67.2595 56.9078 67.203 57.3534 67.313 57.7728C67.4229 58.1921 67.6908 58.5526 68.0604 58.7791L79.8605 64.5394C81.5705 65.3794 83.7005 66.9893 85.6005 65.7693C85.9877 65.5195 86.3054 65.176 86.5239 64.7703C86.7425 64.3646 86.8548 63.9103 86.8505 63.4495C86.9405 60.8995 86.8505 58.3394 86.8505 55.7894V34.0491C86.874 33.6739 86.8471 33.2976 86.7704 32.9295C86.6365 32.4344 86.3687 31.9854 85.9965 31.6326C85.6242 31.2798 85.162 31.0367 84.6604 30.9295C83.4504 30.6495 82.4204 31.2894 81.3704 31.8094L68.0404 38.3191C67.6649 38.5402 67.392 38.901 67.2815 39.3226C67.171 39.7441 67.2317 40.1922 67.4504 40.5691C67.6785 40.9371 68.0398 41.2028 68.459 41.3108C68.8782 41.4189 69.3229 41.361 69.7004 41.1492V41.1893Z" fill="#464644"/>
<path d="M29.87 8.00022C28.0363 7.99118 26.2478 8.56827 24.7654 9.64768C23.283 10.7271 22.1844 12.2523 21.63 14.0002C21.0995 15.6809 21.0806 17.4816 21.5756 19.1731C22.0706 20.8646 23.0572 22.3706 24.4101 23.5002C25.8358 24.562 27.5376 25.19 29.3113 25.3088C31.085 25.4277 32.8554 25.0323 34.4101 24.1701C35.9022 23.2438 37.0814 21.8903 37.7947 20.2854C38.508 18.6805 38.7224 16.8984 38.4101 15.1701C38.0708 13.165 37.0295 11.3458 35.4723 10.0378C33.9152 8.72981 31.9437 8.01811 29.9101 8.03C27.9101 8.03 27.9101 11.0303 29.9101 11.1003C31.1011 11.0739 32.2676 11.4406 33.2293 12.1438C34.1909 12.8469 34.8941 13.847 35.2301 14.99C35.5636 16.0753 35.5767 17.2342 35.2681 18.3269C34.9595 19.4195 34.3422 20.3996 33.4902 21.1501C33.124 21.3989 32.7396 21.6196 32.3401 21.8103C31.4964 22.1419 30.5926 22.2935 29.6868 22.2556C28.781 22.2177 27.8932 21.991 27.0801 21.5901C26.1161 21.0167 25.3445 20.1698 24.8637 19.1565C24.3829 18.1432 24.2145 17.0094 24.38 15.9001C24.5455 14.558 25.2022 13.3246 26.2234 12.4382C27.2447 11.5518 28.558 11.0753 29.9101 11.1003C31.8501 11.0403 31.85 7.97022 29.87 8.00022Z" fill="#464644"/>
<path d="M51.5801 8.00022C49.7463 7.99118 47.9577 8.56827 46.4753 9.64768C44.9929 10.7271 43.8944 12.2523 43.3401 14.0002C42.8096 15.6809 42.7905 17.4816 43.2855 19.1731C43.7805 20.8646 44.7671 22.3706 46.12 23.5002C47.5457 24.562 49.2476 25.19 51.0213 25.3088C52.7951 25.4277 54.5653 25.0323 56.12 24.1701C57.614 23.2458 58.7949 21.8928 59.5084 20.2873C60.2219 18.6819 60.4351 16.8985 60.12 15.1701C59.7826 13.1641 58.7419 11.3437 57.1843 10.0354C55.6267 8.72701 53.6541 8.01609 51.62 8.03C49.62 8.03 49.62 11.0303 51.62 11.1003C52.8102 11.0773 53.9752 11.445 54.9361 12.1477C55.8971 12.8503 56.6011 13.8488 56.94 14.99C57.2735 16.0753 57.2866 17.2342 56.978 18.3269C56.6694 19.4195 56.0521 20.3996 55.2001 21.1501C54.8305 21.3989 54.4427 21.6197 54.04 21.8103C53.198 22.1416 52.296 22.293 51.3918 22.2551C50.4877 22.2172 49.6014 21.9907 48.79 21.5901C47.826 21.0167 47.0545 20.1698 46.5737 19.1565C46.0929 18.1432 45.9245 17.0094 46.0901 15.9001C46.2555 14.558 46.9121 13.3246 47.9333 12.4382C48.9546 11.5518 50.2679 11.0753 51.62 11.1003C53.55 11.0403 53.5601 7.97022 51.5801 8.00022Z" fill="#464644"/>
<path d="M11.0002 34.0411V61.0411C11.0002 62.8611 10.9002 64.6911 12.0002 66.2711C12.5513 67.09 13.296 67.7605 14.1682 68.2227C15.0404 68.685 16.0131 68.9246 17.0002 68.921C20.0002 68.921 22.9202 68.921 25.8802 68.921H60.5603C62.8303 68.921 65.4103 69.3112 67.4903 68.2012C68.3603 67.7006 69.0908 66.9894 69.6149 66.1334C70.1391 65.2773 70.44 64.3033 70.4903 63.3008C70.6303 60.8008 70.4903 58.2508 70.4903 55.7408C70.4903 51.2674 70.4903 46.7942 70.4903 42.3209V36.9312C70.6404 35.3457 70.5426 33.7463 70.2003 32.191C69.7858 30.9835 68.9969 29.9398 67.9484 29.2115C66.9 28.4831 65.6464 28.1082 64.3702 28.1412H21.3003C18.9203 28.1412 15.8303 27.7208 13.7303 29.0508C12.889 29.5864 12.1961 30.3255 11.7155 31.1993C11.2349 32.0731 10.9821 33.0536 10.9803 34.0508C10.9203 36.1708 14.2002 36.1708 14.2602 34.0508C14.3502 30.9608 17.7802 31.4708 19.8902 31.4708H58.6103C60.6103 31.4708 62.6103 31.4008 64.6103 31.4708C65.0894 31.4698 65.5595 31.6 65.9702 31.8467C66.3808 32.0935 66.7162 32.4477 66.9403 32.8712C67.5003 33.9712 67.2203 35.5608 67.2303 36.7608V47.7608C67.2303 52.4275 67.2303 57.0941 67.2303 61.7608C67.2303 63.2808 67.2303 64.8611 65.6003 65.5211C64.7325 65.7454 63.8304 65.8066 62.9403 65.7012H17.5903C16.3203 65.7012 15.0803 65.511 14.4903 64.191C14.2823 63.5979 14.2072 62.9662 14.2702 62.3409V34.0709C14.2203 33.6748 14.0284 33.3104 13.7302 33.045C13.4319 32.7796 13.0476 32.6312 12.6484 32.6275C12.2492 32.6238 11.8621 32.765 11.559 33.025C11.256 33.2849 11.0574 33.646 11.0002 34.0411Z" fill="#464644"/>
<path d="M53.9296 81.7104L41.9296 67.4507C41.6203 67.1423 41.2013 66.9688 40.7645 66.9688C40.3278 66.9688 39.9089 67.1423 39.5996 67.4507C39.3013 67.7632 39.1348 68.1783 39.1348 68.6104C39.1348 69.0424 39.3013 69.458 39.5996 69.7705L51.5996 84.0303C51.7519 84.1827 51.9327 84.3038 52.1317 84.3862C52.3308 84.4687 52.5441 84.5112 52.7595 84.5112C52.975 84.5112 53.1884 84.4687 53.3875 84.3862C53.5865 84.3038 53.7673 84.1827 53.9196 84.0303C54.2225 83.7202 54.3921 83.3041 54.3921 82.8706C54.3921 82.4371 54.2225 82.0206 53.9196 81.7104H53.9296Z" fill="#464644"/>
<path d="M39.6005 67.4512L27.6005 81.7109C27.3015 82.0251 27.1348 82.4423 27.1348 82.876C27.1348 83.3097 27.3015 83.7268 27.6005 84.041C27.9106 84.344 28.3268 84.5137 28.7604 84.5137C29.1939 84.5137 29.6103 84.344 29.9204 84.041L41.9204 69.771C42.0727 69.618 42.1934 69.4365 42.2756 69.2368C42.3578 69.0372 42.3999 68.8233 42.3994 68.6074C42.3989 68.3915 42.356 68.1778 42.2729 67.9785C42.1899 67.7792 42.0684 67.5981 41.9154 67.4458C41.7624 67.2935 41.581 67.173 41.3813 67.0908C41.1817 67.0086 40.9677 66.9663 40.7518 66.9668C40.5359 66.9673 40.3223 67.0102 40.123 67.0933C39.9238 67.1763 39.7428 67.2982 39.5905 67.4512H39.6005Z" fill="#464644"/>
<path d="M42.4102 82.8696V68.6094C42.3778 68.1952 42.1906 67.8084 41.8856 67.5264C41.5807 67.2443 41.1805 67.0879 40.7651 67.0879C40.3497 67.0879 39.9497 67.2443 39.6448 67.5264C39.3398 67.8084 39.1524 68.1952 39.1201 68.6094V82.8696C39.1524 83.2838 39.3398 83.6701 39.6448 83.9521C39.9497 84.2342 40.3497 84.3911 40.7651 84.3911C41.1805 84.3911 41.5807 84.2342 41.8856 83.9521C42.1906 83.6701 42.3778 83.2838 42.4102 82.8696Z" fill="#464644"/>
<path d="M36.3903 57C36.0705 56.9963 35.7571 56.9102 35.4803 56.75C35.2039 56.5916 34.9741 56.3631 34.8143 56.0874C34.6545 55.8117 34.5704 55.4988 34.5703 55.1802V41.96C34.5706 41.64 34.6548 41.3256 34.8145 41.0483C34.9741 40.7711 35.2038 40.5407 35.4803 40.3799C35.7563 40.2182 36.0704 40.1328 36.3903 40.1328C36.7101 40.1328 37.0243 40.2182 37.3003 40.3799L48.7502 46.9897C49.0264 47.1496 49.2557 47.3793 49.415 47.6558C49.5744 47.9322 49.6583 48.2459 49.6583 48.5649C49.6583 48.884 49.5744 49.1977 49.415 49.4741C49.2557 49.7506 49.0264 49.9802 48.7502 50.1401L37.3003 56.75C37.024 56.9115 36.7102 56.9977 36.3903 57ZM37.6503 44.4697V52.71L45.0002 48.6201L37.6503 44.4697Z" fill="#464644"/>
</g>
<defs>
<clipPath id="clip0_542_150">
<rect width="75.9" height="76.52" fill="white" transform="translate(11 8)"/>
</clipPath>
</defs>
</svg>
