<svg id="分離模式" xmlns="http://www.w3.org/2000/svg" viewBox="0 0 98.87 92.36"><defs><style>.cls-1{fill:#464644;}</style></defs><path class="cls-1" d="M1254.79,4959.92c1.54.46,3,1,4.56,1.61a46.42,46.42,0,0,1,4.76,2.05l.44.24c.09.05.32.14.37.23-.05-.1,0,0,0,0a1.64,1.64,0,0,1-.09.44c-.09.33-.19.66-.27,1a.64.64,0,0,0,1.24.34,6.38,6.38,0,0,0,.4-1.87,1.44,1.44,0,0,0-.83-1.16,19.4,19.4,0,0,0-2-1c-1.85-.82-3.75-1.56-5.65-2.25-.83-.29-1.67-.59-2.52-.85a.65.65,0,0,0-.34,1.25Z" transform="translate(-1242.63 -4904.35)"/><path class="cls-1" d="M1265.19,4966.53h0a1,1,0,0,1-.76-.37.86.86,0,0,1-.14-.75l.12-.46c0-.17.1-.35.14-.52a1.15,1.15,0,0,0,.08-.29l-.09,0-.11-.06-.44-.24a47.14,47.14,0,0,0-4.73-2c-1.37-.52-3-1.13-4.55-1.6a.87.87,0,0,1-.61-1,.86.86,0,0,1,1.1-.73c.89.26,1.77.58,2.53.85,2.15.77,4,1.51,5.67,2.25a20.82,20.82,0,0,1,2.06,1,1.72,1.72,0,0,1,1,1.36,3.91,3.91,0,0,1-.27,1.47c-.05.17-.1.33-.14.48A.82.82,0,0,1,1265.19,4966.53Zm-.07-2.35a1.24,1.24,0,0,1-.09.4c0,.15-.09.33-.13.5s-.09.31-.13.46a.36.36,0,0,0,.06.32.48.48,0,0,0,.36.17h0a.33.33,0,0,0,.34-.27,4.74,4.74,0,0,1,.15-.5,3.85,3.85,0,0,0,.24-1.29,1.21,1.21,0,0,0-.71-1,18.8,18.8,0,0,0-2-1c-1.65-.74-3.5-1.47-5.64-2.24-.75-.27-1.63-.58-2.5-.85a.37.37,0,0,0-.47.33.38.38,0,0,0,.27.44c1.6.48,3.2,1.09,4.58,1.61a46.9,46.9,0,0,1,4.78,2.07l.46.25.08,0a.92.92,0,0,1,.3.18l0,0,0,.06A.25.25,0,0,1,1265.12,4964.18Z" transform="translate(-1242.63 -4904.35)"/><path class="cls-1" d="M1270.48,4941.72a12.42,12.42,0,0,0-5.7,2.32,10.48,10.48,0,0,0-2,1.76,20.62,20.62,0,0,0-1.5,2.3c-.45.71.67,1.35,1.11.65a23.52,23.52,0,0,1,1.28-2,8.59,8.59,0,0,1,1.76-1.59,11.08,11.08,0,0,1,5-2.14.67.67,0,0,0,.65-.65.65.65,0,0,0-.65-.64Z" transform="translate(-1242.63 -4904.35)"/><path class="cls-1" d="M1261.86,4949.3h0a1,1,0,0,1-.83-.48.79.79,0,0,1,0-.85,21.94,21.94,0,0,1,1.51-2.32,10.39,10.39,0,0,1,2.06-1.82,12.8,12.8,0,0,1,5.81-2.36h0a.9.9,0,0,1,.93.89.92.92,0,0,1-.89.9,10.66,10.66,0,0,0-4.91,2.1,7.91,7.91,0,0,0-1.72,1.54,23,23,0,0,0-1.25,2A.89.89,0,0,1,1261.86,4949.3Zm8.62-7.33a12.19,12.19,0,0,0-5.55,2.27,10.34,10.34,0,0,0-2,1.72,22.13,22.13,0,0,0-1.48,2.27.34.34,0,0,0,0,.35.48.48,0,0,0,.4.22h0a.37.37,0,0,0,.32-.18,23.68,23.68,0,0,1,1.28-2,8.71,8.71,0,0,1,1.83-1.66,11.32,11.32,0,0,1,5.16-2.18.43.43,0,0,0,.43-.4A.4.4,0,0,0,1270.48,4942Z" transform="translate(-1242.63 -4904.35)"/><path class="cls-1" d="M1262,4947.82a2.65,2.65,0,0,0-2.44-1,2.4,2.4,0,0,0-1.87,1.7,4.79,4.79,0,0,0,.87,4.4,6,6,0,0,0,2,1.57.66.66,0,0,0,.88-.23.64.64,0,0,0-.23-.88,4,4,0,0,1-2.45-3,2.41,2.41,0,0,1,.45-2c.59-.58,1.4-.1,1.83.42a.65.65,0,0,0,.91,0,.67.67,0,0,0,0-.91Z" transform="translate(-1242.63 -4904.35)"/><path class="cls-1" d="M1260.93,4954.81a.88.88,0,0,1-.44-.12,6.22,6.22,0,0,1-2.12-1.63,5,5,0,0,1-.92-4.65,2.67,2.67,0,0,1,2.08-1.86,2.06,2.06,0,0,1,.35,0,2.93,2.93,0,0,1,2.32,1.14.91.91,0,0,1,0,1.24.93.93,0,0,1-1.27,0c-.35-.42-1-.85-1.48-.42a2.22,2.22,0,0,0-.37,1.82,3.73,3.73,0,0,0,2.32,2.83.91.91,0,0,1,.33,1.23A.92.92,0,0,1,1260.93,4954.81Zm-1-7.78h-.29a2.22,2.22,0,0,0-1.67,1.55,4.51,4.51,0,0,0,.84,4.15,5.8,5.8,0,0,0,2,1.51.41.41,0,0,0,.56-.14.4.4,0,0,0-.14-.53,4.21,4.21,0,0,1-2.58-3.2,2.65,2.65,0,0,1,.52-2.25,1.15,1.15,0,0,1,.81-.33,1.93,1.93,0,0,1,1.39.78.45.45,0,0,0,.54,0,.4.4,0,0,0,0-.56l0,0A2.43,2.43,0,0,0,1259.88,4947Z" transform="translate(-1242.63 -4904.35)"/><path class="cls-1" d="M1271.66,4948.22c.17.52.1,1.73-.84,1.85-1.25,0-1.35-1.43-1-2.13A1,1,0,0,1,1271.66,4948.22Z" transform="translate(-1242.63 -4904.35)"/><path class="cls-1" d="M1270.79,4950.32a1.27,1.27,0,0,1-1.16-.64,2,2,0,0,1,0-1.86,1.25,1.25,0,0,1,1.06-.62,1.31,1.31,0,0,1,1.18.92,2.11,2.11,0,0,1-.18,1.65,1.18,1.18,0,0,1-.86.55Zm-.08-2.62a.73.73,0,0,0-.62.37,1.53,1.53,0,0,0,0,1.37.8.8,0,0,0,.73.38v.25l0-.25a.65.65,0,0,0,.48-.32,1.63,1.63,0,0,0,.13-1.2A.81.81,0,0,0,1270.71,4947.7Z" transform="translate(-1242.63 -4904.35)"/><path class="cls-1" d="M1265.58,4963.15a14.78,14.78,0,0,0,.65-1.54l.18-.5a.5.5,0,0,0,0-.13c0-.13,0,.11,0,.09,0,.15.91.22,1.07.24a9,9,0,0,0,1.47.06,7.2,7.2,0,0,0,2.85-.62,4.44,4.44,0,0,0,2-2.15,13.57,13.57,0,0,0,.9-3.18q0-.33.09-.66a2.12,2.12,0,0,1,.33-.56,10.24,10.24,0,0,1,.85-.76,1.76,1.76,0,0,0,0-2.56c-.29-.3-.67-.47-.94-.79a2.93,2.93,0,0,1-.43-.89,8.41,8.41,0,0,1-.23-2.69,27.88,27.88,0,0,0,0-3.54.65.65,0,0,0-.64-.64.64.64,0,0,0-.64.64c.19,1.9-.22,3.8,0,5.7a4.6,4.6,0,0,0,.94,2.33c.26.31.63.48.91.76a.77.77,0,0,1,.24.43.27.27,0,0,1-.09.24,8,8,0,0,1-.76.66,3.09,3.09,0,0,0-.85,1.39c-.11.41-.14.89-.24,1.34a14.72,14.72,0,0,1-.42,1.58,3.73,3.73,0,0,1-1.54,2.16,5.56,5.56,0,0,1-2.51.53,7,7,0,0,1-1.52-.11c-.55-.11-1-.33-1.54,0a1.6,1.6,0,0,0-.61,1,16.27,16.27,0,0,1-.64,1.55.66.66,0,0,0,.23.88.64.64,0,0,0,.88-.23Z" transform="translate(-1242.63 -4904.35)"/><path class="cls-1" d="M1265,4963.72h0a.89.89,0,0,1-.45-.12.92.92,0,0,1-.33-1.22,14.46,14.46,0,0,0,.62-1.51,1.85,1.85,0,0,1,.72-1.1,1.82,1.82,0,0,1,1.45-.1l.27.07a6.49,6.49,0,0,0,1.46.1,5.29,5.29,0,0,0,2.4-.5,3.41,3.41,0,0,0,1.42-2,13.46,13.46,0,0,0,.42-1.54c0-.2.07-.41.1-.62s.07-.5.13-.73a3.35,3.35,0,0,1,.93-1.51,9.72,9.72,0,0,0,.76-.66.44.44,0,0,0-.15-.31,3.68,3.68,0,0,0-.38-.31,3,3,0,0,1-.55-.47,4.77,4.77,0,0,1-1-2.46,15.67,15.67,0,0,1,0-3.06,17.9,17.9,0,0,0,0-2.64.89.89,0,1,1,1.78,0,16,16,0,0,1,0,2.5c0,.35,0,.7,0,1.06a8.13,8.13,0,0,0,.22,2.61,2.36,2.36,0,0,0,.4.81,2.53,2.53,0,0,0,.45.39,2.73,2.73,0,0,1,.46.38,2,2,0,0,1,0,2.91,10.45,10.45,0,0,0-.84.76,1.65,1.65,0,0,0-.27.47,4.69,4.69,0,0,0-.08.59,13.3,13.3,0,0,1-.92,3.25,4.67,4.67,0,0,1-2.06,2.28,7.32,7.32,0,0,1-3,.65,9.51,9.51,0,0,1-1.5-.06h-.09a7,7,0,0,1-.78-.12,2.77,2.77,0,0,0-.1.26c-.21.57-.43,1.08-.66,1.57A.91.91,0,0,1,1265,4963.72Zm1.29-3.66a.88.88,0,0,0-.47.13,1.43,1.43,0,0,0-.5.81,14.61,14.61,0,0,1-.65,1.61.42.42,0,0,0,.13.56.43.43,0,0,0,.54-.15q.32-.68.63-1.5l.15-.43a.28.28,0,0,1,0-.15c0-.1.09-.25.26-.25a.25.25,0,0,1,.19.09.25.25,0,0,1,.06.17c.11,0,.32.06.7.1h.1a8.51,8.51,0,0,0,1.43.06,7,7,0,0,0,2.76-.59,4.24,4.24,0,0,0,1.82-2,13.06,13.06,0,0,0,.88-3.12,5.73,5.73,0,0,1,.1-.67,2.19,2.19,0,0,1,.37-.66,9.31,9.31,0,0,1,.89-.8,1.53,1.53,0,0,0,0-2.2,4.46,4.46,0,0,0-.39-.32,2.35,2.35,0,0,1-.56-.49,2.71,2.71,0,0,1-.48-1,8.54,8.54,0,0,1-.24-2.76c0-.35,0-.71,0-1.07a15.17,15.17,0,0,0,0-2.43.42.42,0,0,0-.41-.42.4.4,0,0,0-.38.39,18.72,18.72,0,0,1,0,2.7,16.4,16.4,0,0,0,0,3,4.29,4.29,0,0,0,.9,2.2,2.2,2.2,0,0,0,.46.39,4.58,4.58,0,0,1,.42.35,1,1,0,0,1,.31.57.54.54,0,0,1-.16.46,8.44,8.44,0,0,1-.78.68,2.8,2.8,0,0,0-.76,1.26,4.36,4.36,0,0,0-.12.68c0,.21-.07.43-.11.64a14.5,14.5,0,0,1-.43,1.6,3.91,3.91,0,0,1-1.65,2.31,5.9,5.9,0,0,1-2.64.56,7.69,7.69,0,0,1-1.57-.11l-.29-.07A2.68,2.68,0,0,0,1266.32,4960.06Z" transform="translate(-1242.63 -4904.35)"/><path class="cls-1" d="M1258.46,4952.34a6.72,6.72,0,0,1-.73,1.24l-.12.15-.07.09c-.09.12-.19.23-.29.34s-.4.45-.61.67a10.4,10.4,0,0,1-2.68,2.07.64.64,0,1,0,.65,1.11h0a11.8,11.8,0,0,0,2.94-2.27,9.41,9.41,0,0,0,2-2.75.64.64,0,1,0-1.11-.65Z" transform="translate(-1242.63 -4904.35)"/><path class="cls-1" d="M1254.28,4958.35a.9.9,0,0,1-.45-1.67,10.19,10.19,0,0,0,2.63-2q.32-.33.6-.66c.1-.11.19-.22.28-.34l.05-.06,0,0h0l.1-.13a7.21,7.21,0,0,0,.73-1.21.89.89,0,1,1,1.55.87,9.69,9.69,0,0,1-2.06,2.8,11.88,11.88,0,0,1-3,2.32A.87.87,0,0,1,1254.28,4958.35Zm3.51-4.44-.06.07-.29.35c-.2.23-.41.45-.62.67a10.65,10.65,0,0,1-2.74,2.12.39.39,0,0,0-.14.53.4.4,0,0,0,.54.14,11.84,11.84,0,0,0,2.89-2.22,9.46,9.46,0,0,0,2-2.68.41.41,0,0,0-.13-.57.42.42,0,0,0-.53.15,7.75,7.75,0,0,1-.75,1.26l-.12.15h0Z" transform="translate(-1242.63 -4904.35)"/><path class="cls-1" d="M1273.88,4955.08a4.53,4.53,0,0,1-.53-.05l.17,0a4.25,4.25,0,0,1-1.06-.28l.15.07a2.32,2.32,0,0,1-.41-.22.65.65,0,0,0-.65,1.12,4.86,4.86,0,0,0,2.33.62.64.64,0,0,0,.64-.64.65.65,0,0,0-.64-.65Z" transform="translate(-1242.63 -4904.35)"/><path class="cls-1" d="M1273.88,4956.62h0a5.06,5.06,0,0,1-2.46-.66.91.91,0,0,1-.32-1.22.92.92,0,0,1,1.22-.32l.3.16a3.86,3.86,0,0,0,.81.21l.46,0a.9.9,0,0,1,.88.89.89.89,0,0,1-.89.9Zm-2-1.82a.39.39,0,0,0-.35.19.4.4,0,0,0,.15.54,4.55,4.55,0,0,0,2.2.59.39.39,0,0,0,.39-.4.41.41,0,0,0-.4-.39l-.34,0h0l-.09,0h-.13a5.78,5.78,0,0,1-.69-.17l-.07,0-.15-.07-.06,0-.24-.14A.53.53,0,0,0,1271.88,4954.8Z" transform="translate(-1242.63 -4904.35)"/><path class="cls-1" d="M1274.16,4942.63a4.1,4.1,0,0,0-1.6-1.23.48.48,0,0,0-.24-.07.43.43,0,0,0-.25,0,.63.63,0,0,0-.45.79.62.62,0,0,0,.29.38,3.56,3.56,0,0,1,.82.49l-.13-.1a3.47,3.47,0,0,1,.64.63.63.63,0,0,0,.46.19.66.66,0,0,0,.46-.19.63.63,0,0,0,.18-.45l0-.17a.64.64,0,0,0-.16-.29Z" transform="translate(-1242.63 -4904.35)"/><path class="cls-1" d="M1273.7,4944a.88.88,0,0,1-.63-.26,3.53,3.53,0,0,0-.58-.58,4.14,4.14,0,0,0-.68-.39.81.81,0,0,1-.43-.55.85.85,0,0,1,.09-.68.9.9,0,0,1,.53-.41.69.69,0,0,1,.38,0,.76.76,0,0,1,.32.11,4.44,4.44,0,0,1,1.64,1.26.94.94,0,0,1,.22.39l0,.21a.88.88,0,0,1-.26.66.86.86,0,0,1-.63.26Zm-.83-1.18a4,4,0,0,1,.57.59.41.41,0,0,0,.26.09v0a.38.38,0,0,0,.39-.39l0-.14a.51.51,0,0,0-.08-.13l0,0a3.87,3.87,0,0,0-1.5-1.15.29.29,0,0,0-.14-.05l-.1-.27v.25l-.07,0a.39.39,0,0,0-.29.48.36.36,0,0,0,.18.24,3.8,3.8,0,0,1,.68.37l0,0,.09.06Z" transform="translate(-1242.63 -4904.35)"/><path class="cls-1" d="M1274.38,4943.58a10.5,10.5,0,0,0-1.12-5,11.12,11.12,0,0,0-2.43-3,14.41,14.41,0,0,0-11.39-3.31,13.28,13.28,0,0,0-8.94,6,13.92,13.92,0,0,0-1.45,12.76,15.8,15.8,0,0,0,2.41,4.15c.6.74,1.29,1.42,1.83,2.21a4.41,4.41,0,0,1,.63,1.17,2,2,0,0,1,0,1c-.08.44-.19.86-.31,1.29-.25.79,1,1.13,1.24.34a6.13,6.13,0,0,0,.38-2.46,5.68,5.68,0,0,0-1.32-2.58c-.55-.69-1.17-1.32-1.71-2l-.08-.1-.14-.2c-.1-.13-.19-.27-.29-.41-.21-.31-.41-.64-.6-1a12.83,12.83,0,0,1,7.38-18.63c.32-.08.64-.15,1-.2l.22,0h.07l.45-.05a13.74,13.74,0,0,1,2.72,0,13.42,13.42,0,0,1,5.89,2.18,11.39,11.39,0,0,1,1.87,1.59,9,9,0,0,1,1.1,1.37,9.84,9.84,0,0,1,.5.9,10.19,10.19,0,0,1,.73,2.49,11.42,11.42,0,0,1,.07,1.55.65.65,0,0,0,1.29,0Z" transform="translate(-1242.63 -4904.35)"/><path class="cls-1" d="M1254.27,4962.1a1.21,1.21,0,0,1-1-.47,1,1,0,0,1-.15-1,10.46,10.46,0,0,0,.29-1.23,1.39,1.39,0,0,0,0-.73,3.83,3.83,0,0,0-.55-1,14.16,14.16,0,0,0-1.11-1.37c-.24-.27-.48-.54-.71-.82a16.58,16.58,0,0,1-2.49-4.29,14.42,14.42,0,0,1,1.51-13.22,13.78,13.78,0,0,1,9.28-6.19,15.08,15.08,0,0,1,11.79,3.44,11.45,11.45,0,0,1,2.54,3.12,11,11,0,0,1,1.18,5.24,1.12,1.12,0,0,1-1.15,1.11,1.18,1.18,0,0,1-.83-.34,1.06,1.06,0,0,1-.31-.79,10.41,10.41,0,0,0-.07-1.49,9.44,9.44,0,0,0-.69-2.35,8.45,8.45,0,0,0-.46-.82,8.72,8.72,0,0,0-1-1.3,10.89,10.89,0,0,0-1.79-1.53,13,13,0,0,0-5.67-2.09,12.65,12.65,0,0,0-2.61,0l-.41.05-.23,0c-.38.06-.69.13-1,.2a12.33,12.33,0,0,0-7.06,17.9c.18.32.37.63.58.93.09.14.18.27.28.4l.2.28h0c.28.35.57.69.86,1s.58.66.85,1a6,6,0,0,1,1.42,2.82,6.38,6.38,0,0,1-.39,2.68A1.13,1.13,0,0,1,1254.27,4962.1Zm7.17-29.44a13.7,13.7,0,0,0-1.93.13,12.8,12.8,0,0,0-8.59,5.76,13.38,13.38,0,0,0-1.4,12.3,15,15,0,0,0,2.33,4c.22.27.45.53.68.79a16.92,16.92,0,0,1,1.18,1.45,5.11,5.11,0,0,1,.68,1.29,2.38,2.38,0,0,1,0,1.24,9.59,9.59,0,0,1-.32,1.31c0,.12.09.15.16.15s.11-.05.13-.1a5.53,5.53,0,0,0,.36-2.24,5.09,5.09,0,0,0-1.22-2.34c-.26-.33-.53-.64-.81-1s-.59-.68-.87-1v0l-.24-.32c-.11-.15-.21-.29-.3-.43-.22-.32-.43-.66-.62-1a13.31,13.31,0,0,1,7.69-19.35c.33-.09.66-.16,1-.22l.23,0h.11l.43,0a13.3,13.3,0,0,1,2.82,0,13.89,13.89,0,0,1,6.12,2.25,12.54,12.54,0,0,1,2,1.67,8.92,8.92,0,0,1,1.14,1.44,10,10,0,0,1,.54.95,10.29,10.29,0,0,1,.77,2.63,12.87,12.87,0,0,1,.08,1.64c0,.1.08.12.14.12s.15-.09.15-.13a10,10,0,0,0-1.07-4.75,10.34,10.34,0,0,0-2.31-2.84A13.85,13.85,0,0,0,1261.44,4932.66Z" transform="translate(-1242.63 -4904.35)"/><path class="cls-1" d="M1252.22,4961.8a22.89,22.89,0,0,0-5.75,10.08,97,97,0,0,0-2.76,14.71c-.29,2.5-.47,5-.58,7.53,0,.83,1.25.83,1.29,0a103.31,103.31,0,0,1,1.41-13.35c.43-2.46,1-4.91,1.57-7.34a25.34,25.34,0,0,1,2-5.61,21.77,21.77,0,0,1,3.73-5.11c.58-.59-.33-1.5-.91-.91Z" transform="translate(-1242.63 -4904.35)"/><path class="cls-1" d="M1243.75,4995.24h0a1.14,1.14,0,0,1-.83-.34,1.09,1.09,0,0,1-.29-.8c.12-2.68.31-5.15.58-7.56a97.6,97.6,0,0,1,2.78-14.79,23.39,23.39,0,0,1,5.88-10.3,1.16,1.16,0,0,1,1.86.4,1.08,1.08,0,0,1-.24,1.21,21.12,21.12,0,0,0-3.65,5,24.54,24.54,0,0,0-1.95,5.49c-.61,2.41-1.14,4.87-1.57,7.31a104,104,0,0,0-1.4,13.28A1.14,1.14,0,0,1,1243.75,4995.24Zm8.9-33.13a22.13,22.13,0,0,0-5.69,9.9,96.88,96.88,0,0,0-2.76,14.64c-.27,2.39-.45,4.84-.57,7.49,0,.08.06.1.12.1s.17-.05.17-.14a104.06,104.06,0,0,1,1.42-13.41c.43-2.47,1-5,1.58-7.39a25.89,25.89,0,0,1,2-5.71,22.35,22.35,0,0,1,3.83-5.23s0-.08,0-.12A.2.2,0,0,0,1252.65,4962.11Z" transform="translate(-1242.63 -4904.35)"/><path class="cls-1" d="M1319.3,4992.39a20.83,20.83,0,0,1-.77-3.21c-.13-.66-.24-1.32-.35-2,0-.3-.09-.61-.14-.92s-.06-.43-.09-.72a20,20,0,0,1,1.42-9,27.34,27.34,0,0,1,2.37-5.23l-.23.23a24.7,24.7,0,0,1,6.93-2.84c.63-.18,1.27-.35,1.91-.51a4,4,0,0,1,1.65-.19,3.87,3.87,0,0,1,2.41,1.84,21.47,21.47,0,0,1,2.92,6.58,42.62,42.62,0,0,1,1,4.33c.22,1.32.42,2.66.59,4,.34,2.65.55,5.3.75,8a.66.66,0,0,0,.65.64.64.64,0,0,0,.64-.64c-.16-2-.31-4.08-.54-6.12-.11-1.08-.25-2.15-.4-3.23-.17-1.24-.32-2.5-.6-3.72a43.82,43.82,0,0,0-2-6.75A20.48,20.48,0,0,0,1336,4970a9.34,9.34,0,0,0-1.74-2.26,4.11,4.11,0,0,0-3.1-1,20.13,20.13,0,0,0-3.32.82,29.76,29.76,0,0,0-6.28,2.45l-.59.36a2,2,0,0,0-.65.78c-.3.52-.58,1.05-.84,1.6a31.2,31.2,0,0,0-1.22,3,30.72,30.72,0,0,0-1.69,6.81,17.47,17.47,0,0,0,.27,4.62,43.2,43.2,0,0,0,.94,4.82q.11.42.24.81a.67.67,0,0,0,.8.45.65.65,0,0,0,.45-.79Z" transform="translate(-1242.63 -4904.35)"/><path class="cls-1" d="M1340.36,4993.81h0a1.16,1.16,0,0,1-1.13-1.13c-.2-2.56-.4-5.23-.75-7.9-.15-1.24-.35-2.54-.58-4a40.85,40.85,0,0,0-1-4.27,20.82,20.82,0,0,0-2.85-6.43,3.39,3.39,0,0,0-2.08-1.63l-.31,0a3.78,3.78,0,0,0-1.1.18l-1.93.52a25.22,25.22,0,0,0-6.54,2.62,27.28,27.28,0,0,0-2.2,4.9,20,20,0,0,0-1.4,8.82l.09.62c0,.39.1.7.15,1,.1.65.21,1.31.34,2a19.17,19.17,0,0,0,.74,3.1l0,.08a1.16,1.16,0,0,1-.8,1.4,1.11,1.11,0,0,1-1.41-.78c-.09-.25-.17-.54-.25-.83a47.24,47.24,0,0,1-.95-4.88,18,18,0,0,1-.26-4.75,30.34,30.34,0,0,1,1.71-6.92c.36-1,.77-2,1.24-3,.27-.56.56-1.11.86-1.63a2.39,2.39,0,0,1,.78-.93c.23-.15.44-.27.65-.39a29.21,29.21,0,0,1,6.38-2.5l.59-.17a15,15,0,0,1,2.82-.66,2.88,2.88,0,0,1,.41,0,4.57,4.57,0,0,1,3.07,1.18,9.9,9.9,0,0,1,1.85,2.38,21.85,21.85,0,0,1,1.48,2.94,43.91,43.91,0,0,1,2,6.83c.23,1,.37,2,.51,3l.09.72c.16,1.08.29,2.16.41,3.25.21,1.88.36,3.79.5,5.64l0,.49a1.16,1.16,0,0,1-1.14,1.18Zm-8.75-26.36a3,3,0,0,1,.43,0,4.29,4.29,0,0,1,2.78,2.05,21.89,21.89,0,0,1,3,6.72,39.91,39.91,0,0,1,1,4.38c.24,1.46.44,2.77.6,4,.34,2.69.55,5.38.75,8a.16.16,0,0,0,.15.18.15.15,0,0,0,.14-.15l0-.44c-.14-1.84-.29-3.75-.49-5.61-.12-1.08-.25-2.15-.41-3.22l-.1-.73a29.26,29.26,0,0,0-.49-2.95A41.39,41.39,0,0,0,1337,4973a19.83,19.83,0,0,0-1.41-2.8,9,9,0,0,0-1.67-2.16,3.6,3.6,0,0,0-2.71-.9,15.05,15.05,0,0,0-2.62.62l-.6.18a28.69,28.69,0,0,0-6.17,2.41c-.2.11-.39.22-.57.34a1.53,1.53,0,0,0-.46.57c-.31.54-.59,1.06-.85,1.6a28.86,28.86,0,0,0-1.19,2.95,29.23,29.23,0,0,0-1.67,6.7,17.2,17.2,0,0,0,.26,4.49,44.66,44.66,0,0,0,.93,4.77c.07.25.14.51.23.76a.19.19,0,0,0,.17.14.16.16,0,0,0,.13-.16,20.76,20.76,0,0,1-.8-3.29c-.12-.65-.23-1.31-.34-2,0-.31-.1-.62-.14-.93l-.1-.73a20.7,20.7,0,0,1,1.45-9.26,28.09,28.09,0,0,1,2.11-4.8.5.5,0,0,1,.15-.39l.23-.23a.53.53,0,0,1,.34-.15,27.31,27.31,0,0,1,6.57-2.59c.64-.18,1.28-.35,1.93-.51A4.16,4.16,0,0,1,1331.61,4967.45Z" transform="translate(-1242.63 -4904.35)"/><path class="cls-1" d="M1326.74,4965.25c-1.31.43-2.63.88-3.91,1.39-.34.12-.67.26-1,.41a1.93,1.93,0,0,0-.65.71,2.42,2.42,0,0,0-.25.92,9.24,9.24,0,0,0-.1,1.18.65.65,0,0,0,1.29,0,7.71,7.71,0,0,1,.08-1.07l0-.18c0-.07,0-.2,0-.07,0-.13-.07.11,0,0a1.62,1.62,0,0,1,.1-.18l0-.06s.15-.14.08-.09.07,0,.08,0l.13-.06.88-.35c1.16-.45,2.34-.85,3.52-1.24a.64.64,0,1,0-.34-1.24Z" transform="translate(-1242.63 -4904.35)"/><path class="cls-1" d="M1321.47,4970.73a.89.89,0,0,1-.65-.26.84.84,0,0,1-.24-.61,9.87,9.87,0,0,1,.1-1.22,2.59,2.59,0,0,1,.28-1,2.18,2.18,0,0,1,.74-.8,9.6,9.6,0,0,1,1-.43c1.32-.53,2.67-1,3.92-1.4h0a.89.89,0,0,1,.45,1.73c-1,.32-2.25.75-3.51,1.23l-.87.35h0l-.11,0h0l0,0,0,.05a.75.75,0,0,0-.07.12h0l0,.24a9.29,9.29,0,0,0-.08,1A.87.87,0,0,1,1321.47,4970.73Zm5.32-5.24c-1.24.41-2.56.87-3.87,1.38a9.24,9.24,0,0,0-1,.41,1.63,1.63,0,0,0-.53.6,1.89,1.89,0,0,0-.23.81,9.56,9.56,0,0,0-.1,1.17.36.36,0,0,0,.09.26.42.42,0,0,0,.3.11.37.37,0,0,0,.4-.37,8.29,8.29,0,0,1,.09-1.1v-.14s0-.05,0-.07a.29.29,0,0,1,.08-.19l.1-.18a.42.42,0,0,1,.06-.08l0-.05a.34.34,0,0,1,.08-.09l.11-.05h0l.08,0h0l.89-.35c1.28-.49,2.56-.93,3.54-1.25a.41.41,0,0,0,.28-.49.39.39,0,0,0-.48-.27Z" transform="translate(-1242.63 -4904.35)"/><path class="cls-1" d="M1326.69,4978.63c.69,3.56,1.37,7.12,2,10.69.21,1.16.42,2.32.62,3.49a.64.64,0,0,0,1.24-.34c-.63-3.57-1.27-7.14-2-10.7-.22-1.16-.44-2.32-.67-3.48a.64.64,0,1,0-1.24.34Z" transform="translate(-1242.63 -4904.35)"/><path class="cls-1" d="M1329.94,4993.53a.9.9,0,0,1-.86-.65c-.21-1.19-.42-2.36-.62-3.52-.56-3.1-1.18-6.39-2-10.68a.9.9,0,0,1,1.73-.46c.23,1.18.46,2.34.68,3.5.59,3.07,1.2,6.37,2,10.7a.91.91,0,0,1-.63,1.08A1,1,0,0,1,1329.94,4993.53Zm-2.64-15.46h-.1a.41.41,0,0,0-.27.49c.84,4.28,1.46,7.57,2,10.7.21,1.17.41,2.33.62,3.5a.39.39,0,0,0,.75-.24c-.77-4.35-1.37-7.65-2-10.71-.22-1.16-.45-2.32-.68-3.48A.39.39,0,0,0,1327.3,4978.07Z" transform="translate(-1242.63 -4904.35)"/><path class="cls-1" d="M1303.71,4987.69c.26-1.81.56-3.61.84-5.42l.18-1.22c0-.2,0-.4.18-.39a8.56,8.56,0,0,1,1.14.25q3.79.81,7.61,1.53c1,.2,2.09.41,3.15.54a.64.64,0,0,0,.64-.64.65.65,0,0,0-.64-.65c-.18,0,.13,0,0,0l-.26,0-.63-.11-1.66-.3q-2.07-.39-4.14-.81l-3.73-.77c-.38-.08-.76-.18-1.15-.25a1.4,1.4,0,0,0-1.35.41,2.11,2.11,0,0,0-.4,1.24c-.31,2.1-.67,4.19-1,6.28a.68.68,0,0,0,.45.8.66.66,0,0,0,.8-.45Z" transform="translate(-1242.63 -4904.35)"/><path class="cls-1" d="M1303.08,4988.66a.92.92,0,0,1-.29,0,1.17,1.17,0,0,1-.81-1.39c.14-.95.29-1.95.45-2.94s.35-2.2.51-3.3l0-.17a2.31,2.31,0,0,1,.51-1.34,1.94,1.94,0,0,1,1.83-.56l.67.14.47.11,3.73.77c1.38.28,2.75.55,4.13.81l1.66.3.62.1.18,0h0a1.15,1.15,0,0,1,0,2.29c-1-.11-1.9-.29-2.79-.46l-.45-.09c-2.56-.48-5.12-1-7.62-1.53-.25-.07-.49-.13-.74-.18,0,.38-.11.75-.17,1.13l-.36,2.32c-.16,1-.33,2.06-.48,3.09A1.16,1.16,0,0,1,1303.08,4988.66Zm1.79-8.79a.92.92,0,0,0-.66.29,1.42,1.42,0,0,0-.25.79l0,.18c-.16,1.11-.34,2.21-.51,3.32s-.32,2-.46,3a.18.18,0,0,0,.1.24h0a.16.16,0,0,0,.15-.11c.14-1,.3-2,.46-3,.12-.78.25-1.55.36-2.32.07-.41.13-.82.19-1.23,0-.74.47-.81.65-.81a9.38,9.38,0,0,1,1.31.27c2.45.52,5,1,7.55,1.52l.46.09c.87.16,1.77.34,2.66.44a.17.17,0,0,0,.08-.15.14.14,0,0,0-.12-.13l-.14,0h0l-.26,0-.65-.11-1.66-.3c-1.38-.26-2.77-.53-4.15-.81l-3.73-.77-.49-.11-.65-.14Z" transform="translate(-1242.63 -4904.35)"/><path class="cls-1" d="M1304.89,4991.19c3.08.86,6.25,1.39,9.39,2a.64.64,0,0,0,.34-1.24c-3.13-.64-6.3-1.17-9.39-2a.64.64,0,0,0-.34,1.24Z" transform="translate(-1242.63 -4904.35)"/><path class="cls-1" d="M1314.44,4993.74h0a1.33,1.33,0,0,1-.28,0l-2.28-.45c-2.35-.46-4.78-.93-7.13-1.59a1.11,1.11,0,0,1-.8-1.24,1.13,1.13,0,0,1,1.42-1c2.3.65,4.7,1.12,7,1.57l2.33.46a1.14,1.14,0,0,1-.28,2.25Zm-9.36-3.31a.14.14,0,0,0-.14.13c0,.12,0,.13.08.15,2.31.64,4.72,1.11,7,1.56l2.31.46h.06a.16.16,0,0,0,.15-.11.15.15,0,0,0-.1-.17l-2.29-.45c-2.34-.46-4.76-.93-7.1-1.58Z" transform="translate(-1242.63 -4904.35)"/><path class="cls-1" d="M1315.08,4951.73c-.19.5-.17,1.69.75,1.86,1.22.07,1.39-1.36,1-2.06A1,1,0,0,0,1315.08,4951.73Z" transform="translate(-1242.63 -4904.35)"/><path class="cls-1" d="M1315.92,4953.84h-.11a1.2,1.2,0,0,1-.86-.59,2.12,2.12,0,0,1-.1-1.61,1.27,1.27,0,0,1,1.16-.88,1.23,1.23,0,0,1,1.07.65,2,2,0,0,1,0,1.82A1.27,1.27,0,0,1,1315.92,4953.84Zm.09-2.58c-.29,0-.53.2-.7.57a1.57,1.57,0,0,0,.08,1.17.67.67,0,0,0,.48.34h.05a.75.75,0,0,0,.69-.37,1.46,1.46,0,0,0,0-1.32A.71.71,0,0,0,1316,4951.26Z" transform="translate(-1242.63 -4904.35)"/><path class="cls-1" d="M1312.55,4959.67a4.8,4.8,0,0,0,2.33-.53.64.64,0,1,0-.65-1.11h0a2.09,2.09,0,0,1-.3.14l.16-.06a3.78,3.78,0,0,1-.92.24l.17,0a6.84,6.84,0,0,1-.79.05.65.65,0,0,0,0,1.29Z" transform="translate(-1242.63 -4904.35)"/><path class="cls-1" d="M1312.71,4959.92h-.16a.9.9,0,0,1,0-1.79,4.68,4.68,0,0,0,.66,0,4.35,4.35,0,0,0,.71-.18l.19-.1a.93.93,0,0,1,1.22.32.91.91,0,0,1-.32,1.23A5,5,0,0,1,1312.71,4959.92Zm.47-1.32q-.3,0-.63,0a.39.39,0,0,0-.39.39.4.4,0,0,0,.39.4h.16a4.51,4.51,0,0,0,2.06-.5.4.4,0,0,0,.13-.53.41.41,0,0,0-.54-.15l-.11.07-.06,0-.16.06-.07,0a3.05,3.05,0,0,1-.54.14h-.24Z" transform="translate(-1242.63 -4904.35)"/><path class="cls-1" d="M1321.6,4966a14.61,14.61,0,0,0-.56-1.43,2.8,2.8,0,0,0-.44-.79,1.36,1.36,0,0,0-1.39-.29,4.82,4.82,0,0,1-1.26.13,7.37,7.37,0,0,1-2.67-.47,3.09,3.09,0,0,1-1.54-1.75,12.42,12.42,0,0,1-.69-3.07,2.92,2.92,0,0,0-.44-1.38,5,5,0,0,0-.88-1,1.14,1.14,0,0,1-.27-.31.3.3,0,0,1,0-.26c.13-.35.53-.5.8-.71a3.76,3.76,0,0,0,1.26-2c.56-2,.11-4,.41-6a.67.67,0,0,0-.45-.79.65.65,0,0,0-.8.45,13.85,13.85,0,0,0-.15,1.58c0,.52,0,1.05,0,1.57a14,14,0,0,1-.16,2.34,3,3,0,0,1-.89,1.84,5.53,5.53,0,0,0-1,.82,1.77,1.77,0,0,0-.34,1.44c.2.84,1.08,1.16,1.44,1.9a4.19,4.19,0,0,1,.23,1.23,14.75,14.75,0,0,0,.31,1.61,6,6,0,0,0,1.43,2.86,4.66,4.66,0,0,0,2.34,1.15,8.74,8.74,0,0,0,3.34.11,2.33,2.33,0,0,0,.36-.08c.17-.05,0,0,0-.05s0,.08,0,.11l.09.17a11.35,11.35,0,0,1,.56,1.4c.26.79,1.5.45,1.24-.34Z" transform="translate(-1242.63 -4904.35)"/><path class="cls-1" d="M1321,4967h0a.89.89,0,0,1-.86-.62,10.59,10.59,0,0,0-.55-1.37l0-.05-.22,0a9,9,0,0,1-3.43-.12,4.83,4.83,0,0,1-2.46-1.2,6.2,6.2,0,0,1-1.51-3c-.13-.55-.23-1.1-.31-1.64,0-.11,0-.23,0-.35a2.23,2.23,0,0,0-.17-.8,2.4,2.4,0,0,0-.62-.74,2.51,2.51,0,0,1-.83-1.21,2,2,0,0,1,.38-1.65,2.93,2.93,0,0,1,.71-.62,3.81,3.81,0,0,0,.32-.24,2.8,2.8,0,0,0,.81-1.69,14.52,14.52,0,0,0,.15-2.29c0-.24,0-.47,0-.7s0-.6,0-.89c0-.54.08-1.08.16-1.61a.91.91,0,0,1,1.1-.66.93.93,0,0,1,.63,1.1,16,16,0,0,0-.1,2.5,12.38,12.38,0,0,1-.31,3.52,4,4,0,0,1-1.34,2.14l-.28.19c-.19.13-.38.24-.45.41a.46.46,0,0,0,.19.3,5.52,5.52,0,0,1,.93,1,3.35,3.35,0,0,1,.48,1.52,11.78,11.78,0,0,0,.67,3,2.82,2.82,0,0,0,1.42,1.61,6.84,6.84,0,0,0,2.42.45h.28a4.81,4.81,0,0,0,1.07-.12,1.56,1.56,0,0,1,1.62.36,3.07,3.07,0,0,1,.49.88,12.91,12.91,0,0,1,.57,1.43.82.82,0,0,1-.1.75A1,1,0,0,1,1321,4967Zm-1-2.31,0,.1a11.58,11.58,0,0,1,.58,1.43.38.38,0,0,0,.38.28.46.46,0,0,0,.35-.16.35.35,0,0,0,0-.3,13.18,13.18,0,0,0-.56-1.4,2.43,2.43,0,0,0-.41-.74,1.07,1.07,0,0,0-1.13-.2,5.84,5.84,0,0,1-1.18.13h-.28a7.33,7.33,0,0,1-2.62-.49,3.32,3.32,0,0,1-1.69-1.9,11.92,11.92,0,0,1-.69-3.13,3.06,3.06,0,0,0-.41-1.28,5,5,0,0,0-.83-.89,1.35,1.35,0,0,1-.33-.38.55.55,0,0,1,0-.5,1.35,1.35,0,0,1,.64-.63,1.88,1.88,0,0,0,.23-.16,3.58,3.58,0,0,0,1.17-1.88,11.9,11.9,0,0,0,.29-3.38,16.34,16.34,0,0,1,.11-2.61.41.41,0,0,0-.28-.51l-.09,0a.41.41,0,0,0-.39.3,14.29,14.29,0,0,0-.14,1.52c0,.28,0,.56,0,.85s0,.48,0,.72a14.45,14.45,0,0,1-.16,2.37,3.33,3.33,0,0,1-1,2l-.36.26a2.64,2.64,0,0,0-.59.51,1.54,1.54,0,0,0-.3,1.24,2.07,2.07,0,0,0,.7.95,3,3,0,0,1,.72.89,2.59,2.59,0,0,1,.22,1c0,.11,0,.21,0,.32a14.81,14.81,0,0,0,.3,1.59,5.64,5.64,0,0,0,1.37,2.75,4.3,4.3,0,0,0,2.2,1.07,8.35,8.35,0,0,0,3.26.11l.2,0v0a.24.24,0,0,1,.37,0,.25.25,0,0,1,.16.22S1320,4964.67,1320,4964.68Z" transform="translate(-1242.63 -4904.35)"/><path class="cls-1" d="M1313.35,4948a11.64,11.64,0,0,1,1.53-5.11,10.62,10.62,0,0,1,3.47-3.49,12.59,12.59,0,0,1,9.93-.93,11.91,11.91,0,0,1,4.27,2.24.67.67,0,0,0,.91,0,.65.65,0,0,0,0-.91,13.49,13.49,0,0,0-4.23-2.38,15.19,15.19,0,0,0-5.79-.8,12.75,12.75,0,0,0-5.24,1.38,11.83,11.83,0,0,0-4.1,3.73,12.59,12.59,0,0,0-2,6.27.64.64,0,0,0,.64.64.65.65,0,0,0,.64-.64Z" transform="translate(-1242.63 -4904.35)"/><path class="cls-1" d="M1312.71,4949.17h0a1.15,1.15,0,0,1-1.14-1.14,13.12,13.12,0,0,1,2.12-6.55,12.44,12.44,0,0,1,4.27-3.89,13.39,13.39,0,0,1,5.45-1.44,15.65,15.65,0,0,1,6,.83,13.7,13.7,0,0,1,4.39,2.47,1.16,1.16,0,0,1,0,1.64,1.18,1.18,0,0,1-1.61,0,11.34,11.34,0,0,0-4.07-2.13,14.08,14.08,0,0,0-4-.57,10.66,10.66,0,0,0-5.58,1.45,10,10,0,0,0-3.3,3.32,11.09,11.09,0,0,0-1.46,4.87,1.15,1.15,0,0,1-1.13,1.12Zm11.59-12.05q-.42,0-.84,0a12.26,12.26,0,0,0-5,1.33,11.3,11.3,0,0,0-3.91,3.56,12.08,12.08,0,0,0-2,6,.14.14,0,0,0,.14.11.15.15,0,0,0,.14-.15,12,12,0,0,1,1.6-5.35,11.08,11.08,0,0,1,3.64-3.66,13.18,13.18,0,0,1,10.33-1,12.36,12.36,0,0,1,4.45,2.34c.12.11.16.1.25,0a.17.17,0,0,0,0-.2,13.23,13.23,0,0,0-4-2.26A14.61,14.61,0,0,0,1324.3,4937.12Z" transform="translate(-1242.63 -4904.35)"/><path class="cls-1" d="M1332.55,4940.74a9.72,9.72,0,0,1,3.62,5.34c.58,2.46.33,5.05.58,7.55.13,1.29.36,2.57.54,3.86a9.84,9.84,0,0,1,.09,3.38,6.4,6.4,0,0,1-4.3,4.68,7.73,7.73,0,0,1-3.85.16,13.79,13.79,0,0,1-1.67-.47,7.15,7.15,0,0,1-.77-.29,3.18,3.18,0,0,1-.32-.16l-.16-.09s-.17-.12-.07,0a.67.67,0,0,0-.91,0,.65.65,0,0,0,0,.91,7.82,7.82,0,0,0,3,1.24,9.71,9.71,0,0,0,4,.24,7.75,7.75,0,0,0,5.77-4.26,7.49,7.49,0,0,0,.67-3.82c-.09-1.31-.33-2.61-.52-3.9a38.48,38.48,0,0,1-.34-4.15,36.7,36.7,0,0,0-.28-4.19,10.75,10.75,0,0,0-4.14-6.9.67.67,0,0,0-.91,0,.65.65,0,0,0,0,.91Z" transform="translate(-1242.63 -4904.35)"/><path class="cls-1" d="M1330.89,4967.66a10.84,10.84,0,0,1-2.71-.36A8.5,8.5,0,0,1,1325,4966a1.17,1.17,0,0,1,0-1.65,1.19,1.19,0,0,1,1.55-.07l.06,0,.13.07a2.44,2.44,0,0,0,.28.14,7.28,7.28,0,0,0,.73.28,15.41,15.41,0,0,0,1.61.45,7.13,7.13,0,0,0,3.61-.15,5.94,5.94,0,0,0,4-4.31,9.34,9.34,0,0,0-.09-3.2c-.06-.42-.12-.84-.19-1.26-.13-.85-.26-1.74-.35-2.62s-.13-2-.15-2.91a22.47,22.47,0,0,0-.42-4.57,9.18,9.18,0,0,0-3.45-5.07,1.16,1.16,0,0,1,0-1.65,1.19,1.19,0,0,1,1.61,0,11.14,11.14,0,0,1,4.29,7.19,37.93,37.93,0,0,1,.28,4.26,40,40,0,0,0,.33,4.08l.15,1c.15,1,.31,2,.38,3a7.94,7.94,0,0,1-.72,4.07,8.27,8.27,0,0,1-6.14,4.55A10.78,10.78,0,0,1,1330.89,4967.66Zm-5.1-2.68a.21.21,0,0,0-.12,0,.15.15,0,0,0,0,.2,7.81,7.81,0,0,0,2.75,1.11,9.51,9.51,0,0,0,3.79.23,7.28,7.28,0,0,0,5.39-4,7,7,0,0,0,.62-3.56c-.07-1-.22-1.95-.37-2.89l-.15-1a39.61,39.61,0,0,1-.34-4.2,35.7,35.7,0,0,0-.28-4.15,10.18,10.18,0,0,0-3.95-6.57c-.14-.13-.18-.1-.26,0a.15.15,0,0,0,0,.2,10.07,10.07,0,0,1,3.75,5.58,23.35,23.35,0,0,1,.45,4.77c0,.94.05,1.91.14,2.83s.22,1.73.35,2.58c.06.42.13.85.19,1.27a10.52,10.52,0,0,1,.08,3.55,7,7,0,0,1-4.63,5.06,8.23,8.23,0,0,1-4.12.16,14.57,14.57,0,0,1-1.72-.47c-.27-.1-.55-.19-.82-.31l-.35-.18-.18-.1,0,0-.09-.06,0,0h0A.19.19,0,0,0,1325.79,4965Z" transform="translate(-1242.63 -4904.35)"/><path class="cls-1" d="M1325.5,4952.69c.44-.49,1.29-.91,1.81-.29a2.34,2.34,0,0,1,.33,2,4,4,0,0,1-2.57,2.9.65.65,0,0,0-.23.89.67.67,0,0,0,.88.23,5.31,5.31,0,0,0,3-3.08c.5-1.47.38-3.7-1.31-4.35a2.62,2.62,0,0,0-2.83.83.67.67,0,0,0,0,.91A.65.65,0,0,0,1325.5,4952.69Z" transform="translate(-1242.63 -4904.35)"/><path class="cls-1" d="M1325.4,4958.71a.89.89,0,0,1-.46-1.66,3.74,3.74,0,0,0,2.46-2.73,2.19,2.19,0,0,0-.28-1.76c-.37-.43-1.08-.1-1.43.29a.89.89,0,1,1-1.28-1.24,2.89,2.89,0,0,1,3.1-.89c1.75.67,2.06,2.9,1.46,4.66a5.52,5.52,0,0,1-3.15,3.23A1,1,0,0,1,1325.4,4958.71Zm1.26-6.87a1.08,1.08,0,0,1,.84.4,2.65,2.65,0,0,1,.39,2.17,4.23,4.23,0,0,1-2.72,3.08.4.4,0,0,0-.12.53.43.43,0,0,0,.55.14,5.11,5.11,0,0,0,2.89-2.94c.45-1.32.39-3.44-1.16-4a2.39,2.39,0,0,0-2.55.77.4.4,0,0,0,0,.57.41.41,0,0,0,.55,0A1.91,1.91,0,0,1,1326.66,4951.84Z" transform="translate(-1242.63 -4904.35)"/><path class="cls-1" d="M1313.27,4946a34.73,34.73,0,0,0,5.23,4,30.91,30.91,0,0,0,2.86,1.62,9.05,9.05,0,0,0,3.25,1.16.65.65,0,0,0,.65-.64.66.66,0,0,0-.65-.65,8.26,8.26,0,0,1-2.91-1.14,30.24,30.24,0,0,1-2.65-1.52,33.74,33.74,0,0,1-4.87-3.78c-.61-.57-1.52.34-.91.91Z" transform="translate(-1242.63 -4904.35)"/><path class="cls-1" d="M1324.61,4953h0a9.39,9.39,0,0,1-3.34-1.18,31.1,31.1,0,0,1-2.88-1.64,34.61,34.61,0,0,1-5.27-4.07.8.8,0,0,1-.22-.91.94.94,0,0,1,1.47-.37,32.58,32.58,0,0,0,4.83,3.76c.84.53,1.73,1,2.63,1.51l.33.17a6.77,6.77,0,0,0,2.5.94.9.9,0,0,1,0,1.79Zm-10.86-7.91a.46.46,0,0,0-.41.29.3.3,0,0,0,.1.36,34.78,34.78,0,0,0,5.19,4,31.51,31.51,0,0,0,2.84,1.61,9,9,0,0,0,3.15,1.13.41.41,0,0,0,.39-.4.41.41,0,0,0-.4-.39,7.43,7.43,0,0,1-2.7-1l-.33-.18c-.92-.47-1.82-1-2.67-1.53a34.2,34.2,0,0,1-4.9-3.81A.4.4,0,0,0,1313.75,4945.11Z" transform="translate(-1242.63 -4904.35)"/><path class="cls-1" d="M1325.78,4957.62a12.36,12.36,0,0,1,.79,4,3.36,3.36,0,0,1-.84,2.65c-.63.55.28,1.45.91.91a4.49,4.49,0,0,0,1.22-3.38,13.54,13.54,0,0,0-.84-4.5c-.24-.79-1.49-.46-1.24.34Z" transform="translate(-1242.63 -4904.35)"/><path class="cls-1" d="M1326.21,4965.58h0a1,1,0,0,1-.89-.63.78.78,0,0,1,.25-.89,3.16,3.16,0,0,0,.75-2.47,12.27,12.27,0,0,0-.77-3.87.85.85,0,0,1,.1-.77,1,1,0,0,1,.76-.37.86.86,0,0,1,.85.62,13.9,13.9,0,0,1,.85,4.58,4.72,4.72,0,0,1-1.31,3.57A.88.88,0,0,1,1326.21,4965.58Zm.2-8.5a.47.47,0,0,0-.36.16.31.31,0,0,0,0,.3,12.85,12.85,0,0,1,.8,4.06,3.59,3.59,0,0,1-.93,2.84.29.29,0,0,0-.1.34.44.44,0,0,0,.68.19,4.22,4.22,0,0,0,1.14-3.2,13.61,13.61,0,0,0-.83-4.42A.35.35,0,0,0,1326.41,4957.08Z" transform="translate(-1242.63 -4904.35)"/><path class="cls-1" d="M1325.75,4957.47a1.93,1.93,0,0,0-1.07.26,1.83,1.83,0,0,0-.72.88,1.69,1.69,0,0,0,.48,1.87,2.07,2.07,0,0,0,2.16.25,1.71,1.71,0,0,0,.74-2.3,1.64,1.64,0,0,0-.36-.47,2,2,0,0,0-1.23-.49.64.64,0,0,0-.64.64.65.65,0,0,0,.64.65s.16,0,0,0h.07l.16.05s.13.07,0,0l0,0,.16.1c-.17-.1,0,0,0,0l.06,0c0,.06-.1-.14,0,0l.07.12c0,.1,0-.13,0-.06a.38.38,0,0,0,0,.1s0,0,0,.06,0-.18,0-.06a.76.76,0,0,1,0,.15s0,0,0,.06c0-.17,0-.11,0-.05s0,.11,0,.16.08-.16,0-.06l0,.06s-.12.16,0,.06,0,0,0,0l-.06.06c.12-.13.09-.07,0,0l-.13.07c.14-.09.11,0,0,0l0,0-.16,0c.17-.05.11,0,0,0h-.28c-.1,0,.07,0,.07,0l-.09,0-.15,0c-.1,0,.07,0,.06,0s-.08,0-.1-.06l0,0c-.06,0-.09-.09,0,0a.94.94,0,0,1-.1-.1l0,0c.12.11.07.1,0,.05l-.08-.13c.09.14,0,.11,0,0s0,0,0-.05,0-.06,0-.09,0,.09,0,.08,0-.12,0-.16,0-.06,0-.09c0,.19,0,.12,0,.06a.24.24,0,0,1,0-.08c0-.06.07-.12,0,0l.08-.16s.07-.05,0,.06a.46.46,0,0,0,.07-.07s0,0,0-.05-.12.08,0,0l.16-.1c.1-.05-.14.05-.06,0l.11,0,.06,0c.17,0-.12,0,0,0a1.47,1.47,0,0,1,.21,0,.65.65,0,0,0,0-1.29Z" transform="translate(-1242.63 -4904.35)"/><path class="cls-1" d="M1325.72,4961.18a2.35,2.35,0,0,1-1.43-.5,2,2,0,0,1-.57-2.16,2.09,2.09,0,0,1,.83-1,2.18,2.18,0,0,1,1.11-.3h.15a2.31,2.31,0,0,1,1.34.55,2,2,0,0,1,.41.55,2,2,0,0,1-.85,2.63A2.31,2.31,0,0,1,1325.72,4961.18Zm-.84-3.27-.07,0a1.53,1.53,0,0,0-.62.75,1.43,1.43,0,0,0,.42,1.59,1.82,1.82,0,0,0,1.88.21,1.43,1.43,0,0,0,.72-.84,1.5,1.5,0,0,0-.1-1.12,1.27,1.27,0,0,0-.3-.4l-.17-.13v.09a.89.89,0,0,1-.29.67l.07.1h0l0,.07a.1.1,0,0,1,0,.09.61.61,0,0,1,0,.15.17.17,0,0,1,0,.07.13.13,0,0,1,0,.06v0a.46.46,0,0,1-.12.29v0a.42.42,0,0,1-.12.1h0a.24.24,0,0,1-.11.06l0,0a.28.28,0,0,1-.12,0h-.11a.19.19,0,0,1-.13,0h-.23l-.06,0h-.09l-.07,0a.3.3,0,0,1-.11-.07h0l0,0a.31.31,0,0,1-.11-.12.19.19,0,0,1-.07-.11v0a.17.17,0,0,1,0-.12h0a.25.25,0,0,1,0-.08.15.15,0,0,1,0-.12v0a.18.18,0,0,1,0-.1,0,0,0,0,1,0,0,.47.47,0,0,1,.08-.14h0s0,0,0,0l.06-.07a.86.86,0,0,1-.23-.58A1.49,1.49,0,0,1,1324.88,4957.91Zm.73,1.47h.17a.22.22,0,0,1,.1,0l0,0,0,0,0,0v-.05a.17.17,0,0,1,0-.07h0v0l0,0-.06,0h0l-.05,0-.06,0h-.27l-.07,0,0,0a.14.14,0,0,1,0,.06.06.06,0,0,0,0,0h0v0l0,.06h0l0,0,0,0,.11,0Zm.16-.88h0a.39.39,0,0,0,.37-.39.39.39,0,1,0-.78,0,.4.4,0,0,0,.33.39Z" transform="translate(-1242.63 -4904.35)"/><path class="cls-1" d="M1301.7,4980.65a5.19,5.19,0,0,1-2.35-.92,2.48,2.48,0,0,0-1.77-.42,5.73,5.73,0,0,0-1.8.81,5.59,5.59,0,0,0-2.61,2.4,1.58,1.58,0,0,0,.25,1.7,2.08,2.08,0,0,0,1.6.48,6.06,6.06,0,0,0,1.4-.32,9.46,9.46,0,0,0,1.52-.61c.73-.38.08-1.5-.65-1.11a7.86,7.86,0,0,1-2.06.71l-.2,0c.15,0,0,0-.1,0a1.1,1.1,0,0,1-.54-.06c-.2-.12,0-.52.16-.69a4.28,4.28,0,0,1,1-.88,13,13,0,0,1,1.12-.69,2.41,2.41,0,0,1,1.44-.51,2.87,2.87,0,0,1,.89.45,5.91,5.91,0,0,0,2.68.91.65.65,0,0,0,0-1.29Z" transform="translate(-1242.63 -4904.35)"/><path class="cls-1" d="M1294.83,4985a2.2,2.2,0,0,1-1.59-.56,1.83,1.83,0,0,1-.3-2,5.93,5.93,0,0,1,2.72-2.5l.18-.11a5,5,0,0,1,1.7-.73,2.67,2.67,0,0,1,2,.45,5,5,0,0,0,2.18.88h0a.9.9,0,0,1,0,1.79,6.18,6.18,0,0,1-2.8-.94l-.27-.17a1.49,1.49,0,0,0-.54-.26,1.83,1.83,0,0,0-1.08.37l-.2.12c-.43.24-.78.46-1.09.67a4,4,0,0,0-1,.84,1,1,0,0,0-.17.33.89.89,0,0,0,.33,0h.17l.11,0a8.46,8.46,0,0,0,2-.69.92.92,0,0,1,1.3.62.8.8,0,0,1-.43.93,8.78,8.78,0,0,1-1.56.63,5.88,5.88,0,0,1-1.45.33Zm3.11-5.41a1.77,1.77,0,0,0-.32,0,4.7,4.7,0,0,0-1.53.67l-.18.11a5.35,5.35,0,0,0-2.51,2.27,1.35,1.35,0,0,0,.2,1.44,1.84,1.84,0,0,0,1.4.4,5.78,5.78,0,0,0,1.34-.31,9.62,9.62,0,0,0,1.49-.59.3.3,0,0,0,.17-.37.42.42,0,0,0-.59-.3,8.55,8.55,0,0,1-2.13.74l-.22,0h-.27a1.28,1.28,0,0,1-.48-.09.43.43,0,0,1-.24-.29,1.19,1.19,0,0,1,.28-.78,4.39,4.39,0,0,1,1.09-.94c.32-.22.68-.45,1.13-.7l.18-.11a2.2,2.2,0,0,1,1.42-.43,1.76,1.76,0,0,1,.73.34l.24.14a5.61,5.61,0,0,0,2.56.88.37.37,0,0,0,.37-.4.37.37,0,0,0-.34-.39h0a5.53,5.53,0,0,1-2.49-1A2.15,2.15,0,0,0,1297.94,4979.54Z" transform="translate(-1242.63 -4904.35)"/><path class="cls-1" d="M1253.7,4962.46a39.32,39.32,0,0,1,6.71,2.27,11.54,11.54,0,0,1,5.54,4.48,21.84,21.84,0,0,1,2,3.61.84.84,0,0,0,.92.5.61.61,0,0,0,.53-.76,25.27,25.27,0,0,0-1.91-3.55,17.87,17.87,0,0,0-2.49-2.93,12.11,12.11,0,0,0-3.35-2.12,31.42,31.42,0,0,0-3.52-1.4c-1.39-.46-2.77-.85-4.12-1.18a.56.56,0,0,0-.3,1.08Z" transform="translate(-1242.63 -4904.35)"/><path class="cls-1" d="M1268.71,4973.83a1.34,1.34,0,0,1-1.25-.84,21.87,21.87,0,0,0-1.93-3.5,13,13,0,0,0-2.23-2.51,13.59,13.59,0,0,0-3.1-1.8,40.35,40.35,0,0,0-6.62-2.24,1,1,0,0,1-.76-1.12,1,1,0,0,1,1.29-.92c1.43.34,2.83.74,4.15,1.18a34.15,34.15,0,0,1,3.58,1.42,13,13,0,0,1,3.49,2.22,18.44,18.44,0,0,1,2.56,3,26.4,26.4,0,0,1,1.95,3.63,1.06,1.06,0,0,1-.09.91,1.2,1.2,0,0,1-.81.54Zm-14.84-12a.1.1,0,0,0-.06.11,39.73,39.73,0,0,1,6.8,2.29,13.88,13.88,0,0,1,3.34,2,14.08,14.08,0,0,1,2.41,2.7,21.78,21.78,0,0,1,2,3.69.33.33,0,0,0,.32.21h.06a.18.18,0,0,0,.13-.07,23.1,23.1,0,0,0-1.85-3.47,17.59,17.59,0,0,0-2.41-2.84,11.92,11.92,0,0,0-3.22-2A32.11,32.11,0,0,0,1258,4963C1256.65,4962.6,1255.28,4962.21,1253.87,4961.87Z" transform="translate(-1242.63 -4904.35)"/><path class="cls-1" d="M1268.08,4972.94c.54,1.5,1,3,1.49,4.56.24.72.49,1.43.77,2.13a11.92,11.92,0,0,0,1,2.14c1.41,2.09,4.35,1.61,6.5,1.36,1.45-.17,2.91-.39,4.36-.61l2.37-.38,1.1-.19.55-.09s.27,0,.21,0h.1s0,0,0,0,0,.15,0,0c0,.11.06.12.1.24s.06.21.08.32l.12.54.48,2.25.93,4.34c.17.81,1.41.46,1.24-.35l-.79-3.68-.53-2.48c-.09-.43-.16-.86-.29-1.28a1.4,1.4,0,0,0-1.22-1.16,4.15,4.15,0,0,0-1,.12l-1.16.2c-1.56.26-3.12.51-4.67.73-1.26.17-2.52.34-3.79.43a5.22,5.22,0,0,1-3-.36,3.16,3.16,0,0,1-1.1-1.58c-.36-.79-.66-1.6-1-2.42-.57-1.68-1.06-3.39-1.66-5.07a.67.67,0,0,0-.79-.45A.66.66,0,0,0,1268.08,4972.94Z" transform="translate(-1242.63 -4904.35)"/><path class="cls-1" d="M1288.76,4990.45a1,1,0,0,1-1-.86l-1.52-7.12,0-.09-1.51.25-2.37.38c-1.2.19-2.78.43-4.39.61l-.35,0a19.15,19.15,0,0,1-2.47.2h0c-2,0-3.32-.59-4.15-1.81a12.72,12.72,0,0,1-1.05-2.25c-.25-.62-.49-1.31-.77-2.14l-.53-1.64c-.31-1-.62-2-1-2.92a1.15,1.15,0,0,1,.78-1.44,1.12,1.12,0,0,1,1.41.79c.33.92.64,1.88.94,2.84.23.74.47,1.48.72,2.21.32.93.61,1.68.92,2.38l0,.11a2.56,2.56,0,0,0,.86,1.24,3.17,3.17,0,0,0,1.63.34c.36,0,.71,0,1,0,1.18-.08,2.35-.23,3.75-.43s3.1-.46,4.66-.72l1.15-.2a4.63,4.63,0,0,1,1.08-.13,1.85,1.85,0,0,1,1.71,1.52,8.36,8.36,0,0,1,.23,1l1.39,6.49a1.17,1.17,0,0,1-.22,1A1.25,1.25,0,0,1,1288.76,4990.45Zm-1.69-8.55.09.34,1.53,7.14.07.07a.23.23,0,0,0,.17-.08s0-.05,0-.12l-1.39-6.5a8.44,8.44,0,0,0-.21-.9c-.23-.77-.63-.8-.78-.81a3.74,3.74,0,0,0-.85.11l-1.19.2c-1.56.26-3.12.51-4.69.73-1.41.2-2.6.35-3.81.44-.36,0-.73,0-1.11,0a4,4,0,0,1-2.14-.48,3.39,3.39,0,0,1-1.26-1.69l0-.11c-.32-.72-.63-1.51-1-2.47-.25-.74-.49-1.48-.72-2.23-.3-.95-.6-1.89-.94-2.83a.17.17,0,0,0-.16-.14.16.16,0,0,0-.13.19c.34.93.65,1.92,1,2.91.17.54.34,1.08.52,1.62.27.82.51,1.49.76,2.11a10.83,10.83,0,0,0,1,2.07c.61.91,1.67,1.34,3.3,1.34h0a19.61,19.61,0,0,0,2.35-.19l.36,0c1.59-.19,3.16-.42,4.34-.6l2.36-.38,1.65-.28h.1a.51.51,0,0,1,.53,0l.08.05a.48.48,0,0,1,.23.41Z" transform="translate(-1242.63 -4904.35)"/><path class="cls-1" d="M1254.31,4979a59.41,59.41,0,0,0,4.09,8.32c.76,1.25,1.59,2.45,2.46,3.62a16.22,16.22,0,0,0,2.66,2.95,12.07,12.07,0,0,0,8.36,2.36,29.35,29.35,0,0,0,4.19-.46c1.15-.22,2.27-.52,3.4-.81s2.57-.57,3.85-.9,2.35-.63,3.51-1c.78-.26.45-1.5-.34-1.24-1,.33-2,.62-3,.9s-2.11.48-3.16.73a46.31,46.31,0,0,1-7,1.42c-2.77.23-5.76.19-8.16-1.38a11.93,11.93,0,0,1-2.75-2.65c-.82-1-1.57-2.13-2.29-3.24a54.46,54.46,0,0,1-4.55-8.94.66.66,0,0,0-.79-.45.65.65,0,0,0-.45.79Z" transform="translate(-1242.63 -4904.35)"/><path class="cls-1" d="M1271.14,4996.71a12,12,0,0,1-7.94-2.49,16.88,16.88,0,0,1-2.75-3c-.91-1.23-1.75-2.46-2.47-3.65a61.06,61.06,0,0,1-4.14-8.39,1.17,1.17,0,0,1,.78-1.46,1.13,1.13,0,0,1,1.41.78,55.13,55.13,0,0,0,4.49,8.83c.84,1.28,1.55,2.3,2.26,3.19a11.6,11.6,0,0,0,2.64,2.55,10,10,0,0,0,5.66,1.4c.65,0,1.36,0,2.17-.1a34.8,34.8,0,0,0,5.53-1.07l1.4-.34,1.2-.28c.65-.14,1.3-.28,1.94-.46.9-.24,2-.53,3-.88a1.09,1.09,0,0,1,1.43.89,1.14,1.14,0,0,1-.77,1.29c-1,.35-2.16.68-3.55,1-.66.17-1.33.32-2,.47s-1.23.27-1.84.42l-.48.13c-1,.25-2,.5-3,.69a29.07,29.07,0,0,1-4.26.47Zm-16.22-18.07a.15.15,0,0,0-.13.18,59.82,59.82,0,0,0,4,8.19c.71,1.17,1.53,2.37,2.43,3.59a16,16,0,0,0,2.58,2.86,11.06,11.06,0,0,0,7.3,2.25h.72a28.52,28.52,0,0,0,4.12-.45c1-.19,1.94-.44,2.89-.68l.48-.12c.62-.16,1.25-.3,1.87-.44s1.32-.29,2-.46c1.37-.36,2.48-.68,3.48-1,0,0,.12,0,.1-.19s0-.12-.07-.12c-1.13.37-2.21.67-3.12.92-.66.18-1.32.32-2,.47l-1.19.27-1.39.34a36.33,36.33,0,0,1-5.68,1.09c-.84.07-1.58.11-2.26.11a11,11,0,0,1-6.21-1.57,12.43,12.43,0,0,1-2.88-2.77,38.7,38.7,0,0,1-2.31-3.26,54.84,54.84,0,0,1-4.59-9C1255.05,4978.69,1255,4978.64,1254.92,4978.64Z" transform="translate(-1242.63 -4904.35)"/><path class="cls-1" d="M1289.06,4982.45l1.15,0a1.6,1.6,0,0,0,.77-.19l.72-.46c.36-.23.72-.46,1.09-.68.15-.1.31-.19.47-.28a1.16,1.16,0,0,1,.44-.19.66.66,0,0,0,.45-.8.67.67,0,0,0-.79-.45,3.23,3.23,0,0,0-1.1.54l-1.09.67-.79.51s-.08,0-.08.05-.08,0,0,0-.08,0-.11,0c-.38,0-.76,0-1.15,0a.65.65,0,0,0-.64.65.64.64,0,0,0,.64.64Z" transform="translate(-1242.63 -4904.35)"/><path class="cls-1" d="M1289.06,4982.7a.9.9,0,0,1,0-1.79c.38,0,.76,0,1.14,0h0l.78-.5,1.1-.68a3.47,3.47,0,0,1,1.16-.56.9.9,0,0,1,.48,1.73,1.11,1.11,0,0,0-.37.15l-.42.26-.06,0-1.09.68-.27.17c-.15.1-.3.2-.46.29a1.76,1.76,0,0,1-.86.23l-1.17,0Zm1.11-1.32c-.37,0-.73,0-1.1,0a.4.4,0,0,0-.4.4.38.38,0,0,0,.39.39l1.14,0h0a1.37,1.37,0,0,0,.66-.16c.14-.08.28-.18.43-.28l.27-.17,1.1-.68.06,0,.42-.25a1.39,1.39,0,0,1,.51-.22.4.4,0,0,0,.26-.48.41.41,0,0,0-.49-.27,2.71,2.71,0,0,0-1,.49l-1.09.67-.8.51-.1.07h0a.43.43,0,0,1-.14,0h0Z" transform="translate(-1242.63 -4904.35)"/><path class="cls-1" d="M1298.2,4985.77c.71.81,1.41,1.63,2.2,2.38a26.68,26.68,0,0,0,2.51,2.11,1.24,1.24,0,0,1,.59.74,1.07,1.07,0,0,1,0,.47.25.25,0,0,1-.12.21c-.3.23-.65.11-1,0a4.49,4.49,0,0,1-1.23-.59,9.13,9.13,0,0,1-1.25-1,6.65,6.65,0,0,1-1.17-1.2c-.45-.69-1.57,0-1.11.65a7.29,7.29,0,0,0,1.25,1.35,13.57,13.57,0,0,0,1.37,1.14,6.54,6.54,0,0,0,1.55.81,2.8,2.8,0,0,0,1.78.17,1.77,1.77,0,0,0,1.14-1.11,2.31,2.31,0,0,0-.11-1.49,2.7,2.7,0,0,0-1.05-1.24c-.5-.37-1-.76-1.45-1.17a31.28,31.28,0,0,1-3.05-3.15c-.55-.63-1.45.29-.91.91Z" transform="translate(-1242.63 -4904.35)"/><path class="cls-1" d="M1303.07,4993.36a4,4,0,0,1-1.31-.27,6.71,6.71,0,0,1-1.61-.85,12.86,12.86,0,0,1-1.39-1.15,7.75,7.75,0,0,1-1.28-1.4.78.78,0,0,1-.06-.85,1,1,0,0,1,.84-.49.88.88,0,0,1,.74.41,6.41,6.41,0,0,0,1.12,1.15,9.52,9.52,0,0,0,1.23,1,4.57,4.57,0,0,0,1.16.55c.38.11.6.16.77,0a.76.76,0,0,0,0-.4,1,1,0,0,0-.48-.6,28.12,28.12,0,0,1-2.57-2.15c-.73-.7-1.41-1.47-2.06-2.22l-.14-.16v0a.87.87,0,0,1-.14-1,.92.92,0,0,1,.81-.56.81.81,0,0,1,.62.29,30.92,30.92,0,0,0,3,3.14c.5.42,1,.8,1.44,1.15a2.91,2.91,0,0,1,1.13,1.34,2.59,2.59,0,0,1,.12,1.65,2.05,2.05,0,0,1-1.31,1.29A2,2,0,0,1,1303.07,4993.36Zm-4.81-4.51a.48.48,0,0,0-.4.23.29.29,0,0,0,0,.33,7,7,0,0,0,1.2,1.3,13.36,13.36,0,0,0,1.36,1.13,6.17,6.17,0,0,0,1.48.78,2.45,2.45,0,0,0,1.61.16,1.51,1.51,0,0,0,1-.95,2.07,2.07,0,0,0-.1-1.32,2.39,2.39,0,0,0-1-1.11c-.5-.37-1-.76-1.49-1.2a31.78,31.78,0,0,1-3.07-3.18c-.19-.21-.48-.1-.6.15a.38.38,0,0,0,.06.42h0l.15.18c.64.74,1.31,1.5,2,2.19a29,29,0,0,0,2.49,2.09,1.48,1.48,0,0,1,.69.87,1.51,1.51,0,0,1,0,.56.47.47,0,0,1-.24.4,1.39,1.39,0,0,1-1.14.06,5.1,5.1,0,0,1-1.35-.64,9.54,9.54,0,0,1-1.28-1,7.42,7.42,0,0,1-1.2-1.24A.38.38,0,0,0,1298.26,4988.85Z" transform="translate(-1242.63 -4904.35)"/><path class="cls-1" d="M1295.82,4992c.56.43,1.12.85,1.71,1.25l1,.67a4.74,4.74,0,0,0,1,.51,2.42,2.42,0,0,0,2-.23,1.8,1.8,0,0,0,.63-2.3.65.65,0,0,0-.88-.23.66.66,0,0,0-.23.89h0c0-.06,0,.1,0,0s0,.21,0,.12a.83.83,0,0,1-.06.21l0,.07a.34.34,0,0,1-.12.12s-.18.09-.07,0l-.18.05s-.2,0-.07,0h-.43c.09,0-.08,0-.09,0l-.13,0c-.13,0,0,0,0,0s-.14-.08-.17-.1c-.58-.34-1.15-.69-1.71-1.07-.23-.16-.46-.32-.68-.49l-.3-.22c-.12-.08-.22-.17-.28-.21a.67.67,0,0,0-.91,0,.65.65,0,0,0,0,.91Z" transform="translate(-1242.63 -4904.35)"/><path class="cls-1" d="M1300.28,4994.74h0a2.72,2.72,0,0,1-.8-.12,4.5,4.5,0,0,1-1-.55c-.34-.21-.7-.43-1-.67-.64-.42-1.23-.87-1.72-1.25a.92.92,0,0,1,0-1.29,1,1,0,0,1,1.26,0l.26.2.29.22c.23.17.45.33.68.48.5.34,1,.68,1.69,1.07a.79.79,0,0,1,.16.08h0l.13,0h.35l.13,0,.07,0s.06-.06.06-.07l0,0s0-.06,0-.09v-.07s0,0,0,0a.9.9,0,0,1,.36-1.16.92.92,0,0,1,1.22.32,2.06,2.06,0,0,1-.71,2.63A2.66,2.66,0,0,1,1300.28,4994.74Zm-4-3.63a.43.43,0,0,0-.28.11.38.38,0,0,0,0,.55c.46.36,1,.8,1.67,1.22.34.23.69.45,1,.67a4.56,4.56,0,0,0,.93.48,2.27,2.27,0,0,0,1.74-.2,1.56,1.56,0,0,0,.53-2,.41.41,0,0,0-.53-.12.4.4,0,0,0-.15.54l0,0a.16.16,0,0,1,0,.09.08.08,0,0,1,0,.07h0v0s0,0,0,0h0a.13.13,0,0,1,0,.06h0a1.19,1.19,0,0,1,0,.22l-.09,0h0l.08,0a.53.53,0,0,1-.06.13.57.57,0,0,1-.19.19l0,0-.07.05h0l-.2.07h0l-.06,0H1300l-.13,0h-.06a.35.35,0,0,1-.19-.1l0,0c-.66-.39-1.21-.74-1.72-1.08-.23-.16-.47-.33-.69-.5l-.31-.22-.28-.22A.44.44,0,0,0,1296.27,4991.11Z" transform="translate(-1242.63 -4904.35)"/><path class="cls-1" d="M1293.94,4993.84a11.21,11.21,0,0,0,1.59,1.17,3.2,3.2,0,0,0,1.78.63,2.45,2.45,0,0,0,1.69-.67,1.79,1.79,0,0,0,.4-1.83.66.66,0,0,0-.79-.45.65.65,0,0,0-.45.79c0,.05,0,.09,0,.14s0,.15,0,0v.13c0,.11,0,0,0,.05s0,.14,0,.06a.36.36,0,0,1-.08.12l0,.06s-.1.09-.06.06-.08,0-.09,0-.16.08-.1.06-.06,0-.07,0l-.16,0a1.46,1.46,0,0,1-.51,0l-.26-.08,0,0-.16-.09-.64-.39a8.49,8.49,0,0,1-1.13-.84.65.65,0,0,0-.91,0,.67.67,0,0,0,0,.91Z" transform="translate(-1242.63 -4904.35)"/><path class="cls-1" d="M1297.27,4995.89a3.48,3.48,0,0,1-1.87-.67,10.64,10.64,0,0,1-1.6-1.18l0,0a.91.91,0,0,1,0-1.26.93.93,0,0,1,1.27,0,8.69,8.69,0,0,0,1.08.81l.64.38.15.09h0a.83.83,0,0,0,.21.06,1.17,1.17,0,0,0,.4,0l.14,0h0l.18-.1h0l0-.06h0v-.12a1,1,0,0,0,0-.15.89.89,0,1,1,1.72-.49,2,2,0,0,1-.46,2.07,2.67,2.67,0,0,1-1.87.75Zm-3.16-2.24h0a10.14,10.14,0,0,0,1.55,1.14,3,3,0,0,0,1.61.6v.25l0-.25a2.19,2.19,0,0,0,1.52-.6,1.56,1.56,0,0,0,.34-1.57.43.43,0,0,0-.5-.29.41.41,0,0,0-.27.49.57.57,0,0,1,0,.14h0s0,0,0,.07h0v.05h0v.08h0a.07.07,0,0,1,0,.05.2.2,0,0,1,0,.11.19.19,0,0,1,0,.07h0v0l-.08.14a.27.27,0,0,1-.08.07h0s0,.05,0,.05h0l0,0-.06,0-.07,0h0a.18.18,0,0,1-.1.07.14.14,0,0,1-.09,0h0l-.18.05a1.71,1.71,0,0,1-.6,0l-.29-.08h0l0,0-.18-.1c-.22-.13-.44-.26-.65-.4a8.17,8.17,0,0,1-1.16-.87.41.41,0,0,0-.57,0A.4.4,0,0,0,1294.11,4993.65Z" transform="translate(-1242.63 -4904.35)"/><path class="cls-1" d="M1289.11,4988.75a2,2,0,0,0-1.24,1.47,1.61,1.61,0,0,0,.71,1.79,2.35,2.35,0,0,0,1.31.21,4.62,4.62,0,0,0,1.51-.35,1.78,1.78,0,0,0,.94-1,1.75,1.75,0,0,0-1.6-2.24,3.92,3.92,0,0,0-1.63.14.65.65,0,0,0-.44.8.64.64,0,0,0,.79.44h0l.28-.07.14,0h0a3.63,3.63,0,0,1,.57,0h.25l.11,0c.13,0-.14-.07,0,0l.1.05,0,0s0,0,0,0l.08.07.08.09-.06-.07,0,.06.06.1c.06.11,0-.15,0,0s0,.12,0,.18v.05c0,.07,0,.05,0-.06a1.16,1.16,0,0,0,0,.18c0-.17,0-.1,0,0a.41.41,0,0,0,0,.09l.06-.08s0,0,0,.05l-.08.08c-.07.07,0,0,0,0s-.09.07-.13.09l-.11.06.08,0-.08,0-.23.06-.28.06-.15,0s-.24.05-.07,0a2.27,2.27,0,0,1-.52,0h-.15c.17,0,0,0,0,0l-.17,0c-.11,0,.16.08.06,0l-.07,0-.06,0s.14.12.08.06a.47.47,0,0,0-.1-.1c.13.11.08.11.05.05l-.05-.08c0-.05,0-.07,0,.09,0,0,0,0,0-.07s0,0,0-.06,0-.12,0,.07c0-.1,0-.2,0-.3,0,.2,0,.14,0,.07s0-.06,0-.09,0-.1,0-.15-.07.16,0,.06l0-.09a.57.57,0,0,1,.08-.13.43.43,0,0,1,0-.07c-.09.18-.06.09,0,0l.11-.11c.06-.05.09,0-.05,0l.08-.06.07,0c.08,0-.18.06,0,0a.64.64,0,1,0-.35-1.23Z" transform="translate(-1242.63 -4904.35)"/><path class="cls-1" d="M1289.6,4992.49a2.6,2.6,0,0,1-1.13-.26,1.88,1.88,0,0,1-.85-2.06,2.25,2.25,0,0,1,1.23-1.58l.19-.08a4.22,4.22,0,0,1,1.73-.15,2,2,0,0,1,1.81,2.56,2.06,2.06,0,0,1-1.08,1.18,4.91,4.91,0,0,1-1.6.37Zm-1.18-2.91a1.69,1.69,0,0,0-.31.68,1.39,1.39,0,0,0,.58,1.53,2.32,2.32,0,0,0,1.17.19,4.79,4.79,0,0,0,1.45-.34,1.57,1.57,0,0,0,.79-.87,1.49,1.49,0,0,0-1.37-1.91,3.62,3.62,0,0,0-.73,0,1,1,0,0,1,.14.29.85.85,0,0,1,0,.5h.65a.43.43,0,0,1,.27.11.71.71,0,0,1,.13.12h0l0,.07a.19.19,0,0,1,0,.09.37.37,0,0,1,.07.18h0v.07a.21.21,0,0,1,0,.08h0a.55.55,0,0,1,0,.17.24.24,0,0,1,0,.1h0s0,0,0,0l0,0s0,0,0,0l-.07.06-.07,0-.06,0-.06,0-.08,0-.07,0-.17,0-.32.08-.21,0h0l-.13,0a2.26,2.26,0,0,1-.45,0h-.07l-.14,0h0a.39.39,0,0,1-.14,0l-.12-.05,0,0s0,0,0,0a.1.1,0,0,1,0,0,.33.33,0,0,1-.06-.08.09.09,0,0,1,0,0,.19.19,0,0,1,0-.07.49.49,0,0,1,0-.12v-.18a.3.3,0,0,1,0-.1h0a.56.56,0,0,1,.07-.21.86.86,0,0,1-.52-.58A.06.06,0,0,1,1288.42,4989.58Zm1,1.11h.08a1.75,1.75,0,0,0,.46,0l.21,0,.28-.07.2-.05h0l.06,0,.08-.06h0s0,0,0,0,0-.05,0-.08l0-.05,0,0,0,0h-.09v0h-.32a2.83,2.83,0,0,0-.41,0h-.12l-.22.05a.18.18,0,0,1-.07.05l0,0-.06.08,0,0v0l0,.11v.13h.09Zm-.38-1.66a.4.4,0,0,0-.17.45.39.39,0,0,0,.43.28.33.33,0,0,1,.14,0,.4.4,0,0,0,.18-.45.39.39,0,0,0-.45-.28h0Z" transform="translate(-1242.63 -4904.35)"/><path class="cls-1" d="M1290.62,4990.87a2,2,0,0,0-1.24,1.47,1.62,1.62,0,0,0,.71,1.79,2.36,2.36,0,0,0,1.31.21,4.74,4.74,0,0,0,1.52-.35,1.8,1.8,0,0,0,.93-1,1.69,1.69,0,0,0-.17-1.39,1.72,1.72,0,0,0-1.42-.85,4,4,0,0,0-1.64.14.65.65,0,0,0,.36,1.24l.27-.06.14,0h0a3.62,3.62,0,0,1,.57,0h.15s.16,0,0,0h.06l.11,0c.13,0-.14-.07,0,0l.1.05,0,0,0,0s.06.05.08.07l.07.09,0-.07,0,.06,0,.09c.07.12,0-.14,0,0s0,.12.05.18v.05c0,.07,0,.05,0-.06a1.21,1.21,0,0,0-.05.18c.05-.17.05-.1,0,0l-.06.08.06-.07s0,0,0,.05l-.07.08c-.07.07,0,0,0,0a.6.6,0,0,0-.13.09l-.11.06.07,0-.08,0-.22.06-.29.06-.14,0s-.24,0-.07,0a2.36,2.36,0,0,1-.53,0h-.14c.17,0,0,0,0,0l-.17,0c-.1,0,.16.08.07,0l-.07,0s-.06,0-.06,0l.07.06a.32.32,0,0,0-.1-.1c.14.11.09.11.05.05l0-.08c0-.05,0-.07,0,.09l0-.07a.64.64,0,0,1,0-.07c0-.06,0-.11,0,.08v-.3c0,.2,0,.14,0,.07l0-.1a.74.74,0,0,1,0-.14c0-.11-.08.16,0,.06l0-.09a1,1,0,0,1,.08-.14l0-.06c-.1.18-.07.09,0,0a.57.57,0,0,1,.11-.11s.08,0-.05,0l.08-.06.06,0c.09-.06-.17.06,0,0a.63.63,0,0,0,.44-.79.65.65,0,0,0-.8-.44Z" transform="translate(-1242.63 -4904.35)"/><path class="cls-1" d="M1291.12,4994.61a2.64,2.64,0,0,1-1.14-.26,1.84,1.84,0,0,1-.84-2.06,2.21,2.21,0,0,1,1.22-1.58l.19-.08a4.28,4.28,0,0,1,1.74-.15,2,2,0,0,1,1.8,2.56,2,2,0,0,1-1.07,1.18,5,5,0,0,1-1.6.37Zm-1.19-2.91a1.67,1.67,0,0,0-.3.68,1.39,1.39,0,0,0,.58,1.53,2.26,2.26,0,0,0,1.16.19,4.73,4.73,0,0,0,1.45-.34,1.55,1.55,0,0,0,.8-.87,1.51,1.51,0,0,0-1.37-1.91,3.64,3.64,0,0,0-.73,0,1,1,0,0,1,.14.29.94.94,0,0,1,0,.5h.65a.41.41,0,0,1,.26.11.37.37,0,0,1,.13.12h0l.06.07,0,0a.47.47,0,0,1,.09.24h0v.07a.22.22,0,0,1,0,.08,1.43,1.43,0,0,1,0,.16.22.22,0,0,1,0,.11h0l0,0,0,0,0,0a.46.46,0,0,1-.07.07l-.08,0,0,0-.07,0h0l-.07,0h-.07l-.17.05-.58.13h-.09a2.26,2.26,0,0,1-.45,0H1291l-.14,0h0a.39.39,0,0,1-.14,0l-.11-.05,0,0h0a.34.34,0,0,1-.06-.06l0-.07a.24.24,0,0,1,0-.08h0a.37.37,0,0,1,0-.15v0a.33.33,0,0,1,0-.14.3.3,0,0,1,0-.1h0a.67.67,0,0,1,.06-.21.89.89,0,0,1-.52-.58S1289.93,4991.71,1289.93,4991.7Zm1,1.11h.09a1.75,1.75,0,0,0,.46,0h0l.45-.11.2-.05h0l0,0,.09-.06h0v-.05l0-.1h0l0,0h0l0,0h-.43a2.69,2.69,0,0,0-.4,0h0l-.09,0-.21.05-.08.05h0a.24.24,0,0,1-.06.09l0,0v0l0,.1s0,0,0,0v.11h.09Zm-.37-1.65a.38.38,0,0,0-.18.44.39.39,0,0,0,.44.28.47.47,0,0,1,.14,0,.41.41,0,0,0,.18-.46.4.4,0,0,0-.46-.27h0Z" transform="translate(-1242.63 -4904.35)"/><path class="cls-1" d="M1292.45,4992.82a2,2,0,0,0-1.24,1.46,1.61,1.61,0,0,0,.7,1.79,2.48,2.48,0,0,0,1.31.22,4.9,4.9,0,0,0,1.52-.36,1.78,1.78,0,0,0,.94-1,1.75,1.75,0,0,0-1.6-2.24,4.08,4.08,0,0,0-1.63.15.63.63,0,0,0-.44.79.65.65,0,0,0,.79.45h0l.28-.07.14,0h0a3.75,3.75,0,0,1,.58,0h.14s.17,0,.06,0,0,0,0,0l.11,0c.13,0-.14-.08,0,0l.1.06,0,0s0,0,0,0,.06.06.08.08l.08.08-.06-.07,0,.06a.93.93,0,0,1,0,.1c.07.11,0-.14,0,0a1.16,1.16,0,0,0,0,.18v.06c0,.07,0,.05,0-.07a1.06,1.06,0,0,0,0,.19c0-.18,0-.11,0-.05l-.06.09.06-.08,0,0-.08.08c-.07.08,0,0,0,0a.6.6,0,0,0-.13.09l-.11.06.07,0-.08,0-.22.06-.29.07-.14,0-.07,0a2.33,2.33,0,0,1-.53,0h-.14c.17,0,0,0,0,0l-.16,0c-.11,0,.15.08.06,0l-.07,0s-.06,0-.06,0l.07.06-.09-.1c.13.12.08.11,0,.05l0-.08s0-.07,0,.09l0-.07s0,0,0-.06,0-.12,0,.07v-.3c0,.2,0,.14,0,.08l0-.1c0-.05,0-.1,0-.15s-.07.16,0,.06l0-.09.08-.13a.43.43,0,0,0,0-.07c-.1.18-.07.09,0,0a1.14,1.14,0,0,1,.11-.11c0-.05.08,0,0,0l.08-.05.07,0c.08-.05-.18.07,0,0a.65.65,0,0,0-.36-1.24Z" transform="translate(-1242.63 -4904.35)"/><path class="cls-1" d="M1293,4996.55a2.63,2.63,0,0,1-1.14-.25,1.87,1.87,0,0,1-.85-2.07,2.24,2.24,0,0,1,1.22-1.57.84.84,0,0,1,.2-.08,4.4,4.4,0,0,1,1.73-.16,2,2,0,0,1,1.61,1,2,2,0,0,1,.2,1.6,2,2,0,0,1-1.08,1.17,4.92,4.92,0,0,1-1.6.38Zm-1.19-2.91a1.73,1.73,0,0,0-.31.69,1.38,1.38,0,0,0,.58,1.52,2.2,2.2,0,0,0,1.17.19,4.4,4.4,0,0,0,1.44-.34,1.52,1.52,0,0,0,.8-.87,1.49,1.49,0,0,0-.15-1.18,1.47,1.47,0,0,0-1.22-.73,4.54,4.54,0,0,0-.73,0,1.11,1.11,0,0,1,.14.29.85.85,0,0,1,0,.5h.49s0,0,0,0h.15a.44.44,0,0,1,.27.12.41.41,0,0,1,.12.11h0l0,.07,0,0a.45.45,0,0,1,.09.24h0v.06a.28.28,0,0,1,0,.09h0s0,.05,0,.07h0a.31.31,0,0,1,0,.08.19.19,0,0,1,0,.1h0l0,0,0,0,0,0-.06.06-.08.05-.05,0-.07,0-.07,0-.07,0-.18,0-.31.08h-.06l-.15,0a.29.29,0,0,1-.14,0,2.23,2.23,0,0,1-.45,0h-.06l-.14,0h0a.22.22,0,0,1-.13,0l-.12-.05,0,0,0,0h0l-.06-.05a.35.35,0,0,1,0-.08.19.19,0,0,1,0-.08.36.36,0,0,1,0-.11.28.28,0,0,1,0-.09.53.53,0,0,1,0-.13.36.36,0,0,1,0-.11h0a.53.53,0,0,1,.07-.22.86.86,0,0,1-.52-.58S1291.76,4993.66,1291.76,4993.64Zm1,1.12h.08a1.78,1.78,0,0,0,.46,0h0l.48-.11.2-.05h.07l.09-.07h0s0,0,0,0,0-.06,0-.09l0-.05,0,0h0s0,0,0,0H1294l-.36,0a2.68,2.68,0,0,0-.4,0h0l-.1,0-.21.05-.08.05,0,0,0,.08,0,0v0a.92.92,0,0,0,0,.09v.14h0Zm-.38-1.66a.38.38,0,0,0-.17.44.4.4,0,0,0,.43.29l.13-.05a.39.39,0,0,0-.26-.73h0Z" transform="translate(-1242.63 -4904.35)"/><path class="cls-1" d="M1294.91,4970.46v3.12a.92.92,0,0,0,1.84,0v-3.12a.92.92,0,1,0-1.84,0Z" transform="translate(-1242.63 -4904.35)"/><path class="cls-1" d="M1295.83,4974.75a1.17,1.17,0,0,1-1.17-1.17v-3.12a1.17,1.17,0,0,1,2.34,0v3.12A1.17,1.17,0,0,1,1295.83,4974.75Zm0-5a.67.67,0,0,0-.67.67v3.12a.67.67,0,0,0,1.34,0v-3.12A.67.67,0,0,0,1295.83,4969.79Z" transform="translate(-1242.63 -4904.35)"/><path class="cls-1" d="M1289.26,4972.23l1.15,2.9a1,1,0,0,0,.42.56.93.93,0,0,0,1.27-.34h0a.88.88,0,0,0,.09-.71l-1.15-2.9a1,1,0,0,0-.42-.55.93.93,0,0,0-.71-.1,1,1,0,0,0-.55.43.89.89,0,0,0-.1.71Z" transform="translate(-1242.63 -4904.35)"/><path class="cls-1" d="M1291.3,4976.06h0a1.11,1.11,0,0,1-.59-.16,1.27,1.27,0,0,1-.54-.69l-1.14-2.89a1.15,1.15,0,0,1,.11-.93,1.19,1.19,0,0,1,.7-.54,1.22,1.22,0,0,1,.9.12,1.29,1.29,0,0,1,.54.7l1.14,2.88a1.13,1.13,0,0,1-.1.92h0A1.18,1.18,0,0,1,1291.3,4976.06Zm-1.15-4.75a.57.57,0,0,0-.18,0,.64.64,0,0,0-.4.3.68.68,0,0,0-.07.52l1.14,2.88a.82.82,0,0,0,.33.44.7.7,0,0,0,.9-.24v0a.61.61,0,0,0,.07-.51l-1.14-2.88a.75.75,0,0,0-.32-.43A.67.67,0,0,0,1290.15,4971.31Z" transform="translate(-1242.63 -4904.35)"/><path class="cls-1" d="M1300.78,4971.55l-1.28,2.84a1,1,0,0,0-.09.72.91.91,0,0,0,1.13.64h0a.89.89,0,0,0,.56-.42l1.27-2.85a1,1,0,0,0,.09-.71.94.94,0,0,0-.42-.56,1,1,0,0,0-.71-.09.91.91,0,0,0-.55.43Z" transform="translate(-1242.63 -4904.35)"/><path class="cls-1" d="M1300.3,4976a1.18,1.18,0,0,1-1.13-.87,1.22,1.22,0,0,1,.11-.9l1.27-2.83a1.19,1.19,0,0,1,.71-.56,1.16,1.16,0,0,1,1.44.82,1.22,1.22,0,0,1-.11.9l-1.27,2.83a1.13,1.13,0,0,1-.71.56A1.12,1.12,0,0,1,1300.3,4976Zm1.28-4.7-.19,0a.72.72,0,0,0-.4.31l-1.26,2.83a.77.77,0,0,0-.08.55.69.69,0,0,0,.83.46.62.62,0,0,0,.4-.31l1.26-2.82a.77.77,0,0,0,.08-.55.72.72,0,0,0-.31-.4A.63.63,0,0,0,1301.58,4971.34Z" transform="translate(-1242.63 -4904.35)"/><path class="cls-1" d="M1288.25,4921.49a4.24,4.24,0,0,1,6-5.08,4.22,4.22,0,0,1,1.87,2.06.59.59,0,0,0,.81.21,3.73,3.73,0,0,1,3.83.09,3.29,3.29,0,0,1,1.46,2.91.59.59,0,0,0,.59.59,3.5,3.5,0,0,1,3.68,1.9,3.67,3.67,0,0,1-.49,3.89,3.8,3.8,0,0,1-3.07,1.13h-13.81a7,7,0,0,1-2.74-.27,3.52,3.52,0,0,1,1.25-6.68c.75-.05.76-1.23,0-1.18a4.61,4.61,0,0,0-4.06,2.85,5,5,0,0,0,.6,4.76,4.75,4.75,0,0,0,4,1.71h14.73a5.19,5.19,0,0,0,3.78-1.25,4.89,4.89,0,0,0,1.21-4.71,4.56,4.56,0,0,0-3.54-3.28,5,5,0,0,0-1.49-.05l.59.59a4.49,4.49,0,0,0-2-3.93,4.93,4.93,0,0,0-5-.1l.81.22a5.43,5.43,0,0,0-9.92.19,6,6,0,0,0-.16,3.75A.59.59,0,0,0,1288.25,4921.49Z" transform="translate(-1242.63 -4904.35)"/><path class="cls-1" d="M1302.9,4930.88h-14.73a5.21,5.21,0,0,1-4.34-1.91,5.41,5.41,0,0,1-.68-5.25,5.14,5.14,0,0,1,3.26-2.95,6.4,6.4,0,0,1,.39-2.88,5.93,5.93,0,0,1,10.34-1.11,5.5,5.5,0,0,1,4.54.54,5,5,0,0,1,2.18,3.25l.58.08a5,5,0,0,1,3.93,3.64,5.4,5.4,0,0,1-1.33,5.19A5.77,5.77,0,0,1,1302.9,4930.88Zm-16.32-9.11a4.09,4.09,0,0,0-2.5,2.33,4.42,4.42,0,0,0,.55,4.27,4.19,4.19,0,0,0,3.54,1.51h14.73a4.61,4.61,0,0,0,3.43-1.11,4.39,4.39,0,0,0,1.08-4.22,4.05,4.05,0,0,0-3.15-2.92l-.31,0v.2a3.85,3.85,0,0,1,3,2.16,4.24,4.24,0,0,1-.55,4.43,4.29,4.29,0,0,1-3.46,1.31h-14.69a5.48,5.48,0,0,1-2-.31,4,4,0,0,1,.38-7.45h0C1286.61,4921.88,1286.59,4921.82,1286.58,4921.77Zm1.72.76a1.11,1.11,0,0,1-.59.21,2.93,2.93,0,0,0-2.73,2.51,3,3,0,0,0,1.64,3.21,4.48,4.48,0,0,0,1.67.24H1303a3,3,0,0,0,3.11-4.31,2.85,2.85,0,0,0-2.18-1.59v.06l-.07-.07a3.6,3.6,0,0,0-.93,0,1.1,1.1,0,0,1-1.14-1.09,2.82,2.82,0,0,0-1.23-2.49,3.33,3.33,0,0,0-3.32-.08,1.11,1.11,0,0,1-1.48-.39,4.71,4.71,0,0,0-.49-.85l-.19,0,.1-.06a3.61,3.61,0,0,0-1.1-.92,4,4,0,0,0-4.18.39,3.94,3.94,0,0,0-1.15,4.12A1,1,0,0,1,1288.3,4922.53Zm-.62-.75.22.23-.2-.28a.1.1,0,0,0,0,0l0-.13h-.15l0,.11Zm11.14-4.09a4.22,4.22,0,0,1,2.26.66,3.87,3.87,0,0,1,1.58,2.25h.18a3.91,3.91,0,0,0-1.7-2.41,4.46,4.46,0,0,0-3.49-.5l.08.17A4,4,0,0,1,1298.82,4917.69Zm-6.55-2.45a5,5,0,0,0-4.54,3,5.53,5.53,0,0,0-.34,2.32l.18,0a4.84,4.84,0,0,1,1.69-4.1,5,5,0,0,1,5.27-.49,4.76,4.76,0,0,1,1.52,1.3l.08-.05.07,0A5,5,0,0,0,1292.27,4915.24Z" transform="translate(-1242.63 -4904.35)"/><path class="cls-1" d="M1279.15,4925.5c-3.1,2.3-4.69,3.34-7.8,5.65-.58.42.09,1.32.67.89,3.11-2.3,4.7-3.34,7.8-5.64A.56.56,0,0,0,1279.15,4925.5Z" transform="translate(-1242.63 -4904.35)"/><path class="cls-1" d="M1271.7,4932.66h0a1.11,1.11,0,0,1-1-.77,1,1,0,0,1,.37-1.15c1.56-1.15,2.74-2,3.91-2.83s2.34-1.66,3.89-2.81a1.08,1.08,0,0,1,1.64.55,1,1,0,0,1-.37,1.15c-1.55,1.15-2.72,2-3.89,2.82s-2.35,1.67-3.91,2.83A1.1,1.1,0,0,1,1271.7,4932.66Zm7.77-6.77c-1.58,1.16-2.75,2-3.93,2.84s-2.34,1.67-3.89,2.82a.09.09,0,0,0,0,.11c1.59-1.18,2.77-2,4-2.86s2.33-1.66,3.87-2.8A.08.08,0,0,0,1279.47,4925.89Z" transform="translate(-1242.63 -4904.35)"/><path class="cls-1" d="M1310.38,4926.4c3.1,2.3,4.69,3.34,7.8,5.64.58.43,1.25-.47.67-.89-3.1-2.31-4.7-3.35-7.8-5.65A.56.56,0,0,0,1310.38,4926.4Z" transform="translate(-1242.63 -4904.35)"/><path class="cls-1" d="M1318.5,4932.66h0a1.1,1.1,0,0,1-.62-.21c-1.56-1.16-2.73-2-3.91-2.83s-2.34-1.67-3.89-2.82a1,1,0,0,1-.37-1.15,1.08,1.08,0,0,1,1.64-.55c1.55,1.15,2.72,2,3.89,2.81s2.35,1.68,3.91,2.83a1,1,0,0,1,.37,1.15A1.11,1.11,0,0,1,1318.5,4932.66Zm-7.76-6.76s-.09.05-.08.08c1.56,1.16,2.73,2,3.89,2.82s2.36,1.68,3.92,2.84l0,0a.14.14,0,0,0,.07-.1c-1.57-1.16-2.74-2-3.91-2.83s-2.35-1.68-3.91-2.83Z" transform="translate(-1242.63 -4904.35)"/><path class="cls-1" d="M1298.92,4911.87h0a7.23,7.23,0,0,1-3.19-.79,1,1,0,0,1-.53-1,6.49,6.49,0,0,1,3.33-5,6.6,6.6,0,0,1,6,.1,1,1,0,0,1,.54,1,6.48,6.48,0,0,1-3.33,5A6.06,6.06,0,0,1,1298.92,4911.87Zm-1.59-2.29a4.18,4.18,0,0,0,5.63-3,4.18,4.18,0,0,0-5.63,3Z" transform="translate(-1242.63 -4904.35)"/><path class="cls-1" d="M1294.09,4911.73a4.84,4.84,0,0,1-2.28-.56,5.22,5.22,0,0,1-2.68-4,1,1,0,0,1,.54-1,5.28,5.28,0,0,1,4.83-.07,5.2,5.2,0,0,1,2.68,4,1,1,0,0,1-.54,1A5.72,5.72,0,0,1,1294.09,4911.73Zm-2.8-4.1a3,3,0,1,0,2.28.2A3.08,3.08,0,0,0,1291.29,4907.63Z" transform="translate(-1242.63 -4904.35)"/><path class="cls-1" d="M1296.19,4918.14a1,1,0,0,1-1-1v-6.85a1,1,0,0,1,2,0v6.85A1,1,0,0,1,1296.19,4918.14Z" transform="translate(-1242.63 -4904.35)"/></svg>