<svg id="分離模式" xmlns="http://www.w3.org/2000/svg" xmlns:xlink="http://www.w3.org/1999/xlink" viewBox="0 0 766.54 737.77"><defs><style>.cls-1{fill:#fff;}.cls-2{mask:url(#mask);}.cls-3{opacity:0.15;}.cls-4{fill:#feb685;}.cls-5{fill:none;stroke:#feb685;stroke-miterlimit:10;stroke-width:2px;}</style><mask id="mask" x="99.82" y="99.76" width="565.7" height="538.01" maskUnits="userSpaceOnUse"><g transform="translate(-617.06 -1752.97)"><path class="cls-1" d="M1182.6,2058.67a99.53,99.53,0,0,1,18.71-58.25l-120.68-87.67a100,100,0,0,1-161.8,0l-119.9,87.11A100,100,0,0,1,749,2153.79l45.79,140.92a100,100,0,0,1,131.19,95h148.62a100.06,100.06,0,0,1,130.21-95.35l45.8-140.95A100.05,100.05,0,0,1,1182.6,2058.67Z"/></g></mask></defs><g class="cls-2"><g class="cls-3"><polygon class="cls-1" points="382.67 179.39 175.55 329.87 254.66 573.36 510.68 573.36 589.8 329.87 382.67 179.39"/></g><path class="cls-4" d="M1174.54,2390.74H824.92l-.23-.69L716.88,2058.23l282.85-205.5,282.85,205.5Zm-348.17-2h346.72L1280.23,2059l-280.5-203.8L719.23,2059Z" transform="translate(-617.06 -1752.97)"/></g><circle class="cls-5" cx="382.67" cy="101" r="100"/><circle class="cls-5" cx="665.54" cy="305.7" r="100"/><circle class="cls-5" cx="208.9" cy="636.77" r="100"/><circle class="cls-5" cx="557.53" cy="636.77" r="100"/><circle class="cls-5" cx="101" cy="305.7" r="100"/></svg>