<svg width="500" height="53" viewBox="0 0 500 53" fill="none" xmlns="http://www.w3.org/2000/svg">
<g clip-path="url(#clip0_529_16)">
<mask id="mask0_529_16" style="mask-type:luminance" maskUnits="userSpaceOnUse" x="0" y="0" width="500" height="53">
<path d="M500 0H0V52.7015H500V0Z" fill="white"/>
</mask>
<g mask="url(#mask0_529_16)">
<path d="M22.0818 0.673828V36.8276C21.9967 38.3795 21.3552 39.8488 20.2747 40.9661C19.1943 42.0835 17.7474 42.774 16.1992 42.9111C14.651 43.0482 13.1052 42.6228 11.8452 41.7128C10.5852 40.8027 9.69537 39.4691 9.33882 37.9563H0C0.276605 42.0122 2.12009 45.8015 5.14049 48.5226C8.1609 51.2437 12.1213 52.6832 16.1841 52.5366C20.2468 52.39 24.0932 50.6688 26.9096 47.737C29.726 44.8053 31.2915 40.893 31.275 36.8276V0.673828H22.0818Z" fill="#FF7212"/>
<path d="M110.828 0.673828H101.635V52.4469H110.828V0.673828Z" fill="#FF7212"/>
<path d="M59.9106 52.5015H49.6616L40.7051 0.673828H50.9359L59.9106 52.5015Z" fill="#FF7212"/>
<path d="M80.3179 52.5015H70.0688L61.1123 0.673828H71.3431L80.3179 52.5015Z" fill="#FF7212"/>
<path d="M86.7614 30.7838L81.5186 0.673828H92.0042L86.7614 30.7838Z" fill="#FF7212"/>
<path d="M148.274 36.8642C145.346 40.4765 141.934 43.668 138.134 46.3486L137.442 46.8401L138.152 47.277C139.626 48.2674 140.998 49.4016 142.248 50.663L142.612 51.0453L143.013 50.7177C147.199 47.2835 150.996 43.4011 154.336 39.1397L154.828 38.5025L148.511 36.5547L148.274 36.8642Z" fill="#464644"/>
<path d="M140.465 2.02093L134.112 0.418945L133.966 0.910462C131.514 8.86946 127.428 16.2292 121.969 22.519L121.642 22.8467L121.915 23.229C123.046 24.8798 124.003 26.6428 124.773 28.49L125.082 29.3456L125.701 28.6903C127.005 27.3182 128.221 25.865 129.342 24.3394V52.0646H135.823V13.5261C137.571 9.97633 139.115 6.32951 140.447 2.60346L140.465 2.02093Z" fill="#464644"/>
<path d="M162.218 25.1035H155.61V30.9471H138.808V36.4084H155.61V52.0459H162.218V36.4084H167.989L163.038 39.4849L163.62 39.9764C167.406 43.2138 170.869 46.8108 173.96 50.717L174.288 51.1539L179.476 47.4038L179.13 46.9487C175.916 43.1417 172.324 39.6711 168.408 36.5904L168.189 36.4084H179.676V30.9471H162.218V25.1035Z" fill="#464644"/>
<path d="M173.924 11.7963H178.566V6.71734H173.924V1.12861H167.99V6.71734H159.743V6.46248L156.102 5.26099L155.137 5.44303H150.422C150.896 4.35077 151.296 3.29492 151.66 2.33009L151.915 1.67474L145.944 0.910156L145.798 1.36526C143.967 7.03964 140.7 12.1442 136.314 16.1836L135.731 16.7115L136.405 17.0938C137.679 17.7732 138.844 18.6383 139.864 19.6606L140.246 20.1157L140.665 19.7152C141.737 18.7288 142.74 17.6705 143.669 16.5477C145.271 17.8584 146.527 18.9324 147.473 19.8427C145.114 22.6197 142.158 24.8287 138.826 26.3052L138.007 26.6875L138.717 27.2518C139.796 28.2252 140.761 29.3185 141.593 30.5104L141.866 30.8927L142.303 30.6924C146.285 28.717 149.803 25.9211 152.627 22.4886C155.451 19.056 157.516 15.0647 158.687 10.7769V11.7963H160.253C159.361 15.6193 158.232 19.8609 157.304 22.7189L157.067 23.4289H167.99V29.6184H173.924V23.4289H179.859V18.3681H173.924V11.7963ZM150.641 15.237C149.712 14.4724 148.329 13.4165 146.836 12.2515C147.218 11.6325 147.582 11.05 147.928 10.431H152.752C152.182 12.0885 151.476 13.6959 150.641 15.237ZM167.99 18.3681H164.094C164.403 17.2212 164.695 16.0197 164.986 14.7272C165.277 13.4347 165.496 12.7066 165.75 11.7235H167.99V18.3681Z" fill="#464644"/>
<path d="M233.361 33.787H243.337V28.1982H231.996V22.4639H225.497V28.1982H216.104V33.787H224.059C220.411 38.0873 215.845 41.5149 210.697 43.8175L209.823 44.1816L210.588 44.7642C211.874 45.804 212.997 47.0314 213.919 48.405L214.21 48.8237L214.647 48.5871C218.696 46.4016 222.38 43.6012 225.57 40.2859V52.1915H232.069V40.0492C234.655 43.1093 237.595 45.8529 240.825 48.223L241.28 48.5325L241.59 48.0956C242.742 46.6404 244.061 45.3266 245.522 44.1816L246.214 43.6355L245.431 43.235C240.924 40.7755 236.867 37.5684 233.434 33.7506" fill="#464644"/>
<path d="M210.934 42.9623L216.177 39.6673L215.521 39.1758C214.138 38.1746 209.55 35.2255 206.747 33.6235H215.139V28.0348H205.855V22.4642H199.738C204.521 20.2319 208.945 17.2991 212.863 13.7626V25.6682H219.599V13.6169C226.171 16.8391 236.675 22.4642 240.807 24.8672L241.353 25.1949L243.592 19.3331L243.174 19.0964C240.752 17.7675 232.451 14.0174 226.553 11.4142H242.118V5.77087H219.599V0.30957H212.863V5.77087H190.454V11.4142H206.838C201.281 15.6193 194.926 18.6482 188.16 20.3161L187.141 20.571L187.905 21.2627C189.201 22.4538 190.361 23.7848 191.364 25.2313L191.582 25.5954L192.001 25.4679C194.486 24.6761 196.918 23.7276 199.283 22.6281V28.0894H189.507V33.6781H198.427C195.576 37.3673 191.978 40.4131 187.869 42.6164L187.323 42.8895L187.632 43.3992C188.554 44.8531 189.34 46.3887 189.98 47.9867L190.199 48.6238L190.781 48.278C194.042 46.2577 196.956 43.7252 199.41 40.7778V51.7004H205.891V39.1212C207.839 40.5593 209.532 41.87 210.661 42.7621L210.934 42.9623Z" fill="#464644"/>
<path d="M299.479 20.9167C301.917 18.1669 303.774 14.9534 304.94 11.4687H309.073V6.22583H293.089C293.659 4.88787 294.157 3.52062 294.582 2.12985L294.764 1.54732L288.629 0.200195L288.484 0.709916C287.201 5.40552 284.687 9.67305 281.202 13.0707V9.53901H271.244V8.26471H282.349V3.40416H271.244V0.309421H265.127V3.40416H253.659V8.26471H265.127V9.53901H255.242V20.4616H262.379C259.545 22.7739 256.329 24.5729 252.876 25.7773L251.856 26.105L252.712 26.7603C253.879 27.6727 254.931 28.7242 255.843 29.8914L256.098 30.2373L256.499 30.0735L256.881 29.9097V35.0797H277.525V45.1831H269.041V36.536H262.561V45.2559H253.04V50.7172H309.164V45.2559H284.315V42.6163H300.917V37.5737H284.315V35.1525H305.304V30.2555L305.869 30.4376L306.306 30.565L306.524 30.2009C307.381 28.7936 308.408 27.4973 309.582 26.3416L310.347 25.668L309.364 25.395C305.839 24.4742 302.496 22.9598 299.479 20.9167ZM298.296 11.4687C297.52 13.511 296.413 15.4116 295.019 17.0938C293.461 15.3879 292.116 13.499 291.014 11.4687H298.296ZM271.244 13.8352H275.267V16.22H271.244V13.8352ZM260.813 13.8352H265.127V16.22H260.868L260.813 13.8352ZM257.3 29.8004C260.134 28.4293 262.767 26.6776 265.127 24.594V29.5274H271.244V23.4653C273.541 24.5873 275.713 25.948 277.725 27.5249L278.143 27.889L279.673 26.0685L280.292 26.5783C281.383 27.5501 282.361 28.6433 283.204 29.8368L257.3 29.8004ZM280.565 25.486L279.964 25.6498L281.293 24.0297L280.874 23.6656C279.262 22.4282 277.53 21.3549 275.704 20.4616H281.165V15.7103C282.098 16.5234 282.974 17.3992 283.787 18.3317L284.169 18.7868L284.588 18.3863C285.55 17.5227 286.456 16.5985 287.3 15.6193C288.402 17.4873 289.676 19.2486 291.105 20.8803C287.891 23.025 284.322 24.5843 280.565 25.486ZM285.644 29.7276C289.081 28.5555 292.316 26.8608 295.237 24.7032C297.873 26.8571 300.835 28.5777 304.012 29.8004L285.644 29.7276Z" fill="#464644"/>
<path d="M324.419 52.01H331.318V49.243H356.641V51.7916H363.74V28.5811H324.419V52.01ZM331.318 34.279H356.641V43.3812H331.318V34.279Z" fill="#464644"/>
<path d="M348.212 5.4613C348.813 4.75133 349.341 4.05956 349.832 3.3678L350.251 2.82167L344.207 0L343.934 0.364086C338.236 8.15554 327.55 15.3827 315.317 19.7153L314.37 20.0612L315.153 20.6801C316.689 21.996 318.053 23.5007 319.212 25.1584L319.449 25.5043L319.868 25.3404C322.618 24.2422 325.299 22.9777 327.896 21.5539V23.9569H359.408V20.6801C362.32 22.2093 365.269 23.5564 368.036 24.7943L368.528 24.9945L368.765 24.5212C369.693 22.7647 370.991 21.2306 372.569 20.0248L373.37 19.4058L372.424 19.0599C363.56 16.1114 355.342 11.4957 348.212 5.4613ZM333.758 18.2043C337.446 15.7685 340.896 12.989 344.061 9.90315C347.468 12.933 351.121 15.6731 354.984 18.0951L333.758 18.2043Z" fill="#464644"/>
<path d="M400.914 24.6125H420.192V45.2745C420.192 45.6021 420.192 45.7478 419.209 45.7478C418.226 45.7478 414.039 45.7478 410.107 45.7478H409.142L409.579 46.5852C410.427 48.1434 411.04 49.8179 411.4 51.555V52.0283H411.873C417.607 52.0283 421.267 52.0283 423.597 51.1727C426.437 50.1532 427.019 48.1143 427.019 45.4019V24.6125H435.812V18.5869H400.914V24.6125Z" fill="#464644"/>
<path d="M434.209 3.51367H403.48V9.5393H434.209V3.51367Z" fill="#464644"/>
<path d="M382.127 17.0937L382.4 17.6035L382.909 17.294C388.938 13.3586 394.402 8.61802 399.148 3.20383L399.657 2.60309L393.085 0.145508L392.849 0.473186C388.959 5.13795 384.305 9.10832 379.086 12.215L378.449 12.5791L378.977 13.0888C380.175 14.3002 381.232 15.6438 382.127 17.0937Z" fill="#464644"/>
<path d="M401.897 14.1627L395.435 11.96L395.198 12.324C390.737 18.8252 385.048 24.391 378.45 28.7079L377.831 29.1084L378.395 29.6C379.835 30.8844 381.14 32.3117 382.291 33.8598L382.601 34.3513L383.074 34.0054C384.712 32.8039 386.478 31.384 388.244 29.8184V52.2279H395.034V23.101C397.413 20.474 399.603 17.6818 401.588 14.7452L401.897 14.1627Z" fill="#464644"/>
<path d="M493.646 1.60156L493.446 2.09308C491.893 5.7102 489.991 9.16719 487.766 12.4149L487.348 13.0157L493.118 15.1092L493.373 14.7815C495.707 11.4571 497.823 7.98494 499.708 4.38682L500 3.80429L493.646 1.60156Z" fill="#464644"/>
<path d="M486.401 0.364236H479.848V15.7651H468.488V32.24C468.684 36.7167 468.136 41.1949 466.868 45.4928L466.577 40.9781L463.591 41.4514V41.3422C464.684 38.9392 465.976 35.2983 467.232 31.6939L467.432 31.1113L461.971 29.8006L461.862 30.365C461.15 33.6478 460.232 36.8824 459.113 40.0497L458.913 40.614L462.699 41.6334L458.913 42.2342V29.1271H466.195V23.6658H458.913V19.5334H463.864V15.5831C464.119 15.8197 464.356 16.0564 464.556 16.2748L464.993 16.7117L468.889 11.9058L468.506 11.5599C466.686 9.93971 463.591 7.42751 459.149 4.04151C459.295 3.78665 459.441 3.54999 459.568 3.29513C459.696 3.04027 459.859 2.78541 459.987 2.53055L460.369 1.92981L454.289 0.109375L454.07 0.546279C451.376 5.76859 447.483 10.2788 442.711 13.708L442.256 14.0175L442.584 14.4726C443.647 16.0477 444.527 17.7397 445.205 19.5152L445.442 20.298L446.862 19.1147L447.608 18.5139V19.6244H452.796V23.6658H443.876V29.1271H452.796V43.1626C449.265 43.7451 446.079 44.2185 443.567 44.5825L442.948 44.6736L444.531 50.4261L445.041 50.3169C449.574 49.4431 455.09 48.2962 460.915 47.0947L466.722 45.8933C466.354 46.8764 465.89 47.8214 465.339 48.7149L464.993 49.2611L465.594 49.4977C467.14 50.2287 468.585 51.1589 469.89 52.2648L470.363 52.7381L470.727 52.1737C473.035 48.2407 474.347 43.8039 474.55 39.2487L475.497 41.4696L478.391 40.8142C482.36 39.9222 486.856 38.9938 491.389 37.8287V45.511C491.389 45.9115 491.389 45.9661 490.698 46.0025H488.877C487.221 46.0025 485.236 46.0025 483.598 45.8568H482.633L483.07 46.7124C483.791 48.1756 484.306 49.7318 484.599 51.3363V51.8279H485.091C489.824 51.8279 492.846 51.8279 494.794 50.8994C497.379 49.9528 497.724 47.7137 497.724 45.6202V15.7651H486.256L486.401 0.364236ZM452.05 14.0539C453.515 12.4339 454.871 10.719 456.109 8.92027C458.185 10.6315 460.387 12.4519 462.19 14.0539H452.05ZM491.389 32.4403C484.108 33.9694 478.646 35.0435 474.787 35.7534C474.787 34.5155 474.787 33.3687 474.787 32.24V27.7071C479.315 28.6046 483.712 30.0663 487.876 32.058L488.331 32.3128L491.317 27.7435L491.389 32.4403ZM491.389 21.3538V27.6889L490.843 27.4159C486.497 25.5959 481.969 24.2472 477.336 23.3927H476.99L474.86 26.3418V21.3538H491.389Z" fill="#464644"/>
<path d="M472.493 14.982L472.657 15.601L478.647 12.8703L478.483 12.397C477 8.72944 474.975 5.30527 472.475 2.23901L472.202 1.82031L466.522 4.25969L466.959 4.82403C469.308 7.87171 471.152 11.2768 472.421 14.9092" fill="#464644"/>
<path d="M446.716 42.5439L451.922 41.1968L451.831 40.6871C451.34 38.1203 450.302 34.0789 449.301 30.8568L449.155 30.3652L444.186 31.4939L444.349 32.0582C445.321 35.2771 446.087 38.5544 446.643 41.8704L446.716 42.5439Z" fill="#464644"/>
</g>
</g>
<defs>
<clipPath id="clip0_529_16">
<rect width="500" height="52.7015" fill="white"/>
</clipPath>
</defs>
</svg>
