<svg id="圖層_1" data-name="圖層 1" xmlns="http://www.w3.org/2000/svg" xmlns:xlink="http://www.w3.org/1999/xlink" viewBox="0 0 274.66 28.95"><defs><style>.cls-1{fill:none;}.cls-2{clip-path:url(#clip-path);}.cls-3{fill:#ff7212;}.cls-4{fill:#464644;}</style><clipPath id="clip-path" transform="translate(0 0)"><rect class="cls-1" width="274.66" height="28.95"/></clipPath></defs><g class="cls-2"><path class="cls-3" d="M12.13.37V20.23a3.55,3.55,0,0,1-7,.62H0a8.6,8.6,0,0,0,17.18-.62V.37Z" transform="translate(0 0)"/><rect class="cls-3" x="55.83" y="0.37" width="5.05" height="28.44"/><polygon class="cls-3" points="32.91 28.84 27.28 28.84 22.36 0.37 27.98 0.37 32.91 28.84"/><polygon class="cls-3" points="44.12 28.84 38.49 28.84 33.57 0.37 39.19 0.37 44.12 28.84"/><polygon class="cls-3" points="47.66 16.91 44.78 0.37 50.54 0.37 47.66 16.91"/><path class="cls-4" d="M81.45,20.25a27.8,27.8,0,0,1-5.57,5.21l-.38.27.39.24a14.74,14.74,0,0,1,2.25,1.86l.2.21.22-.18a40.71,40.71,0,0,0,6.22-6.36l.27-.35-3.47-1.07Z" transform="translate(0 0)"/><path class="cls-4" d="M77.16,1.11,73.67.23,73.59.5A32.88,32.88,0,0,1,67,12.37l-.18.18.15.21a16,16,0,0,1,1.57,2.89l.17.47.34-.36a24.67,24.67,0,0,0,2-2.39V28.6h3.56V7.43a57,57,0,0,0,2.54-6Z" transform="translate(0 0)"/><path class="cls-4" d="M89.11,13.79H85.48V17H76.25V20h9.23v8.59h3.63V20h3.17l-2.72,1.69.32.27a42.3,42.3,0,0,1,5.68,5.9l.18.24,2.85-2.06-.19-.25a40.4,40.4,0,0,0-5.89-5.69l-.12-.1H98.7V17H89.11Z" transform="translate(0 0)"/><path class="cls-4" d="M95.54,6.48h2.55V3.69H95.54V.62H92.28V3.69H87.75l0-.14-2-.66-.53.1H82.63c.26-.6.48-1.18.68-1.71l.14-.36L80.17.5l-.08.25a19,19,0,0,1-5.21,8.14l-.32.29.37.21a8,8,0,0,1,1.9,1.41l.21.25.23-.22a17.61,17.61,0,0,0,1.65-1.74c.88.72,1.57,1.31,2.09,1.81a13.31,13.31,0,0,1-4.75,3.55l-.45.21.39.31a10.51,10.51,0,0,1,1.58,1.79l.15.21.24-.11a17.3,17.3,0,0,0,9-10.94v.56h.86c-.49,2.1-1.11,4.43-1.62,6l-.13.39,6,0v3.4h3.26v-3.4H98.8V10.09H95.54ZM82.75,8.37c-.51-.42-1.27-1-2.09-1.64.21-.34.41-.66.6-1h2.65a17.46,17.46,0,0,1-1.16,2.64m9.53,1.72H90.14c.17-.63.33-1.29.49-2s.28-1.11.42-1.65h1.23Z" transform="translate(0 0)"/><path class="cls-4" d="M128.19,18.56h5.48V15.49h-6.23V12.34h-3.57v3.15h-5.16v3.07h4.37a20.72,20.72,0,0,1-7.34,5.51l-.48.2.42.32a9.07,9.07,0,0,1,1.83,2l.16.23.24-.13a24.43,24.43,0,0,0,6-4.56v6.54h3.57V22a27.93,27.93,0,0,0,4.81,4.49l.25.17.17-.24a12.92,12.92,0,0,1,2.16-2.15l.38-.3-.43-.22a24.91,24.91,0,0,1-6.59-5.21" transform="translate(0 0)"/><path class="cls-4" d="M115.87,23.6l2.88-1.81-.36-.27c-.76-.55-3.28-2.17-4.82-3.05h4.61V15.4h-5.1V12.34h-3.36a29.18,29.18,0,0,0,7.21-4.78V14.1h3.7V7.48c3.61,1.77,9.38,4.86,11.65,6.18l.3.18,1.23-3.22-.23-.13c-1.33-.73-5.89-2.79-9.13-4.22H133V3.17H120.63v-3h-3.7v3H104.62v3.1h9a28.18,28.18,0,0,1-10.26,4.89l-.56.14.42.38a13.09,13.09,0,0,1,1.9,2.18l.12.2.23-.07a33.9,33.9,0,0,0,4-1.56v3h-5.37v3.07H109a18.2,18.2,0,0,1-5.8,4.91l-.3.15.17.28a15.41,15.41,0,0,1,1.29,2.52l.12.35.32-.19a19.61,19.61,0,0,0,4.74-4.12v6h3.56V21.49c1.07.79,2,1.51,2.62,2Z" transform="translate(0 0)"/><path class="cls-4" d="M164.51,11.49a15,15,0,0,0,3-5.19h2.27V3.42H161a22.58,22.58,0,0,0,.82-2.25l.1-.32L158.55.11l-.08.28a15,15,0,0,1-4,6.79V5.24H149v-.7h6.1V1.87H149V.17h-3.36v1.7h-6.3V4.54h6.3v.7h-5.43v6h3.92a17.23,17.23,0,0,1-5.22,2.92l-.56.18.47.36a10,10,0,0,1,1.72,1.72l.14.19.22-.09.21-.09v2.84h11.34v5.55h-4.66V20.07h-3.56v4.79H139v3h30.83v-3H156.18V23.41h9.12V20.64h-9.12V19.31h11.53V16.62l.31.1.24.07.12-.2a11,11,0,0,1,1.68-2.12l.42-.37-.54-.15a17.63,17.63,0,0,1-5.43-2.46m-.65-5.19a10.92,10.92,0,0,1-1.8,3.09,15.67,15.67,0,0,1-2.2-3.09ZM149,7.6h2.21V8.91H149Zm-5.73,0h2.37V8.91H143.3Zm-1.93,8.77a19,19,0,0,0,4.3-2.86v2.71H149V12.89a20,20,0,0,1,3.56,2.23l.23.2.84-1,.34.28a10.55,10.55,0,0,1,1.6,1.79ZM154.12,14l-.33.09.73-.89-.23-.2a16.78,16.78,0,0,0-2.84-1.76h3V8.63a14.92,14.92,0,0,1,1.44,1.44l.21.25.23-.22a16.67,16.67,0,0,0,1.49-1.52,19.18,19.18,0,0,0,2.09,2.89A18,18,0,0,1,154.12,14m2.79,2.33a19.42,19.42,0,0,0,5.27-2.76A17.62,17.62,0,0,0,167,16.37Z" transform="translate(0 0)"/><path class="cls-4" d="M178.21,28.57H182V27.05h13.91v1.4h3.9V15.7H178.21ZM182,18.83h13.91v5H182Z" transform="translate(0 0)"/><path class="cls-4" d="M191.28,3c.33-.39.62-.77.89-1.15l.23-.3L189.08,0l-.15.2c-3.13,4.28-9,8.25-15.72,10.63l-.52.19.43.34a13.2,13.2,0,0,1,2.23,2.46l.13.19.23-.09a40.12,40.12,0,0,0,4.41-2.08v1.32h17.31v-1.8c1.6.84,3.22,1.58,4.74,2.26l.27.11.13-.26A7.54,7.54,0,0,1,204.66,11l.44-.34-.52-.19A40.26,40.26,0,0,1,191.28,3m-7.94,7A38.49,38.49,0,0,0,189,5.44a45,45,0,0,0,6,4.5Z" transform="translate(0 0)"/><path class="cls-4" d="M220.23,13.52h10.59V24.87c0,.18,0,.26-.54.26s-2.84,0-5,0l-.53,0,.24.46a9.92,9.92,0,0,1,1,2.73l0,.26h.26c3.15,0,5.16,0,6.44-.47,1.56-.56,1.88-1.68,1.88-3.17V13.52h4.83V10.21H220.23Z" transform="translate(0 0)"/><rect class="cls-4" x="221.64" y="1.93" width="16.88" height="3.31"/><path class="cls-4" d="M209.91,9.39l.15.28.28-.17a43.43,43.43,0,0,0,8.92-7.74l.28-.33L215.93.08l-.13.18a29.47,29.47,0,0,1-7.56,6.45l-.35.2.29.28a12.36,12.36,0,0,1,1.73,2.2" transform="translate(0 0)"/><path class="cls-4" d="M220.77,7.78l-3.55-1.21-.13.2a33.21,33.21,0,0,1-9.2,9l-.34.22.31.27A15.66,15.66,0,0,1,210,18.6l.17.27.26-.19c.9-.66,1.87-1.44,2.84-2.3V28.69H217v-16a41.21,41.21,0,0,0,3.6-4.59Z" transform="translate(0 0)"/><path class="cls-4" d="M271.17.88l-.11.27a33.25,33.25,0,0,1-3.12,5.67l-.23.33,3.17,1.15.14-.18a51.64,51.64,0,0,0,3.48-5.71l.16-.32Z" transform="translate(0 0)"/><path class="cls-4" d="M267.19.2h-3.6V8.66h-6.24v9.05a22.29,22.29,0,0,1-.89,7.28l-.16-2.48-1.64.26,0-.06c.6-1.32,1.31-3.32,2-5.3l.11-.32-3-.72-.06.31A43.9,43.9,0,0,1,252.2,22l-.11.31,2.08.56-2.08.33V16h4V13h-4V10.73h2.72V8.56c.14.13.27.26.38.38l.24.24,2.14-2.64-.21-.19c-1-.89-2.7-2.27-5.14-4.13.08-.14.16-.27.23-.41s.16-.28.23-.42l.21-.33-3.34-1-.12.24a20.45,20.45,0,0,1-6.24,7.23l-.25.17.18.25a13.66,13.66,0,0,1,1.44,2.77l.13.43.78-.65.41-.33v.61h2.85V13h-4.9v3h4.9v7.71c-1.94.32-3.69.58-5.07.78l-.34.05.87,3.16.28-.06c2.49-.48,5.52-1.11,8.72-1.77l3.19-.66a8.91,8.91,0,0,1-.76,1.55l-.19.3.33.13a10.77,10.77,0,0,1,2.36,1.52l.26.26.2-.31a15.39,15.39,0,0,0,2.1-7.1l.52,1.22,1.59-.36c2.18-.49,4.65-1,7.14-1.64V25c0,.22,0,.25-.38.27l-1,0c-.91,0-2,0-2.9-.08l-.53,0,.24.47a9.69,9.69,0,0,1,.84,2.54l0,.27h.27c2.6,0,4.26,0,5.33-.51,1.42-.52,1.61-1.75,1.61-2.9V8.66h-6.3ZM248.32,7.72a27.24,27.24,0,0,0,2.23-2.82c1.14.94,2.35,1.94,3.34,2.82Zm21.61,10.1c-4,.84-7,1.43-9.12,1.82,0-.68,0-1.31,0-1.93V15.22A30.33,30.33,0,0,1,268,17.61l.25.14,1.64-2.51Zm0-6.09v3.48l-.3-.15a36.21,36.21,0,0,0-7.42-2.21l-.19,0-1.17,1.62V11.73Z" transform="translate(0 0)"/><path class="cls-4" d="M259.55,8.23l.09.34,3.29-1.5-.09-.26a21.71,21.71,0,0,0-3.3-5.58L259.39,1l-3.12,1.34.24.31a19.74,19.74,0,0,1,3,5.54" transform="translate(0 0)"/><path class="cls-4" d="M245.39,23.37l2.86-.74-.05-.28c-.27-1.41-.84-3.63-1.39-5.4l-.08-.27L244,17.3l.09.31A43.62,43.62,0,0,1,245.35,23Z" transform="translate(0 0)"/></g></svg>