<svg id="分離模式" xmlns="http://www.w3.org/2000/svg" xmlns:xlink="http://www.w3.org/1999/xlink" viewBox="0 0 464.91 355.55"><defs><style>.cls-1{fill:none;}.cls-2{clip-path:url(#clip-path);}.cls-3{fill:#949494;}.cls-4{fill:#969696;}.cls-5{fill:#989898;}.cls-6{fill:#9a9a9a;}.cls-7{fill:#9c9c9c;}.cls-8{fill:#9e9e9e;}.cls-9{fill:#a0a0a0;}.cls-10{fill:#a2a2a2;}.cls-11{fill:#a4a4a4;}.cls-12{fill:#a5a5a5;}.cls-13{fill:#a7a7a7;}.cls-14{fill:#a9a9a9;}.cls-15{fill:#aaa;}.cls-16{fill:#acacac;}.cls-17{fill:#aeaeae;}.cls-18{fill:#afafaf;}.cls-19{fill:#b1b1b1;}.cls-20{fill:#b2b2b2;}.cls-21{fill:#b4b4b4;}.cls-22{fill:#b5b5b5;}.cls-23{fill:#b6b6b6;}.cls-24{fill:#b8b8b8;}.cls-25{fill:#b9b9b9;}.cls-26{fill:#bababa;}.cls-27{fill:#bbb;}.cls-28{fill:#bdbdbd;}.cls-29{fill:#bebebe;}.cls-30{fill:#bfbfbf;}.cls-31{fill:silver;}.cls-32{fill:#c1c1c1;}.cls-33{fill:#c2c2c2;}.cls-34{fill:#c3c3c3;}.cls-35{fill:#c4c4c4;}.cls-36{fill:#c5c5c5;}.cls-37{fill:#c6c6c6;}.cls-38{fill:#c7c7c7;}.cls-39{fill:#c8c8c8;}.cls-40{fill:#c9c9c9;}.cls-41{fill:#cacaca;}.cls-42{fill:#cbcbcb;}.cls-43{fill:#ccc;}.cls-44{fill:#cdcdcd;}.cls-45{fill:#cecece;}.cls-46{fill:#cfcfcf;}</style><clipPath id="clip-path" transform="translate(-981.16 -5098.44)"><path class="cls-1" d="M1011.77,5447.86l-7-17.48a221.49,221.49,0,0,0,199.92-60.72,225.48,225.48,0,0,0,17.9-20.19,133,133,0,1,0,26.16-230.86v0l0,0,0-.09-2.81,1.32-.68.32-1.82.85c-.73.35-1.47.67-2.19,1h0l-7.49,3.52.18.39,0,0a206.09,206.09,0,0,1,18,108.89l-.06.53c-.08.77-.17,1.54-.27,2.3s-.18,1.49-.28,2.23l-.12.87A205.26,205.26,0,0,1,1193,5357.94c-48,48-117.44,69-183.76,56.43l14.25-11.58L1013,5389.93l-31.88,25.91L996.38,5454Z"/></clipPath></defs><g class="cls-2"><polygon class="cls-3" points="464.9 100.78 364.12 0 464.9 0 464.9 100.78"/><polygon class="cls-3" points="464.9 112.72 352.18 0 364.12 0 464.9 100.78 464.9 112.72"/><polygon class="cls-4" points="464.9 124.66 340.24 0 352.18 0 464.9 112.72 464.9 124.66"/><polygon class="cls-5" points="464.9 136.6 328.3 0 340.24 0 464.9 124.66 464.9 136.6"/><polygon class="cls-6" points="464.9 148.54 316.36 0 328.3 0 464.9 136.6 464.9 148.54"/><polygon class="cls-7" points="464.9 160.48 304.42 0 316.36 0 464.9 148.54 464.9 160.48"/><polygon class="cls-8" points="464.9 172.42 292.48 0 304.42 0 464.9 160.48 464.9 172.42"/><polygon class="cls-9" points="464.9 184.36 280.54 0 292.48 0 464.9 172.42 464.9 184.36"/><polygon class="cls-10" points="464.9 187.83 460.67 192.07 272.7 4.1 276.81 0 280.54 0 464.9 184.36 464.9 187.83"/><rect class="cls-11" x="1340.64" y="5066.6" width="8.44" height="265.82" transform="translate(-4263.87 -2624.58) rotate(-45)"/><rect class="cls-12" x="1334.67" y="5072.57" width="8.44" height="265.82" transform="translate(-4269.84 -2627.05) rotate(-45)"/><rect class="cls-13" x="1328.7" y="5078.54" width="8.44" height="265.82" transform="translate(-4275.81 -2629.53) rotate(-45)"/><rect class="cls-14" x="1322.73" y="5084.51" width="8.44" height="265.82" transform="translate(-4281.78 -2632) rotate(-45)"/><rect class="cls-15" x="1316.76" y="5090.48" width="8.44" height="265.82" transform="translate(-4287.75 -2634.47) rotate(-45)"/><rect class="cls-16" x="1310.79" y="5096.45" width="8.44" height="265.82" transform="translate(-4293.72 -2636.94) rotate(-45)"/><rect class="cls-17" x="1304.82" y="5102.42" width="8.44" height="265.82" transform="translate(-4299.69 -2639.42) rotate(-45)"/><rect class="cls-18" x="1298.85" y="5108.39" width="8.44" height="265.82" transform="translate(-4305.66 -2641.89) rotate(-45)"/><rect class="cls-19" x="1292.88" y="5114.36" width="8.44" height="265.82" transform="translate(-4311.63 -2644.36) rotate(-45)"/><rect class="cls-20" x="1286.91" y="5120.33" width="8.44" height="265.82" transform="translate(-4317.6 -2646.84) rotate(-45)"/><rect class="cls-21" x="1280.94" y="5126.3" width="8.44" height="265.82" transform="translate(-4323.57 -2649.31) rotate(-45)"/><rect class="cls-22" x="1274.97" y="5132.27" width="8.44" height="265.82" transform="translate(-4329.54 -2651.78) rotate(-45)"/><rect class="cls-23" x="1269" y="5138.24" width="8.44" height="265.82" transform="translate(-4335.51 -2654.25) rotate(-45)"/><rect class="cls-24" x="1263.03" y="5144.21" width="8.44" height="265.82" transform="translate(-4341.48 -2656.73) rotate(-45)"/><rect class="cls-25" x="1257.06" y="5150.18" width="8.44" height="265.82" transform="translate(-4347.45 -2659.2) rotate(-45)"/><rect class="cls-26" x="1251.09" y="5156.15" width="8.44" height="265.82" transform="translate(-4353.42 -2661.67) rotate(-45)"/><rect class="cls-27" x="1245.12" y="5162.12" width="8.44" height="265.82" transform="translate(-4359.39 -2664.15) rotate(-45)"/><rect class="cls-28" x="1239.15" y="5168.09" width="8.44" height="265.82" transform="translate(-4365.36 -2666.62) rotate(-45)"/><rect class="cls-29" x="1233.18" y="5174.06" width="8.44" height="265.82" transform="translate(-4371.33 -2669.09) rotate(-45)"/><rect class="cls-30" x="1227.21" y="5180.03" width="8.44" height="265.82" transform="translate(-4377.3 -2671.56) rotate(-45)"/><rect class="cls-31" x="1221.24" y="5186" width="8.44" height="265.82" transform="translate(-4383.27 -2674.04) rotate(-45)"/><rect class="cls-32" x="1215.27" y="5191.97" width="8.44" height="265.82" transform="translate(-4389.24 -2676.51) rotate(-45)"/><rect class="cls-33" x="1209.3" y="5197.94" width="8.44" height="265.82" transform="translate(-4395.21 -2678.98) rotate(-45)"/><rect class="cls-34" x="1203.33" y="5203.91" width="8.44" height="265.82" transform="translate(-4401.18 -2681.46) rotate(-45)"/><rect class="cls-35" x="1197.36" y="5209.88" width="8.44" height="265.82" transform="translate(-4407.15 -2683.93) rotate(-45)"/><rect class="cls-36" x="1191.39" y="5215.85" width="8.44" height="265.82" transform="translate(-4413.12 -2686.4) rotate(-45)"/><rect class="cls-36" x="1185.42" y="5221.82" width="8.44" height="265.82" transform="translate(-4419.09 -2688.87) rotate(-45)"/><polygon class="cls-37" points="299.48 353.25 297.19 355.55 289.83 355.55 105.55 171.26 111.52 165.29 299.48 353.25"/><polygon class="cls-38" points="277.89 355.55 99.58 177.23 105.55 171.26 289.83 355.55 277.89 355.55"/><polygon class="cls-39" points="265.95 355.55 93.61 183.2 99.58 177.23 277.89 355.55 265.95 355.55"/><polygon class="cls-39" points="254.01 355.55 87.64 189.17 93.61 183.2 265.95 355.55 254.01 355.55"/><polygon class="cls-40" points="242.07 355.55 81.67 195.14 87.64 189.17 254.01 355.55 242.07 355.55"/><polygon class="cls-41" points="230.13 355.55 75.69 201.11 81.67 195.14 242.07 355.55 230.13 355.55"/><polygon class="cls-41" points="218.19 355.55 69.72 207.08 75.69 201.11 230.13 355.55 218.19 355.55"/><polygon class="cls-42" points="206.25 355.55 63.76 213.05 69.72 207.08 218.19 355.55 206.25 355.55"/><polygon class="cls-42" points="194.31 355.55 57.79 219.02 63.76 213.05 206.25 355.55 194.31 355.55"/><polygon class="cls-43" points="182.38 355.55 51.82 224.99 57.79 219.02 194.31 355.55 182.38 355.55"/><polygon class="cls-43" points="170.44 355.55 45.85 230.96 51.82 224.99 182.38 355.55 170.44 355.55"/><polygon class="cls-44" points="158.5 355.55 39.88 236.93 45.85 230.96 170.44 355.55 158.5 355.55"/><polygon class="cls-44" points="146.56 355.55 33.91 242.9 39.88 236.93 158.5 355.55 146.56 355.55"/><polygon class="cls-44" points="134.62 355.55 27.94 248.87 33.91 242.9 146.56 355.55 134.62 355.55"/><polygon class="cls-45" points="122.68 355.55 21.97 254.84 27.94 248.87 134.62 355.55 122.68 355.55"/><polygon class="cls-45" points="110.74 355.55 16 260.81 21.97 254.84 122.68 355.55 110.74 355.55"/><polygon class="cls-45" points="98.8 355.55 10.03 266.78 16 260.81 110.74 355.55 98.8 355.55"/><polygon class="cls-45" points="86.86 355.55 4.06 272.75 10.03 266.78 98.8 355.55 86.86 355.55"/><polygon class="cls-46" points="74.92 355.55 0 280.63 0 276.81 4.06 272.75 86.86 355.55 74.92 355.55"/><polygon class="cls-46" points="62.98 355.55 0 292.57 0 280.63 74.92 355.55 62.98 355.55"/><polygon class="cls-46" points="51.04 355.55 0 304.51 0 292.57 62.98 355.55 51.04 355.55"/><polygon class="cls-46" points="39.1 355.55 0 316.45 0 304.51 51.04 355.55 39.1 355.55"/><polygon class="cls-46" points="27.16 355.55 0 328.39 0 316.45 39.1 355.55 27.16 355.55"/><polygon class="cls-46" points="15.22 355.55 0 340.33 0 328.39 27.16 355.55 15.22 355.55"/><polygon class="cls-46" points="0 340.33 15.22 355.55 0 355.55 0 340.33"/></g></svg>