<?xml version="1.0" encoding="utf-8"?>
<!-- Generator: Adobe Illustrator 28.0.0, SVG Export Plug-In . SVG Version: 6.00 Build 0)  -->
<svg version="1.1" xmlns="http://www.w3.org/2000/svg" xmlns:xlink="http://www.w3.org/1999/xlink" x="0px" y="0px"
	 viewBox="0 0 1387.3 235.2" style="enable-background:new 0 0 1387.3 235.2;" xml:space="preserve">
<style type="text/css">
	.st0{fill:#F0F0F0;}
	.st1{fill:#333333;}
	.st2{fill:#FFFFFF;}
	.st3{fill:#FF7212;}
	.st4{fill:none;stroke:#000000;stroke-width:0.7765;stroke-miterlimit:10;}
	.st5{fill:none;stroke:#333333;stroke-width:1.1304;stroke-miterlimit:10;}
	.st6{fill:url(#SVGID_1_);}
	.st7{fill:url(#SVGID_00000068660591558714963400000009782931515650185870_);}
	.st8{clip-path:url(#SVGID_00000160894027445133758220000012604838478764285104_);}
	
		.st9{clip-path:url(#SVGID_00000160894027445133758220000012604838478764285104_);fill:url(#SVGID_00000069399873867006325000000016739354668158574993_);}
	.st10{fill:none;stroke:#000000;stroke-miterlimit:10;}
	.st11{opacity:5.000000e-02;}
	.st12{fill:url(#SVGID_00000108306656205570223270000015290585417629182093_);}
	.st13{clip-path:url(#SVGID_00000175296422555837220950000011775454472232383120_);}
	.st14{clip-path:url(#SVGID_00000143587923657048018300000005398802602502254752_);}
	.st15{clip-path:url(#SVGID_00000018201214294605526320000001372519395932929438_);}
	.st16{clip-path:url(#SVGID_00000119085471096295744090000003812819145766503864_);fill:#D1DFE8;}
	
		.st17{clip-path:url(#SVGID_00000119085471096295744090000003812819145766503864_);fill:url(#SVGID_00000099629212009933605430000006050964072988377530_);}
	.st18{clip-path:url(#SVGID_00000119085471096295744090000003812819145766503864_);}
	.st19{clip-path:url(#SVGID_00000057141093590823142380000001600069374612704444_);}
	.st20{clip-path:url(#SVGID_00000151543216591463305310000015713854861630877861_);}
	.st21{clip-path:url(#SVGID_00000100362775532821652090000013172916020902705832_);}
	.st22{opacity:0.9;}
	.st23{fill:#FFD053;}
	.st24{fill:#FFC448;}
	.st25{fill:#FFD77A;}
	.st26{fill:#2C2C2C;}
	.st27{fill:#71523F;}
	.st28{fill:#FF6669;}
	.st29{fill:#FF4141;}
	.st30{fill:#FF3636;}
	.st31{fill:#FF6363;}
	.st32{fill:#438FD9;}
	.st33{fill:#0089CE;}
	.st34{fill:#75ADE4;}
	.st35{fill:#654735;}
	.st36{fill:#FFA7AD;}
	.st37{fill:#FF2223;}
	.st38{clip-path:url(#SVGID_00000047742472482659589340000001326742148109312174_);}
	.st39{fill:url(#SVGID_00000022536825497025436340000014413152821561375370_);}
	.st40{fill:url(#SVGID_00000167370819996332240850000007815858019885010588_);}
	.st41{fill:url(#SVGID_00000173151899218876800140000003022762583355155875_);}
	.st42{fill:url(#SVGID_00000116922189688718347040000016204963937356276661_);}
	.st43{fill:url(#SVGID_00000129900546150765752780000002197124249792104595_);}
	.st44{opacity:0.2;clip-path:url(#SVGID_00000176753675697875628390000000579516085622207391_);fill:#333333;}
	.st45{clip-path:url(#SVGID_00000049920849826356964590000004730597063224530335_);}
	.st46{opacity:0.2;clip-path:url(#SVGID_00000049920849826356964590000004730597063224530335_);fill:#333333;}
	.st47{opacity:0.2;clip-path:url(#SVGID_00000011726006181779991500000016385967310608181657_);fill:#333333;}
	.st48{fill:none;stroke:#DCDCDC;stroke-width:16;stroke-miterlimit:10;}
	.st49{fill:#464644;}
	.st50{fill:url(#SVGID_00000075870856123830166010000003146692154229493173_);}
	
		.st51{clip-path:url(#SVGID_00000062151945571930797020000012529278251065516459_);fill:url(#SVGID_00000006689395919874500970000006429581955766724001_);}
	.st52{fill:url(#SVGID_00000118394902930690657290000015384109695242528949_);}
	.st53{fill:url(#SVGID_00000162313523435890599910000004238810349695460287_);}
	.st54{fill:url(#SVGID_00000023991814371667009070000012964211918215730836_);}
	.st55{fill:url(#SVGID_00000055673955617774589940000000046730849669064602_);}
	.st56{fill:#696969;}
	.st57{fill:url(#SVGID_00000183229979619483660790000006824479258200253587_);}
	.st58{opacity:0.3;fill:none;stroke:#FFFFFF;stroke-miterlimit:10;}
	.st59{clip-path:url(#SVGID_00000137853024346887828370000005130573454928182948_);}
	.st60{fill:none;stroke:#333333;stroke-width:2.6428;stroke-linecap:round;stroke-linejoin:round;stroke-miterlimit:10;}
	.st61{fill:none;stroke:#333333;stroke-width:1.6744;stroke-linecap:round;stroke-linejoin:round;stroke-miterlimit:10;}
	
		.st62{clip-path:url(#SVGID_00000057856228999171080300000009244253328046110646_);fill:url(#SVGID_00000063628618914316151200000006830790171030293635_);}
	
		.st63{clip-path:url(#SVGID_00000057856228999171080300000009244253328046110646_);fill:url(#SVGID_00000164473907160961330200000007969932256507003316_);}
	.st64{fill:url(#SVGID_00000149357540504511882220000007276286714664884363_);}
	.st65{fill:url(#SVGID_00000076584810676169414860000016128584674481726616_);}
	.st66{fill:url(#SVGID_00000168821765612925210300000013842502716053931170_);}
	.st67{fill:url(#SVGID_00000082342958747760414280000012879815375337646499_);}
	.st68{fill:url(#SVGID_00000009581077543121810100000008394560458985589181_);}
	.st69{fill:url(#SVGID_00000114039221236884033700000002697786206598253961_);}
	.st70{fill:url(#SVGID_00000109000975102425984660000007888550683804960141_);}
	.st71{fill:url(#SVGID_00000122706139593445652170000009669984039052850316_);}
	.st72{fill:url(#SVGID_00000055670175263176232330000004772293826852005555_);}
	.st73{fill:#8C8D8C;}
	.st74{fill:url(#SVGID_00000038382972472933358600000004582952656376460187_);}
	.st75{fill:url(#SVGID_00000145767753536740521040000014109005484795108491_);}
	.st76{fill:url(#SVGID_00000140010177508001300730000008058078331740980413_);}
	.st77{fill:url(#SVGID_00000171691596029694320690000005115368479548527775_);}
	.st78{fill:url(#SVGID_00000137091919281932890300000000638738632738896569_);}
	.st79{fill:url(#SVGID_00000023243238190805116720000015249960753015324325_);}
	.st80{fill:url(#SVGID_00000167376918185254166320000014438828993624089525_);}
	.st81{fill:url(#SVGID_00000183944274216951550360000013415808801765670818_);}
	.st82{fill:url(#SVGID_00000096756711854221313850000004793203017314781097_);}
	.st83{fill:url(#SVGID_00000149370434372116531970000010183739508113365143_);}
	.st84{fill:url(#SVGID_00000076599408643364620040000016980524138220939178_);}
	.st85{fill:url(#SVGID_00000098218114551051509780000018018471500876279455_);}
	.st86{fill:url(#SVGID_00000032638968061529311010000013829719500240648880_);}
	.st87{fill:url(#SVGID_00000006685935870564567550000011341597463148848041_);}
	.st88{fill:url(#SVGID_00000173118867576544515830000018339296415847070596_);}
	.st89{fill:url(#SVGID_00000090976518242051129630000011712927679655092100_);}
	.st90{fill:url(#SVGID_00000113324241098485327740000016851888255146388374_);}
	.st91{fill:url(#SVGID_00000134935396594307455010000006477795093070921641_);}
	.st92{fill:url(#SVGID_00000131326983720548318310000001863208331036337062_);}
	.st93{fill:url(#SVGID_00000028290406087214964890000003091804594950892720_);}
	.st94{fill:url(#SVGID_00000104690470651810269720000013884096190575847077_);}
	.st95{fill:url(#SVGID_00000162333921400502014180000002722633641103055519_);}
	.st96{fill:url(#SVGID_00000128453342347954732540000014896624392143699075_);}
	.st97{fill:url(#SVGID_00000116935617746948866040000008148095838942104242_);}
	.st98{fill:url(#SVGID_00000168086532949027752360000017685899492961226157_);}
	.st99{fill:url(#SVGID_00000102539855198341620740000014360295898996274093_);}
	.st100{fill:url(#SVGID_00000069382565846804443610000015804789728682348440_);}
	.st101{fill:url(#SVGID_00000127016227046106642500000015763865001669850005_);}
	.st102{fill:url(#SVGID_00000133530862720343849410000009705206987993664933_);}
	.st103{fill:url(#SVGID_00000119103045332523237010000003403359830354393760_);}
	.st104{fill:url(#SVGID_00000022549158762515110660000013938750295428895387_);}
	.st105{fill:url(#SVGID_00000163070666555357224130000013083783107441598379_);}
	.st106{fill:url(#SVGID_00000036250276818580260520000016927237761969917868_);}
	.st107{fill:url(#SVGID_00000180338231135857682850000006117868280188339108_);}
	.st108{fill:url(#SVGID_00000124132192525259909890000014373064470965834663_);}
	.st109{fill:url(#SVGID_00000014594345750192244980000013537822192066037120_);}
	.st110{fill:url(#SVGID_00000176746292096730833070000017385664007797451703_);}
	.st111{fill:url(#SVGID_00000109014862713918680480000002429364830046677379_);}
	.st112{fill:url(#SVGID_00000046312249559143112500000001772114509287332236_);}
	.st113{fill:url(#SVGID_00000101101957962938575580000016088185842362268060_);}
	.st114{fill:url(#SVGID_00000106131724277264321540000014653345033085429947_);}
	.st115{fill:url(#SVGID_00000142886520071589184020000003178110458966088616_);}
	.st116{fill:url(#SVGID_00000012474037216540701240000011926388695385895354_);}
	.st117{fill:url(#SVGID_00000068679475956971092070000004274831942210671766_);}
	.st118{fill:url(#SVGID_00000125592387941764062790000003531782025034631043_);}
	.st119{fill:url(#SVGID_00000093169787507431519970000011989313274377378968_);}
	.st120{fill:url(#SVGID_00000132799787065067849070000013894269753897758593_);}
	.st121{fill:url(#SVGID_00000109011859615929345640000001898890472735565188_);}
	.st122{fill:url(#SVGID_00000160905115467762451900000016110718272040790717_);}
	.st123{fill:url(#SVGID_00000175300182584932578750000005086803335215991742_);}
	.st124{fill:url(#SVGID_00000112611543025027553450000008350283396300153788_);}
	.st125{fill:url(#SVGID_00000016075354519654512010000006078765277881757112_);}
	.st126{fill:url(#SVGID_00000170984125721335074140000009485030767351672226_);}
	.st127{fill:url(#SVGID_00000067237251229366091680000012326475555315063682_);}
	.st128{fill:url(#SVGID_00000036224852981615843010000008631886910973129103_);}
	.st129{fill:url(#SVGID_00000070090674180949842550000011776239470138484635_);}
	.st130{fill:url(#SVGID_00000138553040044554511910000016806833188946130561_);}
	.st131{fill:url(#SVGID_00000124854237541887413740000008972676222135263915_);}
	.st132{fill:url(#SVGID_00000168837205964263471950000013587716881459265715_);}
	.st133{fill:url(#SVGID_00000007410228347335653970000010051479893727467711_);}
	.st134{fill:url(#SVGID_00000099630736773869910650000012882974476507169190_);}
	.st135{fill:url(#SVGID_00000121991050536907197750000002751836959704910722_);}
	.st136{fill:url(#SVGID_00000068638165880154333570000013144646016989310339_);}
	.st137{fill:url(#SVGID_00000093165674225132687590000017744952461960018048_);}
	.st138{fill:url(#SVGID_00000165230715068874062500000004016237303428954046_);}
	.st139{fill:url(#SVGID_00000041288136942291019810000012928421441136865943_);}
	.st140{fill:url(#SVGID_00000167358590691109512390000015414503438926804886_);}
	.st141{fill:url(#SVGID_00000128445495780309826740000013536046591652672156_);}
	.st142{fill:url(#SVGID_00000058577292990945750710000004098585958525779867_);}
	.st143{fill:url(#SVGID_00000092444101076045401930000015017761835738664588_);}
	.st144{fill:url(#SVGID_00000055707945044339813340000008328418584349187993_);}
	.st145{fill:url(#SVGID_00000051371472031155257210000009728787347167938444_);}
	.st146{fill:url(#SVGID_00000129918843976577748270000010751668015798099330_);}
	.st147{fill:url(#SVGID_00000020373455374068329420000009629193947093787578_);}
	.st148{fill:url(#SVGID_00000048462647695966792660000008737695956791807679_);}
	.st149{fill:url(#SVGID_00000122722235975645232720000016919669099960079530_);}
	.st150{fill:url(#SVGID_00000015352433636708979310000001803569157828378783_);}
	.st151{fill:url(#SVGID_00000125575952302126628730000013218449083874222509_);}
	.st152{fill:url(#SVGID_00000164476604969793151630000002244770595260404892_);}
	.st153{fill:url(#SVGID_00000164515539365002949220000007462417981653742761_);}
	.st154{fill:url(#SVGID_00000145026431706727395400000009131891871516543138_);}
	.st155{fill:url(#SVGID_00000089531910684910920740000005764847585614164108_);}
	.st156{fill:url(#SVGID_00000041275772159281900340000008678010958915463056_);}
	.st157{fill:url(#SVGID_00000036965712799664585970000010030832977582522023_);}
	.st158{fill:url(#SVGID_00000067957690697131978370000010516406136528926351_);}
	.st159{fill:url(#SVGID_00000059302811666423353910000007788378292796303024_);}
	.st160{fill:url(#SVGID_00000063592042572730111680000014486445103423173004_);}
	.st161{fill:url(#SVGID_00000056412619994621678790000014802828200829658297_);}
	.st162{fill:url(#SVGID_00000160152667767496100100000004210095010051335580_);}
	.st163{fill:url(#SVGID_00000022562855039175989040000013068143679797675703_);}
	.st164{fill:url(#SVGID_00000006700492257990743220000013631066156787900837_);}
	.st165{fill:url(#SVGID_00000013877291998577528300000012180667283820523188_);}
	.st166{fill:url(#SVGID_00000170256425665417782670000008164905948843106456_);}
	.st167{fill:url(#SVGID_00000030458122002681772480000005164073698987435414_);}
	.st168{fill:url(#SVGID_00000145736908305942895000000015959879113850741390_);}
	.st169{fill:url(#SVGID_00000127045289572083993720000000440472626901195682_);}
	.st170{fill:url(#SVGID_00000100383458399619539210000013130146155656849026_);}
	.st171{fill:url(#SVGID_00000165955848357037023020000016852438979625179277_);}
	.st172{fill:url(#SVGID_00000051347917512776037560000005769016089620744106_);}
	.st173{fill:url(#SVGID_00000067200787702324912920000000685311162409840792_);}
	.st174{fill:url(#SVGID_00000100351347634167309710000009859823570481456003_);}
	.st175{fill:url(#SVGID_00000040575449060971990930000003131917966156949146_);}
	.st176{fill:url(#SVGID_00000156559453228648125720000011880721131612464803_);}
	.st177{fill:url(#SVGID_00000026163158675707804430000012156470910427021206_);}
	.st178{fill:url(#SVGID_00000129913761085106669120000011403383337921655168_);}
	.st179{fill:url(#SVGID_00000162327646015023719590000002712427750123461039_);}
	.st180{fill:url(#SVGID_00000021808184169791619410000005646978156146518913_);}
	.st181{fill:url(#SVGID_00000154409908224315571330000001925771088410923710_);}
	.st182{fill:url(#SVGID_00000174559969234080662140000013065447479308124556_);}
	.st183{fill:url(#SVGID_00000073695277521056294580000002942762313047479213_);}
	.st184{fill:url(#SVGID_00000043430818333507453670000012200628067785335684_);}
	.st185{fill:url(#SVGID_00000072958571732801785150000002341794790656959400_);}
	.st186{fill:url(#SVGID_00000170984298484623109840000001249923233035738811_);}
	.st187{fill:url(#SVGID_00000047754782026643779940000002649696128061070262_);}
	.st188{fill:url(#SVGID_00000163767086149280056150000018203852236709984945_);}
	.st189{fill:url(#SVGID_00000070097970702504926900000009422542407444510895_);}
	.st190{fill:url(#SVGID_00000069395274629083661660000006431609690305039774_);}
	.st191{fill:url(#SVGID_00000019663846957717554200000012376061047297004201_);}
	.st192{fill:url(#SVGID_00000148646247975516683180000014198740158805934723_);}
	.st193{fill:url(#SVGID_00000049919222487620901540000000532056987345910662_);}
	.st194{fill:url(#SVGID_00000128444360705714929980000016570085694258194869_);}
	.st195{fill:url(#SVGID_00000012433398619078744540000016883841562009560471_);}
	.st196{fill:url(#SVGID_00000017507896501935706940000011140119639759818401_);}
	.st197{fill:url(#SVGID_00000064331286974627402260000016902893368550524816_);}
	.st198{fill:url(#SVGID_00000106133149128095750270000014560702193602420918_);}
	.st199{fill:url(#SVGID_00000097467578234628641780000016954336043230320826_);}
	.st200{fill:url(#SVGID_00000141450403195875885860000008590950111783302021_);}
	.st201{fill:url(#SVGID_00000180358083189730510640000008911185576158296738_);}
	.st202{fill:url(#SVGID_00000158024181304004911610000007284579161089719210_);}
	.st203{fill:url(#SVGID_00000134237078129414202860000015744542500674400436_);}
	.st204{fill:url(#SVGID_00000016755411787052788270000018104879932320495288_);}
	.st205{fill:url(#SVGID_00000140717526041840070300000003532714569775215014_);}
	.st206{fill:url(#SVGID_00000059272942662760161610000006565083265767248547_);}
	.st207{fill:url(#SVGID_00000158004278983945595510000003760162529025878431_);}
	.st208{fill:url(#SVGID_00000121988439656648007730000001774339703935983513_);}
	.st209{fill:url(#SVGID_00000090257321563638225820000011111449347687172262_);}
	.st210{fill:url(#SVGID_00000096053292771878412770000014608101021205893048_);}
	.st211{fill:url(#SVGID_00000114033531908421241840000002086504081095070886_);}
	.st212{fill:url(#SVGID_00000031917506492797681720000001123765486567348904_);}
	.st213{fill:url(#SVGID_00000021114439312496278240000004596977653926553481_);}
	.st214{fill:url(#SVGID_00000096749251167725774830000009630990354251225781_);}
	.st215{fill:url(#SVGID_00000158005882734061978650000014149089295494493833_);}
	.st216{fill:url(#SVGID_00000041284246388993547740000009486076370072177545_);}
	.st217{fill:url(#SVGID_00000159440346773429904560000004946515041191930514_);}
	.st218{fill:url(#SVGID_00000037666437962487016580000016591543276479836818_);}
	.st219{fill:url(#SVGID_00000116204088383606014700000016524633527293451199_);}
	.st220{fill:url(#SVGID_00000088098415997862492230000011692812424702486463_);}
	.st221{fill:url(#SVGID_00000067942223321565688700000012945073091885568913_);}
	.st222{fill:url(#SVGID_00000078743314032747696600000005046996032263177112_);}
	.st223{fill:url(#SVGID_00000091012970015295215630000012716638159926320830_);}
	.st224{fill:url(#SVGID_00000008853751540827236120000001393473090235248007_);}
	.st225{fill:url(#SVGID_00000140718982738179938510000014492935735587944620_);}
	.st226{fill:url(#SVGID_00000146482795938921777830000004686029853459653296_);}
	.st227{fill:url(#SVGID_00000078043135489602760870000004664972259986898338_);}
	.st228{fill:url(#SVGID_00000120542830130002572830000002824797068363945368_);}
	.st229{fill:url(#SVGID_00000018236324918619339690000006292293355443100564_);}
	.st230{fill:url(#SVGID_00000175281801506166778310000018111314731704626064_);}
	.st231{fill:url(#SVGID_00000010991515787907875660000012631654071911833490_);}
	.st232{fill:url(#SVGID_00000105422781980183373070000014875359335350669744_);}
	.st233{fill:url(#SVGID_00000036942229912395682730000011666986130703551639_);}
	.st234{fill:url(#SVGID_00000164485679736167825850000004184889821417660078_);}
	.st235{fill:url(#SVGID_00000060006304064673161010000001189195407424136591_);}
	.st236{fill:none;stroke:#FF7212;stroke-miterlimit:10;}
	.st237{fill:url(#SVGID_00000048481335643517301790000004660376224251903618_);}
	.st238{fill:url(#SVGID_00000102528352212227563090000016925431229455313838_);}
	.st239{fill:url(#SVGID_00000031915536939063662900000005567256509189005988_);}
	.st240{fill:url(#SVGID_00000181077449745910408980000009581666585487704462_);}
	.st241{fill:url(#SVGID_00000052066537626486841690000009197437270466001288_);}
	.st242{fill:none;stroke:#464644;stroke-width:2.1129;stroke-linecap:round;stroke-linejoin:round;stroke-miterlimit:10;}
	.st243{fill:none;stroke:#464644;stroke-width:2.5;stroke-linecap:round;stroke-linejoin:round;stroke-miterlimit:10;}
	.st244{fill:none;stroke:#464644;stroke-width:2;stroke-linecap:round;stroke-linejoin:round;stroke-miterlimit:10;}
	.st245{fill:#464644;stroke:#464644;stroke-width:0.5;stroke-linecap:round;stroke-linejoin:round;stroke-miterlimit:10;}
	.st246{fill:#464644;stroke:#464644;stroke-linecap:round;stroke-linejoin:round;stroke-miterlimit:10;}
	.st247{fill:#464644;stroke:#464644;stroke-miterlimit:10;}
	.st248{clip-path:url(#SVGID_00000170972708710498291140000007593700226660323493_);}
	.st249{fill:none;stroke:#464644;stroke-width:2.54;stroke-linecap:round;stroke-linejoin:round;stroke-miterlimit:10;}
</style>
<g id="圖層_2">
	<g id="圖層_4">
	</g>
	<g class="st11">
		<path class="st1" d="M0,181.2V6.2h58.3v175H0z"/>
		<path class="st1" d="M94.9,181.2V49h54.9v9c13.6-7.7,29.6-11.5,48.1-11.5c14,0,26.4,2.2,37.1,6.8c10.7,4.5,19.1,10.8,25.2,18.8
			s9.1,17.2,9.1,27.8v81.5h-54.9v-76c0-7.3-2.9-13.2-8.8-17.5c-5.9-4.3-13.8-6.5-23.7-6.5c-7,0-13.2,0.9-18.5,2.8
			c-5.3,1.8-9.9,4.4-13.7,7.8v89.5H94.9z"/>
		<path class="st1" d="M385.3,183c-16.9,0-32.4-3-46.3-9.1c-13.9-6.1-24.9-14.2-33-24.5s-12.2-21.7-12.2-34.4
			c0-12.7,4.1-24.1,12.4-34.4c8.2-10.2,19.4-18.4,33.5-24.4c14.1-6,29.9-9,47.3-9c8.4,0,16.4,0.8,24.1,2.2
			c7.7,1.5,14.9,3.7,21.7,6.5V6.2L487.6,0v181.2h-54.2v-9.8C419.2,179.2,403.1,183,385.3,183z M394.8,148.5c7.7,0,14.7-0.9,21-2.6
			c6.3-1.8,12-4.4,16.9-7.9V91.8c-4.7-3.3-10.4-5.9-16.9-7.6c-6.6-1.8-13.6-2.6-21-2.6c-8.8,0-16.8,1.5-23.9,4.4
			c-7.1,2.9-12.8,6.9-16.9,12c-4.2,5.1-6.3,10.8-6.3,17.1c0,6.3,2.1,12,6.3,17.1c4.2,5.1,9.8,9.1,16.9,12
			C378,147,386,148.5,394.8,148.5z"/>
		<path class="st1" d="M591.7,183.8c-14,0-26.4-2.2-37.1-6.8c-10.7-4.5-19.1-10.8-25.2-18.9c-6.1-8.1-9.1-17.3-9.1-27.6V49h54.9v76
			c0,7.2,3,13,9,17.4c6,4.4,13.8,6.6,23.6,6.6c7,0,13.2-0.9,18.6-2.8c5.4-1.8,9.9-4.4,13.6-7.8V49h54.9v132.2h-54.9v-9
			C626.2,179.9,610.2,183.8,591.7,183.8z"/>
		<path class="st1" d="M799.4,183.8c-16.9,0-32.6-1.5-47.1-4.4c-14.5-2.9-27-7.2-37.6-12.9l26.1-27.2c11.3,5,21.6,8.6,30.8,10.9
			c9.3,2.2,18.4,3.4,27.4,3.4c9,0,16.2-1,21.5-2.9c5.3-1.9,8-4.5,8-7.6c0-2.5-1.5-4.5-4.4-6.1c-2.9-1.6-7.6-2.7-13.9-3.4l-35.6-4
			c-17.8-2-31.5-6.4-40.8-13.1c-9.4-6.8-14.1-15.5-14.1-26.4c0-9,3.1-16.7,9.3-23.1c6.2-6.4,15.1-11.3,26.6-14.8
			C767.2,48.7,781,47,797,47c13.1,0,26.1,1.3,39,4c12.9,2.7,24.8,6.7,35.9,12l-26.1,26c-9.7-4.2-19-7.2-27.8-9.1
			c-8.8-1.9-17.6-2.9-26.4-2.9c-7,0-12.7,0.9-16.9,2.6c-4.3,1.8-6.4,4-6.4,6.9c0,2.7,1.6,4.8,4.7,6.4c3.2,1.6,8.6,2.8,16.3,3.6
			l35.6,4c17.6,1.8,31.2,6.1,40.8,12.9c9.6,6.8,14.4,15.3,14.4,25.6c0,8.7-3.5,16.3-10.5,23c-7,6.7-16.6,12-28.6,15.9
			C828.8,181.8,815,183.8,799.4,183.8z"/>
		<path class="st1" d="M988.1,183c-21.5,0-37.7-3.5-48.6-10.6c-11-7.1-16.4-17.5-16.4-31.4V82.8h-36.3V49h36.3V15L978,6.2V49h50.2
			v33.8H978V133c0,5.8,1.7,10,5.3,12.4c3.5,2.4,9.7,3.6,18.5,3.6c4.5,0,8.6-0.2,12.4-0.6c3.7-0.4,7.8-1.1,12.4-2.1V179
			c-5,1.2-11.3,2.1-19,2.9C999.8,182.6,993.3,183,988.1,183z"/>
		<path class="st1" d="M1049.5,181.2V49h54.9v13.2c5.9-5.3,12.8-9.4,20.7-12.1c7.9-2.8,16.7-4.1,26.4-4.1c9.7,0.2,16.6,1.2,20.7,3.2
			v35.2c-3.6-1.3-7.7-2.3-12.2-3c-4.5-0.7-9.1-1-13.9-1c-8.6,0-16.6,1.5-23.9,4.4c-7.3,2.9-13.3,7-17.8,12.4v84H1049.5z"/>
		<path class="st1" d="M1220.6,235.2c-4.3,0-8.5-0.1-12.5-0.4s-7.5-0.6-10.2-1.1v-34.5c4.5,0.7,10.2,1,16.9,1
			c17.6,0,29.5-5.7,35.6-17V183l-68.8-134h60.7l39.6,83.2L1328,49h59.3L1307,188c-6.6,11.5-13.8,20.7-21.7,27.6
			c-7.9,6.9-17.1,11.9-27.4,15C1247.5,233.7,1235.1,235.2,1220.6,235.2z"/>
	</g>
</g>
<g id="圖層_1">
</g>
<g id="圖層_3">
</g>
</svg>
