<svg id="分離模式" xmlns="http://www.w3.org/2000/svg" viewBox="0 0 128.99 69.09"><defs><style>.cls-1{fill:#464644;}.cls-2{fill:#ff7212;}</style></defs><path class="cls-1" d="M945.65,5269.86a17.37,17.37,0,0,1-3.45,3.24l-.24.16.24.16a8.33,8.33,0,0,1,1.4,1.15l.12.13.14-.11a25.78,25.78,0,0,0,3.86-3.95l.17-.21-2.16-.67Z" transform="translate(-936.54 -5206.17)"/><path class="cls-1" d="M943,5258l-2.16-.55-.06.17a20.3,20.3,0,0,1-4.12,7.37l-.11.11.1.13a10.33,10.33,0,0,1,1,1.79l.1.29.22-.22a15.36,15.36,0,0,0,1.21-1.49v9.46h2.21v-13.14a34.87,34.87,0,0,0,1.57-3.73Z" transform="translate(-936.54 -5206.17)"/><path class="cls-1" d="M950.4,5265.86h-2.25v2h-5.72v1.91h5.72v5.32h2.25v-5.32h2l-1.69,1.05.2.16a27.32,27.32,0,0,1,3.53,3.66l.11.15,1.77-1.28-.12-.15a25,25,0,0,0-3.66-3.54l-.07-.05h3.91v-1.91h-6Z" transform="translate(-936.54 -5206.17)"/><path class="cls-1" d="M954.4,5261.32H956v-1.73H954.4v-1.9h-2v1.9h-2.81l0-.09-1.25-.41-.32.06h-1.63c.16-.37.3-.73.43-1.06l.09-.22-2-.26-.05.16a11.78,11.78,0,0,1-3.24,5l-.19.18.23.12a5,5,0,0,1,1.17.88l.13.16.15-.14a11.24,11.24,0,0,0,1-1.08c.55.45,1,.82,1.3,1.13a8.39,8.39,0,0,1-2.94,2.2l-.29.13.25.19a6.78,6.78,0,0,1,1,1.11l.09.13.14-.07a10.73,10.73,0,0,0,5.6-6.79v.35h.54c-.31,1.3-.69,2.75-1,3.75l-.08.24,3.71,0v2.11h2v-2.11h2v-1.77h-2Zm-7.94,1.18c-.31-.27-.79-.65-1.3-1l.38-.63h1.64A12.76,12.76,0,0,1,946.46,5262.5Zm5.91,1.06H951c.11-.39.21-.8.31-1.21s.17-.69.26-1h.76Z" transform="translate(-936.54 -5206.17)"/><path class="cls-1" d="M974.65,5268.81h3.4v-1.9h-3.87v-2H972v2h-3.2v1.9h2.71a12.72,12.72,0,0,1-4.55,3.42l-.3.13.26.2a5.87,5.87,0,0,1,1.14,1.21l.09.15.16-.08A15.11,15.11,0,0,0,972,5271v4.06h2.21V5271a17.64,17.64,0,0,0,3,2.79l.16.11.1-.15a8.09,8.09,0,0,1,1.34-1.34l.24-.18-.27-.14A15.42,15.42,0,0,1,974.65,5268.81Z" transform="translate(-936.54 -5206.17)"/><path class="cls-1" d="M967,5271.94l1.79-1.12-.23-.17c-.47-.34-2-1.34-3-1.89h2.86v-1.9h-3.16V5265h-2.09a17.56,17.56,0,0,0,4.47-3v4.06H970v-4.11c2.24,1.1,5.82,3,7.23,3.84l.19.11.76-2-.14-.08c-.83-.45-3.66-1.73-5.67-2.62h5.33v-1.92H970v-1.88h-2.3v1.88H960v1.92h5.59a17.36,17.36,0,0,1-6.37,3l-.34.09.26.24a7.94,7.94,0,0,1,1.18,1.35l.08.13.14-.05a20.51,20.51,0,0,0,2.5-1v1.85h-3.33v1.9h3a11.51,11.51,0,0,1-3.61,3.05l-.18.09.11.17a10,10,0,0,1,.79,1.57l.08.21.19-.11a12.12,12.12,0,0,0,3-2.56v3.72h2.21v-4.27c.66.49,1.27.94,1.62,1.23Z" transform="translate(-936.54 -5206.17)"/><path class="cls-1" d="M997.19,5264.43a9.38,9.38,0,0,0,1.83-3.22h1.4v-1.79H995a14,14,0,0,0,.52-1.39l.05-.2-2.09-.46,0,.17a9.43,9.43,0,0,1-2.51,4.22v-1.21h-3.34v-.43h3.78v-1.66h-3.78v-1.05H985.5v1.05h-3.91v1.66h3.91v.43h-3.37v3.75h2.43a10.63,10.63,0,0,1-3.24,1.81l-.34.11.29.22a6.38,6.38,0,0,1,1.06,1.08l.09.11.14-.05.13-.06v1.76h7v3.45h-2.89v-3h-2.2v3h-3.27v1.84h19.13v-1.84H992v-.91h5.66v-1.71H992v-.83h7.15v-1.67a.76.76,0,0,0,.2.06l.14.05.08-.13a6.74,6.74,0,0,1,1-1.31l.26-.23-.34-.09A10.82,10.82,0,0,1,997.19,5264.43Zm-.41-3.22a6.54,6.54,0,0,1-1.11,1.91,9.76,9.76,0,0,1-1.37-1.91Zm-9.19.81H989v.81h-1.36Zm-3.56.81V5262h1.47v.81Zm-1.2,4.63a11.72,11.72,0,0,0,2.67-1.78v1.68h2.09v-2.06a12,12,0,0,1,2.2,1.38l.15.13.51-.64.22.18a6.6,6.6,0,0,1,1,1.11Zm7.91-1.45-.2.06.45-.56-.15-.12a10.35,10.35,0,0,0-1.76-1.09h1.85v-1.64a8.45,8.45,0,0,1,.9.89l.12.15.15-.13a11.84,11.84,0,0,0,.92-.94,12.48,12.48,0,0,0,1.3,1.79A11.1,11.1,0,0,1,990.74,5266Zm1.73,1.45a12.07,12.07,0,0,0,3.27-1.72,11,11,0,0,0,3,1.72Z" transform="translate(-936.54 -5206.17)"/><path class="cls-1" d="M1005.69,5275H1008v-.95h8.63v.87h2.42V5267h-13.38ZM1008,5269h8.63v3.11H1008Z" transform="translate(-936.54 -5206.17)"/><path class="cls-1" d="M1013.8,5259.16c.2-.24.38-.49.55-.72l.14-.19-2.06-.95-.09.13c-1.94,2.65-5.59,5.11-9.75,6.59l-.33.12.27.21a8.07,8.07,0,0,1,1.38,1.52l.08.12.14-.05a25,25,0,0,0,2.74-1.29v.81h10.74v-1.11c1,.52,2,1,2.94,1.4l.17.07.08-.16a4.75,4.75,0,0,1,1.29-1.53l.28-.22-.32-.11A25.07,25.07,0,0,1,1013.8,5259.16Zm-4.93,4.31a24.15,24.15,0,0,0,3.48-2.79,28.59,28.59,0,0,0,3.74,2.79Z" transform="translate(-936.54 -5206.17)"/><path class="cls-1" d="M1031.76,5265.69h6.57v7c0,.11,0,.17-.34.17s-1.76,0-3.08,0h-.33l.15.29a6.19,6.19,0,0,1,.61,1.69l0,.16h.16a14.07,14.07,0,0,0,4-.3c1-.34,1.17-1,1.17-2v-7.06h3v-2h-11.92Z" transform="translate(-936.54 -5206.17)"/><rect class="cls-1" x="96.09" y="52.32" width="10.47" height="2.05"/><path class="cls-1" d="M1025.35,5263.13l.1.17.17-.11a26.55,26.55,0,0,0,5.54-4.8l.17-.2-2.24-.84-.08.11a18.08,18.08,0,0,1-4.69,4l-.22.13.18.17A7.39,7.39,0,0,1,1025.35,5263.13Z" transform="translate(-936.54 -5206.17)"/><path class="cls-1" d="M1032.1,5262.13l-2.21-.75-.08.12a20.7,20.7,0,0,1-5.71,5.59l-.21.14.19.16a10.32,10.32,0,0,1,1.3,1.45l.11.17.16-.12c.56-.41,1.16-.9,1.76-1.42v7.63h2.31v-9.92a25.59,25.59,0,0,0,2.24-2.85Z" transform="translate(-936.54 -5206.17)"/><path class="cls-1" d="M1063.36,5257.85l-.06.16a20.68,20.68,0,0,1-1.94,3.52l-.14.21,2,.71.08-.11a32.61,32.61,0,0,0,2.16-3.54l.1-.2Z" transform="translate(-936.54 -5206.17)"/><path class="cls-1" d="M1060.89,5257.42h-2.23v5.25h-3.87v5.62a13.79,13.79,0,0,1-.56,4.52l-.1-1.54-1,.16v0c.37-.82.82-2.06,1.24-3.28l.07-.2-1.9-.46,0,.2a27.33,27.33,0,0,1-.9,3.28l-.07.19,1.29.35-1.29.21v-4.47H1054v-1.86h-2.49V5264h1.68v-1.35a2.72,2.72,0,0,1,.24.24l.15.15,1.33-1.64-.13-.12c-.61-.55-1.68-1.41-3.19-2.57l.14-.24c0-.09.1-.18.14-.27l.13-.2-2.07-.65-.07.14a12.63,12.63,0,0,1-3.88,4.49l-.15.11.11.15a8.59,8.59,0,0,1,.89,1.72l.08.27.49-.4.25-.21v.38h1.77v1.39h-3v1.86h3V5272c-1.2.2-2.29.36-3.15.48l-.21,0,.55,1.95.17,0c1.54-.3,3.42-.69,5.41-1.1l2-.41a5.34,5.34,0,0,1-.47,1l-.12.19.2.08a6.87,6.87,0,0,1,1.47.94l.16.16.12-.19a9.6,9.6,0,0,0,1.31-4.41l.32.76,1-.22c1.36-.3,2.89-.65,4.43-1v2.64c0,.14,0,.16-.23.17h-.6c-.56,0-1.21,0-1.8-.05h-.32l.15.29a6.14,6.14,0,0,1,.52,1.57l0,.17h.17a9.45,9.45,0,0,0,3.31-.31,1.66,1.66,0,0,0,1-1.8v-10.19h-3.91Zm-11.7,4.67a17.26,17.26,0,0,0,1.38-1.75c.71.58,1.46,1.21,2.07,1.75Zm13.4,6.27c-2.47.52-4.33.89-5.65,1.13,0-.42,0-.82,0-1.2v-1.54a18.3,18.3,0,0,1,4.46,1.48l.16.08,1-1.56Zm0-3.78v2.16l-.18-.09a21.71,21.71,0,0,0-4.61-1.37l-.11,0-.73,1v-1.68Z" transform="translate(-936.54 -5206.17)"/><path class="cls-1" d="M1056.15,5262.41l.06.21,2-.93,0-.16a13.57,13.57,0,0,0-2-3.47l-.09-.11-1.94.83.15.19A12.07,12.07,0,0,1,1056.15,5262.41Z" transform="translate(-936.54 -5206.17)"/><path class="cls-1" d="M1047.37,5271.8l1.77-.46,0-.17a32.58,32.58,0,0,0-.86-3.35l0-.17-1.7.38.06.2a25,25,0,0,1,.78,3.36Z" transform="translate(-936.54 -5206.17)"/><path class="cls-2" d="M972.12,5206.17v26.39a4.72,4.72,0,0,1-9.37.83H956a11.43,11.43,0,0,0,22.83-.83v-26.39Z" transform="translate(-936.54 -5206.17)"/><rect class="cls-2" x="93.63" width="6.71" height="37.78"/><polyline class="cls-2" points="63.18 37.83 55.71 37.83 49.16 0 56.63 0 63.18 37.83"/><polyline class="cls-2" points="78.07 37.83 70.6 37.83 64.06 0 71.53 0 78.07 37.83"/><polygon class="cls-2" points="82.77 21.97 78.95 0 86.61 0 82.77 21.97"/></svg>