<svg id="分離模式" xmlns="http://www.w3.org/2000/svg" viewBox="0 0 61 61"><defs><style>.cls-1{fill:#fff;}</style></defs><path class="cls-1" d="M648-87.91l4.1,4.11H628.76v8H652.1L648-71.69,653.67-66l13.7-13.76-13.7-13.76Zm5.67,20.45-4.25-4.23,5.08-5.11H629.76v-6H654.5l-5.08-5.11,4.25-4.23L666-79.8Z" transform="translate(-616.29 110.3)"/><path class="cls-1" d="M646.79-110.3a30.54,30.54,0,0,0-30.5,30.5,30.54,30.54,0,0,0,30.5,30.5,30.53,30.53,0,0,0,30.5-30.5A30.53,30.53,0,0,0,646.79-110.3Zm0,60a29.54,29.54,0,0,1-29.5-29.5,29.54,29.54,0,0,1,29.5-29.5,29.53,29.53,0,0,1,29.5,29.5A29.53,29.53,0,0,1,646.79-50.3Z" transform="translate(-616.29 110.3)"/></svg>