<svg id="分離模式" xmlns="http://www.w3.org/2000/svg" xmlns:xlink="http://www.w3.org/1999/xlink" viewBox="0 0 355.55 464.91"><defs><style>.cls-1{fill:none;}.cls-2{clip-path:url(#clip-path);}.cls-3{fill:#ff8735;}.cls-4{fill:#ff8835;}.cls-5{fill:#ff8836;}.cls-6{fill:#ff8936;}.cls-7{fill:#ff8937;}.cls-8{fill:#ff8a37;}.cls-9{fill:#ff8b38;}.cls-10{fill:#ff8c39;}.cls-11{fill:#ff8d39;}.cls-12{fill:#ff8d3a;}.cls-13{fill:#ff8e3b;}.cls-14{fill:#ff8f3b;}.cls-15{fill:#ff903c;}.cls-16{fill:#ff913d;}.cls-17{fill:#ff923e;}.cls-18{fill:#ff933f;}.cls-19{fill:#ff943f;}.cls-20{fill:#ff9540;}.cls-21{fill:#ff9641;}.cls-22{fill:#ff9742;}.cls-23{fill:#ff9842;}.cls-24{fill:#ff9943;}.cls-25{fill:#ff9a44;}.cls-26{fill:#ff9b45;}.cls-27{fill:#ff9c46;}.cls-28{fill:#ff9d46;}.cls-29{fill:#ff9e47;}.cls-30{fill:#ff9f48;}.cls-31{fill:#ffa049;}.cls-32{fill:#ffa14a;}.cls-33{fill:#ffa24b;}.cls-34{fill:#ffa34b;}.cls-35{fill:#ffa44c;}.cls-36{fill:#ffa54d;}.cls-37{fill:#ffa64e;}.cls-38{fill:#ffa74f;}.cls-39{fill:#ffa950;}.cls-40{fill:#ffaa51;}.cls-41{fill:#ffab52;}.cls-42{fill:#ffac53;}.cls-43{fill:#ffad54;}.cls-44{fill:#ffae54;}.cls-45{fill:#ffaf55;}.cls-46{fill:#ffb156;}.cls-47{fill:#ffb257;}.cls-48{fill:#ffb358;}.cls-49{fill:#ffb459;}.cls-50{fill:#ffb55a;}.cls-51{fill:#ffb75b;}.cls-52{fill:#ffb85c;}.cls-53{fill:#ffb95d;}.cls-54{fill:#ffba5e;}.cls-55{fill:#ffbc5f;}.cls-56{fill:#ffbd60;}.cls-57{fill:#ffbe61;}.cls-58{fill:#ffbf62;}.cls-59{fill:#ffc163;}.cls-60{fill:#ffc264;}.cls-61{fill:#ffc365;}.cls-62{fill:#ffc566;}.cls-63{fill:#ffc668;}.cls-64{fill:#ffc769;}</style><clipPath id="clip-path" transform="translate(-842.19 -4780.35)"><path class="cls-1" d="M1191.6,5214.65l-17.47,7a222.17,222.17,0,0,0-80.91-217.81,133,133,0,1,0-230.87-26.16h0l0,.05-.09.05,1.31,2.81.33.68c.27.61.57,1.22.85,1.82s.67,1.47,1,2.19h0l3.52,7.49.39-.18,0,0a206.06,206.06,0,0,1,108.88-18l.54.06c.77.08,1.54.17,2.3.27l2.23.28.87.12a205.29,205.29,0,0,1,117.14,58.09c48,48,69,117.44,56.43,183.76l-11.58-14.25-12.86,10.45,25.9,31.88,38.16-15.22Z"/></clipPath></defs><g class="cls-2"><polygon class="cls-3" points="4.94 0 0 4.94 0 0 4.94 0"/><polygon class="cls-4" points="17.98 0 0 17.98 0 4.94 4.94 0 17.98 0"/><polygon class="cls-5" points="31.01 0 0 31.01 0 17.98 17.98 0 31.01 0"/><polygon class="cls-6" points="44.05 0 0 44.05 0 31.01 31.01 0 44.05 0"/><polygon class="cls-7" points="57.09 0 0 57.09 0 44.05 44.05 0 57.09 0"/><polygon class="cls-8" points="70.13 0 0 70.13 0 57.09 57.09 0 70.13 0"/><polygon class="cls-9" points="83.16 0 0 83.16 0 70.13 70.13 0 83.16 0"/><polygon class="cls-9" points="96.2 0 0 96.2 0 83.16 83.16 0 96.2 0"/><polygon class="cls-10" points="109.24 0 0 109.24 0 96.2 96.2 0 109.24 0"/><polygon class="cls-11" points="122.28 0 0 122.28 0 109.24 109.24 0 122.28 0"/><polygon class="cls-12" points="135.31 0 0 135.31 0 122.28 122.28 0 135.31 0"/><polygon class="cls-13" points="148.35 0 0 148.35 0 135.31 135.31 0 148.35 0"/><polygon class="cls-14" points="161.39 0 0 161.39 0 148.35 148.35 0 161.39 0"/><polygon class="cls-15" points="174.43 0 0 174.43 0 161.39 161.39 0 174.43 0"/><polygon class="cls-16" points="187.46 0 0 187.46 0 174.43 174.43 0 187.46 0"/><polygon class="cls-16" points="187.83 0 194.16 6.34 6.2 194.3 0 188.1 0 187.46 187.46 0 187.83 0"/><rect class="cls-17" x="812.72" y="4879.32" width="265.82" height="9.22" transform="translate(-4018.68 -2681.22) rotate(-45)"/><rect class="cls-18" x="819.24" y="4885.84" width="265.82" height="9.22" transform="translate(-4021.38 -2674.7) rotate(-45)"/><rect class="cls-19" x="825.76" y="4892.36" width="265.82" height="9.22" transform="translate(-4024.08 -2668.18) rotate(-45)"/><rect class="cls-20" x="832.28" y="4898.88" width="265.82" height="9.22" transform="translate(-4026.78 -2661.66) rotate(-45)"/><rect class="cls-21" x="838.8" y="4905.4" width="265.82" height="9.22" transform="translate(-4029.48 -2655.14) rotate(-45)"/><rect class="cls-22" x="845.32" y="4911.92" width="265.82" height="9.22" transform="translate(-4032.18 -2648.63) rotate(-45)"/><rect class="cls-23" x="851.84" y="4918.43" width="265.82" height="9.22" transform="translate(-4034.88 -2642.11) rotate(-45)"/><rect class="cls-24" x="858.35" y="4924.95" width="265.82" height="9.22" transform="translate(-4037.58 -2635.59) rotate(-45)"/><rect class="cls-25" x="864.87" y="4931.47" width="265.82" height="9.22" transform="translate(-4040.28 -2629.07) rotate(-45)"/><rect class="cls-26" x="871.39" y="4937.99" width="265.82" height="9.22" transform="translate(-4042.98 -2622.55) rotate(-45)"/><rect class="cls-27" x="877.91" y="4944.51" width="265.82" height="9.22" transform="translate(-4045.68 -2616.03) rotate(-45)"/><rect class="cls-28" x="884.43" y="4951.03" width="265.82" height="9.22" transform="translate(-4048.38 -2609.51) rotate(-45)"/><rect class="cls-29" x="890.95" y="4957.55" width="265.82" height="9.22" transform="translate(-4051.08 -2602.99) rotate(-45)"/><rect class="cls-30" x="897.47" y="4964.07" width="265.82" height="9.22" transform="translate(-4053.79 -2596.48) rotate(-45)"/><rect class="cls-31" x="903.99" y="4970.58" width="265.82" height="9.22" transform="translate(-4056.49 -2589.96) rotate(-45)"/><rect class="cls-32" x="910.5" y="4977.1" width="265.82" height="9.22" transform="translate(-4059.19 -2583.44) rotate(-45)"/><rect class="cls-33" x="917.02" y="4983.62" width="265.82" height="9.22" transform="translate(-4061.89 -2576.92) rotate(-45)"/><rect class="cls-34" x="923.54" y="4990.14" width="265.82" height="9.22" transform="translate(-4064.59 -2570.4) rotate(-45)"/><rect class="cls-35" x="930.06" y="4996.66" width="265.82" height="9.22" transform="translate(-4067.29 -2563.88) rotate(-45)"/><rect class="cls-36" x="936.58" y="5003.18" width="265.82" height="9.22" transform="translate(-4069.99 -2557.36) rotate(-45)"/><rect class="cls-37" x="943.1" y="5009.7" width="265.82" height="9.22" transform="translate(-4072.69 -2550.84) rotate(-45)"/><rect class="cls-38" x="949.62" y="5016.22" width="265.82" height="9.22" transform="translate(-4075.39 -2544.32) rotate(-45)"/><rect class="cls-39" x="956.14" y="5022.73" width="265.82" height="9.22" transform="translate(-4078.09 -2537.81) rotate(-45)"/><rect class="cls-40" x="962.65" y="5029.25" width="265.82" height="9.22" transform="translate(-4080.79 -2531.29) rotate(-45)"/><polygon class="cls-41" points="350.62 162.79 355.55 167.72 355.55 170.89 169.17 357.27 162.65 350.75 350.62 162.79"/><polygon class="cls-42" points="355.55 183.93 175.69 363.79 169.17 357.27 355.55 170.89 355.55 183.93"/><polygon class="cls-43" points="355.55 196.97 182.21 370.31 175.69 363.79 355.55 183.93 355.55 196.97"/><polygon class="cls-44" points="355.55 210 188.73 376.83 182.21 370.31 355.55 196.97 355.55 210"/><polygon class="cls-45" points="355.55 223.04 195.25 383.35 188.73 376.83 355.55 210 355.55 223.04"/><polygon class="cls-46" points="355.55 236.08 201.76 389.86 195.25 383.35 355.55 223.04 355.55 236.08"/><polygon class="cls-47" points="355.55 249.12 208.28 396.38 201.76 389.86 355.55 236.08 355.55 249.12"/><polygon class="cls-48" points="355.55 262.15 214.8 402.9 208.28 396.38 355.55 249.12 355.55 262.15"/><polygon class="cls-49" points="355.55 275.19 221.32 409.42 214.8 402.9 355.55 262.15 355.55 275.19"/><polygon class="cls-50" points="355.55 288.23 227.84 415.94 221.32 409.42 355.55 275.19 355.55 288.23"/><polygon class="cls-51" points="355.55 301.27 234.36 422.46 227.84 415.94 355.55 288.23 355.55 301.27"/><polygon class="cls-52" points="355.55 314.31 240.88 428.98 234.36 422.46 355.55 301.27 355.55 314.31"/><polygon class="cls-53" points="355.55 327.34 247.4 435.5 240.88 428.98 355.55 314.31 355.55 327.34"/><polygon class="cls-54" points="355.55 340.38 253.91 442.01 247.4 435.5 355.55 327.34 355.55 340.38"/><polygon class="cls-55" points="355.55 353.42 260.43 448.53 253.91 442.01 355.55 340.38 355.55 353.42"/><polygon class="cls-56" points="355.55 366.45 266.95 455.05 260.43 448.53 355.55 353.42 355.55 366.45"/><polygon class="cls-57" points="355.55 379.49 273.47 461.57 266.95 455.05 355.55 366.45 355.55 379.49"/><polygon class="cls-58" points="355.55 392.53 283.17 464.9 276.81 464.9 273.47 461.57 355.55 379.49 355.55 392.53"/><polygon class="cls-59" points="355.55 405.57 296.21 464.9 283.17 464.9 355.55 392.53 355.55 405.57"/><polygon class="cls-60" points="355.55 418.61 309.25 464.9 296.21 464.9 355.55 405.57 355.55 418.61"/><polygon class="cls-61" points="355.55 431.64 322.29 464.9 309.25 464.9 355.55 418.61 355.55 431.64"/><polygon class="cls-62" points="355.55 444.68 335.32 464.9 322.29 464.9 355.55 431.64 355.55 444.68"/><polygon class="cls-63" points="355.55 457.72 348.36 464.9 335.32 464.9 355.55 444.68 355.55 457.72"/><polygon class="cls-64" points="348.36 464.9 355.55 457.72 355.55 464.9 348.36 464.9"/></g></svg>