<?xml version="1.0" encoding="utf-8"?>
<!-- Generator: Adobe Illustrator 28.0.0, SVG Export Plug-In . SVG Version: 6.00 Build 0)  -->
<svg version="1.1" xmlns="http://www.w3.org/2000/svg" xmlns:xlink="http://www.w3.org/1999/xlink" x="0px" y="0px"
	 viewBox="0 0 1722.4 242" style="enable-background:new 0 0 1722.4 242;" xml:space="preserve">
<style type="text/css">
	.st0{fill:#F0F0F0;}
	.st1{fill:#333333;}
	.st2{fill:#FFFFFF;}
	.st3{fill:#FF7212;}
	.st4{fill:none;stroke:#000000;stroke-width:0.7765;stroke-miterlimit:10;}
	.st5{fill:none;stroke:#333333;stroke-width:1.1304;stroke-miterlimit:10;}
	.st6{fill:url(#SVGID_1_);}
	.st7{fill:url(#SVGID_00000048474664319432790510000015614572632326390431_);}
	.st8{clip-path:url(#SVGID_00000020366076172452285760000001965436692223593871_);}
	
		.st9{clip-path:url(#SVGID_00000020366076172452285760000001965436692223593871_);fill:url(#SVGID_00000020394881136302640240000012085810039840856450_);}
	.st10{fill:none;stroke:#000000;stroke-miterlimit:10;}
	.st11{opacity:5.000000e-02;}
	.st12{fill:url(#SVGID_00000079471341877502337080000007512683525204746135_);}
	.st13{clip-path:url(#SVGID_00000003075077752268443630000014944717194635771799_);}
	.st14{clip-path:url(#SVGID_00000028314573288505153040000018096008136379984812_);}
	.st15{clip-path:url(#SVGID_00000142854448145318004750000007742290855998669196_);}
	.st16{clip-path:url(#SVGID_00000158719618665510697900000003261820064567303562_);fill:#D1DFE8;}
	
		.st17{clip-path:url(#SVGID_00000158719618665510697900000003261820064567303562_);fill:url(#SVGID_00000085950891165388612370000002335012369961369984_);}
	.st18{clip-path:url(#SVGID_00000158719618665510697900000003261820064567303562_);}
	.st19{clip-path:url(#SVGID_00000068669262775240985730000015424915294593940924_);}
	.st20{clip-path:url(#SVGID_00000025420231757270526520000007331688221390647982_);}
	.st21{clip-path:url(#SVGID_00000119098245616302657720000014793744657390698685_);}
	.st22{opacity:0.9;}
	.st23{fill:#FFD053;}
	.st24{fill:#FFC448;}
	.st25{fill:#FFD77A;}
	.st26{fill:#2C2C2C;}
	.st27{fill:#71523F;}
	.st28{fill:#FF6669;}
	.st29{fill:#FF4141;}
	.st30{fill:#FF3636;}
	.st31{fill:#FF6363;}
	.st32{fill:#438FD9;}
	.st33{fill:#0089CE;}
	.st34{fill:#75ADE4;}
	.st35{fill:#654735;}
	.st36{fill:#FFA7AD;}
	.st37{fill:#FF2223;}
	.st38{clip-path:url(#SVGID_00000093138262018779605430000000196631085765564335_);}
	.st39{fill:url(#SVGID_00000161619895759543522210000009959394837520694661_);}
	.st40{fill:url(#SVGID_00000176031310374177225290000006383969472694186648_);}
	.st41{fill:url(#SVGID_00000159457291146565599640000005372720640058204349_);}
	.st42{fill:url(#SVGID_00000022550719384760600200000016379705713611807412_);}
	.st43{fill:url(#SVGID_00000078002534251650120460000005399964200672903093_);}
	.st44{opacity:0.2;clip-path:url(#SVGID_00000026143101252191465730000004473686037200725379_);fill:#333333;}
	.st45{clip-path:url(#SVGID_00000131351415237781601360000016057062013500331688_);}
	.st46{opacity:0.2;clip-path:url(#SVGID_00000131351415237781601360000016057062013500331688_);fill:#333333;}
	.st47{opacity:0.2;clip-path:url(#SVGID_00000061437251714506990320000014512475329691682957_);fill:#333333;}
	.st48{fill:none;stroke:#DCDCDC;stroke-width:16;stroke-miterlimit:10;}
	.st49{fill:#464644;}
	.st50{fill:url(#SVGID_00000145037846177354948350000010217351843706000016_);}
	
		.st51{clip-path:url(#SVGID_00000005989659241625665990000004690186215206126982_);fill:url(#SVGID_00000142170611844837100010000004130300116409553311_);}
	.st52{fill:url(#SVGID_00000163045172302160662400000009820112589173072258_);}
	.st53{fill:url(#SVGID_00000113337818501601218740000000184547343081744060_);}
	.st54{fill:url(#SVGID_00000093872896230599330150000007259062621069315202_);}
	.st55{fill:url(#SVGID_00000131339633955340226330000011719060833983386260_);}
	.st56{fill:#696969;}
	.st57{fill:url(#SVGID_00000061454460487330486190000007119857865005999006_);}
	.st58{opacity:0.3;fill:none;stroke:#FFFFFF;stroke-miterlimit:10;}
	.st59{clip-path:url(#SVGID_00000139252808757296992080000007279289869568727709_);}
	.st60{fill:none;stroke:#333333;stroke-width:2.6428;stroke-linecap:round;stroke-linejoin:round;stroke-miterlimit:10;}
	.st61{fill:none;stroke:#333333;stroke-width:1.6744;stroke-linecap:round;stroke-linejoin:round;stroke-miterlimit:10;}
	
		.st62{clip-path:url(#SVGID_00000054950491064427954340000005888183669658264990_);fill:url(#SVGID_00000093139858562414666120000009604413877955753662_);}
	
		.st63{clip-path:url(#SVGID_00000054950491064427954340000005888183669658264990_);fill:url(#SVGID_00000023982396286940692710000004411080213683426458_);}
	.st64{fill:url(#SVGID_00000099639482911675115360000008218135431204178598_);}
	.st65{fill:url(#SVGID_00000085212062222759863340000017673625155848563362_);}
	.st66{fill:url(#SVGID_00000036210985312578160700000017942652763225325981_);}
	.st67{fill:url(#SVGID_00000076604229796278742580000013709838343541920390_);}
	.st68{fill:url(#SVGID_00000123441195957666180820000012554353244077463977_);}
	.st69{fill:url(#SVGID_00000007400660676094423220000001524324341834042793_);}
	.st70{fill:url(#SVGID_00000100368941638916015060000017398663465852354192_);}
	.st71{fill:url(#SVGID_00000124871432054995093460000017299461229815757974_);}
	.st72{fill:url(#SVGID_00000083049383580643031810000016374683351176179593_);}
	.st73{fill:#8C8D8C;}
	.st74{fill:url(#SVGID_00000059294117231893519200000001086153621203318428_);}
	.st75{fill:url(#SVGID_00000007389277500968978160000013440674908110489786_);}
	.st76{fill:url(#SVGID_00000113332382309436787530000011822405296379296692_);}
	.st77{fill:url(#SVGID_00000048501245761498295800000001343968386256438947_);}
	.st78{fill:url(#SVGID_00000090263747777401134750000014383105382450536864_);}
	.st79{fill:url(#SVGID_00000031926638270143546780000015327442853638258103_);}
	.st80{fill:url(#SVGID_00000013178549229500570830000018011607063612830090_);}
	.st81{fill:url(#SVGID_00000004533571515217893870000004037124829813657219_);}
	.st82{fill:url(#SVGID_00000111884536029410312490000000368000215603781566_);}
	.st83{fill:url(#SVGID_00000022521159922099310840000006288946482124951703_);}
	.st84{fill:url(#SVGID_00000062193682874760801170000003568908549024639935_);}
	.st85{fill:url(#SVGID_00000159463506430892904410000017517626329909004940_);}
	.st86{fill:url(#SVGID_00000090284696371535109390000007245890638307783552_);}
	.st87{fill:url(#SVGID_00000141456715697726436190000002142057465084778927_);}
	.st88{fill:url(#SVGID_00000162313816657046802670000000245617605262108597_);}
	.st89{fill:url(#SVGID_00000074430563003709407850000011159002652091961218_);}
	.st90{fill:url(#SVGID_00000021800602468977889730000009645284747909044400_);}
	.st91{fill:url(#SVGID_00000109022066836975342330000000032546182734481849_);}
	.st92{fill:url(#SVGID_00000120556827458286452650000010908676826345793412_);}
	.st93{fill:url(#SVGID_00000114035452809692553050000002969825169039057803_);}
	.st94{fill:url(#SVGID_00000155138043413888078430000007315185154391364267_);}
	.st95{fill:url(#SVGID_00000006678946698421797370000001323922999813355426_);}
	.st96{fill:url(#SVGID_00000126311299785900375570000003922731418631116698_);}
	.st97{fill:url(#SVGID_00000026875191876054547240000012563774336130102148_);}
	.st98{fill:url(#SVGID_00000070830096011843881290000002606241100590995844_);}
	.st99{fill:url(#SVGID_00000137841035686200936070000001801435086296832171_);}
	.st100{fill:url(#SVGID_00000142143417790188781510000006736310261363272847_);}
	.st101{fill:url(#SVGID_00000083806387446443506050000011702411040877066149_);}
	.st102{fill:url(#SVGID_00000119832126381232179210000003495048761426385280_);}
	.st103{fill:url(#SVGID_00000003065448559710562250000010360058861118287232_);}
	.st104{fill:url(#SVGID_00000090982697249807784100000014700109758865158811_);}
	.st105{fill:url(#SVGID_00000003793816175864936220000010069021115697843365_);}
	.st106{fill:url(#SVGID_00000015323011585965820790000003372375740315897475_);}
	.st107{fill:url(#SVGID_00000066482601278100626970000001325627580032037542_);}
	.st108{fill:url(#SVGID_00000109026059862710106230000003039072641212466056_);}
	.st109{fill:url(#SVGID_00000108274812050824193500000016952623357789141640_);}
	.st110{fill:url(#SVGID_00000043431263648546046360000016254093619268262021_);}
	.st111{fill:url(#SVGID_00000138548512704628560270000012381346132406464136_);}
	.st112{fill:url(#SVGID_00000108303401662106784290000010179438775750806949_);}
	.st113{fill:url(#SVGID_00000122713838489436733520000004348088851693498811_);}
	.st114{fill:url(#SVGID_00000021118855395603984290000005188914251152467848_);}
	.st115{fill:url(#SVGID_00000049927256107984395580000015546745960820396199_);}
	.st116{fill:url(#SVGID_00000069359007806197502660000006000219409448019354_);}
	.st117{fill:url(#SVGID_00000144319275645623781210000011805433710404071068_);}
	.st118{fill:url(#SVGID_00000139291299190825118150000013343679866907367050_);}
	.st119{fill:url(#SVGID_00000132810608036535042650000005821198715060954025_);}
	.st120{fill:url(#SVGID_00000105415010032480376150000006740656501333468826_);}
	.st121{fill:url(#SVGID_00000115488205533725047200000013900466730982230145_);}
	.st122{fill:url(#SVGID_00000132802956185847270500000005092022607178093246_);}
	.st123{fill:url(#SVGID_00000132076970521155006610000018321972089958018450_);}
	.st124{fill:url(#SVGID_00000109713021089267291910000015923276312016089780_);}
	.st125{fill:url(#SVGID_00000163052747713316797740000004341928391211777711_);}
	.st126{fill:url(#SVGID_00000101102463274054832770000006613311691050903430_);}
	.st127{fill:url(#SVGID_00000129171216613782922630000010024304798905145474_);}
	.st128{fill:url(#SVGID_00000088828144992759223680000017071659208872739731_);}
	.st129{fill:url(#SVGID_00000142160731978377451230000015281267121442649475_);}
	.st130{fill:url(#SVGID_00000074424273232740529390000000560997614861334966_);}
	.st131{fill:url(#SVGID_00000167381361620106045890000009153380904767139204_);}
	.st132{fill:url(#SVGID_00000151517926011387276850000013767984308059531960_);}
	.st133{fill:url(#SVGID_00000093856178662661248320000016904018761003616180_);}
	.st134{fill:url(#SVGID_00000018944107913239537880000003862791541882172302_);}
	.st135{fill:url(#SVGID_00000139287961161135705120000014172135591173691297_);}
	.st136{fill:url(#SVGID_00000041977517311983665390000010431513118722560697_);}
	.st137{fill:url(#SVGID_00000092424646998905184790000010913280682571616415_);}
	.st138{fill:url(#SVGID_00000061436546319733654240000008348525354651388580_);}
	.st139{fill:url(#SVGID_00000176008515230247777660000009650315234133032854_);}
	.st140{fill:url(#SVGID_00000173876992988468550990000007856930206318188933_);}
	.st141{fill:url(#SVGID_00000095316291441775488430000015525864157007885216_);}
	.st142{fill:url(#SVGID_00000181798879701556879440000011169229182300809868_);}
	.st143{fill:url(#SVGID_00000054971991392111001950000009161791932397371529_);}
	.st144{fill:url(#SVGID_00000075144533525310564150000016516483498561813133_);}
	.st145{fill:url(#SVGID_00000169556651306466796400000001522495200899571115_);}
	.st146{fill:url(#SVGID_00000068656618990461773170000012282817893480751022_);}
	.st147{fill:url(#SVGID_00000145060632896984723480000002237020903484596912_);}
	.st148{fill:url(#SVGID_00000018926219250430197300000010848505850441769919_);}
	.st149{fill:url(#SVGID_00000029012537446727522790000013264327200074318512_);}
	.st150{fill:url(#SVGID_00000115492209174521025290000002541795495332241080_);}
	.st151{fill:url(#SVGID_00000101100525281981003070000017150560760206997376_);}
	.st152{fill:url(#SVGID_00000019654728110578748280000016044833290582673819_);}
	.st153{fill:url(#SVGID_00000049923513491046250560000014869009336197354625_);}
	.st154{fill:url(#SVGID_00000097495411878430127340000001706524607383165320_);}
	.st155{fill:url(#SVGID_00000053515492684427882410000010011077873115012538_);}
	.st156{fill:url(#SVGID_00000138539302163500655400000008226576665436466363_);}
	.st157{fill:url(#SVGID_00000005256355379636708180000018024760450320992911_);}
	.st158{fill:url(#SVGID_00000073717579746703626430000001544083188747760264_);}
	.st159{fill:url(#SVGID_00000008854435575090085410000000556304500279016890_);}
	.st160{fill:url(#SVGID_00000145052331650735237680000011230681358483153330_);}
	.st161{fill:url(#SVGID_00000128457231682265301170000014252166047724128403_);}
	.st162{fill:url(#SVGID_00000035527054208692798010000009907370671645990305_);}
	.st163{fill:url(#SVGID_00000008145107897492702020000017565527930993395843_);}
	.st164{fill:url(#SVGID_00000078741187319226570800000017628334406125352095_);}
	.st165{fill:url(#SVGID_00000109719476903866861990000005810145034422224529_);}
	.st166{fill:url(#SVGID_00000053523215200661902890000004609502165652550290_);}
	.st167{fill:url(#SVGID_00000008859541938154857540000005162763791454451381_);}
	.st168{fill:url(#SVGID_00000155866832918506602230000003767466495996222127_);}
	.st169{fill:url(#SVGID_00000085945090183881831530000002193444549113285822_);}
	.st170{fill:url(#SVGID_00000080196567066222109330000016162956245855211682_);}
	.st171{fill:url(#SVGID_00000019675835313658417440000004152526466461275024_);}
	.st172{fill:url(#SVGID_00000122002038584760911540000016123358425740814733_);}
	.st173{fill:url(#SVGID_00000120523840865687217430000014015162400524654468_);}
	.st174{fill:url(#SVGID_00000131351646387874874770000004123974049465185155_);}
	.st175{fill:url(#SVGID_00000005982416760172762610000015490449922090079420_);}
	.st176{fill:url(#SVGID_00000051385540428980462940000010965274160919754645_);}
	.st177{fill:url(#SVGID_00000085942456556006569780000009065231840133962667_);}
	.st178{fill:url(#SVGID_00000001640899881852134100000002829028674676838820_);}
	.st179{fill:url(#SVGID_00000075149299281136818580000017391073110417304753_);}
	.st180{fill:url(#SVGID_00000182513694211765756160000011065345169478749606_);}
	.st181{fill:url(#SVGID_00000006667164288970262110000016563552731509130687_);}
	.st182{fill:url(#SVGID_00000153674822025295846480000010330693594173783688_);}
	.st183{fill:url(#SVGID_00000000196722368287971110000000409851013259118725_);}
	.st184{fill:url(#SVGID_00000023973860255471846340000000001948731213031073_);}
	.st185{fill:url(#SVGID_00000029017119761472580290000006470832666925547194_);}
	.st186{fill:url(#SVGID_00000125601557709615977910000007918615554724786094_);}
	.st187{fill:url(#SVGID_00000127745099188235938830000011094218952709947067_);}
	.st188{fill:url(#SVGID_00000165212382861851553670000008900806294881787548_);}
	.st189{fill:url(#SVGID_00000168115473382160571480000007692134478781350017_);}
	.st190{fill:url(#SVGID_00000101076178584795853090000009685561060614042525_);}
	.st191{fill:url(#SVGID_00000092456890031964760590000014566157585223991991_);}
	.st192{fill:url(#SVGID_00000158735181382191378000000009146676716002740648_);}
	.st193{fill:url(#SVGID_00000020394243845114976360000011577322659114963869_);}
	.st194{fill:url(#SVGID_00000054235515528523820850000014283271979252591540_);}
	.st195{fill:url(#SVGID_00000004510201928670999960000014869947238339621565_);}
	.st196{fill:url(#SVGID_00000159439415763590089330000001478341877379205270_);}
	.st197{fill:url(#SVGID_00000062873291769583517460000002022014103073673395_);}
	.st198{fill:url(#SVGID_00000029035434450265359950000017177493040696312504_);}
	.st199{fill:url(#SVGID_00000131352460777785715710000015487675199871410333_);}
	.st200{fill:url(#SVGID_00000088816842518489446480000014040032607211585938_);}
	.st201{fill:url(#SVGID_00000088092612075687986200000016886652553345281682_);}
	.st202{fill:url(#SVGID_00000132795920505453910160000010416652708787045513_);}
	.st203{fill:url(#SVGID_00000057113355247648122920000009151570428196574643_);}
	.st204{fill:url(#SVGID_00000102510536273455433190000017866593757190364807_);}
	.st205{fill:url(#SVGID_00000165218628391984294580000005901289657214797224_);}
	.st206{fill:url(#SVGID_00000090287401314776522980000009922438411586893724_);}
	.st207{fill:url(#SVGID_00000019638033794498200010000012308884065859697083_);}
	.st208{fill:url(#SVGID_00000073687017827707961520000015527887327607534250_);}
	.st209{fill:url(#SVGID_00000114052999425585776740000014102125163479123858_);}
	.st210{fill:url(#SVGID_00000005954132920014664450000017799321067296429206_);}
	.st211{fill:url(#SVGID_00000002357172658523759280000003980174118149527970_);}
	.st212{fill:url(#SVGID_00000078003366615690777100000000907404591672577168_);}
	.st213{fill:url(#SVGID_00000128473347296057888090000017662452405686390429_);}
	.st214{fill:url(#SVGID_00000111178578947895956830000008533916763187786888_);}
	.st215{fill:url(#SVGID_00000164500606163578430770000014249895522501134504_);}
	.st216{fill:url(#SVGID_00000010989577441042676540000013735252023892870306_);}
	.st217{fill:url(#SVGID_00000152221996489624099660000008688992450888156093_);}
	.st218{fill:url(#SVGID_00000031191847488975927940000003592382788641554845_);}
	.st219{fill:url(#SVGID_00000013191627558557428490000011912514521707230902_);}
	.st220{fill:url(#SVGID_00000075140698801988406230000011707416923588508315_);}
	.st221{fill:url(#SVGID_00000123414768200912557470000004836772425981189252_);}
	.st222{fill:url(#SVGID_00000152261967547855398240000012520944827629927560_);}
	.st223{fill:url(#SVGID_00000154419319285093815120000006284424346190524840_);}
	.st224{fill:url(#SVGID_00000173120013325680561670000005367606342631971758_);}
	.st225{fill:url(#SVGID_00000034050198035927518380000018320784628849811885_);}
	.st226{fill:url(#SVGID_00000118360298794795957520000009541198017294741928_);}
	.st227{fill:url(#SVGID_00000113323306494207859720000004268066231762242704_);}
	.st228{fill:url(#SVGID_00000035512933820050892440000012578505642864807304_);}
	.st229{fill:url(#SVGID_00000045607374956428376970000017926916423807352247_);}
	.st230{fill:url(#SVGID_00000145774754942969795420000016678609161570681493_);}
	.st231{fill:url(#SVGID_00000124843752014583579250000006534798908439659160_);}
	.st232{fill:url(#SVGID_00000078747534417270238970000006890413672021765036_);}
	.st233{fill:url(#SVGID_00000037694021602000763490000003403565653514000527_);}
	.st234{fill:url(#SVGID_00000038374109347079164320000005844841369428671371_);}
	.st235{fill:url(#SVGID_00000151521247912261104970000010775467352080856734_);}
	.st236{fill:none;stroke:#FF7212;stroke-miterlimit:10;}
	.st237{fill:url(#SVGID_00000114758420352623441250000016834832186730723202_);}
	.st238{fill:url(#SVGID_00000173135491886097261860000011794849259497395360_);}
	.st239{fill:url(#SVGID_00000071559450858226992940000002291678256533304964_);}
	.st240{fill:url(#SVGID_00000133527578412981287880000017352840011246969005_);}
	.st241{fill:url(#SVGID_00000018211907398587556110000005692932575878689182_);}
	.st242{fill:none;stroke:#464644;stroke-width:2.1129;stroke-linecap:round;stroke-linejoin:round;stroke-miterlimit:10;}
	.st243{fill:none;stroke:#464644;stroke-width:2.5;stroke-linecap:round;stroke-linejoin:round;stroke-miterlimit:10;}
	.st244{fill:none;stroke:#464644;stroke-width:2;stroke-linecap:round;stroke-linejoin:round;stroke-miterlimit:10;}
	.st245{fill:#464644;stroke:#464644;stroke-width:0.5;stroke-linecap:round;stroke-linejoin:round;stroke-miterlimit:10;}
	.st246{fill:#464644;stroke:#464644;stroke-linecap:round;stroke-linejoin:round;stroke-miterlimit:10;}
	.st247{fill:#464644;stroke:#464644;stroke-miterlimit:10;}
	.st248{clip-path:url(#SVGID_00000158741870097805018480000000421959077038641595_);}
	.st249{fill:none;stroke:#464644;stroke-width:2.54;stroke-linecap:round;stroke-linejoin:round;stroke-miterlimit:10;}
</style>
<g id="圖層_2">
	<g id="圖層_4">
	</g>
	<g class="st11">
		<g>
			<path class="st1" d="M58.8,242H0V54.8h58.1v8.5C71.9,56.5,87.4,53,104.3,53c17.4,0,33.2,3.1,47.2,9.3c14,6.2,25.3,14.6,33.6,25.1
				c8.4,10.6,12.6,22.5,12.6,35.6c0,13.1-4.3,25-12.8,35.6c-8.4,10.5-20,18.9-34.3,25c-14.3,6.1-30.5,9.2-48,9.2
				c-8.4,0-16.7-0.8-24.4-2.3c-6.8-1.3-13.3-3.2-19.4-5.5V242z M3.9,238h51v-59l2.7,1.1c6.6,2.8,13.8,4.9,21.3,6.4
				c7.5,1.5,15.5,2.2,23.7,2.2c17,0,32.7-3,46.5-8.8c13.8-5.8,24.8-13.9,32.8-23.8c7.9-9.8,11.9-21,11.9-33.1
				c0-12.2-4-23.3-11.8-33.2c-7.9-9.9-18.7-18-32.1-23.9c-13.5-5.9-28.8-9-45.6-9C86.9,57,71,60.7,57.1,68.2l-2.9,1.6V58.7H3.9V238z
				 M94.8,158.5c-7.6,0-14.9-0.9-21.5-2.8c-6.7-1.9-12.6-4.5-17.5-7.8l-0.9-0.6V99l0.8-0.6c5.1-3.6,11-6.4,17.5-8.2
				c6.5-1.8,13.7-2.7,21.5-2.7c9,0,17.3,1.5,24.6,4.5c7.4,3,13.3,7.3,17.7,12.6c4.5,5.4,6.7,11.6,6.7,18.4c0,6.8-2.3,12.9-6.7,18.4
				c-4.4,5.3-10.3,9.5-17.5,12.6C112.4,156.9,104.1,158.5,94.8,158.5z M58.8,145.2c4.4,2.8,9.6,5,15.5,6.7
				c6.3,1.8,13.2,2.7,20.5,2.7c8.7,0,16.6-1.4,23.3-4.2c6.7-2.8,12.1-6.6,16-11.4c3.9-4.8,5.8-10,5.8-15.9c0-5.9-1.9-11.1-5.8-15.9
				c-4-4.8-9.4-8.7-16.2-11.4c-6.9-2.8-14.6-4.2-23.1-4.2c-7.5,0-14.4,0.9-20.5,2.6c-5.7,1.6-10.9,3.9-15.5,7V145.2z"/>
		</g>
		<g>
			<path class="st1" d="M221.5,189V56.8h54.9V70c5.9-5.3,12.8-9.4,20.7-12.1c7.9-2.8,16.7-4.1,26.4-4.1c9.7,0.2,16.6,1.2,20.7,3.2
				v35.2c-3.6-1.3-7.7-2.3-12.2-3c-4.5-0.7-9.1-1-13.9-1c-8.6,0-16.6,1.5-23.9,4.4c-7.3,2.9-13.3,7-17.8,12.4v84H221.5z"/>
		</g>
		<g>
			<path class="st1" d="M452,191.5c-18.3,0-34.8-3-49.5-9.1c-14.7-6.1-26.3-14.3-34.9-24.6c-8.6-10.3-12.9-21.9-12.9-34.8
				c0-12.8,4.3-24.5,12.9-34.9c8.6-10.4,20.2-18.7,34.9-24.8c14.7-6.1,31.2-9.1,49.5-9.1s34.8,3,49.5,9.1
				c14.7,6.1,26.3,14.3,34.9,24.8c8.6,10.4,12.9,22,12.9,34.9c0,12.8-4.3,24.4-12.9,34.8c-8.6,10.3-20.2,18.5-34.9,24.6
				C486.8,188.5,470.3,191.5,452,191.5z M452,156.5c8.4,0,15.8-1.5,22.4-4.5c6.5-3,11.7-7,15.6-12.1c3.8-5.1,5.8-10.7,5.8-16.9
				c0-6.3-1.9-12-5.8-17.1c-3.8-5.1-9.1-9.1-15.8-12.1c-6.7-3-14.1-4.5-22.2-4.5s-15.5,1.5-22.2,4.5c-6.7,3-11.9,7-15.8,12.1
				c-3.8,5.1-5.8,10.8-5.8,17.1c0,6.2,1.9,11.8,5.8,16.9c3.8,5.1,9.1,9.1,15.8,12.1C436.4,155,443.8,156.5,452,156.5z"/>
		</g>
		<g>
			<path class="st1" d="M575,189V56.8h54.9v8.5c12.6-7.3,27.6-11,44.7-11c11.3,0,21.5,1.6,30.5,4.8c9,3.2,16.6,7.7,22.7,13.5
				c7.2-5.8,15.8-10.3,25.8-13.5c9.9-3.2,20.8-4.8,32.5-4.8c13.6,0,25.5,2.2,35.9,6.8c10.4,4.5,18.6,10.8,24.6,18.8
				c6,8,9,17.2,9,27.8V189h-54.9v-76c0-7.3-2.7-13.2-8-17.5c-5.3-4.3-12.4-6.5-21.2-6.5c-6.1,0-11.6,0.8-16.6,2.5
				c-5,1.7-9.3,4.2-12.9,7.5c0.2,1.3,0.4,2.7,0.5,4.1c0.1,1.4,0.2,2.9,0.2,4.4V189h-54.9v-76c0-7.3-2.7-13.2-8-17.5
				c-5.3-4.3-12.4-6.5-21.2-6.5c-6.1,0-11.6,0.8-16.4,2.4c-4.9,1.6-9,4-12.4,7.1V189H575z"/>
		</g>
		<g>
			<path class="st1" d="M977.2,191.5c-18.3,0-34.8-3-49.5-9.1c-14.7-6.1-26.3-14.3-34.9-24.6c-8.6-10.3-12.9-21.9-12.9-34.8
				c0-12.8,4.3-24.5,12.9-34.9c8.6-10.4,20.2-18.7,34.9-24.8c14.7-6.1,31.2-9.1,49.5-9.1s34.8,3,49.5,9.1
				c14.7,6.1,26.3,14.3,34.9,24.8c8.6,10.4,12.9,22,12.9,34.9c0,12.8-4.3,24.4-12.9,34.8c-8.6,10.3-20.2,18.5-34.9,24.6
				C1012,188.5,995.5,191.5,977.2,191.5z M977.2,156.5c8.4,0,15.8-1.5,22.4-4.5c6.5-3,11.7-7,15.6-12.1c3.8-5.1,5.8-10.7,5.8-16.9
				c0-6.3-1.9-12-5.8-17.1c-3.8-5.1-9.1-9.1-15.8-12.1c-6.7-3-14.1-4.5-22.2-4.5s-15.5,1.5-22.2,4.5c-6.7,3-11.9,7-15.8,12.1
				c-3.8,5.1-5.8,10.8-5.8,17.1c0,6.2,1.9,11.8,5.8,16.9c3.8,5.1,9.1,9.1,15.8,12.1C961.7,155,969.1,156.5,977.2,156.5z"/>
		</g>
		<g>
			<path class="st1" d="M1185.6,190.8c-21.5,0-37.7-3.5-48.6-10.6c-11-7.1-16.4-17.5-16.4-31.4V90.5h-36.3V56.8h36.3v-34l54.9-8.8
				v42.8h50.2v33.8h-50.2v50.2c0,5.8,1.7,10,5.3,12.4c3.5,2.4,9.7,3.6,18.5,3.6c4.5,0,8.6-0.2,12.4-0.6c3.7-0.4,7.8-1.1,12.4-2.1
				v32.8c-5,1.2-11.3,2.1-19,2.9C1197.3,190.4,1190.8,190.8,1185.6,190.8z"/>
		</g>
		<g>
			<path class="st1" d="M1274.4,44.5c-8.4,0-15.5-2.2-21.3-6.5c-5.9-4.3-8.8-9.6-8.8-15.8c0-6.2,2.9-11.4,8.8-15.8
				c5.9-4.3,13-6.5,21.3-6.5c8.4,0,15.5,2.2,21.3,6.5c5.9,4.3,8.8,9.6,8.8,15.8c0,6.2-2.9,11.4-8.8,15.8
				C1289.9,42.3,1282.8,44.5,1274.4,44.5z M1247,189V56.8h54.9V189H1247z"/>
		</g>
		<g>
			<path class="st1" d="M1424.9,191.5c-18.3,0-34.8-3-49.5-9.1c-14.7-6.1-26.3-14.3-34.9-24.6c-8.6-10.3-12.9-21.9-12.9-34.8
				c0-12.8,4.3-24.5,12.9-34.9c8.6-10.4,20.2-18.7,34.9-24.8c14.7-6.1,31.2-9.1,49.5-9.1c18.3,0,34.8,3,49.5,9.1
				c14.7,6.1,26.3,14.3,34.9,24.8c8.6,10.4,12.9,22,12.9,34.9c0,12.8-4.3,24.4-12.9,34.8c-8.6,10.3-20.2,18.5-34.9,24.6
				C1459.7,188.5,1443.2,191.5,1424.9,191.5z M1424.9,156.5c8.4,0,15.8-1.5,22.4-4.5c6.5-3,11.7-7,15.6-12.1
				c3.8-5.1,5.8-10.7,5.8-16.9c0-6.3-1.9-12-5.8-17.1c-3.8-5.1-9.1-9.1-15.8-12.1c-6.7-3-14.1-4.5-22.2-4.5
				c-8.1,0-15.5,1.5-22.2,4.5c-6.7,3-11.9,7-15.8,12.1c-3.8,5.1-5.8,10.8-5.8,17.1c0,6.2,1.9,11.8,5.8,16.9
				c3.8,5.1,9.1,9.1,15.8,12.1C1409.3,155,1416.7,156.5,1424.9,156.5z"/>
		</g>
		<g>
			<path class="st1" d="M1547.9,189V56.8h54.9v9c13.6-7.7,29.6-11.5,48.1-11.5c14,0,26.4,2.2,37.1,6.8c10.7,4.5,19.1,10.8,25.2,18.8
				s9.2,17.2,9.2,27.8V189h-54.9v-76c0-7.3-2.9-13.2-8.8-17.5c-5.9-4.3-13.8-6.5-23.7-6.5c-7,0-13.2,0.9-18.5,2.8
				c-5.3,1.8-9.9,4.4-13.7,7.8V189H1547.9z"/>
		</g>
	</g>
</g>
<g id="圖層_1">
</g>
<g id="圖層_3">
</g>
</svg>
