<svg id="分離模式" xmlns="http://www.w3.org/2000/svg" viewBox="0 0 152.89 153.31"><defs><style>.cls-1{fill:#fff;}</style></defs><path class="cls-1" d="M1003.8,747.19a8.92,8.92,0,0,1-2.34-.43,5.86,5.86,0,0,1-1.84-1L1001,744a8,8,0,0,0,1.51.83,4.44,4.44,0,0,0,1.36.3A2.53,2.53,0,0,0,1005,745a.61.61,0,0,0,.43-.5.51.51,0,0,0-.2-.43,1.77,1.77,0,0,0-.68-.27l-1.77-.37a3.64,3.64,0,0,1-2-1,2.43,2.43,0,0,1-.6-1.83,2.67,2.67,0,0,1,.55-1.55,3,3,0,0,1,1.39-.92,5.65,5.65,0,0,1,2.09-.24,7.27,7.27,0,0,1,1.94.39,6.34,6.34,0,0,1,1.75.91l-1.4,1.69a6.23,6.23,0,0,0-1.36-.69,4.31,4.31,0,0,0-1.31-.27,1.7,1.7,0,0,0-.86.13.5.5,0,0,0-.35.45.49.49,0,0,0,.21.44,1.89,1.89,0,0,0,.8.29l1.77.37a3.71,3.71,0,0,1,2,1,2.33,2.33,0,0,1,.62,1.78,2.53,2.53,0,0,1-.61,1.54,3.65,3.65,0,0,1-1.5,1A5.22,5.22,0,0,1,1003.8,747.19Z" transform="translate(-922.24 -737.88)"/><path class="cls-1" d="M1015.28,748.86a4.84,4.84,0,0,1-2.23-1.14,4.48,4.48,0,0,1-1.29-2,4.79,4.79,0,0,1,1-4.63,4.74,4.74,0,0,1,4.54-1.32,5.21,5.21,0,0,1,2,.89,4.77,4.77,0,0,1,1.39,1.58l-2,1.33a3.32,3.32,0,0,0-.77-1,2.26,2.26,0,0,0-1-.48,1.9,1.9,0,0,0-1.11,0,2,2,0,0,0-.91.63,2.53,2.53,0,0,0-.53,1.09,2.43,2.43,0,0,0,0,1.2,2,2,0,0,0,.57,1,2.07,2.07,0,0,0,1,.54,2.37,2.37,0,0,0,1.06,0,3.32,3.32,0,0,0,1.06-.51l1.21,2a4.51,4.51,0,0,1-1.89.81A5,5,0,0,1,1015.28,748.86Z" transform="translate(-922.24 -737.88)"/><path class="cls-1" d="M1022,750.61l3.36-8.34,2.56,1-.34.84a2.83,2.83,0,0,1,1.27-.38,3,3,0,0,1,1.33.23,2,2,0,0,1,.88.6l-.89,2.22a2.92,2.92,0,0,0-.49-.42,4.65,4.65,0,0,0-.63-.32,2.44,2.44,0,0,0-1.22-.17,2.29,2.29,0,0,0-1.14.44l-2.14,5.3Z" transform="translate(-922.24 -737.88)"/><path class="cls-1" d="M1034.22,756.67a4.9,4.9,0,0,1-1.8-1.82,4.76,4.76,0,0,1-.62-2.34,4.63,4.63,0,0,1,2.47-4,4.69,4.69,0,0,1,2.37-.53,5.33,5.33,0,0,1,4.24,2.59,4.66,4.66,0,0,1,.61,2.35,4.48,4.48,0,0,1-.68,2.36,4.41,4.41,0,0,1-1.78,1.68,4.73,4.73,0,0,1-2.37.52A4.93,4.93,0,0,1,1034.22,756.67Zm1.24-2a2.1,2.1,0,0,0,1.11.33,2.35,2.35,0,0,0,1.1-.3,2.33,2.33,0,0,0,.85-.83,2.46,2.46,0,0,0,.36-1.14,2.27,2.27,0,0,0-.25-1.12,2.06,2.06,0,0,0-.79-.84,2.13,2.13,0,0,0-1.11-.32,2.23,2.23,0,0,0-1.1.29,2.47,2.47,0,0,0-.86.84,2.37,2.37,0,0,0-.35,1.13,2.27,2.27,0,0,0,.25,1.12A2.06,2.06,0,0,0,1035.46,754.64Z" transform="translate(-922.24 -737.88)"/><path class="cls-1" d="M1041.16,761.31l7.62-9.13,2.39,1.44-7.9,9.46Z" transform="translate(-922.24 -737.88)"/><path class="cls-1" d="M1046.2,765.79l8.52-8.31,2.22,1.67-8.82,8.61Z" transform="translate(-922.24 -737.88)"/><path class="cls-1" d="M1056.28,778.72a4.5,4.5,0,0,1-.66-2.31,4.66,4.66,0,0,1,.58-2.28,4.52,4.52,0,0,1,1.7-1.72,4.48,4.48,0,0,1,2.32-.67,4.64,4.64,0,0,1,2.29.6,4.7,4.7,0,0,1,1.74,1.72,5,5,0,0,1,.49,1.11,4.67,4.67,0,0,1,.18,1.16l2.9-1.73,1.78,2.15L1059,783.07l-1.4-2.34.57-.34A4,4,0,0,1,1056.28,778.72Zm2.26-.79a3.08,3.08,0,0,0,.69.81,2.54,2.54,0,0,0,.9.45l2.7-1.61a2.53,2.53,0,0,0,0-1,3.15,3.15,0,0,0-.39-1,2.53,2.53,0,0,0-.87-.88,2.23,2.23,0,0,0-2.3,0,2.19,2.19,0,0,0-.84.87,2.25,2.25,0,0,0-.26,1.14A2.39,2.39,0,0,0,1058.54,777.93Z" transform="translate(-922.24 -737.88)"/><path class="cls-1" d="M1062,790.76a5,5,0,0,1-.25-2.55,4.68,4.68,0,0,1,1-2.21,4.45,4.45,0,0,1,2-1.4,4.58,4.58,0,0,1,2.45-.19,4.74,4.74,0,0,1,2.18,1.09,5.3,5.3,0,0,1,1.66,4.67,4.69,4.69,0,0,1-1,2.22,4.42,4.42,0,0,1-2,1.4,4.35,4.35,0,0,1-2.44.19,4.77,4.77,0,0,1-2.16-1.09A5,5,0,0,1,1062,790.76Zm2.24-.8a2.07,2.07,0,0,0,.67,1,2.28,2.28,0,0,0,1,.46,2.35,2.35,0,0,0,1.17-.12,2.3,2.3,0,0,0,1.52-1.68,2.06,2.06,0,0,0-.09-1.15,2.15,2.15,0,0,0-.66-.95,2.24,2.24,0,0,0-1-.47,2.5,2.5,0,0,0-1.2.12,2.3,2.3,0,0,0-1,.66,2.24,2.24,0,0,0-.51,1A2.15,2.15,0,0,0,1064.19,790Z" transform="translate(-922.24 -737.88)"/><path class="cls-1" d="M1064.81,800.05l8.61-3.59.33,2.58-5.07,2,5.45.92.29,2.26-5.05,2.29,5.43.61.33,2.55-9.23-1.29-.34-2.61,5-2.22-5.35-.86Z" transform="translate(-922.24 -737.88)"/><path class="cls-1" d="M1066.05,813.82l9,.72-.22,2.75-.61,0a3.85,3.85,0,0,1,.59,2.47,3.76,3.76,0,0,1-.61,1.82,3.36,3.36,0,0,1-1.37,1.16,3.79,3.79,0,0,1-1.92.3l-5.52-.44.22-2.74,5.15.41a1.54,1.54,0,0,0,1.76-1.5,2.19,2.19,0,0,0-.12-.94,2,2,0,0,0-.47-.73l-6.06-.48Z" transform="translate(-922.24 -737.88)"/><path class="cls-1" d="M1056.29,846.81a8.82,8.82,0,0,1,1.47-1.87,5.88,5.88,0,0,1,1.73-1.17l.91,2.08a7.87,7.87,0,0,0-1.43.94,4.5,4.5,0,0,0-.91,1.06,2.33,2.33,0,0,0-.39,1,.58.58,0,0,0,.24.61.49.49,0,0,0,.47,0,1.73,1.73,0,0,0,.55-.48l1.16-1.39a3.55,3.55,0,0,1,1.82-1.29,2.37,2.37,0,0,1,1.9.32,2.73,2.73,0,0,1,1.11,1.21,3,3,0,0,1,.16,1.66,5.28,5.28,0,0,1-.77,2,7.24,7.24,0,0,1-1.24,1.53,6.48,6.48,0,0,1-1.63,1.12l-.84-2a6.23,6.23,0,0,0,1.25-.87,5,5,0,0,0,.86-1,1.74,1.74,0,0,0,.28-.82.55.55,0,0,0-.23-.52.52.52,0,0,0-.5,0,2.15,2.15,0,0,0-.63.57l-1.15,1.39a3.64,3.64,0,0,1-1.81,1.3,2.28,2.28,0,0,1-1.87-.28,2.43,2.43,0,0,1-1.06-1.26,3.6,3.6,0,0,1-.19-1.78A5.12,5.12,0,0,1,1056.29,846.81Z" transform="translate(-922.24 -737.88)"/><path class="cls-1" d="M1049.42,856.18a4.91,4.91,0,0,1,2-1.43,4.73,4.73,0,0,1,6,2.9,4.61,4.61,0,0,1,.15,2.39,4.88,4.88,0,0,1-1.11,2.24,5.42,5.42,0,0,1-1.7,1.31,4.64,4.64,0,0,1-2,.48l-.23-2.42a3.25,3.25,0,0,0,1.24-.21,2.58,2.58,0,0,0,.89-.67,2,2,0,0,0,.48-1,2.19,2.19,0,0,0-.13-1.1,2.68,2.68,0,0,0-.72-1,2.49,2.49,0,0,0-1.07-.55,2.13,2.13,0,0,0-1.12.06,2.09,2.09,0,0,0-.95.64,2.24,2.24,0,0,0-.49.94,3,3,0,0,0-.05,1.17l-2.35.13a4.67,4.67,0,0,1,.16-2.06A5.2,5.2,0,0,1,1049.42,856.18Z" transform="translate(-922.24 -737.88)"/><path class="cls-1" d="M1044.73,861.32l5.81,6.86-2.1,1.78-.59-.69a3,3,0,0,1-.25,1.3,3,3,0,0,1-.84,1.07,2,2,0,0,1-.93.51l-1.55-1.83a2.51,2.51,0,0,0,.6-.24,5.45,5.45,0,0,0,.58-.4,2.45,2.45,0,0,0,.72-1,2.41,2.41,0,0,0,.14-1.22l-3.7-4.36Z" transform="translate(-922.24 -737.88)"/><path class="cls-1" d="M1033.67,869.3a4.92,4.92,0,0,1,2.44-.74,4.8,4.8,0,0,1,2.37.54,4.67,4.67,0,0,1,2.42,4.07,4.68,4.68,0,0,1-.64,2.34,5.28,5.28,0,0,1-4.26,2.54,4.69,4.69,0,0,1-2.36-.54,4.69,4.69,0,0,1-2.43-4.07,4.72,4.72,0,0,1,.64-2.33A4.94,4.94,0,0,1,1033.67,869.3Zm1.22,2a2.17,2.17,0,0,0-.81.84,2.26,2.26,0,0,0-.25,1.11,2.48,2.48,0,0,0,1.19,2,2.35,2.35,0,0,0,1.1.3,2.19,2.19,0,0,0,1.91-1.14,2.28,2.28,0,0,0,.26-1.12,2.44,2.44,0,0,0-.35-1.14,2.41,2.41,0,0,0-.84-.84,2.14,2.14,0,0,0-1.1-.3A2.11,2.11,0,0,0,1034.89,871.34Z" transform="translate(-922.24 -737.88)"/><path class="cls-1" d="M1026.35,873.27l4.53,11-2.38,1.45-4.7-11.4Z" transform="translate(-922.24 -737.88)"/><path class="cls-1" d="M1020.05,875.64l3.37,11.42-2.52,1.18-3.49-11.81Z" transform="translate(-922.24 -737.88)"/><path class="cls-1" d="M1003.89,878.5a4.57,4.57,0,0,1,2.35.5,4.8,4.8,0,0,1,1.74,1.58,4.67,4.67,0,0,1,.73,2.31,4.52,4.52,0,0,1-2.1,4.1,4.66,4.66,0,0,1-2.34.74,4.4,4.4,0,0,1-1.21-.1,4.7,4.7,0,0,1-1.11-.38l.17,3.38-2.73.56-.62-12.31,2.71-.14,0,.67A4,4,0,0,1,1003.89,878.5Zm-.36,2.37a3.11,3.11,0,0,0-1,.23,2.5,2.5,0,0,0-.82.58l.16,3.14a2.46,2.46,0,0,0,.87.48,3.12,3.12,0,0,0,1.06.12,2.38,2.38,0,0,0,1.19-.36,2.21,2.21,0,0,0,.8-.86,2.25,2.25,0,0,0-1-3.09A2.43,2.43,0,0,0,1003.53,880.87Z" transform="translate(-922.24 -737.88)"/><path class="cls-1" d="M990.6,877.9a5,5,0,0,1,2.37,1,4.81,4.81,0,0,1,1.5,1.91,4.68,4.68,0,0,1-.67,4.68,4.71,4.71,0,0,1-2,1.42,4.9,4.9,0,0,1-2.54.27,5.12,5.12,0,0,1-2.37-1,4.7,4.7,0,0,1-1.5-1.92,4.53,4.53,0,0,1-.3-2.43,4.34,4.34,0,0,1,1-2.25,4.59,4.59,0,0,1,2-1.41A4.9,4.9,0,0,1,990.6,877.9Zm-.34,2.35a2,2,0,0,0-1.15.15,2.24,2.24,0,0,0-.89.7,2.34,2.34,0,0,0-.45,1.1,2.37,2.37,0,0,0,.12,1.19,2.14,2.14,0,0,0,.67.93,2.08,2.08,0,0,0,1.06.46,2,2,0,0,0,1.14-.15,2.2,2.2,0,0,0,.9-.7,2.38,2.38,0,0,0,.45-1.11,2.34,2.34,0,0,0-.12-1.18,2.23,2.23,0,0,0-.67-.93A2.08,2.08,0,0,0,990.26,880.25Z" transform="translate(-922.24 -737.88)"/><path class="cls-1" d="M981.05,876.11l-.83,9.28-2.44-.9.59-5.42-3.35,4.4-2.14-.8.33-5.53-3.07,4.52-2.41-.89,5.44-7.58,2.47.92-.34,5.42,3.26-4.34Z" transform="translate(-922.24 -737.88)"/><path class="cls-1" d="M968.26,870.77l-4.84,7.58-2.32-1.48.33-.52a3.86,3.86,0,0,1-2.45-.64,3.67,3.67,0,0,1-1.33-1.39,3.3,3.3,0,0,1-.38-1.75,3.76,3.76,0,0,1,.63-1.84l3-4.67,2.32,1.48-2.78,4.35a1.52,1.52,0,0,0,.5,2.26,2.2,2.2,0,0,0,.88.34,2,2,0,0,0,.87-.08l3.27-5.13Z" transform="translate(-922.24 -737.88)"/><path class="cls-1" d="M943.66,846.72a9,9,0,0,1,1,2.17,5.81,5.81,0,0,1,.22,2.07l-2.26-.16a7.72,7.72,0,0,0-.17-1.71,4.46,4.46,0,0,0-.51-1.29,2.55,2.55,0,0,0-.73-.83.59.59,0,0,0-.65-.07.49.49,0,0,0-.24.4,1.6,1.6,0,0,0,.16.72l.69,1.67a3.59,3.59,0,0,1,.3,2.21,2.39,2.39,0,0,1-1.17,1.53,2.62,2.62,0,0,1-1.59.42,2.92,2.92,0,0,1-1.55-.63,5.63,5.63,0,0,1-1.37-1.59,7.28,7.28,0,0,1-.78-1.81,6.6,6.6,0,0,1-.23-2l2.19.21a6.23,6.23,0,0,0,.19,1.51,4.71,4.71,0,0,0,.52,1.24,1.73,1.73,0,0,0,.59.63.52.52,0,0,0,.57,0,.53.53,0,0,0,.25-.43,2,2,0,0,0-.22-.83l-.69-1.67a3.63,3.63,0,0,1-.31-2.2,2.32,2.32,0,0,1,1.12-1.52,2.43,2.43,0,0,1,1.61-.36,3.66,3.66,0,0,1,1.67.67A5.22,5.22,0,0,1,943.66,846.72Z" transform="translate(-922.24 -737.88)"/><path class="cls-1" d="M938.57,836.3a4.78,4.78,0,0,1,.32,2.48,4.58,4.58,0,0,1-2.91,3.66,4.53,4.53,0,0,1-2.45.28,4.68,4.68,0,0,1-3.64-3,5.16,5.16,0,0,1-.37-2.12,4.66,4.66,0,0,1,.52-2l2.25.92a3.27,3.27,0,0,0-.38,1.19,2.34,2.34,0,0,0,.17,1.1,1.87,1.87,0,0,0,.67.89,2.07,2.07,0,0,0,1,.4,2.55,2.55,0,0,0,1.2-.18,2.42,2.42,0,0,0,1-.69,2.08,2.08,0,0,0,.47-1,2,2,0,0,0-.12-1.13,2.38,2.38,0,0,0-.6-.88,3.34,3.34,0,0,0-1-.59l1-2.14a4.58,4.58,0,0,1,1.75,1.11A5.12,5.12,0,0,1,938.57,836.3Z" transform="translate(-922.24 -737.88)"/><path class="cls-1" d="M936.22,829.76l-8.78,1.93-.59-2.69.88-.19a2.93,2.93,0,0,1-1-.84,3.15,3.15,0,0,1-.56-1.23,2,2,0,0,1,0-1.06l2.34-.52a2.62,2.62,0,0,0-.07.64,3.34,3.34,0,0,0,.08.7,2.53,2.53,0,0,0,.55,1.11,2.47,2.47,0,0,0,1,.69l5.58-1.23Z" transform="translate(-922.24 -737.88)"/><path class="cls-1" d="M934.35,816.26a5,5,0,0,1-.5,2.51,4.67,4.67,0,0,1-1.58,1.83,4.43,4.43,0,0,1-2.33.77,4.55,4.55,0,0,1-2.4-.52,4.73,4.73,0,0,1-1.77-1.67,5.22,5.22,0,0,1-.25-4.95,4.65,4.65,0,0,1,1.59-1.84,4.63,4.63,0,0,1,4.73-.24,4.75,4.75,0,0,1,1.76,1.66A5,5,0,0,1,934.35,816.26Zm-2.38.12a2.09,2.09,0,0,0-.36-1.11,2.29,2.29,0,0,0-.87-.73,2.16,2.16,0,0,0-1.16-.23,2.35,2.35,0,0,0-1.15.34,2.25,2.25,0,0,0-.78.84,2.05,2.05,0,0,0-.25,1.12,2.09,2.09,0,0,0,.36,1.1,2.34,2.34,0,0,0,.87.75,2.44,2.44,0,0,0,2.31-.12,2.3,2.3,0,0,0,.78-.83A2.09,2.09,0,0,0,932,816.38Z" transform="translate(-922.24 -737.88)"/><path class="cls-1" d="M934.25,807.92l-11.84-1.12-.17-2.78,12.27,1.16Z" transform="translate(-922.24 -737.88)"/><path class="cls-1" d="M935.09,801.21l-11.67-2.32.12-2.79,12.09,2.41Z" transform="translate(-922.24 -737.88)"/><path class="cls-1" d="M940.09,785.58a4.44,4.44,0,0,1-1.54,1.85,4.66,4.66,0,0,1-2.21.8,4.55,4.55,0,0,1-2.38-.43,4.53,4.53,0,0,1-2.65-3.77,4.66,4.66,0,0,1,.44-2.41,4.73,4.73,0,0,1,.65-1,4.35,4.35,0,0,1,.86-.8l-3.07-1.42.77-2.68,11.18,5.19L941,783.35l-.6-.28A4,4,0,0,1,940.09,785.58Zm-1.93-1.41a2.94,2.94,0,0,0,.28-1,2.24,2.24,0,0,0-.13-1l-2.85-1.33a2.49,2.49,0,0,0-.83.56,3.11,3.11,0,0,0-.6.88,2.37,2.37,0,0,0-.24,1.21,2.18,2.18,0,0,0,.39,1.11,2.13,2.13,0,0,0,.92.78,2.17,2.17,0,0,0,1.19.2,2.22,2.22,0,0,0,1.1-.42A2.45,2.45,0,0,0,938.16,784.17Z" transform="translate(-922.24 -737.88)"/><path class="cls-1" d="M946.83,774.14a5,5,0,0,1-2,1.64,4.7,4.7,0,0,1-2.38.43,4.46,4.46,0,0,1-2.29-.87,4.41,4.41,0,0,1-1.54-1.92,4.68,4.68,0,0,1-.33-2.4,5.05,5.05,0,0,1,1-2.38,5.11,5.11,0,0,1,2-1.64,4.75,4.75,0,0,1,2.4-.42,4.49,4.49,0,0,1,2.29.87,4.43,4.43,0,0,1,1.53,1.92,4.66,4.66,0,0,1,.32,2.4A5,5,0,0,1,946.83,774.14Zm-1.92-1.4a2.06,2.06,0,0,0,.41-1.09,2.3,2.3,0,0,0-.2-1.12,2.52,2.52,0,0,0-1.87-1.36,2.29,2.29,0,0,0-1.13.16,2.12,2.12,0,0,0-.91.72,2.18,2.18,0,0,0-.2,2.2,2.26,2.26,0,0,0,.77.92,2.29,2.29,0,0,0,1.1.44,2.18,2.18,0,0,0,1.13-.15A2.09,2.09,0,0,0,944.91,772.74Z" transform="translate(-922.24 -737.88)"/><path class="cls-1" d="M952.9,766.52l-7.83-5.06,1.94-1.74,4.51,3.06-2.32-5,1.7-1.52,4.74,2.87-2.57-4.82,1.92-1.71,4.16,8.34-2,1.76-4.64-2.83,2.32,4.9Z" transform="translate(-922.24 -737.88)"/><path class="cls-1" d="M963.57,757.71l-4.46-7.81,2.39-1.37.3.54a3.93,3.93,0,0,1,1.71-1.88,3.8,3.8,0,0,1,1.85-.53,3.32,3.32,0,0,1,1.73.48,3.78,3.78,0,0,1,1.33,1.41l2.75,4.81-2.39,1.37-2.56-4.49a1.61,1.61,0,0,0-1-.81,1.59,1.59,0,0,0-1.25.21,2.16,2.16,0,0,0-.71.62,2.11,2.11,0,0,0-.34.8l3,5.28Z" transform="translate(-922.24 -737.88)"/></svg>