<?xml version="1.0" encoding="utf-8"?>
<!-- Generator: Adobe Illustrator 28.0.0, SVG Export Plug-In . SVG Version: 6.00 Build 0)  -->
<svg version="1.1" xmlns="http://www.w3.org/2000/svg" xmlns:xlink="http://www.w3.org/1999/xlink" x="0px" y="0px"
	 viewBox="0 0 191.5 1303.3" style="enable-background:new 0 0 191.5 1303.3;" xml:space="preserve">
<style type="text/css">
	.st0{fill:#F0F0F0;}
	.st1{fill:#333333;}
	.st2{fill:#FFFFFF;}
	.st3{fill:#FF7212;}
	.st4{fill:none;stroke:#000000;stroke-width:0.7765;stroke-miterlimit:10;}
	.st5{fill:none;stroke:#333333;stroke-width:1.1304;stroke-miterlimit:10;}
	.st6{fill:url(#SVGID_1_);}
	.st7{fill:url(#SVGID_00000023243295855921576810000017330703559832202414_);}
	.st8{clip-path:url(#SVGID_00000062185898720725510560000015781966217696494504_);}
	
		.st9{clip-path:url(#SVGID_00000062185898720725510560000015781966217696494504_);fill:url(#SVGID_00000010307749488678028050000010395011256509825440_);}
	.st10{fill:none;stroke:#000000;stroke-miterlimit:10;}
	.st11{opacity:5.000000e-02;}
	.st12{fill:url(#SVGID_00000132770352035624719630000011678199482222701242_);}
	.st13{clip-path:url(#SVGID_00000160185643432273937130000006002110366913884568_);}
	.st14{clip-path:url(#SVGID_00000018942804895819880360000004380588512047839929_);}
	.st15{clip-path:url(#SVGID_00000099662269545662548780000007492229010808420739_);}
	.st16{clip-path:url(#SVGID_00000036232773069766174150000014702704459278504327_);fill:#D1DFE8;}
	
		.st17{clip-path:url(#SVGID_00000036232773069766174150000014702704459278504327_);fill:url(#SVGID_00000022521045340716013790000016104195033887477165_);}
	.st18{clip-path:url(#SVGID_00000036232773069766174150000014702704459278504327_);}
	.st19{clip-path:url(#SVGID_00000014615499888601439740000001754127538254448282_);}
	.st20{clip-path:url(#SVGID_00000003100582915753578000000012128041466574149042_);}
	.st21{clip-path:url(#SVGID_00000137117369100987432350000000960949638440285341_);}
	.st22{opacity:0.9;}
	.st23{fill:#FFD053;}
	.st24{fill:#FFC448;}
	.st25{fill:#FFD77A;}
	.st26{fill:#2C2C2C;}
	.st27{fill:#71523F;}
	.st28{fill:#FF6669;}
	.st29{fill:#FF4141;}
	.st30{fill:#FF3636;}
	.st31{fill:#FF6363;}
	.st32{fill:#438FD9;}
	.st33{fill:#0089CE;}
	.st34{fill:#75ADE4;}
	.st35{fill:#654735;}
	.st36{fill:#FFA7AD;}
	.st37{fill:#FF2223;}
	.st38{clip-path:url(#SVGID_00000065048379249505063640000004708048964847629229_);}
	.st39{fill:url(#SVGID_00000049940359882736644390000010355561821850755514_);}
	.st40{fill:url(#SVGID_00000046319252238018746070000009042204842767539117_);}
	.st41{fill:url(#SVGID_00000054257827388464170220000000675775871137301929_);}
	.st42{fill:url(#SVGID_00000132784014274048733000000000823730420999030677_);}
	.st43{fill:url(#SVGID_00000104690216369162753490000017754274746887703481_);}
	.st44{opacity:0.2;clip-path:url(#SVGID_00000183970095095915193390000015360638494533290919_);fill:#333333;}
	.st45{clip-path:url(#SVGID_00000163050986259143472500000015022048564732349853_);}
	.st46{opacity:0.2;clip-path:url(#SVGID_00000163050986259143472500000015022048564732349853_);fill:#333333;}
	.st47{opacity:0.2;clip-path:url(#SVGID_00000076601341428718705230000001349532772555226783_);fill:#333333;}
	.st48{fill:none;stroke:#DCDCDC;stroke-width:16;stroke-miterlimit:10;}
	.st49{fill:#464644;}
	.st50{fill:url(#SVGID_00000145031994903530969480000000563177665162319800_);}
	
		.st51{clip-path:url(#SVGID_00000011029498366725510010000009912380287660125359_);fill:url(#SVGID_00000033367095991313074510000002532373325115641740_);}
	.st52{fill:url(#SVGID_00000097461825543808040990000011626906162315207864_);}
	.st53{fill:url(#SVGID_00000001652456776926732840000016380064874916130200_);}
	.st54{fill:url(#SVGID_00000090273649363608356760000015876437673932467895_);}
	.st55{fill:url(#SVGID_00000162314695848918095440000015290716055868871041_);}
	.st56{fill:#696969;}
	.st57{fill:url(#SVGID_00000112609706094603413720000004532946666615039655_);}
	.st58{opacity:0.3;fill:none;stroke:#FFFFFF;stroke-miterlimit:10;}
	.st59{clip-path:url(#SVGID_00000153692663841276237410000014121906269048999301_);}
	.st60{fill:none;stroke:#333333;stroke-width:2.6428;stroke-linecap:round;stroke-linejoin:round;stroke-miterlimit:10;}
	.st61{fill:none;stroke:#333333;stroke-width:1.6744;stroke-linecap:round;stroke-linejoin:round;stroke-miterlimit:10;}
	
		.st62{clip-path:url(#SVGID_00000108293697022077025140000014134677840656328853_);fill:url(#SVGID_00000042703011287258690440000001308839016834374294_);}
	
		.st63{clip-path:url(#SVGID_00000108293697022077025140000014134677840656328853_);fill:url(#SVGID_00000020370725156628311190000008335608406289628094_);}
	.st64{fill:url(#SVGID_00000062907581703669414170000010763400641857740735_);}
	.st65{fill:url(#SVGID_00000154412951833850251600000009987901523515333814_);}
	.st66{fill:url(#SVGID_00000055683100689060228740000007535651503313698732_);}
	.st67{fill:url(#SVGID_00000116233762367923666950000013276093884284635308_);}
	.st68{fill:url(#SVGID_00000183935345366362899380000003314167669146688917_);}
	.st69{fill:url(#SVGID_00000058557592499517925580000009780120604797082541_);}
	.st70{fill:url(#SVGID_00000029009727297170711470000005665947232483939212_);}
	.st71{fill:url(#SVGID_00000044864994196235788640000003860673207326427583_);}
	.st72{fill:url(#SVGID_00000034076742502261135820000001428687018165459642_);}
	.st73{fill:#8C8D8C;}
	.st74{fill:url(#SVGID_00000031171384054516535390000010441545308653681059_);}
	.st75{fill:url(#SVGID_00000091003753715340973090000006773929887254121647_);}
	.st76{fill:url(#SVGID_00000139982746665020139080000013176750759875559844_);}
	.st77{fill:url(#SVGID_00000176024365021361831380000010555590795650973355_);}
	.st78{fill:url(#SVGID_00000134953312712434208740000012691043845686365854_);}
	.st79{fill:url(#SVGID_00000019660354054906706610000000976593250502370435_);}
	.st80{fill:url(#SVGID_00000112632133288412098320000005719492348652690589_);}
	.st81{fill:url(#SVGID_00000134231040304625566350000004958662882807695787_);}
	.st82{fill:url(#SVGID_00000163073904530940613610000011169798207706223496_);}
	.st83{fill:url(#SVGID_00000114066200265877132380000011026105530329080495_);}
	.st84{fill:url(#SVGID_00000021114434700742774860000008080304272703446688_);}
	.st85{fill:url(#SVGID_00000090279157396934527100000017260662537713562755_);}
	.st86{fill:url(#SVGID_00000014628671336250037200000017672534309743590326_);}
	.st87{fill:url(#SVGID_00000021103072832407233650000016810959239991398299_);}
	.st88{fill:url(#SVGID_00000044144556909802054500000012260949233540140421_);}
	.st89{fill:url(#SVGID_00000023983421767423678210000008256121448302592641_);}
	.st90{fill:url(#SVGID_00000142894584320215363830000015921362027829312922_);}
	.st91{fill:url(#SVGID_00000047060725727166411880000009013689880571550893_);}
	.st92{fill:url(#SVGID_00000158007573271030522920000004254923522059809981_);}
	.st93{fill:url(#SVGID_00000027567716938830740170000007550049978237245081_);}
	.st94{fill:url(#SVGID_00000162320285641868246700000012172660876622397061_);}
	.st95{fill:url(#SVGID_00000065760657549053253640000001409737616010254980_);}
	.st96{fill:url(#SVGID_00000103947436423616511600000008397724970927684255_);}
	.st97{fill:url(#SVGID_00000098939288791684573820000006349140223979270529_);}
	.st98{fill:url(#SVGID_00000147915364472438965200000015998054638339705229_);}
	.st99{fill:url(#SVGID_00000039824644221491405250000002131797726218848948_);}
	.st100{fill:url(#SVGID_00000170980531421773510720000001403699900996467376_);}
	.st101{fill:url(#SVGID_00000027574447805338011180000000921582913813189561_);}
	.st102{fill:url(#SVGID_00000012474633027554928800000004744280828418970294_);}
	.st103{fill:url(#SVGID_00000111895137044143145440000011531021082403219126_);}
	.st104{fill:url(#SVGID_00000163075124583136098990000014999547663591920293_);}
	.st105{fill:url(#SVGID_00000167379851631895872230000000724228376157691822_);}
	.st106{fill:url(#SVGID_00000042006812837908764810000008750310338499474859_);}
	.st107{fill:url(#SVGID_00000078037913536519723520000009550943787892483741_);}
	.st108{fill:url(#SVGID_00000048490178844515377180000016989703089068746927_);}
	.st109{fill:url(#SVGID_00000146458336413229188250000010217820865956988054_);}
	.st110{fill:url(#SVGID_00000140736542503147665390000016254968045497856160_);}
	.st111{fill:url(#SVGID_00000153676174940487899660000001165053917043330225_);}
	.st112{fill:url(#SVGID_00000080190417020137068190000017938070926648019876_);}
	.st113{fill:url(#SVGID_00000158727900579709817260000011646977071312114829_);}
	.st114{fill:url(#SVGID_00000047052722017817545960000006497004500912073910_);}
	.st115{fill:url(#SVGID_00000080886412668676191480000000543112832355555474_);}
	.st116{fill:url(#SVGID_00000016763318505614417450000013736301507416606894_);}
	.st117{fill:url(#SVGID_00000070834679527753001420000002497983784089426621_);}
	.st118{fill:url(#SVGID_00000006666286920263276880000007307446005401702582_);}
	.st119{fill:url(#SVGID_00000049179356091978434830000001617920538276148367_);}
	.st120{fill:url(#SVGID_00000083780144236416541700000017763605699213165451_);}
	.st121{fill:url(#SVGID_00000006687814461662646280000014874622952141786814_);}
	.st122{fill:url(#SVGID_00000110449571945658400180000009771486772914250131_);}
	.st123{fill:url(#SVGID_00000039117367007598481420000000201868565052286134_);}
	.st124{fill:url(#SVGID_00000070120394714134077030000001935379817479894426_);}
	.st125{fill:url(#SVGID_00000145766758569014982970000007199924121052723382_);}
	.st126{fill:url(#SVGID_00000176023810432189693780000013691688079757392795_);}
	.st127{fill:url(#SVGID_00000013176097892196719120000007487457978768271254_);}
	.st128{fill:url(#SVGID_00000019670515606900124630000005626371126858091138_);}
	.st129{fill:url(#SVGID_00000160190641789810485090000015997429935839827347_);}
	.st130{fill:url(#SVGID_00000039818183250725298110000011761681731161703612_);}
	.st131{fill:url(#SVGID_00000010281119292830560500000007763884976695222154_);}
	.st132{fill:url(#SVGID_00000072963533508636617490000000450211886021950637_);}
	.st133{fill:url(#SVGID_00000116923096148336587490000007549892012742520205_);}
	.st134{fill:url(#SVGID_00000170266551962591241210000004054626750066883263_);}
	.st135{fill:url(#SVGID_00000011004834343737163280000001865739500520490659_);}
	.st136{fill:url(#SVGID_00000100361035368776625390000007595633545127690372_);}
	.st137{fill:url(#SVGID_00000000205389033320964260000006307342304735037374_);}
	.st138{fill:url(#SVGID_00000026852908236938631530000012670477982380542373_);}
	.st139{fill:url(#SVGID_00000049195383815645819890000013732471464317720492_);}
	.st140{fill:url(#SVGID_00000161610550892708132070000007019076435060889758_);}
	.st141{fill:url(#SVGID_00000009551123201704604600000005799501568729647251_);}
	.st142{fill:url(#SVGID_00000039820935997157756040000006609381785314660786_);}
	.st143{fill:url(#SVGID_00000034796068547172053070000014217855586154163596_);}
	.st144{fill:url(#SVGID_00000122703296806247149530000001685935685305859983_);}
	.st145{fill:url(#SVGID_00000033332694815327866790000016621766207180504758_);}
	.st146{fill:url(#SVGID_00000093858664077177306750000000864801629432161702_);}
	.st147{fill:url(#SVGID_00000016764937840900500730000004574955317481758608_);}
	.st148{fill:url(#SVGID_00000047057792056357315460000005647714052534715303_);}
	.st149{fill:url(#SVGID_00000056399389112192559480000017982623607402218384_);}
	.st150{fill:url(#SVGID_00000144333170462753888290000009456171470794063275_);}
	.st151{fill:url(#SVGID_00000041269640542480419670000010424585240565626529_);}
	.st152{fill:url(#SVGID_00000106842642541415484110000006429994509316414391_);}
	.st153{fill:url(#SVGID_00000067207943659928509060000013466530835973112760_);}
	.st154{fill:url(#SVGID_00000083057047424380574880000018183376150579321265_);}
	.st155{fill:url(#SVGID_00000121248667729385446250000014729023431081608078_);}
	.st156{fill:url(#SVGID_00000115493467234607999530000014422260624540217484_);}
	.st157{fill:url(#SVGID_00000118387982544415358180000010467969792057230747_);}
	.st158{fill:url(#SVGID_00000147936851797581466720000015756720027460291757_);}
	.st159{fill:url(#SVGID_00000008843043695089717480000009963485631355259059_);}
	.st160{fill:url(#SVGID_00000183223899070045297660000003743641358440749459_);}
	.st161{fill:url(#SVGID_00000112612325082449355850000000407645505146095538_);}
	.st162{fill:url(#SVGID_00000172429910344856770090000011177064135075713957_);}
	.st163{fill:url(#SVGID_00000090998299879900088220000015317495213357860526_);}
	.st164{fill:url(#SVGID_00000115486055010559482390000014177549902241594001_);}
	.st165{fill:url(#SVGID_00000052103302488662068630000003927892027549067423_);}
	.st166{fill:url(#SVGID_00000166657447598141604850000003899264002338419871_);}
	.st167{fill:url(#SVGID_00000085227170584360319840000004801228870323577729_);}
	.st168{fill:url(#SVGID_00000095339568641968558210000000029273944213075644_);}
	.st169{fill:url(#SVGID_00000107579297940329756370000003355109462638302385_);}
	.st170{fill:url(#SVGID_00000062912339854435055470000011914118264083240879_);}
	.st171{fill:url(#SVGID_00000020374898485583988130000012544845428458839177_);}
	.st172{fill:url(#SVGID_00000165213714668975703550000006728252067096717962_);}
	.st173{fill:url(#SVGID_00000161592910695392007660000006223590639646728627_);}
	.st174{fill:url(#SVGID_00000136403315650998784240000009312799831953586075_);}
	.st175{fill:url(#SVGID_00000099643820877918459890000017120219377925248439_);}
	.st176{fill:url(#SVGID_00000083077270151609296660000009032894797980023961_);}
	.st177{fill:url(#SVGID_00000067229457671406490460000006948913102781443257_);}
	.st178{fill:url(#SVGID_00000039844358328870543060000005715820217462889094_);}
	.st179{fill:url(#SVGID_00000074415173814039505750000007237264260205746870_);}
	.st180{fill:url(#SVGID_00000058588335420601810870000016083130634036766638_);}
	.st181{fill:url(#SVGID_00000149355209323908329890000005540846032303675552_);}
	.st182{fill:url(#SVGID_00000027600378758320381130000005239145368302523808_);}
	.st183{fill:url(#SVGID_00000018208765604250532850000017130310150742745779_);}
	.st184{fill:url(#SVGID_00000006666107351196006610000000746538497058148776_);}
	.st185{fill:url(#SVGID_00000174579642202680333010000013303344948637901745_);}
	.st186{fill:url(#SVGID_00000013874217687625871640000011405129208193519532_);}
	.st187{fill:url(#SVGID_00000029765275500390946650000009149278627819190680_);}
	.st188{fill:url(#SVGID_00000122719484746039153970000000136454526118368134_);}
	.st189{fill:url(#SVGID_00000052815107456050368110000013970139610279011489_);}
	.st190{fill:url(#SVGID_00000015340148767170472400000000530756932153250734_);}
	.st191{fill:url(#SVGID_00000098200704385115814030000002365294374303048090_);}
	.st192{fill:url(#SVGID_00000164487130346823207290000015561457192447119783_);}
	.st193{fill:url(#SVGID_00000011001451383694178090000007588602158640634284_);}
	.st194{fill:url(#SVGID_00000064338138917659029700000001080378189613262472_);}
	.st195{fill:url(#SVGID_00000041987703912260852800000015430467761804092319_);}
	.st196{fill:url(#SVGID_00000052804864226054477470000001435153641139132816_);}
	.st197{fill:url(#SVGID_00000136398893880119650500000010417131779332928642_);}
	.st198{fill:url(#SVGID_00000005982947899719552330000003484937739197636009_);}
	.st199{fill:url(#SVGID_00000104687994241796099590000007816187038692837795_);}
	.st200{fill:url(#SVGID_00000106841596997787424250000013841418869578934695_);}
	.st201{fill:url(#SVGID_00000167374017287061739580000012316775252682297786_);}
	.st202{fill:url(#SVGID_00000173130422694663863600000011745063780241313723_);}
	.st203{fill:url(#SVGID_00000022531951520976011220000011940555731895692941_);}
	.st204{fill:url(#SVGID_00000180346340349473475520000005231844491098485928_);}
	.st205{fill:url(#SVGID_00000036213092629002820410000014249670948343028365_);}
	.st206{fill:url(#SVGID_00000031191506817026286280000000657613453359690420_);}
	.st207{fill:url(#SVGID_00000101795891690231187250000007864786627923640504_);}
	.st208{fill:url(#SVGID_00000098910724275010077940000017230610524371574190_);}
	.st209{fill:url(#SVGID_00000128483472777266779520000011999461990507638162_);}
	.st210{fill:url(#SVGID_00000007420331787639445370000001296212908558317498_);}
	.st211{fill:url(#SVGID_00000171690274952361152020000000612543898529688479_);}
	.st212{fill:url(#SVGID_00000138549225404840295480000007317390887454754218_);}
	.st213{fill:url(#SVGID_00000010310673056713473570000011196298912801100200_);}
	.st214{fill:url(#SVGID_00000153672002186764615660000016542997326939843773_);}
	.st215{fill:url(#SVGID_00000067933717569638994960000006397354432610398354_);}
	.st216{fill:url(#SVGID_00000172426226823737796000000000468096357546649233_);}
	.st217{fill:url(#SVGID_00000135683368353473437630000014862793038659817100_);}
	.st218{fill:url(#SVGID_00000124842276249796266750000006427303400554141369_);}
	.st219{fill:url(#SVGID_00000048501411136357670850000003980871014327626387_);}
	.st220{fill:url(#SVGID_00000125599913112940805740000014714643623667336375_);}
	.st221{fill:url(#SVGID_00000033329315362582804230000008502508014017659523_);}
	.st222{fill:url(#SVGID_00000141434191742324020200000015460936612045023119_);}
	.st223{fill:url(#SVGID_00000065768865355893683270000014725406746554093743_);}
	.st224{fill:url(#SVGID_00000147188237862850667580000015617678969664093629_);}
	.st225{fill:url(#SVGID_00000039131104483021286680000011562647177494123186_);}
	.st226{fill:url(#SVGID_00000113342191161585059290000009313554566188697755_);}
	.st227{fill:url(#SVGID_00000017517917379169509440000016061931795350272696_);}
	.st228{fill:url(#SVGID_00000145046535359020389210000005177443189823571843_);}
	.st229{fill:url(#SVGID_00000132055777322960015480000018309664710512730762_);}
	.st230{fill:url(#SVGID_00000178900896133146383060000016315144396821572486_);}
	.st231{fill:url(#SVGID_00000087405733804069432490000001865505147087895707_);}
	.st232{fill:url(#SVGID_00000095301486436302823130000017288498065998092428_);}
	.st233{fill:url(#SVGID_00000096025678271437559650000007947074795489301918_);}
	.st234{fill:url(#SVGID_00000099648545810732609130000005943523790916374681_);}
	.st235{fill:url(#SVGID_00000178189010989631094540000014717329259513330093_);}
	.st236{fill:none;stroke:#FF7212;stroke-miterlimit:10;}
	.st237{fill:url(#SVGID_00000029758264299048331100000010780729172358549388_);}
	.st238{fill:url(#SVGID_00000144321423790879865800000002819801400008120709_);}
	.st239{fill:url(#SVGID_00000101079710874694769640000015223282834667287699_);}
	.st240{fill:url(#SVGID_00000173139566457700774030000002980218992161964676_);}
	.st241{fill:url(#SVGID_00000115480651879036235270000014774076737152369284_);}
	.st242{fill:none;stroke:#464644;stroke-width:2.1129;stroke-linecap:round;stroke-linejoin:round;stroke-miterlimit:10;}
	.st243{fill:none;stroke:#464644;stroke-width:2.5;stroke-linecap:round;stroke-linejoin:round;stroke-miterlimit:10;}
	.st244{fill:none;stroke:#464644;stroke-width:2;stroke-linecap:round;stroke-linejoin:round;stroke-miterlimit:10;}
	.st245{fill:#464644;stroke:#464644;stroke-width:0.5;stroke-linecap:round;stroke-linejoin:round;stroke-miterlimit:10;}
	.st246{fill:#464644;stroke:#464644;stroke-linecap:round;stroke-linejoin:round;stroke-miterlimit:10;}
	.st247{fill:#464644;stroke:#464644;stroke-miterlimit:10;}
	.st248{clip-path:url(#SVGID_00000165957334155626364680000013473081381298120086_);}
	.st249{fill:none;stroke:#464644;stroke-width:2.54;stroke-linecap:round;stroke-linejoin:round;stroke-miterlimit:10;}
</style>
<g id="圖層_2">
	<g id="圖層_4">
	</g>
	<g class="st11">
		<path class="st1" d="M2.5,77.6h137V0h38v213.5h-38v-77.6H2.5V77.6z"/>
		<path class="st1" d="M0,285c0-18.3,3-34.8,9.1-49.5c6.1-14.7,14.3-26.3,24.6-34.9c10.3-8.6,21.9-12.9,34.8-12.9
			c12.8,0,24.5,4.3,34.9,12.9c10.4,8.6,18.7,20.2,24.8,34.9c6.1,14.7,9.1,31.2,9.1,49.5s-3,34.8-9.1,49.5
			c-6.1,14.7-14.3,26.3-24.8,34.9c-10.4,8.6-22,12.9-34.9,12.9c-12.8,0-24.4-4.3-34.8-12.9c-10.3-8.6-18.5-20.2-24.6-34.9
			C3,319.8,0,303.3,0,285z M35,285c0,8.4,1.5,15.8,4.5,22.4c3,6.5,7,11.7,12.1,15.6c5.1,3.8,10.7,5.8,16.9,5.8
			c6.3,0,12-1.9,17.1-5.8c5.1-3.8,9.1-9.1,12.1-15.8c3-6.7,4.5-14.1,4.5-22.2s-1.5-15.5-4.5-22.2c-3-6.7-7-11.9-12.1-15.8
			c-5.1-3.8-10.8-5.8-17.1-5.8c-6.2,0-11.8,1.9-16.9,5.8c-5.1,3.8-9.1,9.1-12.1,15.8C36.5,269.5,35,276.9,35,285z"/>
		<path class="st1" d="M0,478.1c0-14,2.2-26.4,6.8-37.1c4.5-10.7,10.8-19.1,18.9-25.2c8.1-6.1,17.3-9.1,27.6-9.1h81.5v54.9h-76
			c-7.2,0-13,3-17.4,9c-4.4,6-6.6,13.8-6.6,23.6c0,7,0.9,13.2,2.8,18.6c1.8,5.4,4.4,9.9,7.8,13.6h89.5v54.9H2.5v-54.9h9
			C3.8,512.7,0,496.7,0,478.1z"/>
		<path class="st1" d="M2.5,615h132.2v54.9h-13.2c5.3,5.9,9.4,12.8,12.1,20.7c2.8,7.9,4.1,16.7,4.1,26.4c-0.2,9.7-1.2,16.6-3.2,20.7
			H99.2c1.3-3.6,2.3-7.7,3-12.2c0.7-4.5,1-9.1,1-13.9c0-8.6-1.5-16.6-4.4-23.9c-2.9-7.3-7-13.3-12.4-17.8h-84V615z"/>
		<path class="st1" d="M2.5,761.4h132.2v54.9H2.5V761.4z M147,788.9c0-8.4,2.2-15.5,6.5-21.3c4.3-5.9,9.6-8.8,15.8-8.8
			c6.2,0,11.4,2.9,15.8,8.8c4.3,5.9,6.5,13,6.5,21.3c0,8.4-2.2,15.5-6.5,21.3c-4.3,5.9-9.6,8.8-15.8,8.8c-6.2,0-11.4-2.9-15.8-8.8
			C149.2,804.4,147,797.2,147,788.9z"/>
		<path class="st1" d="M0,921c0-16.9,1.5-32.6,4.4-47.1c2.9-14.5,7.2-27,12.9-37.6l27.2,26.1c-5,11.3-8.6,21.6-10.9,30.8
			c-2.2,9.3-3.4,18.4-3.4,27.4c0,9,1,16.2,2.9,21.5c1.9,5.3,4.5,8,7.6,8c2.5,0,4.5-1.5,6.1-4.4c1.6-2.9,2.7-7.6,3.4-13.9l4-35.6
			c2-17.8,6.4-31.5,13.1-40.8c6.8-9.4,15.5-14.1,26.4-14.1c9,0,16.7,3.1,23.1,9.3c6.4,6.2,11.3,15.1,14.8,26.6
			c3.4,11.5,5.1,25.3,5.1,41.3c0,13.1-1.3,26.1-4,39c-2.7,12.9-6.7,24.8-12,35.9l-26-26.1c4.2-9.7,7.2-19,9.1-27.8
			c1.9-8.8,2.9-17.6,2.9-26.4c0-7-0.9-12.7-2.6-16.9c-1.8-4.3-4-6.4-6.9-6.4c-2.7,0-4.8,1.6-6.4,4.7c-1.6,3.2-2.8,8.6-3.6,16.3
			l-4,35.6c-1.8,17.6-6.1,31.2-12.9,40.8c-6.8,9.6-15.3,14.4-25.6,14.4c-8.7,0-16.3-3.5-23-10.5c-6.7-7-12-16.6-15.9-28.6
			C2,950.5,0,936.6,0,921z"/>
		<path class="st1" d="M2.5,1022.7h132.2v54.9h-8.5c7.3,12.7,11,27.6,11,44.7c0,11.3-1.6,21.5-4.8,30.5c-3.2,9-7.7,16.6-13.5,22.7
			c5.8,7.2,10.3,15.8,13.5,25.8c3.2,9.9,4.8,20.8,4.8,32.5c0,13.6-2.2,25.5-6.8,35.9c-4.5,10.4-10.8,18.6-18.8,24.6
			c-8,6-17.2,9-27.8,9H2.5v-54.9h76c7.3,0,13.2-2.7,17.5-8c4.3-5.3,6.5-12.4,6.5-21.2c0-6.1-0.8-11.6-2.5-16.6
			c-1.7-5-4.2-9.3-7.5-12.9c-1.3,0.2-2.7,0.4-4.1,0.5c-1.4,0.1-2.9,0.2-4.4,0.2H2.5v-54.9h76c7.3,0,13.2-2.7,17.5-8
			c4.3-5.3,6.5-12.4,6.5-21.2c0-6.1-0.8-11.6-2.4-16.4c-1.6-4.9-4-9-7.1-12.4H2.5V1022.7z"/>
	</g>
</g>
<g id="圖層_1">
</g>
<g id="圖層_3">
</g>
</svg>
